<?xml version="1.0" encoding="UTF-8" standalone="no"?>
<!-- Created with Inkscape (http://www.inkscape.org/) -->

<svg
   xmlns:dc="http://purl.org/dc/elements/1.1/"
   xmlns:cc="http://creativecommons.org/ns#"
   xmlns:rdf="http://www.w3.org/1999/02/22-rdf-syntax-ns#"
   xmlns:svg="http://www.w3.org/2000/svg"
   xmlns="http://www.w3.org/2000/svg"
   xmlns:sodipodi="http://sodipodi.sourceforge.net/DTD/sodipodi-0.dtd"
   xmlns:inkscape="http://www.inkscape.org/namespaces/inkscape"
   id="svg2"
   version="1.1"
   inkscape:version="0.48.1 r9760"
   width="780.42175"
   height="1053.4967"
   xml:space="preserve"
   sodipodi:docname="razzo.svg"><metadata
     id="metadata8"><rdf:RDF><cc:Work
         rdf:about=""><dc:format>image/svg+xml</dc:format><dc:type
           rdf:resource="http://purl.org/dc/dcmitype/StillImage" /><dc:title></dc:title></cc:Work></rdf:RDF></metadata><defs
     id="defs6"><filter
       id="filter4733"
       inkscape:label="Translucent"
       inkscape:menu="Bevels"
       inkscape:menu-tooltip="Illuminated translucent plastic or glass effect"
       x="-0.25"
       y="-0.25"
       width="1.5"
       height="1.5"
       color-interpolation-filters="sRGB"><feBlend
         id="feBlend4735"
         in2="SourceGraphic"
         mode="screen"
         result="result1" /><feGaussianBlur
         id="feGaussianBlur4737"
         stdDeviation="8"
         result="result6" /><feComposite
         id="feComposite4739"
         in2="SourceGraphic"
         operator="xor"
         in="result6" /><feGaussianBlur
         id="feGaussianBlur4741"
         stdDeviation="5"
         result="result2" /><feComposite
         id="feComposite4743"
         in2="result1"
         operator="atop"
         result="result92" /><feComposite
         id="feComposite4745"
         in2="result92"
         operator="xor"
         in="result2"
         result="result4" /><feGaussianBlur
         id="feGaussianBlur4747"
         stdDeviation="1"
         result="result3"
         in="result4" /><feSpecularLighting
         id="feSpecularLighting4749"
         surfaceScale="3"
         specularConstant="1.5"
         specularExponent="45"
         result="result5"><fePointLight
           id="fePointLight4751"
           x="-5000"
           y="-8000"
           z="20000" /></feSpecularLighting><feComposite
         id="feComposite4753"
         in2="SourceGraphic"
         operator="in"
         result="result93" /><feComposite
         id="feComposite4755"
         in2="result93"
         operator="arithmetic"
         k2="1"
         k3="2"
         in="result3"
         result="result94"
         k1="0"
         k4="0" /><feComposite
         id="feComposite4757"
         in2="result94"
         operator="atop"
         in="result5"
         result="result95" /><feBlend
         id="feBlend4759"
         in2="result95"
         mode="screen" /></filter><filter
       inkscape:collect="always"
       id="filter4789"
       x="-0.53425944"
       width="2.0685189"
       y="-0.46140587"
       height="1.9228117"
       color-interpolation-filters="sRGB"><feGaussianBlur
         inkscape:collect="always"
         stdDeviation="150.64499"
         id="feGaussianBlur4791" /></filter></defs><sodipodi:namedview
     pagecolor="#ffffff"
     bordercolor="#666666"
     borderopacity="1"
     objecttolerance="10"
     gridtolerance="10"
     guidetolerance="10"
     inkscape:pageopacity="0"
     inkscape:pageshadow="2"
     inkscape:window-width="1440"
     inkscape:window-height="841"
     id="namedview4"
     showgrid="false"
     inkscape:zoom="0.38183766"
     inkscape:cx="358.12373"
     inkscape:cy="514.36695"
     inkscape:window-x="0"
     inkscape:window-y="0"
     inkscape:window-maximized="1"
     inkscape:current-layer="g10"
     fit-margin-top="0"
     fit-margin-left="0"
     fit-margin-right="0"
     fit-margin-bottom="0" /><g
     id="g10"
     inkscape:groupmode="layer"
     inkscape:label="ink_ext_XXXXXX"
     transform="matrix(1.25,0,0,-1.25,8.5234984,954.44817)"><g
       id="g3913"
       inkscape:export-filename="/home/e_git/Sviluppo/entpy_v2/entpy_v2/website/static/website/img/executive.png"
       inkscape:export-xdpi="102.27256"
       inkscape:export-ydpi="102.27256"><rect
         transform="matrix(0.36513501,0,0,-0.36513501,132.81317,60.42506)"
         y="-762.62775"
         x="96.376038"
         height="783.57904"
         width="676.72736"
         id="rect3858"
         style="fill:#1a1a1a;fill-opacity:1;stroke:none;filter:url(#filter4789)" /><path
         d="m 500.69803,350.4992 -106.62557,0 c -12.60581,0 -22.82282,10.21895 -22.82282,22.82368 0,12.60473 10.21701,22.82212 22.82282,22.82212 0,12.60551 10.21763,22.82368 22.82228,22.82368 4.21201,0 8.15391,-1.14539 11.54024,-3.13483 3.76164,13.33121 16.00585,23.10477 30.54007,23.10477 12.63976,0 23.55327,-7.39091 28.65729,-18.08561 2.29156,0.85573 4.77077,1.32603 7.36055,1.32603 11.61974,0 21.03902,-9.42006 21.03902,-21.0398 0,-0.13159 -0.008,-0.26163 -0.0101,-0.39244 7.32005,-4.93194 12.1352,-13.29772 12.1352,-22.78786 0,-15.1657 -12.29327,-27.45974 -27.45896,-27.45974"
         style="fill:#cccccc;fill-opacity:1;fill-rule:nonzero;stroke:#bdbdbd;stroke-opacity:1;stroke-width:4;stroke-miterlimit:4;stroke-dasharray:none"
         id="path172"
         inkscape:connector-curvature="0" /><g
         transform="matrix(0.7786463,0,0,0.7786463,343.46857,114.61493)"
         style="fill:#f8a312;fill-opacity:1"
         id="g174"><text
   style="font-size:12px;fill:#f8a312;fill-opacity:1"
   transform="scale(1,-1)"
   id="text176"
   x="100.64977"
   y="-337.53696"><tspan
     style="font-size:43px;font-variant:normal;font-weight:normal;writing-mode:lr-tb;fill:#f8a312;fill-opacity:1;fill-rule:nonzero;stroke:none;font-family:Blue Highway;-inkscape-font-specification:Blue Highway"
     sodipodi:role="line"
     id="tspan178"
     x="100.64977"
     y="-337.53696">Idea</tspan></text>


</g><path
         d="m 593.47468,687.88843 c 0.006,0.25977 0.0192,0.51593 0.0192,0.7769 0,23.02177 -18.66227,41.68644 -41.68525,41.68644 -5.12917,0 -10.04188,-0.93203 -14.58177,-2.62893 -10.11404,21.19138 -31.73476,35.8357 -56.78054,35.8357 -28.79676,0 -53.05482,-19.3646 -60.50746,-45.77656 -6.71063,3.94099 -14.52045,6.21033 -22.86543,6.21033 -24.97362,0 -45.21734,-20.24612 -45.21734,-45.21854 -24.97603,0 -45.21975,-20.24612 -45.21975,-45.22095 0,-24.97482 20.24372,-45.21854 45.21975,-45.21854 l 211.25718,0 c 30.04748,0 54.40536,24.35668 54.40536,54.40416 0,18.80418 -9.54159,35.3787 -24.044,45.14999"
         style="fill:#cccccc;fill-opacity:1;fill-rule:nonzero;stroke:#bdbdbd;stroke-opacity:1;stroke-width:4;stroke-miterlimit:4;stroke-dasharray:none"
         id="path180"
         inkscape:connector-curvature="0" /><g
         style="fill:#24d0e0;fill-opacity:1"
         transform="matrix(1.2026208,0,0,1.2026208,-18.970784,-191.96217)"
         id="g182"><text
   transform="scale(1,-1)"
   id="text184"
   x="317.21844"
   y="-689.63782"
   style="font-size:8.47428417000000067px;font-style:normal;font-variant:normal;font-weight:normal;font-stretch:normal;fill:#24d0e0;font-family:Blue Highway;-inkscape-font-specification:Blue Highway;fill-opacity:1"><tspan
     style="font-size:42.37142181000000107px;font-style:normal;font-variant:normal;font-weight:normal;font-stretch:normal;writing-mode:lr-tb;fill:#24d0e0;fill-opacity:1;fill-rule:nonzero;stroke:none;font-family:Blue Highway;-inkscape-font-specification:Blue Highway"
     sodipodi:role="line"
     id="tspan186"
     x="317.21844"
     y="-689.63782">Successo</tspan></text>


</g><path
         d="m 199.31623,438.7353 -169.791322,0 c -20.0745808,0 -36.3437027,16.27029 -36.3437027,36.3437 0,20.07225 16.2691219,36.34254 36.3437027,36.34254 0,20.07225 16.269122,36.34603 36.341369,36.34603 6.707077,0 12.984976,-1.82517 18.377694,-4.99386 5.989836,21.22916 25.487129,36.79271 48.631259,36.79271 20.1294,0 37.50645,-11.76975 45.63518,-28.80043 3.64918,1.36334 7.59692,2.11207 11.72077,2.11207 18.50365,0 33.50156,-15.00141 33.50156,-33.5039 0,-0.20992 -0.0105,-0.41751 -0.0152,-0.62394 11.65779,-7.85466 19.32585,-21.17551 19.32585,-36.28889 0,-24.14944 -19.57659,-43.72603 -43.7272,-43.72603"
         style="fill:#cccccc;fill-opacity:1;fill-rule:nonzero;stroke:#bdbdbd;stroke-opacity:1;stroke-width:4;stroke-miterlimit:4;stroke-dasharray:none"
         id="path188"
         inkscape:connector-curvature="0" /><g
         transform="matrix(1.1662453,0,0,1.1662453,-639.95238,96.988107)"
         style="fill:#5cc11d;fill-opacity:1"
         id="g190"><text
   transform="scale(1,-1)"
   id="text192"
   x="584.40466"
   y="-329.64951"
   style="font-size:8.88288498000000004px;font-style:normal;font-variant:normal;font-weight:normal;font-stretch:normal;fill:#5cc11d;font-family:Blue Highway;-inkscape-font-specification:Blue Highway;fill-opacity:1"><tspan
     style="font-size:33.31081772000000285px;font-style:normal;font-variant:normal;font-weight:normal;font-stretch:normal;writing-mode:lr-tb;fill:#5cc11d;fill-opacity:1;fill-rule:nonzero;stroke:none;font-family:Blue Highway;-inkscape-font-specification:Blue Highway"
     sodipodi:role="line"
     id="tspan194"
     x="584.40466"
     y="-329.64951">Strategia</tspan></text>


</g><g
         inkscape:export-ydpi="122.61677"
         inkscape:export-xdpi="122.61677"
         inkscape:export-filename="/home/e_git/Sviluppo/entpy_v2/entpy_v2/website/static/website/img/executive.png"
         transform="matrix(1.5844124,0,0,1.5844124,-395.05477,-413.05956)"
         id="g3580"><path
           inkscape:connector-curvature="0"
           id="path122"
           style="fill:#bee9ea;fill-opacity:1;fill-rule:nonzero;stroke:none"
           d="m 410.82549,335.04202 c 0,0 -6.11586,37.59681 -6.11586,40.97382 0,3.37701 2.7381,6.11511 6.11586,6.11511 3.37701,0 6.1151,-2.7381 6.1151,-6.11511 0,-3.37701 -6.1151,-40.97382 -6.1151,-40.97382" /><path
           inkscape:connector-curvature="0"
           id="path124"
           style="fill:#bee9ea;fill-opacity:1;fill-rule:nonzero;stroke:none"
           d="m 429.53568,297.89192 c 0,0 -6.11586,37.59757 -6.11586,40.97382 0,3.37776 2.73885,6.11586 6.11586,6.11586 3.37701,0 6.11585,-2.7381 6.11585,-6.11586 0,-3.37625 -6.11585,-40.97382 -6.11585,-40.97382" /><path
           inkscape:connector-curvature="0"
           id="path126"
           style="fill:#bee9ea;fill-opacity:1;fill-rule:nonzero;stroke:none"
           d="m 449.04845,329.01026 c 0,0 -6.1151,37.59681 -6.1151,40.97382 0,3.377 2.73884,6.1151 6.1151,6.1151 3.37776,0 6.11661,-2.7381 6.11661,-6.1151 0,-3.37701 -6.11661,-40.97382 -6.11661,-40.97382" /><path
           inkscape:connector-curvature="0"
           id="path128"
           style="fill:#f0f0f1;fill-opacity:1;fill-rule:nonzero;stroke:none"
           d="m 405.46717,385.64685 48.56286,0 0,16.01714 -48.56286,0 0,-16.01714 z" /><path
           inkscape:connector-curvature="0"
           id="path130"
           style="fill:#ffffff;fill-opacity:1;fill-rule:nonzero;stroke:none"
           d="m 405.46717,385.64685 24.28098,0 0,16.01714 -24.28098,0 0,-16.01714 z" /><path
           inkscape:connector-curvature="0"
           id="path132"
           style="fill:#ed2356;fill-opacity:1;fill-rule:nonzero;stroke:none"
           d="m 429.74815,407.36767 c 35.95185,0 66.65425,-22.3785 78.98431,-53.95932 3.74039,9.55368 5.81179,19.94523 5.81254,30.82853 -7.5e-4,46.83817 -37.96469,84.80136 -84.7946,84.80061 -46.83141,-0.004 -84.79985,-37.96469 -84.7991,-84.7991 7.5e-4,-10.88406 2.0699,-21.27711 5.80578,-30.83154 12.33982,31.58232 43.04222,53.96007 78.99107,53.96082" /><path
           inkscape:connector-curvature="0"
           id="path134"
           style="fill:#bd2543;fill-opacity:1;fill-rule:nonzero;stroke:none"
           d="m 451.39764,466.23183 0,-61.71563 c 26.2788,-6.93045 47.57093,-26.11137 57.33482,-51.10785 3.74039,9.55368 5.81179,19.94523 5.81254,30.82853 -0.003,39.35214 -26.80735,72.42851 -63.14736,81.99495" /><path
           inkscape:connector-curvature="0"
           id="path136"
           style="fill:#f8a312;fill-opacity:1;fill-rule:nonzero;stroke:none"
           d="m 429.74815,396.34622 c 10.42908,0 20.47903,-1.63145 29.92084,-4.62556 14.00655,28.35771 22.46258,64.93346 22.46258,104.90124 -7.5e-4,63.49272 -21.30113,118.46633 -52.38267,145.4321 -31.08605,-26.96577 -52.38943,-81.93788 -52.38868,-145.4291 7.5e-4,-39.96852 8.45603,-76.54878 22.4716,-104.90424 9.43505,2.99261 19.48724,4.62706 29.91633,4.62556" /><path
           inkscape:connector-curvature="0"
           id="path138"
           style="fill:#f4701d;fill-opacity:1;fill-rule:nonzero;stroke:none"
           d="m 429.7489,642.054 c -0.10136,-0.0886 -0.19821,-0.1967 -0.30482,-0.28304 l 0.002,-245.43751 c 0.0976,10e-4 0.20271,0.0128 0.30257,0.0128 10.42908,0 20.47903,-1.63145 29.92084,-4.62556 14.00655,28.35771 22.46258,64.93346 22.46258,104.90124 -7.5e-4,63.49272 -21.30113,118.46633 -52.38267,145.4321" /><path
           inkscape:connector-curvature="0"
           id="path140"
           style="fill:#df2b59;fill-opacity:1;fill-rule:nonzero;stroke:none"
           d="m 429.7489,581.94655 c 13.16868,-10e-4 26.07309,-0.46173 38.66217,-1.30185 -9.24436,26.11663 -22.63752,47.50786 -38.66217,61.4093 -16.02465,-13.90294 -29.42007,-35.29267 -38.66592,-61.4078 12.59133,0.83637 25.49423,1.2996 38.66592,1.30035" /><path
           inkscape:connector-curvature="0"
           id="path142"
           style="fill:#bd2543;fill-opacity:1;fill-rule:nonzero;stroke:none"
           d="m 429.44558,641.78147 7.5e-4,-59.84018 c 0.0969,-0.002 0.20196,0.004 0.30257,0.005 13.16868,-10e-4 26.07309,-0.46173 38.66217,-1.30185 -9.24436,26.11663 -22.63752,47.50786 -38.66217,61.4093 -0.10136,-0.0886 -0.20647,-0.18845 -0.30332,-0.27253" /><path
           inkscape:connector-curvature="0"
           id="path144"
           style="fill:#df2b59;fill-opacity:1;fill-rule:nonzero;stroke:none"
           d="m 429.7504,474.17958 c -6.66993,-11.22491 -11.24143,-34.08541 -11.24218,-60.49185 -7.5e-4,-26.40343 4.5715,-49.26618 11.24068,-60.4911 6.66617,11.22492 11.24068,34.08767 11.24293,60.4926 -7.5e-4,26.40269 -4.57751,49.26694 -11.24143,60.49035" /><path
           inkscape:connector-curvature="0"
           id="path146"
           style="fill:#bd2543;fill-opacity:1;fill-rule:nonzero;stroke:none"
           d="m 429.44558,473.63001 -7.5e-4,-119.87855 c 0.10586,-0.17944 0.20196,-0.37914 0.30407,-0.55483 6.66617,11.22492 11.24068,34.08767 11.24293,60.4926 -7.5e-4,26.40269 -4.57751,49.26694 -11.24143,60.49035 -0.0999,-0.17493 -0.19971,-0.37914 -0.30482,-0.54957" /><path
           inkscape:connector-curvature="0"
           id="path148"
           style="fill:#45b5bf;fill-opacity:1;fill-rule:nonzero;stroke:none"
           d="m 429.74815,496.6249 c -16.23262,0 -29.43809,13.20322 -29.44109,29.44109 0.002,16.23036 13.20697,29.43583 29.43959,29.43433 16.23111,0 29.43808,-13.20246 29.43658,-29.43583 0.002,-16.23787 -13.20397,-29.44109 -29.43508,-29.43959" /><path
           inkscape:connector-curvature="0"
           id="path150"
           style="fill:#ffffff;fill-opacity:1;fill-rule:nonzero;stroke:none"
           d="m 429.74815,546.51649 c -11.28047,0.002 -20.45801,-9.17528 -20.45876,-20.45275 10e-4,-11.28573 9.17604,-20.455 20.45876,-20.455 11.27747,10e-4 20.458,9.17077 20.45575,20.4565 0,11.27597 -9.17828,20.452 -20.45575,20.45125" /><path
           inkscape:connector-curvature="0"
           id="path152"
           style="fill:#3a97a6;fill-opacity:1;fill-rule:nonzero;stroke:none"
           d="m 429.74665,555.50032 c -0.0984,-10e-4 -0.19596,-0.0113 -0.30107,-0.01 l -0.002,-8.98683 c 0.0984,7.5e-4 0.20271,0.0135 0.30407,0.0128 11.27747,7.5e-4 20.45575,-9.17528 20.45575,-20.45125 0.002,-11.28573 -9.17828,-20.455 -20.45575,-20.4565 -0.0999,10e-4 -0.20346,0.0143 -0.30332,0.0158 l 0.001,-8.97782 c 0.10361,0 0.20272,-0.0218 0.30182,-0.0218 16.23111,-0.002 29.43658,13.20172 29.43508,29.43959 0.002,16.23337 -13.20547,29.43583 -29.43658,29.43583" /><path
           inkscape:connector-curvature="0"
           id="path154"
           style="fill:#d5f0fc;fill-opacity:1;fill-rule:nonzero;stroke:none"
           d="m 450.2039,526.06524 c 0,11.27597 -9.17828,20.452 -20.45575,20.45125 -0.10136,7.5e-4 -0.20572,-0.012 -0.30407,-0.0128 l 7.5e-4,-40.87923 c 0.0999,-0.002 0.20346,-0.0143 0.30332,-0.0158 11.27747,0.001 20.458,9.17077 20.45575,20.4565" /></g></g></g></svg>