<?xml version="1.0" encoding="UTF-8" standalone="no"?>
<!-- Created with Inkscape (http://www.inkscape.org/) -->

<svg
   xmlns:dc="http://purl.org/dc/elements/1.1/"
   xmlns:cc="http://creativecommons.org/ns#"
   xmlns:rdf="http://www.w3.org/1999/02/22-rdf-syntax-ns#"
   xmlns:svg="http://www.w3.org/2000/svg"
   xmlns="http://www.w3.org/2000/svg"
   version="1.1"
   width="321.29504"
   height="320.29745"
   id="svg3272">
  <defs
     id="defs3274" />
  <metadata
     id="metadata3277">
    <rdf:RDF>
      <cc:Work
         rdf:about="">
        <dc:format>image/svg+xml</dc:format>
        <dc:type
           rdf:resource="http://purl.org/dc/dcmitype/StillImage" />
        <dc:title></dc:title>
      </cc:Work>
    </rdf:RDF>
  </metadata>
  <g
     transform="translate(-216.49534,-337.92773)"
     id="layer1">
    <g
       transform="matrix(0.96846205,0,0,0.96846205,11.894315,15.708303)"
       id="g4085">
      <path
         d="m 347.21151,564.20285 c 0.56482,5.44377 6.33207,9.04222 12.01551,9.04222 l 35.83033,0 c 5.70691,0 11.46745,-3.637 12.03395,-9.10926 1.13132,-10.90598 5.97675,-20.40576 15.5905,-25.66517 30.38656,-16.62126 49.25539,-48.6319 49.25539,-83.25381 0,-52.34264 -42.43895,-94.77991 -94.79501,-94.77991 -52.35504,0 -94.79416,42.43727 -94.79416,94.77991 0,34.62694 18.87436,66.63758 49.26797,83.25549 9.63889,5.26779 14.46084,14.80109 15.59552,25.73053 l 0,0 z m 51.98565,81.52079 c -1.6928,7.16841 -8.12878,12.50156 -15.81341,12.50156 l -12.49989,0 c -7.68296,0 -14.12062,-5.33315 -15.81341,-12.50156 l -6.46616,0 c -13.00771,0 -23.94621,-10.68474 -23.94621,-23.74778 l 0.14599,-57.17634 c 0.005,-2.88279 -1.37687,-5.25606 -3.91053,-6.64046 -37.60861,-20.56331 -61.04515,-60.06919 -61.04515,-102.94223 0,-64.76208 52.51763,-117.2891 117.29379,-117.2891 64.77718,0 117.29581,52.52702 117.29581,117.2891 0,42.86969 -23.431,82.3739 -61.0329,102.94055 -2.53417,1.38608 -3.91355,3.75935 -3.90852,6.64381 l 0.15587,57.17467 c 0,13.06974 -10.96464,23.74778 -23.96901,23.74778 l -6.48627,0 0,0"
         id="path22"
         style="fill:#7bc5d9;fill-opacity:1;fill-rule:nonzero;stroke:none" />
      <path
         d="m 491.56191,528.7865 c -3.57499,-2.06991 -4.79514,-6.64884 -2.72524,-10.22383 2.06991,-3.57499 6.64885,-4.79682 10.22383,-2.72524 l 14.46085,8.35002 c 3.57667,2.06991 4.79682,6.64884 2.72524,10.22383 -2.0699,3.57499 -6.64884,4.79515 -10.22383,2.72524 l -14.46085,-8.35002 0,0 z m 7.49859,-136.45459 c -3.57498,2.07829 -8.15392,0.85478 -10.22383,-2.71518 -2.0699,-3.58672 -0.84975,-8.1623 2.72524,-10.22383 l 14.46085,-8.34666 c 3.57499,-2.07829 8.15393,-0.85478 10.22383,2.71518 2.07158,3.58672 0.85143,8.1623 -2.72524,10.22383 l -14.46085,8.34666 0,0 z m 14.53125,69.25387 c -4.14149,0 -7.50027,-3.35208 -7.50027,-7.49189 0,-4.15657 3.35878,-7.50865 7.50027,-7.50865 l 16.69836,0 c 4.14316,0 7.50027,3.35208 7.50027,7.50865 0,4.13981 -3.35711,7.49189 -7.50027,7.49189 l -16.69836,0 0,0 z M 262.72464,379.3929 c 3.57599,2.06153 4.79565,6.63711 2.72474,10.22383 -2.07075,3.56996 -6.64901,4.79347 -10.22434,2.71518 l -14.46118,-8.34666 c -3.57533,-2.06153 -4.79565,-6.63711 -2.72474,-10.22383 2.07075,-3.56996 6.64901,-4.79347 10.22433,-2.71518 l 14.46119,8.34666 0,0 z m -7.4996,136.44453 c 3.57533,-2.07158 8.15359,-0.84975 10.22434,2.72524 2.07091,3.57499 0.85125,8.15392 -2.72474,10.22383 l -14.46119,8.35002 c -3.57532,2.06991 -8.15358,0.84975 -10.22433,-2.72524 -2.07091,-3.57499 -0.85059,-8.15392 2.72474,-10.22383 l 14.46118,-8.35002 0,0 z M 240.6938,446.58524 c 4.14233,0 7.50027,3.35208 7.50027,7.50865 0,4.13981 -3.35794,7.49189 -7.50027,7.49189 l -16.6982,0 c -4.14148,0 -7.50026,-3.35208 -7.50026,-7.49189 0,-4.15657 3.35878,-7.50865 7.50026,-7.50865 l 16.6982,0 0,0"
         id="path24"
         style="fill:#7bc5d9;fill-opacity:1;fill-rule:nonzero;stroke:none" />
      <path
         d="m 320.72794,420.74075 c -1.14842,-3.95545 1.13384,-8.11202 5.09734,-9.25173 3.96383,-1.15647 8.10867,1.12295 9.25843,5.09515 l 4.28227,14.66533 c 5.11359,-2.01124 10.42327,-3.58672 15.8486,-4.74318 0.0989,-0.0168 0.19945,-0.0335 0.29834,-0.0503 4.64262,-0.97211 9.36737,-1.64252 14.12062,-1.97773 l 0,-11.34677 c 0,-4.13981 3.35877,-7.49189 7.50026,-7.49189 4.14149,0 7.50027,3.35208 7.50027,7.49189 l 0,11.34677 c 4.8471,0.35197 9.66068,1.02238 14.39046,2.02801 l 0.0285,0 0.002,0 c 5.42533,1.15646 10.73502,2.73194 15.84693,4.74318 l 4.28395,-14.66532 c 1.14809,-3.97221 5.29293,-6.25162 9.25676,-5.09516 3.96383,1.13971 6.24659,5.29628 5.09851,9.25173 l -27.4887,94.16816 c -1.14808,3.96383 -5.29292,6.24492 -9.25675,5.09683 -3.96383,-1.14809 -6.24659,-5.2946 -5.09851,-9.25843 l 18.99621,-65.06713 c -4.66776,-1.92744 -9.61375,-3.43588 -14.7441,-4.5253 l 0.002,0 c -3.68393,-0.78774 -7.46843,-1.32407 -11.31661,-1.64252 l 0,18.25205 c 0,4.13981 -3.35878,7.49189 -7.50027,7.49189 -4.14149,0 -7.50026,-3.35208 -7.50026,-7.49189 l 0,-18.25205 c -3.756,0.30169 -7.45167,0.83802 -11.05347,1.57548 -0.0855,0.0335 -0.17263,0.0503 -0.26146,0.067 -5.13035,1.08942 -10.07634,2.59786 -14.7441,4.5253 l 18.9962,65.06713 c 1.14809,3.96383 -1.13467,8.11034 -5.09683,9.25843 -3.9655,1.14809 -8.11034,-1.133 -9.25843,-5.09683 l -27.48751,-94.16816 0,0"
         id="path26"
         style="fill:#7bc5d9;fill-opacity:1;fill-rule:nonzero;stroke:none" />
    </g>
  </g>
</svg>
