<?xml version="1.0" encoding="UTF-8" standalone="no"?>
<!-- Created with Inkscape (http://www.inkscape.org/) -->

<svg
   xmlns:dc="http://purl.org/dc/elements/1.1/"
   xmlns:cc="http://creativecommons.org/ns#"
   xmlns:rdf="http://www.w3.org/1999/02/22-rdf-syntax-ns#"
   xmlns:svg="http://www.w3.org/2000/svg"
   xmlns="http://www.w3.org/2000/svg"
   xmlns:sodipodi="http://sodipodi.sourceforge.net/DTD/sodipodi-0.dtd"
   xmlns:inkscape="http://www.inkscape.org/namespaces/inkscape"
   version="1.1"
   width="198"
   height="198"
   id="svg2"
   inkscape:version="0.48.1 r9760"
   sodipodi:docname="contest_qrcode.svg">
  <sodipodi:namedview
     pagecolor="#ffffff"
     bordercolor="#666666"
     borderopacity="1"
     objecttolerance="10"
     gridtolerance="10"
     guidetolerance="10"
     inkscape:pageopacity="0"
     inkscape:pageshadow="2"
     inkscape:window-width="848"
     inkscape:window-height="552"
     id="namedview7"
     showgrid="false"
     fit-margin-top="0"
     fit-margin-left="0"
     fit-margin-right="0"
     fit-margin-bottom="0"
     inkscape:zoom="0.34090909"
     inkscape:cx="-282.86084"
     inkscape:cy="137.27512"
     inkscape:window-x="303"
     inkscape:window-y="222"
     inkscape:window-maximized="0"
     inkscape:current-layer="svg2" />
  <defs
     id="defs4" />
  <metadata
     id="metadata7">
    <rdf:RDF>
      <cc:Work
         rdf:about="">
        <dc:format>image/svg+xml</dc:format>
        <dc:type
           rdf:resource="http://purl.org/dc/dcmitype/StillImage" />
        <dc:title />
      </cc:Work>
    </rdf:RDF>
  </metadata>
  <g
     id="g3762"
     transform="translate(261.49666,-19.57508)">
    <rect
       rx="1.7999505"
       y="19.772308"
       x="-261.29944"
       height="197.60555"
       width="197.60556"
       id="rect2984"
       style="fill:#ffffff;fill-opacity:1;stroke:none" />
    <g
       id="layer1"
       transform="translate(-941.06809,-565.2157)">
      <path
         inkscape:connector-curvature="0"
         style="fill:#000000"
         id="path3060"
         d="m 679.57143,761.79078 0,-21 21,0 21,0 0,21 0,21 -21,0 -21,0 0,-21 z m 36,0 0,-15 -15,0 -15,0 0,15 0,15 15,0 15,0 0,-15 z m -24,0 0,-9 9,0 9,0 0,9 0,9 -9,0 -9,0 0,-9 z m 42,18 0,-3 3,0 3,0 0,-6 0,-6 -3,0 -3,0 0,3 0,3 -3,0 -3,0 0,-3 0,-3 3,0 3,0 0,-6 0,-6 -3,0 -3,0 0,-9 0,-9 -24,0 -24,0 0,-3 0,-3 9,0 9,0 0,-9 0,-9 -3,0 -3,0 0,6 0,6 -6,0 -6,0 0,-3 0,-3 3,0 3,0 0,-6 0,-6 -3,0 -3,0 0,-6 0,-6 3,0 3,0 0,3 0,3 3,0 3,0 0,3 0,3 6,0 6,0 0,3 0,3 3,0 3,0 0,3 0,3 6,0 6,0 0,3 0,3 -3,0 -3,0 0,3 0,3 6,0 6,0 0,-3 0,-3 3,0 3,0 0,-3 0,-3 -3,0 -3,0 0,-3 0,-3 -6,0 -6,0 0,-3 0,-3 -3,0 -3,0 0,-3 0,-3 -6,0 -6,0 0,-3 0,-3 6,0 6,0 0,-3 0,-3 3,0 3,0 0,-3 0,-3 3,0 3,0 0,3 0,3 3,0 3,0 0,-3 0,-3 3,0 3,0 0,3 0,3 6,0 6,0 0,-3 0,-3 -3,0 -3,0 0,-3 0,-3 3,0 3,0 0,-3 0,-3 -3,0 -3,0 0,-3 0,-3 -6,0 -6,0 0,3 0,3 3,0 3,0 0,3 0,3 -9,0 -9,0 0,-3 0,-3 -3,0 -3,0 0,6 0,6 -3,0 -3,0 0,3 0,3 -3,0 -3,0 0,-6 0,-6 -3,0 -3,0 0,3 0,3 -3,0 -3,0 0,-3 0,-3 -3,0 -3,0 0,-3 0,-3 3,0 3,0 0,-3 0,-3 -3,0 -3,0 0,-3 0,-3 3,0 3,0 0,-6 0,-6 3,0 3,0 0,-6 0,-6 3,0 3,0 0,3 0,3 6,0 6,0 0,-3 0,-3 12,0 12,0 0,-3 0,-3 -3,0 -3,0 0,-18 0,-18 6,0 6,0 0,-3 0,-3 6,0 6,0 0,3 0,3 3,0 3,0 0,-3 0,-3 3,0 3,0 0,3 0,3 3,0 3,0 0,-3 0,-3 3,0 3,0 0,3 0,3 3,0 3,0 0,-3 0,-3 12,0 12,0 0,3 0,3 3,0 3,0 0,-3 0,-3 3,0 3,0 0,9 0,9 6,0 6,0 0,12 0,12 -3,0 -3,0 0,-6 0,-6 -3,0 -3,0 0,9 0,9 9,0 9,0 0,3 0,3 3,0 3,0 0,-3 0,-3 15,0 15,0 0,3 0,3 3,0 3,0 0,9 0,9 -6,0 -6,0 0,-3 0,-3 -3,0 -3,0 0,3 0,3 -3,0 -3,0 0,-3 0,-3 -3,0 -3,0 0,3 0,3 -3,0 -3,0 0,6 0,6 6,0 6,0 0,-3 0,-3 3,0 3,0 0,3 0,3 -3,0 -3,0 0,3 0,3 -3,0 -3,0 0,6 0,6 -3,0 -3,0 0,9 0,9 3,0 3,0 0,-6 0,-6 6,0 6,0 0,-3 0,-3 9,0 9,0 0,6 0,6 -9,0 -9,0 0,3 0,3 -6,0 -6,0 0,6 0,6 3,0 3,0 0,-3 0,-3 6,0 6,0 0,-3 0,-3 6,0 6,0 0,12 0,12 -3,0 -3,0 0,-6 0,-6 -6,0 -6,0 0,6 0,6 -3,0 -3,0 0,6 0,6 6,0 6,0 0,3 0,3 3,0 3,0 0,-6 0,-6 3,0 3,0 0,12 0,12 -3,0 -3,0 0,3 0,3 3,0 3,0 0,3 0,3 -6,0 -6,0 0,-12 0,-12 -3,0 -3,0 0,3 0,3 -3,0 -3,0 0,9 0,9 3,0 3,0 0,3 0,3 3,0 3,0 0,3 0,3 -9,0 -9,0 0,-3 0,-3 3,0 3,0 0,-3 0,-3 -3,0 -3,0 0,-3 0,-3 -3,0 -3,0 0,-3 0,-3 -6,0 -6,0 0,12 0,12 -3,0 -3,0 0,-3 0,-3 -6,0 -6,0 0,3 0,3 -9,0 -9,0 0,-3 0,-3 9,0 9,0 0,-3 0,-3 3,0 3,0 0,-3 0,-3 -9,0 -9,0 0,3 0,3 -6,0 -6,0 0,6 0,6 -15,0 -15,0 0,-3 0,-3 -9,0 -9,0 0,3 0,3 -3,0 -3,0 0,-3 z m 30,-6 0,-3 3,0 3,0 0,3 0,3 6,0 6,0 0,-6 0,-6 -6,0 -6,0 0,-6 0,-6 3,0 3,0 0,-3 0,-3 -3,0 -3,0 0,-3 0,-3 3,0 3,0 0,-3 0,-3 -3,0 -3,0 0,-3 0,-3 6,0 6,0 0,3 0,3 3,0 3,0 0,3 0,3 -3,0 -3,0 0,6 0,6 3,0 3,0 0,3 0,3 3,0 3,0 0,3 0,3 3,0 3,0 0,-9 0,-9 3,0 3,0 0,3 0,3 3,0 3,0 0,-3 0,-3 -3,0 -3,0 0,-3 0,-3 3,0 3,0 0,-3 0,-3 3,0 3,0 0,6 0,6 3,0 3,0 0,-9 0,-9 -6,0 -6,0 0,-3 0,-3 6,0 6,0 0,-9 0,-9 6,0 6,0 0,-15 0,-15 3,0 3,0 0,-3 0,-3 -6,0 -6,0 0,-3 0,-3 3,0 3,0 0,-3 0,-3 3,0 3,0 0,-3 0,-3 -3,0 -3,0 0,-3 0,-3 -6,0 -6,0 0,3 0,3 6,0 6,0 0,3 0,3 -3,0 -3,0 0,3 0,3 -3,0 -3,0 0,-3 0,-3 -3,0 -3,0 0,-9 0,-9 -3,0 -3,0 0,-15 0,-15 -3,0 -3,0 0,-3 0,-3 -9,0 -9,0 0,3 0,3 3,0 3,0 0,3 0,3 -6,0 -6,0 0,-3 0,-3 -3,0 -3,0 0,-3 0,-3 3,0 3,0 0,-3 0,-3 6,0 6,0 0,-3 0,-3 -6,0 -6,0 0,3 0,3 -3,0 -3,0 0,-3 0,-3 -3,0 -3,0 0,3 0,3 3,0 3,0 0,3 0,3 -3,0 -3,0 0,6 0,6 -3,0 -3,0 0,-3 0,-3 -3,0 -3,0 0,-3 0,-3 3,0 3,0 0,-3 0,-3 -3,0 -3,0 0,3 0,3 -3,0 -3,0 0,-6 0,-6 -3,0 -3,0 0,3 0,3 -3,0 -3,0 0,3 0,3 -3,0 -3,0 0,12 0,12 3,0 3,0 0,-12 0,-12 3,0 3,0 0,6 0,6 9,0 9,0 0,3 0,3 -3,0 -3,0 0,3 0,3 -3,0 -3,0 0,-3 0,-3 -3,0 -3,0 0,3 0,3 3,0 3,0 0,6 0,6 -3,0 -3,0 0,-3 0,-3 -6,0 -6,0 0,3 0,3 3,0 3,0 0,3 0,3 -9,0 -9,0 0,-3 0,-3 -6,0 -6,0 0,3 0,3 -9,0 -9,0 0,6 0,6 3,0 3,0 0,3 0,3 -3,0 -3,0 0,3 0,3 -3,0 -3,0 0,3 0,3 3,0 3,0 0,-3 0,-3 3,0 3,0 0,3 0,3 3,0 3,0 0,-3 0,-3 3,0 3,0 0,-3 0,-3 3,0 3,0 0,3 0,3 3,0 3,0 0,-3 0,-3 3,0 3,0 0,-6 0,-6 3,0 3,0 0,3 0,3 3,0 3,0 0,3 0,3 3,0 3,0 0,-3 0,-3 3,0 3,0 0,-3 0,-3 -3,0 -3,0 0,3 0,3 -3,0 -3,0 0,-6 0,-6 9,0 9,0 0,9 0,9 -3,0 -3,0 0,9 0,9 6,0 6,0 0,9 0,9 3,0 3,0 0,-3 0,-3 3,0 3,0 0,6 0,6 -6,0 -6,0 0,3 0,3 -3,0 -3,0 0,-3 0,-3 -3,0 -3,0 0,-6 0,-6 3,0 3,0 0,-3 0,-3 -3,0 -3,0 0,3 0,3 -3,0 -3,0 0,6 0,6 3,0 3,0 0,6 0,6 -3,0 -3,0 0,3 0,3 12,0 12,0 0,3 0,3 -3,0 -3,0 0,3 0,3 -3,0 -3,0 0,3 0,3 -3,0 -3,0 0,-6 0,-6 -9,0 -9,0 0,6 0,6 9,0 9,0 0,12 0,12 -3,0 -3,0 0,-9 0,-9 -6,0 -6,0 0,3 0,3 3,0 3,0 0,6 0,6 3,0 3,0 0,3 0,3 3,0 3,0 0,-3 0,-3 3,0 3,0 0,-6 0,-6 3,0 3,0 0,9 0,9 -3,0 -3,0 0,3 0,3 3,0 3,0 0,-3 z m 0,-24 0,-3 3,0 3,0 0,3 0,3 -3,0 -3,0 0,-3 z m 24,-3 0,-6 3,0 3,0 0,6 0,6 -3,0 -3,0 0,-6 z m -24,-9 0,-3 3,0 3,0 0,3 0,3 -3,0 -3,0 0,-3 z m 36,-3 0,-6 -3,0 -3,0 0,3 0,3 -3,0 -3,0 0,-3 0,-3 -3,0 -3,0 0,-3 0,-3 3,0 3,0 0,-3 0,-3 3,0 3,0 0,-3 0,-3 3,0 3,0 0,-3 0,-3 -3,0 -3,0 0,-3 0,-3 -3,0 -3,0 0,6 0,6 -3,0 -3,0 0,-9 0,-9 -3,0 -3,0 0,-6 0,-6 -3,0 -3,0 0,-3 0,-3 6,0 6,0 0,-3 0,-3 6,0 6,0 0,-6 0,-6 -3,0 -3,0 0,-3 0,-3 -3,0 -3,0 0,6 0,6 -6,0 -6,0 0,-3 0,-3 -3,0 -3,0 0,-3 0,-3 3,0 3,0 0,-9 0,-9 -3,0 -3,0 0,6 0,6 -3,0 -3,0 0,-6 0,-6 3,0 3,0 0,-6 0,-6 3,0 3,0 0,-3 0,-3 6,0 6,0 0,6 0,6 3,0 3,0 0,-3 0,-3 3,0 3,0 0,-3 0,-3 3,0 3,0 0,-3 0,-3 3,0 3,0 0,9 0,9 -3,0 -3,0 0,3 0,3 -9,0 -9,0 0,6 0,6 6,0 6,0 0,3 0,3 3,0 3,0 0,-3 0,-3 3,0 3,0 0,-3 0,-3 3,0 3,0 0,3 0,3 -3,0 -3,0 0,3 0,3 3,0 3,0 0,9 0,9 -3,0 -3,0 0,3 0,3 -3,0 -3,0 0,3 0,3 -3,0 -3,0 0,3 0,3 6,0 6,0 0,3 0,3 3,0 3,0 0,3 0,3 3,0 3,0 0,-9 0,-9 -3,0 -3,0 0,-3 0,-3 3,0 3,0 0,-6 0,-6 3,0 3,0 0,3 0,3 3,0 3,0 0,9 0,9 -3,0 -3,0 0,3 0,3 3,0 3,0 0,3 0,3 -3,0 -3,0 0,3 0,3 -6,0 -6,0 0,-3 0,-3 -3,0 -3,0 0,-3 0,-3 -6,0 -6,0 0,3 0,3 3,0 3,0 0,3 0,3 3,0 3,0 0,3 0,3 3,0 3,0 0,3 0,3 -6,0 -6,0 0,3 0,3 3,0 3,0 0,3 0,3 3,0 3,0 0,3 0,3 -3,0 -3,0 0,3 0,3 -3,0 -3,0 0,-6 z m -12,-48 0,-6 3,0 3,0 0,-3 0,-3 3,0 3,0 0,-3 0,-3 -3,0 -3,0 0,3 0,3 -3,0 -3,0 0,3 0,3 -3,0 -3,0 0,6 0,6 3,0 3,0 0,-6 z m 36,-9 0,-3 -3,0 -3,0 0,3 0,3 3,0 3,0 0,-3 z m -42,-30 0,-3 -3,0 -3,0 0,3 0,3 3,0 3,0 0,-3 z m 0,-18 0,-3 -3,0 -3,0 0,-3 0,-3 -3,0 -3,0 0,3 0,3 3,0 3,0 0,3 0,3 3,0 3,0 0,-3 z m 18,-6 0,-3 -3,0 -3,0 0,3 0,3 3,0 3,0 0,-3 z m -36,90 0,-3 6,0 6,0 0,3 0,3 -6,0 -6,0 0,-3 z m -66,-48 0,-3 3,0 3,0 0,-3 0,-3 -3,0 -3,0 0,-3 0,-3 3,0 3,0 0,3 0,3 3,0 3,0 0,3 0,3 -3,0 -3,0 0,3 0,3 -3,0 -3,0 0,-3 z m 60,0 0,-3 3,0 3,0 0,3 0,3 -3,0 -3,0 0,-3 z m -42,-6 0,-3 3,0 3,0 0,3 0,3 -3,0 -3,0 0,-3 z m -6,-12 0,-3 6,0 6,0 0,3 0,3 -6,0 -6,0 0,-3 z m 138,96 0,-9 -9,0 -9,0 0,9 0,9 9,0 9,0 0,-9 z m -12,0 0,-3 3,0 3,0 0,3 0,3 -3,0 -3,0 0,-3 z m 6,-18 0,-3 -6,0 -6,0 0,3 0,3 6,0 6,0 0,-3 z m 12,0 0,-3 -3,0 -3,0 0,3 0,3 3,0 3,0 0,-3 z m -144,-6 0,-3 -3,0 -3,0 0,3 0,3 3,0 3,0 0,-3 z m 132,-6 0,-3 -6,0 -6,0 0,3 0,3 6,0 6,0 0,-3 z m -102,-6 0,-3 -3,0 -3,0 0,3 0,3 3,0 3,0 0,-3 z m -18,-6 0,-3 9,0 9,0 0,-3 0,-3 -3,0 -3,0 0,-3 0,-3 -3,0 -3,0 0,3 0,3 -3,0 -3,0 0,-3 0,-3 -3,0 -3,0 0,3 0,3 -3,0 -3,0 0,3 0,3 3,0 3,0 0,3 0,3 3,0 3,0 0,-3 z m -6,-6 0,-3 3,0 3,0 0,3 0,3 -3,0 -3,0 0,-3 z m 156,-51 0,-6 -6,0 -6,0 0,3 0,3 3,0 3,0 0,3 0,3 3,0 3,0 0,-6 z m -18,-3 0,-3 -3,0 -3,0 0,3 0,3 3,0 3,0 0,-3 z m 18,138 0,-3 3,0 3,0 0,3 0,3 -3,0 -3,0 0,-3 z m 0,-108 0,-9 3,0 3,0 0,9 0,9 -3,0 -3,0 0,-9 z m -192,-66 0,-21 21,0 21,0 0,21 0,21 -21,0 -21,0 0,-21 z m 36,0 0,-15 -15,0 -15,0 0,15 0,15 15,0 15,0 0,-15 z m -24,0 0,-9 9,0 9,0 0,9 0,9 -9,0 -9,0 0,-9 z m 144,0 0,-21 21,0 21,0 0,21 0,21 -21,0 -21,0 0,-21 z m 36,0 0,-15 -15,0 -15,0 0,15 0,15 15,0 15,0 0,-15 z m -24,0 0,-9 9,0 9,0 0,9 0,9 -9,0 -9,0 0,-9 z m -24,-15 0,-6 3,0 3,0 0,6 0,6 -3,0 -3,0 0,-6 z" />
    </g>
  </g>
</svg>
