<?xml version="1.0" encoding="UTF-8" standalone="no"?>
<!-- Created with Inkscape (http://www.inkscape.org/) -->

<svg
   xmlns:dc="http://purl.org/dc/elements/1.1/"
   xmlns:cc="http://creativecommons.org/ns#"
   xmlns:rdf="http://www.w3.org/1999/02/22-rdf-syntax-ns#"
   xmlns:svg="http://www.w3.org/2000/svg"
   xmlns="http://www.w3.org/2000/svg"
   xmlns:sodipodi="http://sodipodi.sourceforge.net/DTD/sodipodi-0.dtd"
   xmlns:inkscape="http://www.inkscape.org/namespaces/inkscape"
   width="256"
   height="256"
   id="svg3049"
   version="1.1"
   inkscape:version="0.48.3.1 r9886"
   sodipodi:docname="Nuovo documento 2">
  <defs
     id="defs3051" />
  <sodipodi:namedview
     id="base"
     pagecolor="#ffffff"
     bordercolor="#666666"
     borderopacity="1.0"
     inkscape:pageopacity="0.0"
     inkscape:pageshadow="2"
     inkscape:zoom="0.35"
     inkscape:cx="-284.86447"
     inkscape:cy="89.421242"
     inkscape:document-units="px"
     inkscape:current-layer="layer1"
     showgrid="false"
     fit-margin-top="0"
     fit-margin-left="0"
     fit-margin-right="0"
     fit-margin-bottom="0"
     inkscape:window-width="1375"
     inkscape:window-height="876"
     inkscape:window-x="65"
     inkscape:window-y="24"
     inkscape:window-maximized="1" />
  <metadata
     id="metadata3054">
    <rdf:RDF>
      <cc:Work
         rdf:about="">
        <dc:format>image/svg+xml</dc:format>
        <dc:type
           rdf:resource="http://purl.org/dc/dcmitype/StillImage" />
        <dc:title></dc:title>
      </cc:Work>
    </rdf:RDF>
  </metadata>
  <g
     inkscape:label="Livello 1"
     inkscape:groupmode="layer"
     id="layer1"
     transform="translate(-285.57875,-365.78342)">
    <g
       id="g3958"
       transform="matrix(0.4,0,0,0.4,257.86387,240.89454)">
      <rect
         style="fill:#ffffff;fill-opacity:1;fill-rule:nonzero;stroke:none"
         id="rect3128"
         width="640"
         height="640"
         x="69.287201"
         y="312.2222" />
      <path
         style="fill:#000000"
         d="m 79.25241,867.42103 0,-74.836 74.83599,0 74.83596,0 0,74.836 0,74.836 -74.83596,0 -74.83599,0 0,-74.836 z m 128.29024,0 0,-53.4543 -53.45425,0 -53.45427,0 0,53.4543 0,53.4543 53.45427,0 53.45425,0 0,-53.4543 z m -85.52681,0 0,-32.0726 32.07256,0 32.07256,0 0,32.0726 0,32.0726 -32.07256,0 -32.07256,0 0,-32.0726 z m 192.43537,53.4543 0,-21.3817 10.69086,0 10.69085,0 0,-10.6909 0,-10.6908 -10.69085,0 -10.69086,0 0,-10.6909 0,-10.6908 21.38171,0 21.38171,0 0,-21.3818 0,-21.3817 -10.69085,0 -10.69086,0 0,-21.3817 0,-21.3817 -10.69085,0 -10.69086,0 0,21.3817 0,21.3817 -10.69085,0 -10.69086,0 0,-10.6908 0,-10.6909 -21.38172,0 -21.38171,0 0,-42.7634 0,-42.76345 -10.69085,0 -10.69086,0 0,10.69086 0,10.69086 -10.69085,0 -10.69086,0 0,10.69085 0,10.69088 10.69086,0 10.69085,0 0,10.6908 0,10.6909 -21.38171,0 -21.38169,0 0,-10.6909 0,-10.6908 -10.69086,0 -10.69085,0 0,-10.69088 0,-10.69085 -21.3817,0 -21.38171,0 0,-21.38172 0,-21.38171 -10.69086,0 -10.69085,0 0,42.76343 0,42.76343 -10.690865,0 -10.690855,0 0,-42.76343 0,-42.76343 10.690855,0 10.690865,0 0,-10.69085 0,-10.69086 -10.690865,0 -10.690855,0 0,-10.69085 0,-10.69086 10.690855,0 10.690865,0 0,-21.38171 0,-21.38171 -10.690865,0 -10.690855,0 0,-10.69086 0,-10.69086 10.690855,0 10.690865,0 0,10.69086 0,10.69086 10.69085,0 10.69086,0 0,-21.38172 0,-21.38171 10.69084,0 10.69087,0 0,21.38171 0,21.38172 -10.69087,0 -10.69084,0 0,10.69085 0,10.69086 10.69084,0 10.69087,0 0,10.69085 0,10.69086 10.69085,0 10.69085,0 0,-10.69086 0,-10.69085 10.69085,0 10.69086,0 0,-10.69086 0,-10.69085 10.69085,0 10.69084,0 0,-10.69086 0,-10.69086 10.69086,0 10.69085,0 0,10.69086 0,10.69086 10.69086,0 10.69085,0 0,-10.69086 0,-10.69086 10.69086,0 10.69085,0 0,10.69086 0,10.69086 10.69087,0 10.69085,0 0,10.69085 0,10.69086 10.69086,0 10.69085,0 0,10.69085 0,10.69086 10.69086,0 10.69085,0 0,10.69086 0,10.69085 10.69086,0 10.69085,0 0,-21.38171 0,-21.38171 -10.69085,0 -10.69086,0 0,-21.38171 0,-21.38172 10.69086,0 10.69085,0 0,10.69086 0,10.69086 10.69086,0 10.69085,0 0,-10.69086 0,-10.69086 10.69086,0 10.69085,0 0,-10.69085 0,-10.69086 -10.69085,0 -10.69086,0 0,-10.69085 0,-10.69086 -10.69085,0 -10.69086,0 0,-21.38171 0,-21.38171 -10.69085,0 -10.69086,0 0,10.69085 0,10.69086 -10.69085,0 -10.69086,0 0,10.69086 0,10.69085 10.69086,0 10.69085,0 0,10.69086 0,10.69085 -10.69085,0 -10.69086,0 0,-10.69085 0,-10.69086 -10.69085,0 -10.69086,0 0,-10.69085 0,-10.69086 -10.69085,0 -10.69087,0 0,10.69086 0,10.69085 -10.69085,0 -10.69086,0 0,10.69086 0,10.69085 -42.76342,0 -42.7634,0 0,-10.69085 0,-10.69086 -32.07257,0 -32.07255,0 0,10.69086 0,10.69085 -10.690865,0 -10.690855,0 0,-21.38171 0,-21.38171 21.38172,0 21.38171,0 0,-10.69086 0,-10.69085 32.07256,0 32.07256,0 0,10.69085 0,10.69086 10.69085,0 10.69084,0 0,-10.69086 0,-10.69085 10.69086,0 10.69085,0 0,10.69085 0,10.69086 10.69086,0 10.69085,0 0,-42.76342 0,-42.76343 10.69086,0 10.69085,0 0,32.07257 0,32.07257 10.69087,0 10.69085,0 0,-53.45428 0,-53.45428 10.69086,0 10.69085,0 0,-10.69086 0,-10.69085 10.69086,0 10.69085,0 0,10.69085 0,10.69086 10.69086,0 10.69085,0 0,10.69086 0,10.69085 -10.69085,0 -10.69086,0 0,10.69086 0,10.69085 -10.69085,0 -10.69086,0 0,21.38171 0,21.38172 10.69086,0 10.69085,0 0,-10.69086 0,-10.69086 10.69086,0 10.69085,0 0,-10.69085 0,-10.69086 10.69086,0 10.69085,0 0,10.69086 0,10.69085 10.69086,0 10.69085,0 0,10.69086 0,10.69086 10.69086,0 10.69085,0 0,-10.69086 0,-10.69086 10.69086,0 10.69085,0 0,21.38172 0,21.38171 -10.69085,0 -10.69086,0 0,10.69085 0,10.69086 21.38171,0 21.38171,0 0,-10.69086 0,-10.69085 10.69086,0 10.69085,0 0,-10.69086 0,-10.69085 -10.69085,0 -10.69086,0 0,-32.07257 0,-32.07257 -10.69085,0 -10.69086,0 0,10.69086 0,10.69085 -21.38171,0 -21.38171,0 0,-10.69085 0,-10.69086 -10.69085,0 -10.69086,0 0,-10.69085 0,-10.69086 10.69086,0 10.69085,0 0,-10.69086 0,-10.69085 -21.38171,0 -21.38171,0 0,-10.69086 0,-10.69085 10.69086,0 10.69085,0 0,-10.69086 0,-10.69086 53.45428,0 53.45427,0 0,10.69086 0,10.69086 10.69086,0 10.69085,0 0,-10.69086 0,-10.69086 10.69086,0 10.69085,0 0,10.69086 0,10.69086 -10.69085,0 -10.69086,0 0,10.69085 0,10.69086 10.69086,0 10.69085,0 0,10.69085 0,10.69086 -10.69085,0 -10.69086,0 0,21.38171 0,21.38171 10.69086,0 10.69085,0 0,32.07257 0,32.07257 32.07256,0 32.07257,0 0,10.69085 0,10.69086 21.38171,0 21.38171,0 0,-10.69086 0,-10.69085 32.07256,0 32.07257,0 0,21.38171 0,21.38171 -10.69086,0 -10.69085,0 0,-10.69085 0,-10.69086 -21.38171,0 -21.38171,0 0,10.69086 0,10.69085 -21.38171,0 -21.38171,0 0,10.69086 0,10.69085 21.38171,0 21.38171,0 0,10.69086 0,10.69085 10.69085,0 10.69086,0 0,-10.69085 0,-10.69086 10.69085,0 10.69086,0 0,10.69086 0,10.69085 10.69085,0 10.69086,0 0,21.38172 0,21.38171 -10.69086,0 -10.69085,0 0,-10.69086 0,-10.69085 -21.38171,0 -21.38171,0 0,10.69085 0,10.69086 -21.38171,0 -21.38171,0 0,-10.69086 0,-10.69085 10.69085,0 10.69086,0 0,-10.69086 0,-10.69086 -10.69086,0 -10.69085,0 0,-10.69085 0,-10.69086 -10.69086,0 -10.69085,0 0,10.69086 0,10.69085 -10.69086,0 -10.69085,0 0,10.69086 0,10.69086 10.69085,0 10.69086,0 0,32.07256 0,32.07257 -10.69086,0 -10.69085,0 0,-21.38171 0,-21.38171 -10.69086,0 -10.69085,0 0,21.38171 0,21.38171 -21.38171,0 -21.38171,0 0,10.69086 0,10.69085 -10.69085,0 -10.69086,0 0,21.38171 0,21.38172 -21.38171,0 -21.38171,0 0,-10.69086 0,-10.69086 -10.69085,0 -10.69086,0 0,32.07257 0,32.07258 -21.38171,0 -21.38171,0 0,21.3817 0,21.3817 10.69086,0 10.69085,0 0,10.6909 0,10.6908 21.38171,0 21.38171,0 0,-10.6908 0,-10.6909 10.69086,0 10.69085,0 0,-10.6908 0,-10.6909 -10.69085,0 -10.69086,0 0,-21.3817 0,-21.3817 32.07257,0 32.07256,0 0,-21.38173 0,-21.38172 10.69086,0 10.69085,0 0,-10.69085 0,-10.69086 53.45427,0 53.45428,0 0,-21.38171 0,-21.38171 10.69085,0 10.69086,0 0,10.69086 0,10.69085 10.69085,0 10.69086,0 0,-10.69085 0,-10.69086 21.38171,0 21.38171,0 0,32.07257 0,32.07256 -21.38171,0 -21.38171,0 0,-10.69085 0,-10.69086 -21.38171,0 -21.38171,0 0,10.69086 0,10.69085 -21.38171,0 -21.38171,0 0,10.69086 0,10.69086 10.69085,0 10.69086,0 0,10.69085 0,10.69088 10.69085,0 10.69086,0 0,-10.69088 0,-10.69085 10.69085,0 10.69086,0 0,10.69085 0,10.69088 10.69085,0 10.69086,0 0,-10.69088 0,-10.69085 10.69085,0 10.69086,0 0,10.69085 0,10.69088 -10.69086,0 -10.69085,0 0,10.6908 0,10.6909 21.38171,0 21.38171,0 0,10.6909 0,10.6908 -21.38171,0 -21.38171,0 0,-10.6908 0,-10.6909 -10.69086,0 -10.69085,0 0,10.6909 0,10.6908 -10.69086,0 -10.69085,0 0,10.6909 0,10.6908 10.69085,0 10.69086,0 0,10.6909 0,10.6908 10.69085,0 10.69086,0 0,21.3818 0,21.3817 10.69085,0 10.69086,0 0,21.3817 0,21.3817 -10.69086,0 -10.69085,0 0,10.6909 0,10.6908 -10.69086,0 -10.69085,0 0,-10.6908 0,-10.6909 10.69085,0 10.69086,0 0,-21.3817 0,-21.3817 -10.69086,0 -10.69085,0 0,10.6908 0,10.6909 -10.69086,0 -10.69085,0 0,21.3817 0,21.3817 -10.69086,0 -10.69085,0 0,-32.0725 0,-32.0726 -10.69086,0 -10.69085,0 0,21.3817 0,21.3817 -10.69086,0 -10.69085,0 0,-21.3817 0,-21.3817 10.69085,0 10.69086,0 0,-10.6909 0,-10.6908 -21.38171,0 -21.38171,0 0,10.6908 0,10.6909 -10.69085,0 -10.69086,0 0,10.6908 0,10.6909 -10.69085,0 -10.69086,0 0,-10.6909 0,-10.6908 -10.69085,0 -10.69086,0 0,10.6908 0,10.6909 -10.69085,0 -10.69086,0 0,10.6909 0,10.6908 10.69086,0 10.69085,0 0,10.6909 0,10.6908 -10.69085,0 -10.69086,0 0,-10.6908 0,-10.6909 -10.69085,0 -10.69086,0 0,10.6909 0,10.6908 -53.45427,0 -53.45428,0 0,-21.3817 z m 42.76342,-10.6908 0,-10.6909 -10.69085,0 -10.69086,0 0,10.6909 0,10.6908 10.69086,0 10.69085,0 0,-10.6908 z m 64.14513,-21.3818 0,-10.6908 10.69086,0 10.69085,0 0,-10.6909 0,-10.6908 32.07257,0 32.07256,0 0,-10.6909 0,-10.6909 -10.69085,0 -10.69086,0 0,-21.3817 0,-21.3817 -10.69085,0 -10.69086,0 0,21.3817 0,21.3817 -10.69085,0 -10.69086,0 0,10.6909 0,10.6909 -10.69085,0 -10.69086,0 0,10.6908 0,10.6909 -10.69085,0 -10.69086,0 0,10.6908 0,10.6909 10.69086,0 10.69085,0 0,-10.6909 z m -42.76342,-21.3817 0,-10.6908 -10.69085,0 -10.69086,0 0,10.6908 0,10.6909 10.69086,0 10.69085,0 0,-10.6909 z m 256.58052,0 0,-10.6908 -21.38171,0 -21.38171,0 0,10.6908 0,10.6909 21.38171,0 21.38171,0 0,-10.6909 z m -42.76342,-64.1451 0,-32.0726 -32.07257,0 -32.07256,0 0,32.0726 0,32.0725 32.07256,0 32.07257,0 0,-32.0725 z m -42.76342,0 0,-10.6909 10.69085,0 10.69086,0 0,10.6909 0,10.6908 -10.69086,0 -10.69085,0 0,-10.6908 z m -235.19881,-42.7635 0,-10.6908 -21.38171,0 -21.38172,0 0,10.6908 0,10.6909 21.38172,0 21.38171,0 0,-10.6909 z m 235.19881,-32.07253 0,-21.38172 -21.38171,0 -21.38171,0 0,10.69086 0,10.69086 10.69086,0 10.69085,0 0,10.69085 0,10.69088 10.69085,0 10.69086,0 0,-21.38173 z m -342.10737,-10.69086 0,-10.69086 10.69086,0 10.69085,0 0,-10.69085 0,-10.69086 10.69086,0 10.69085,0 0,10.69086 0,10.69085 21.38171,0 21.38172,0 0,-10.69085 0,-10.69086 10.69086,0 10.69085,0 0,10.69086 0,10.69085 10.69086,0 10.69085,0 0,10.69086 0,10.69086 21.38171,0 21.38171,0 0,-10.69086 0,-10.69086 10.69086,0 10.69085,0 0,-10.69085 0,-10.69086 10.69086,0 10.69085,0 0,10.69086 0,10.69085 10.69086,0 10.69085,0 0,-21.38171 0,-21.38171 21.38171,0 21.38171,0 0,-10.69085 0,-10.69086 10.69086,0 10.69085,0 0,-10.69086 0,-10.69085 -21.38171,0 -21.38171,0 0,-21.38171 0,-21.38172 10.69086,0 10.69085,0 0,10.69086 0,10.69086 10.69086,0 10.69085,0 0,-10.69086 0,-10.69086 21.38171,0 21.38171,0 0,-21.38171 0,-21.38171 -10.69086,0 -10.69085,0 0,-10.69085 0,-10.69086 -10.69085,0 -10.69086,0 0,-10.69086 0,-10.69085 -10.69085,0 -10.69086,0 0,10.69085 0,10.69086 -10.69085,0 -10.69086,0 0,10.69086 0,10.69085 -21.38171,0 -21.38171,0 0,-10.69085 0,-10.69086 -10.69085,0 -10.69086,0 0,21.38171 0,21.38171 10.69086,0 10.69085,0 0,10.69086 0,10.69085 -10.69085,0 -10.69086,0 0,10.69086 0,10.69086 -10.69085,0 -10.69086,0 0,10.69085 0,10.69086 10.69086,0 10.69085,0 0,10.69085 0,10.69086 -10.69085,0 -10.69086,0 0,10.69086 0,10.69085 10.69086,0 10.69085,0 0,10.69086 0,10.69085 -21.38171,0 -21.38171,0 0,10.69086 0,10.69085 -10.69085,0 -10.69086,0 0,-10.69085 0,-10.69086 -10.69085,0 -10.69086,0 0,-21.38171 0,-21.38171 -32.07256,0 -32.07258,0 0,-10.69086 0,-10.69085 10.69086,0 10.69085,0 0,-10.69086 0,-10.69085 -10.69085,0 -10.69086,0 0,10.69085 0,10.69086 -10.69085,0 -10.69086,0 0,-10.69086 0,-10.69085 -10.69085,0 -10.69086,0 0,10.69085 0,10.69086 10.69086,0 10.69085,0 0,10.69085 0,10.69086 -32.07255,0 -32.07256,0 0,21.38171 0,21.38171 -10.69085,0 -10.69085,0 0,10.69086 0,10.69085 21.3817,0 21.38171,0 0,10.69086 0,10.69086 10.69085,0 10.69084,0 0,-10.69086 z m 0,-42.76342 0,-10.69086 10.69086,0 10.69085,0 0,10.69086 0,10.69085 -10.69085,0 -10.69086,0 0,-10.69085 z m 42.76342,0 0,-10.69086 10.69086,0 10.69085,0 0,10.69086 0,10.69085 -10.69085,0 -10.69086,0 0,-10.69085 z m 171.05369,-64.14514 0,-10.69085 10.69086,0 10.69085,0 0,10.69085 0,10.69086 -10.69085,0 -10.69086,0 0,-10.69086 z m 42.76342,-64.14513 0,-10.69086 10.69086,0 10.69085,0 0,10.69086 0,10.69085 -10.69085,0 -10.69086,0 0,-10.69085 z m 42.76342,0 0,-10.69086 10.69086,0 10.69085,0 0,10.69086 0,10.69085 -10.69085,0 -10.69086,0 0,-10.69085 z m 171.05368,128.29027 0,-10.69086 -10.69086,0 -10.69085,0 0,10.69086 0,10.69085 10.69085,0 10.69086,0 0,-10.69085 z m -555.92444,-21.38171 0,-10.69086 -10.69086,0 -10.69085,0 0,10.69086 0,10.69085 10.69085,0 10.69086,0 0,-10.69085 z m 64.14512,-128.29027 0,-10.69086 -10.69086,0 -10.69085,0 0,10.69086 0,10.69085 10.69085,0 10.69086,0 0,-10.69085 z m 42.7634,0 0,-10.69086 -10.69085,0 -10.69086,0 0,10.69086 0,10.69085 10.69086,0 10.69085,0 0,-10.69085 z m 85.52685,-21.38172 0,-10.69085 -10.69085,0 -10.69086,0 0,10.69085 0,10.69086 10.69086,0 10.69085,0 0,-10.69086 z m 85.52684,-21.38171 0,-10.69085 -10.69085,0 -10.69086,0 0,-10.69086 0,-10.69086 -10.69085,0 -10.69086,0 0,10.69086 0,10.69086 10.69086,0 10.69085,0 0,10.69085 0,10.69086 10.69086,0 10.69085,0 0,-10.69086 z m 106.90855,-32.07257 0,-21.38171 -10.69085,0 -10.69086,0 0,21.38171 0,21.38172 10.69086,0 10.69085,0 0,-21.38172 z m -171.05368,-53.45427 0,-10.69086 -10.69085,0 -10.69086,0 0,10.69086 0,10.69085 10.69086,0 10.69085,0 0,-10.69085 z m 149.67197,0 0,-10.69086 -10.69085,0 -10.69086,0 0,-10.69086 0,-10.69085 10.69086,0 10.69085,0 0,-10.69086 0,-10.69085 -10.69085,0 -10.69086,0 0,10.69085 0,10.69086 -10.69085,0 -10.69086,0 0,10.69085 0,10.69086 10.69086,0 10.69085,0 0,10.69086 0,10.69085 10.69086,0 10.69085,0 0,-10.69085 z m -213.81711,513.16116 0,-10.6909 -10.69085,0 -10.69086,0 0,-32.0726 0,-32.0726 21.38171,0 21.38172,0 0,10.6909 0,10.6909 -10.69085,0 -10.69087,0 0,21.3817 0,21.3817 10.69087,0 10.69085,0 0,10.6909 0,10.6908 -10.69085,0 -10.69087,0 0,-10.6908 z M 79.25241,397.02337 l 0,-74.836 74.83599,0 74.83596,0 0,74.836 0,74.83599 -74.83596,0 -74.83599,0 0,-74.83599 z m 128.29024,0 0,-53.45428 -53.45425,0 -53.45427,0 0,53.45428 0,53.45427 53.45427,0 53.45425,0 0,-53.45427 z m -85.52681,0 0,-32.07257 32.07256,0 32.07256,0 0,32.07257 0,32.07256 -32.07256,0 -32.07256,0 0,-32.07256 z m 427.63418,0 0,-74.836 74.83598,0 74.83599,0 0,74.836 0,74.83599 -74.83599,0 -74.83598,0 0,-74.83599 z m 128.29026,0 0,-53.45428 -53.45428,0 -53.45427,0 0,53.45428 0,53.45427 53.45427,0 53.45428,0 0,-53.45427 z m -85.52684,0 0,-32.07257 32.07256,0 32.07257,0 0,32.07257 0,32.07256 -32.07257,0 -32.07256,0 0,-32.07256 z m -342.10737,-42.76343 0,-32.07257 32.07258,0 32.07256,0 0,10.69086 0,10.69086 -10.69085,0 -10.69086,0 0,10.69085 0,10.69086 -10.69085,0 -10.69087,0 0,10.69085 0,10.69086 -10.69085,0 -10.69086,0 0,-32.07257 z"
         id="path3090"
         inkscape:connector-curvature="0" />
    </g>
  </g>
</svg>
