<?xml version="1.0" encoding="UTF-8" standalone="no"?>
<!-- Created with Inkscape (http://www.inkscape.org/) -->

<svg
   xmlns:dc="http://purl.org/dc/elements/1.1/"
   xmlns:cc="http://creativecommons.org/ns#"
   xmlns:rdf="http://www.w3.org/1999/02/22-rdf-syntax-ns#"
   xmlns:svg="http://www.w3.org/2000/svg"
   xmlns="http://www.w3.org/2000/svg"
   version="1.1"
   width="225.99889"
   height="306.22623"
   id="svg3272">
  <defs
     id="defs3274" />
  <metadata
     id="metadata3277">
    <rdf:RDF>
      <cc:Work
         rdf:about="">
        <dc:format>image/svg+xml</dc:format>
        <dc:type
           rdf:resource="http://purl.org/dc/dcmitype/StillImage" />
        <dc:title></dc:title>
      </cc:Work>
    </rdf:RDF>
  </metadata>
  <g
     transform="translate(-287.00032,-330.67762)"
     id="layer1">
    <path
       d="m 455.03477,554.22681 14.7122,71.1612 -23.6539,-5.92312 -17.5246,16.95647 -13.5575,-66.8454 c 1.8554,0.51622 3.8147,0.81288 5.9315,0.82796 1.4397,0.0101 2.8778,-0.1257 4.289,-0.4056 8.8009,-1.75146 13.6044,-7.89413 18.1531,-14.97539 0.4358,-0.6788 1.0995,-1.78666 1.7398,-2.67328 1.0659,0.17095 2.2995,0.47934 3.0722,0.6503 2.3246,0.50616 4.5906,0.96037 6.8382,1.22686 l 0,0 z m -69.8304,15.35083 -13.5558,66.84372 -17.5247,-16.95647 -23.6542,5.92312 14.7177,-71.17796 c 2.2319,-0.25811 4.4984,-0.6922 6.8012,-1.19502 0.7861,-0.17095 2.0398,-0.48437 3.1208,-0.65868 0.6319,0.87489 1.2855,1.96432 1.7129,2.63138 3.7192,5.79741 7.4131,10.94453 14.0436,13.74351 1.3274,0.56147 2.7068,0.98551 4.1197,1.26708 3.7107,0.73746 7.0628,0.4827 10.2188,-0.42068 l 0,0"
       id="path58"
       style="fill:#4074c3;fill-opacity:1;fill-rule:evenodd;stroke:none" />
    <path
       d="m 400.10767,340.63929 c 7.4986,0.53634 14.9016,-10.792 22.3516,-9.31039 7.45,1.48162 9.9121,14.76254 17.0872,17.15592 6.7226,3.36214 17.8967,-4.26886 24.2121,-0.0503 6.3169,4.22027 3.5079,17.43415 9.2215,22.38851 4.9225,5.68009 18.1683,2.90625 22.3885,9.22156 4.2203,6.31531 -3.4308,17.44923 -0.049,24.21204 2.375,7.13322 15.6726,9.63722 17.1543,17.0872 1.4816,7.44999 -9.8468,14.80779 -9.3104,22.34996 -0.5364,7.49859 10.792,14.90165 9.3104,22.35164 -1.4817,7.45166 -14.7626,9.91376 -17.1543,17.08553 -3.3655,6.72258 4.2672,17.8984 0.049,24.21371 -4.2202,6.31698 -17.4341,3.50962 -22.3885,9.22156 -5.6801,4.9242 -2.9046,18.16824 -9.2215,22.38851 -6.3154,4.22026 -17.4493,-3.43085 -24.2121,-0.0486 -7.1332,2.37495 -9.6372,15.67263 -17.0872,17.15424 -7.45,1.48162 -14.8078,-9.84672 -22.3516,-9.31038 -7.4969,-0.53466 -14.9,10.792 -22.35,9.31038 -7.45,-1.48161 -9.9137,-14.76253 -17.0872,-17.15424 -6.7226,-3.36548 -17.8957,4.26887 -24.2115,0.0486 -6.3167,-4.22027 -3.5093,-17.43415 -9.2216,-22.38851 -4.924,-5.68009 -18.1679,-2.90458 -22.3888,-9.22156 -4.2201,-6.31531 3.43,-17.44923 0.049,-24.21371 -2.3753,-7.13154 -15.673,-9.63387 -17.1551,-17.08553 -1.4816,-7.44999 9.8467,-14.80779 9.3106,-22.35164 0.5355,-7.49691 -10.7922,-14.89997 -9.3106,-22.34996 1.4821,-7.44999 14.7629,-9.91376 17.1558,-17.0872 3.3633,-6.72259 -4.2694,-17.89673 -0.05,-24.21204 4.2209,-6.31531 17.4334,-3.50795 22.3888,-9.22156 5.6803,-4.92252 2.9049,-18.16824 9.2216,-22.38851 6.3158,-4.22026 17.4487,3.42918 24.2115,0.0486 7.1332,-2.37495 9.6372,-15.67263 17.0872,-17.15425 7.45,-1.48161 14.8078,9.84673 22.35,9.31039 l 0,0 z m 30.4301,29.59212 c -52.0711,-21.5706 -109.5468,16.58774 -109.964,72.90428 -0.4195,56.69197 57.3381,95.81907 109.964,74.0222 52.6226,-21.79687 65.7996,-90.30826 25.4155,-130.09739 -7.3579,-7.24886 -16.0163,-12.93565 -25.4155,-16.82909 l 0,0"
       id="path60"
       style="fill:#363f4e;fill-opacity:1;fill-rule:evenodd;stroke:none" />
    <path
       d="m 400.10767,378.47416 c 36.0197,0 65.2213,29.20161 65.2213,65.21965 0,36.0214 -29.2016,65.22133 -65.2213,65.22133 -36.0197,0 -65.2193,-29.19993 -65.2193,-65.22133 0,-36.01804 29.1996,-65.21965 65.2193,-65.21965 l 0,0 z m 4.3359,19.55769 11.1322,24.18019 26.4378,3.11575 c 1.894,0.22292 3.3923,1.45145 3.9806,3.26492 0.5883,1.81348 0.099,3.68729 -1.3006,4.98119 l -19.5593,18.0593 5.2074,26.10596 c 0.3738,1.86878 -0.3318,3.67388 -1.8755,4.79347 -1.5419,1.12127 -3.4744,1.23524 -5.137,0.30336 l -23.2215,-13.01946 -23.2182,13.01946 c -1.6643,0.93188 -3.5984,0.81791 -5.1387,-0.30336 -1.5436,-1.11959 -2.2476,-2.92469 -1.8755,-4.79347 l 5.2058,-26.10596 -19.5577,-18.0593 c -1.3995,-1.2939 -1.8889,-3.16771 -1.3006,-4.98119 0.59,-1.81347 2.0867,-3.042 3.9806,-3.26492 l 26.4378,-3.11575 11.1322,-24.18019 c 0.7978,-1.73135 2.4286,-2.7772 4.3343,-2.7772 1.9073,0 3.5381,1.04585 4.3359,2.7772 l 0,0"
       id="path62"
       style="fill:#4074c3;fill-opacity:1;fill-rule:evenodd;stroke:none" />
    <path
       d="m 374.10296,554.38763 c -1.28369,-1.08015 -4.05479,-4.41968 -6.15799,-7.42118 -5.99577,-8.55661 -8.03851,-9.33953 -19.23605,-7.37262 -8.41694,1.47848 -11.40379,1.09018 -13.83446,-1.79851 -2.02808,-2.41023 -2.05593,-2.48785 -3.90463,-10.88014 -2.03975,-9.25954 -4.84963,-12.2539 -12.93552,-13.78475 -14.23358,-2.69477 -16.17596,-5.42638 -13.64957,-19.19561 1.22302,-6.66561 1.22389,-7.08738 0.0211,-10.2368 -1.01027,-2.64535 -2.16015,-3.92625 -5.90715,-6.5802 -13.15753,-9.31928 -13.852,-11.75681 -6.5406,-22.95676 6.04072,-9.25346 6.00139,-11.56216 -0.368,-21.60146 -6.63697,-10.46107 -6.05663,-13.01394 4.69068,-20.63395 5.96541,-4.22958 7.07811,-5.34153 8.1477,-8.14222 1.17133,-3.06709 1.17418,-3.61631 0.0522,-10.08942 -1.55464,-8.96947 -1.49665,-11.53541 0.31267,-13.83559 2.06454,-2.62463 4.20455,-3.56224 12.31194,-5.39427 6.14798,-1.38926 7.40602,-1.9324 9.63688,-4.16057 2.15614,-2.15353 2.75588,-3.46468 3.75624,-8.21181 1.70943,-8.11208 3.03624,-11.37591 5.45026,-13.40717 2.56533,-2.15858 4.75468,-2.25501 14.16533,-0.6239 6.4731,1.12195 7.02233,1.11911 10.08942,-0.0522 2.80069,-1.0696 3.91263,-2.18229 8.14221,-8.14771 7.66551,-10.81148 10.14348,-11.3463 20.91293,-4.51368 9.77731,6.20318 12.07319,6.22901 21.24875,0.23914 11.03303,-7.20244 13.73635,-6.57585 21.95703,5.08935 3.19718,4.53681 4.66469,5.98116 7.23003,7.11594 3.17574,1.40477 3.32282,1.40683 11.03309,0.15405 13.33894,-2.16733 15.49082,-0.84959 18.1935,11.14116 2.54947,11.31103 4.42799,13.23138 15.35115,15.69298 12.48535,2.81364 14.09903,5.23612 11.73107,17.61082 -1.9942,10.42154 -1.11191,13.096 5.95886,18.06288 2.55633,1.7957 6.00021,4.57538 7.65307,6.17706 4.73898,4.59227 4.24851,8.06447 -2.64592,18.7315 -4.80151,7.42887 -4.60559,9.85444 1.55384,19.23639 2.92343,4.45293 3.69592,6.26192 3.9422,9.23177 0.26862,3.23914 0.0668,3.97832 -1.64056,6.00734 -1.07077,1.27254 -4.25381,3.87043 -7.07342,5.77309 -8.86534,5.98227 -9.67374,8.04384 -7.72799,19.70797 2.08178,12.47963 0.77429,14.39962 -11.79675,17.32296 -7.25433,1.68697 -8.50322,2.20271 -10.73277,4.43227 -2.22956,2.22955 -2.7453,3.47843 -4.43226,10.73276 -2.92335,12.57104 -4.84333,13.87853 -17.32297,11.79675 -11.66413,-1.94574 -13.7257,-1.13735 -19.70797,7.72799 -1.90265,2.81961 -4.50054,6.00266 -5.77308,7.07343 -2.02902,1.70731 -2.7682,1.90917 -6.00735,1.64056 -2.96984,-0.24629 -4.77884,-1.01878 -9.23176,-3.9422 -9.80436,-6.43675 -11.52309,-6.4661 -21.13323,-0.36083 -5.01529,3.18617 -7.04474,4.07141 -9.88,4.30958 -3.10628,0.26094 -3.87034,0.0455 -5.90217,-1.66417 l 0,0 z m 34.66251,-32.13196 c 8.77052,-1.00502 17.51367,-3.68736 26.42666,-8.10752 15.78889,-7.83007 27.51177,-19.38677 35.16744,-34.66891 8.49887,-16.9653 10.7744,-33.37911 7.15589,-51.61667 -6.04085,-30.44643 -30.43504,-54.91131 -61.41521,-61.59319 -8.15522,-1.75894 -20.89151,-2.06344 -28.28427,-0.67622 -33.84924,6.35167 -58.42531,30.24228 -65.50863,63.6815 -0.49429,2.33345 -0.89871,8.85651 -0.89871,14.49569 0,5.63918 0.40442,12.16224 0.89871,14.49569 3.59664,16.97915 11.12465,30.55071 23.55325,42.46198 17.08785,16.37659 39.85692,24.16874 62.90487,21.52765 z"
       id="path3291"
       style="fill:#7bc5d9;fill-opacity:1;stroke:none" />
    <path
       d="m 362.65581,628.38785 -8.89672,-8.43845 -11.45647,2.86768 c -6.30105,1.57723 -11.61298,2.71116 -11.8043,2.51985 -0.42796,-0.42796 13.62119,-69.08272 14.43206,-70.52596 0.4476,-0.79665 6.29299,-2.42569 10.0818,-2.80968 0.23662,-0.024 1.61746,1.74451 3.06854,3.92999 6.43808,9.69646 12.62818,13.72561 21.18794,13.79131 2.52729,0.0194 4.92748,-0.17017 5.33376,-0.42127 0.40628,-0.25109 0.73869,0.0144 0.73869,0.58996 0,1.4742 -12.68653,64.17352 -13.2916,65.68969 -0.40821,1.0229 -2.08607,-0.26189 -9.3937,-7.19312 z"
       id="path3293"
       style="fill:#7bc5d9;fill-opacity:1;stroke:none" />
    <path
       d="m 393.02508,508.77117 c -8.10276,-0.85957 -13.63642,-2.48244 -21.58226,-6.32946 -29.56645,-14.31477 -43.6488,-47.66735 -33.50155,-79.34499 6.1344,-19.15034 22.42511,-35.44105 41.57546,-41.57545 31.6543,-10.13977 65.04075,3.95687 79.34497,33.50155 3.98529,8.2314 5.394,13.18842 6.33628,22.29628 1.65746,16.02048 -2.71278,32.23592 -12.12493,44.98857 -14.04371,19.02802 -36.56754,28.9544 -60.04797,26.4635 l 0,0 z m -4.7843,-32.80611 11.83067,-6.64026 12.77907,7.10853 c 12.63878,7.03049 12.79898,7.09548 14.59314,5.91991 0.99774,-0.65375 2.01333,-1.70789 2.25686,-2.34254 0.24354,-0.63465 -0.77538,-7.33074 -2.26427,-14.88021 l -2.70706,-13.7263 6.64568,-6.10499 c 13.60783,-12.5007 14.24709,-13.18513 14.24709,-15.25397 0,-3.55476 -1.21526,-3.99933 -15.8396,-5.79454 -7.52516,-0.92375 -13.87239,-1.68269 -14.10494,-1.68654 -0.23255,-0.004 -3.08202,-5.77111 -6.33215,-12.81614 -6.43124,-13.94044 -7.57974,-15.31984 -11.09082,-13.32053 -1.32398,0.7539 -3.27332,4.22712 -7.32328,13.04819 -3.03548,6.61145 -5.61457,12.24784 -5.73133,12.52531 -0.11676,0.27748 -6.56294,1.27916 -14.32485,2.22596 -12.57687,1.53413 -14.25043,1.89172 -15.37957,3.28615 -0.69686,0.86058 -1.26701,2.0616 -1.26701,2.66893 0,1.14368 5.27846,6.56869 15.42231,15.85047 l 5.87637,5.37697 -2.63956,13.32779 c -1.55151,7.83393 -2.4499,14.08197 -2.17943,15.15741 0.49159,1.95471 3.0166,3.59481 4.68743,3.0447 0.55801,-0.18373 6.33838,-3.32217 12.84525,-6.9743 l 0,0 z"
       id="path3295"
       style="fill:#7bc5d9;fill-opacity:1;stroke:none" />
    <path
       d="m 428.18077,636.05924 c -0.62582,-1.81118 -13.14118,-64.35011 -13.14118,-65.66618 0,-1.09983 0.38415,-1.20467 2.79717,-0.76342 3.98559,0.72882 9.35139,-0.29867 13.59848,-2.60394 3.29804,-1.79015 8.38801,-7.24508 12.59573,-13.49888 1.01984,-1.51576 1.23754,-1.54461 5.65685,-0.7497 2.52791,0.45471 4.87122,1.06548 5.20736,1.35727 0.67129,0.58275 15.37488,70.81486 14.92067,71.26906 -0.15472,0.15473 -5.46277,-1.01787 -11.79566,-2.60576 l -11.51435,-2.88708 -3.18198,2.96182 c -1.75009,1.629 -5.7942,5.49116 -8.98691,8.58256 -4.00076,3.87382 -5.9141,5.30482 -6.15618,4.60425 z"
       id="path3297"
       style="fill:#7bc5d9;fill-opacity:1;stroke:#7bc5d9;stroke-opacity:1" />
  </g>
</svg>
