<?xml version="1.0" encoding="UTF-8" standalone="no"?>
<!-- Created with Inkscape (http://www.inkscape.org/) -->

<svg
   xmlns:dc="http://purl.org/dc/elements/1.1/"
   xmlns:cc="http://creativecommons.org/ns#"
   xmlns:rdf="http://www.w3.org/1999/02/22-rdf-syntax-ns#"
   xmlns:svg="http://www.w3.org/2000/svg"
   xmlns="http://www.w3.org/2000/svg"
   xmlns:sodipodi="http://sodipodi.sourceforge.net/DTD/sodipodi-0.dtd"
   xmlns:inkscape="http://www.inkscape.org/namespaces/inkscape"
   width="2451.3191"
   height="3724.106"
   id="svg2985"
   version="1.1"
   inkscape:version="0.48.3.1 r9886"
   sodipodi:docname="biglietto_da_visita_retro.svg"
   inkscape:export-filename="/home/maria/Sviluppo/entpy-graphics/materiale marketing/png/retro.png"
   inkscape:export-xdpi="100"
   inkscape:export-ydpi="100">
  <defs
     id="defs3" />
  <sodipodi:namedview
     id="base"
     pagecolor="#ffffff"
     bordercolor="#666666"
     borderopacity="1.0"
     inkscape:pageopacity="0.0"
     inkscape:pageshadow="2"
     inkscape:zoom="0.26468281"
     inkscape:cx="779.66201"
     inkscape:cy="1233.2108"
     inkscape:document-units="mm"
     inkscape:current-layer="layer1"
     showgrid="false"
     units="mm"
     inkscape:window-width="1375"
     inkscape:window-height="876"
     inkscape:window-x="65"
     inkscape:window-y="24"
     inkscape:window-maximized="1"
     fit-margin-top="0"
     fit-margin-left="0"
     fit-margin-right="0"
     fit-margin-bottom="0" />
  <metadata
     id="metadata2989">
    <rdf:RDF>
      <cc:Work
         rdf:about="">
        <dc:format>image/svg+xml</dc:format>
        <dc:type
           rdf:resource="http://purl.org/dc/dcmitype/StillImage" />
        <dc:title />
      </cc:Work>
    </rdf:RDF>
  </metadata>
  <g
     inkscape:label="Layer 1"
     inkscape:groupmode="layer"
     id="layer1"
     transform="translate(2831.0681,3509.218)">
    <path
       style="fill:#0c2a33;fill-opacity:1;fill-rule:nonzero;stroke:none"
       d="m -2831.0681,-3509.218 2451.30347,0 0,3724.09569 -2451.30347,0 z"
       id="path7033"
       inkscape:connector-curvature="0" />
    <path
       id="path7035"
       d="m -2831.0615,-3509.2058 0,3280.5 c 127.9431,-92.762 285.2894,-147.4688 455.4062,-147.4688 364.9668,0 671.1035,251.7526 754.3125,591.0626 l 851.59377,0 c -1.7029,-16.7886 -2.5938,-33.8248 -2.5938,-51.0626 0,-239.2673 168.0767,-439.2857 392.5938,-488.4374 l 0,-3184.5938 -2451.31247,0 z"
       style="fill:#09252e;fill-opacity:1;fill-rule:nonzero;stroke:none"
       inkscape:connector-curvature="0" />
    <path
       transform="matrix(0.8,0,0,0.8,-3689.6657,-2882.6982)"
       d="m 2280,1874.8295 c 0,165.6854 -134.3146,300 -300,300 -165.6854,0 -300,-134.3146 -300,-300 0,-165.6855 134.3146,-300 300,-300 165.6854,0 300,134.3145 300,300 z"
       sodipodi:ry="300"
       sodipodi:rx="300"
       sodipodi:cy="1874.8295"
       sodipodi:cx="1980"
       id="path7103"
       style="fill:#10323d;fill-opacity:0.36254979;fill-rule:nonzero;stroke:none"
       sodipodi:type="arc" />
    <path
       transform="matrix(0.59493673,0,0,0.59493673,-2340.94,-3325.5814)"
       d="m 406.66667,2004.8295 c 0,145.435 -117.89835,263.3333 -263.33334,263.3333 -145.4349915,0 -263.33335,-117.8983 -263.33335,-263.3333 0,-145.435 117.8983585,-263.3334 263.33335,-263.3334 145.43499,0 263.33334,117.8984 263.33334,263.3334 z"
       sodipodi:ry="263.33334"
       sodipodi:rx="263.33334"
       sodipodi:cy="2004.8295"
       sodipodi:cx="143.33333"
       id="path7105"
       style="fill:#10323d;fill-opacity:0.36254979;fill-rule:nonzero;stroke:none"
       sodipodi:type="arc" />
    <path
       sodipodi:type="arc"
       style="fill:#10323d;fill-opacity:0.36254979;fill-rule:nonzero;stroke:none"
       id="path7107"
       sodipodi:cx="1980"
       sodipodi:cy="1874.8295"
       sodipodi:rx="300"
       sodipodi:ry="300"
       d="m 2280,1874.8295 c 0,165.6854 -134.3146,300 -300,300 -165.6854,0 -300,-134.3146 -300,-300 0,-165.6855 134.3146,-300 300,-300 165.6854,0 300,134.3145 300,300 z"
       transform="translate(-3245.6657,-2764.3308)" />
    <path
       sodipodi:type="arc"
       style="fill:#10323d;fill-opacity:0.36254979;fill-rule:nonzero;stroke:none"
       id="path7109"
       sodipodi:cx="143.33333"
       sodipodi:cy="2004.8295"
       sodipodi:rx="263.33334"
       sodipodi:ry="263.33334"
       d="m 406.66667,2004.8295 c 0,145.435 -117.89835,263.3333 -263.33334,263.3333 -145.4349915,0 -263.33335,-117.8983 -263.33335,-263.3333 0,-145.435 117.8983585,-263.3334 263.33335,-263.3334 145.43499,0 263.33334,117.8984 263.33334,263.3334 z"
       transform="matrix(0.59493673,0,0,0.59493673,-1400.9399,-3458.9147)" />
    <path
       transform="matrix(0.59493673,0,0,0.59493673,-680.93993,-3152.248)"
       d="m 406.66667,2004.8295 c 0,145.435 -117.89835,263.3333 -263.33334,263.3333 -145.4349915,0 -263.33335,-117.8983 -263.33335,-263.3333 0,-145.435 117.8983585,-263.3334 263.33335,-263.3334 145.43499,0 263.33334,117.8984 263.33334,263.3334 z"
       sodipodi:ry="263.33334"
       sodipodi:rx="263.33334"
       sodipodi:cy="2004.8295"
       sodipodi:cx="143.33333"
       id="path7111"
       style="fill:#10323d;fill-opacity:0.36254979;fill-rule:nonzero;stroke:none"
       sodipodi:type="arc" />
    <path
       sodipodi:type="arc"
       style="fill:#10323d;fill-opacity:0.36254979;fill-rule:nonzero;stroke:none"
       id="path7113"
       sodipodi:cx="1980"
       sodipodi:cy="1874.8295"
       sodipodi:rx="300"
       sodipodi:ry="300"
       d="m 2280,1874.8295 c 0,165.6854 -134.3146,300 -300,300 -165.6854,0 -300,-134.3146 -300,-300 0,-165.6855 134.3146,-300 300,-300 165.6854,0 300,134.3145 300,300 z"
       transform="matrix(0.8,0,0,0.8,-2802.999,-3136.0315)" />
    <path
       sodipodi:type="arc"
       style="fill:#10323d;fill-opacity:0.36254979;fill-rule:nonzero;stroke:none"
       id="path7153"
       sodipodi:cx="143.33333"
       sodipodi:cy="2004.8295"
       sodipodi:rx="263.33334"
       sodipodi:ry="263.33334"
       d="m 406.66667,2004.8295 c 0,145.435 -117.89835,263.3333 -263.33334,263.3333 -145.4349915,0 -263.33335,-117.8983 -263.33335,-263.3333 0,-145.435 117.8983585,-263.3334 263.33335,-263.3334 145.43499,0 263.33334,117.8984 263.33334,263.3334 z"
       transform="matrix(0.32641518,0,0,0.32641518,-2387.3047,-3437.7798)" />
    <path
       transform="matrix(0.32641518,0,0,0.32641518,-1609.4872,-3282.2163)"
       d="m 406.66667,2004.8295 c 0,145.435 -117.89835,263.3333 -263.33334,263.3333 -145.4349915,0 -263.33335,-117.8983 -263.33335,-263.3333 0,-145.435 117.8983585,-263.3334 263.33335,-263.3334 145.43499,0 263.33334,117.8984 263.33334,263.3334 z"
       sodipodi:ry="263.33334"
       sodipodi:rx="263.33334"
       sodipodi:cy="2004.8295"
       sodipodi:cx="143.33333"
       id="path7155"
       style="fill:#10323d;fill-opacity:0.36254979;fill-rule:nonzero;stroke:none"
       sodipodi:type="arc" />
    <path
       sodipodi:type="arc"
       style="fill:#10323d;fill-opacity:0.36254979;fill-rule:nonzero;stroke:none"
       id="path7157"
       sodipodi:cx="143.33333"
       sodipodi:cy="2004.8295"
       sodipodi:rx="263.33334"
       sodipodi:ry="263.33334"
       d="m 406.66667,2004.8295 c 0,145.435 -117.89835,263.3333 -263.33334,263.3333 -145.4349915,0 -263.33335,-117.8983 -263.33335,-263.3333 0,-145.435 117.8983585,-263.3334 263.33335,-263.3334 145.43499,0 263.33334,117.8984 263.33334,263.3334 z"
       transform="matrix(0.32641518,0,0,0.32641518,-760.95906,-3329.3568)" />
    <path
       transform="matrix(0.16530225,0,0,0.16530225,-558.73249,-3595.6085)"
       d="m 406.66667,2004.8295 c 0,145.435 -117.89835,263.3333 -263.33334,263.3333 -145.4349915,0 -263.33335,-117.8983 -263.33335,-263.3333 0,-145.435 117.8983585,-263.3334 263.33335,-263.3334 145.43499,0 263.33334,117.8984 263.33334,263.3334 z"
       sodipodi:ry="263.33334"
       sodipodi:rx="263.33334"
       sodipodi:cy="2004.8295"
       sodipodi:cx="143.33333"
       id="path7159"
       style="fill:#10323d;fill-opacity:0.36254979;fill-rule:nonzero;stroke:none"
       sodipodi:type="arc" />
    <path
       sodipodi:type="arc"
       style="fill:#10323d;fill-opacity:0.36254979;fill-rule:nonzero;stroke:none"
       id="path7161"
       sodipodi:cx="143.33333"
       sodipodi:cy="2004.8295"
       sodipodi:rx="263.33334"
       sodipodi:ry="263.33334"
       d="m 406.66667,2004.8295 c 0,145.435 -117.89835,263.3333 -263.33334,263.3333 -145.4349915,0 -263.33335,-117.8983 -263.33335,-263.3333 0,-145.435 117.8983585,-263.3334 263.33335,-263.3334 145.43499,0 263.33334,117.8984 263.33334,263.3334 z"
       transform="matrix(0.16530225,0,0,0.16530225,-2698.909,-3614.4647)" />
    <g
       transform="matrix(2.2411333,0,0,2.2411333,-2529.8728,-3290.728)"
       id="g7039">
      <g
         style="display:inline"
         inkscape:label="y_container"
         id="g7041"
         transform="translate(2.250338e-4,-847.36239)">
        <path
           style="fill:none;stroke:#29ace2;stroke-width:3.03299999;stroke-linecap:round;stroke-linejoin:miter;stroke-miterlimit:0;stroke-opacity:1;stroke-dasharray:3.03299999, 6.06599998;stroke-dashoffset:3.63959999"
           d="m 653.92291,947.90851 c -0.4578,14.46175 -4.1709,28.09581 -10.4207,40.21074 14.08047,27.28595 41.15379,47.18505 73.96875,50.68745 51.88706,5.538 98.43077,-32.0192 103.96875,-83.9062 5.53798,-51.88706 -32.01919,-98.43077 -83.90625,-103.96875 -3.24294,-0.34612 -6.4637,-0.54615 -9.65625,-0.5625 l 0,0 0,0 c -36.1085,-0.18489 -68.4296,20.28966 -84.375,51.21875 5.7958,11.22679 9.40336,23.76404 10.267,37.05249"
           id="path7043"
           inkscape:connector-curvature="0" />
      </g>
      <g
         transform="translate(2.250338e-4,-847.36239)"
         id="g7045"
         inkscape:label="p_container"
         style="display:inline">
        <path
           style="fill:none;stroke:#29ace2;stroke-width:3.03313303;stroke-linecap:round;stroke-linejoin:bevel;stroke-miterlimit:0;stroke-opacity:1;stroke-dasharray:none;stroke-dashoffset:2.47187521"
           d="m 559.50179,850.4005 c -34.63469,0 -64.92553,18.61519 -81.375,46.40625 8.48509,14.02752 13.375,30.4688 13.375,48.0625 0,17.59369 -4.88991,34.03498 -13.375,48.0625 16.44947,27.79105 46.74031,46.40615 81.375,46.40615 52.18176,0 94.46875,-42.28689 94.46875,-94.46865 0,-52.18176 -42.28699,-94.46875 -94.46875,-94.46875 z"
           id="path7047"
           inkscape:connector-curvature="0" />
      </g>
      <g
         style="display:inline"
         inkscape:label="t_container"
         id="g7049"
         transform="translate(2.250338e-4,-847.36239)">
        <path
           style="fill:none;stroke:#29ace2;stroke-width:5.97200012;stroke-linecap:round;stroke-linejoin:bevel;stroke-miterlimit:0;stroke-opacity:1;stroke-dasharray:none;stroke-dashoffset:4.94375041"
           d="m 398.50179,851.86925 c -32.57256,0 -61.22892,16.74462 -77.84375,42.09375 9.74657,14.55623 15.4375,32.07378 15.4375,50.90625 0,18.83248 -5.69093,36.35002 -15.4375,50.90625 16.61483,25.3491 45.27119,42.0937 77.84375,42.0937 51.37023,0 93,-41.62972 93,-92.99995 0,-51.37023 -41.62977,-93 -93,-93 z"
           id="path7051"
           inkscape:connector-curvature="0" />
        <flowRoot
           xml:space="preserve"
           id="flowRoot7053"
           style="font-size:130px;font-style:normal;font-variant:normal;font-weight:500;font-stretch:normal;text-align:start;line-height:125%;letter-spacing:0px;word-spacing:0px;writing-mode:lr-tb;text-anchor:start;fill:#83c61a;fill-opacity:1;stroke:none;display:inline;font-family:Artifika;-inkscape-font-specification:Artifika Medium"
           transform="translate(116.36912,970.45981)"
           inkscape:export-filename="/home/maria/Scrivania/logo_final.png"
           inkscape:export-xdpi="200.3"
           inkscape:export-ydpi="200.3"><flowRegion
             id="flowRegion7055"><rect
               id="rect7057"
               width="133.92999"
               height="205.50803"
               x="-60"
               y="-110"
               style="font-size:130px;font-style:normal;font-variant:normal;font-weight:500;font-stretch:normal;text-align:start;line-height:125%;writing-mode:lr-tb;text-anchor:start;fill:#83c61a;fill-opacity:1;font-family:Artifika;-inkscape-font-specification:Artifika Medium" /></flowRegion><flowPara
             id="flowPara7059">E</flowPara></flowRoot>        <flowRoot
           transform="translate(258.25926,970.45981)"
           style="font-size:130px;font-style:normal;font-variant:normal;font-weight:500;font-stretch:normal;text-align:start;line-height:125%;letter-spacing:0px;word-spacing:0px;writing-mode:lr-tb;text-anchor:start;fill:#83c61a;fill-opacity:1;stroke:none;display:inline;font-family:Artifika;-inkscape-font-specification:Artifika Medium"
           id="flowRoot7061"
           xml:space="preserve"
           inkscape:export-filename="/home/maria/Scrivania/logo_final.png"
           inkscape:export-xdpi="200.3"
           inkscape:export-ydpi="200.3"><flowRegion
             id="flowRegion7063"><rect
               style="font-size:130px;font-style:normal;font-variant:normal;font-weight:500;font-stretch:normal;text-align:start;line-height:125%;writing-mode:lr-tb;text-anchor:start;fill:#83c61a;fill-opacity:1;font-family:Artifika;-inkscape-font-specification:Artifika Medium"
               y="-110"
               x="-60"
               height="205.50803"
               width="135.44749"
               id="rect7065" /></flowRegion><flowPara
             id="flowPara7067">N</flowPara></flowRoot>        <flowRoot
           xml:space="preserve"
           id="flowRoot7069"
           style="font-size:130px;font-style:normal;font-variant:normal;font-weight:500;font-stretch:normal;text-align:start;line-height:125%;letter-spacing:0px;word-spacing:0px;writing-mode:lr-tb;text-anchor:start;fill:#83c61a;fill-opacity:1;stroke:none;display:inline;font-family:Artifika;-inkscape-font-specification:Artifika Medium"
           transform="translate(415.24266,970.45981)"
           inkscape:export-filename="/home/maria/Scrivania/logo_final.png"
           inkscape:export-xdpi="200.3"
           inkscape:export-ydpi="200.3"><flowRegion
             id="flowRegion7071"><rect
               id="rect7073"
               width="136.965"
               height="205.70303"
               x="-60"
               y="-110"
               style="font-size:130px;font-style:normal;font-variant:normal;font-weight:500;font-stretch:normal;text-align:start;line-height:125%;writing-mode:lr-tb;text-anchor:start;fill:#83c61a;fill-opacity:1;font-family:Artifika;-inkscape-font-specification:Artifika Medium" /></flowRegion><flowPara
             id="flowPara7075">T</flowPara></flowRoot>        <flowRoot
           transform="translate(577.67088,970.45981)"
           style="font-size:130px;font-style:normal;font-variant:normal;font-weight:500;font-stretch:normal;text-align:start;line-height:125%;letter-spacing:0px;word-spacing:0px;writing-mode:lr-tb;text-anchor:start;fill:#83c61a;fill-opacity:1;stroke:none;display:inline;font-family:Artifika;-inkscape-font-specification:Artifika Medium"
           id="flowRoot7077"
           xml:space="preserve"
           inkscape:export-filename="/home/maria/Scrivania/logo_final.png"
           inkscape:export-xdpi="200.3"
           inkscape:export-ydpi="200.3"><flowRegion
             id="flowRegion7079"><rect
               style="font-size:130px;font-style:normal;font-variant:normal;font-weight:500;font-stretch:normal;text-align:start;line-height:125%;writing-mode:lr-tb;text-anchor:start;fill:#83c61a;fill-opacity:1;font-family:Artifika;-inkscape-font-specification:Artifika Medium"
               y="-110"
               x="-60"
               height="205.11803"
               width="118.4825"
               id="rect7081" /></flowRegion><flowPara
             id="flowPara7083">P</flowPara></flowRoot>        <flowRoot
           xml:space="preserve"
           id="flowRoot7085"
           style="font-size:130px;font-style:normal;font-variant:normal;font-weight:500;font-stretch:normal;text-align:start;line-height:125%;letter-spacing:0px;word-spacing:0px;writing-mode:lr-tb;text-anchor:start;fill:#83c61a;fill-opacity:1;stroke:none;display:inline;font-family:Artifika;-inkscape-font-specification:Artifika Medium"
           transform="translate(749.09862,970.45981)"
           inkscape:export-xdpi="200.3"
           inkscape:export-ydpi="200.3"
           inkscape:export-filename="/home/maria/Scrivania/logo_final.png"><flowRegion
             id="flowRegion7087"><rect
               id="rect7089"
               width="140"
               height="225.18303"
               x="-60"
               y="-110"
               style="font-size:130px;font-style:normal;font-variant:normal;font-weight:500;font-stretch:normal;text-align:start;line-height:125%;writing-mode:lr-tb;text-anchor:start;fill:#83c61a;fill-opacity:1;font-family:Artifika;-inkscape-font-specification:Artifika Medium" /></flowRegion><flowPara
             id="flowPara7091">Y</flowPara></flowRoot>      </g>
      <g
         transform="translate(2.250338e-4,-847.36239)"
         id="g7093"
         inkscape:label="n_container"
         style="display:inline">
        <path
           style="fill:none;stroke:#29ace2;stroke-width:8.82070732;stroke-linecap:round;stroke-linejoin:bevel;stroke-miterlimit:0;stroke-opacity:1;stroke-dasharray:none;stroke-dashoffset:7.41562561"
           d="m 244.50179,853.2755 c -30.6307,0 -57.74675,15.03084 -74.375,38.125 11.03668,14.96576 17.59375,33.4468 17.59375,53.46875 0,20.02195 -6.55707,38.50299 -17.59375,53.46875 16.62825,23.0941 43.7443,38.1249 74.375,38.1249 50.58357,0 91.59375,-41.01008 91.59375,-91.59365 0,-50.58357 -41.01018,-91.59375 -91.59375,-91.59375 z"
           id="path7095"
           inkscape:connector-curvature="0" />
      </g>
      <g
         inkscape:label="e_container"
         id="g7097"
         transform="translate(2.250338e-4,-847.36239)"
         style="display:inline">
        <path
           sodipodi:type="arc"
           style="fill:none;stroke:#29ace2;stroke-width:7.06277084;stroke-linecap:round;stroke-linejoin:bevel;stroke-miterlimit:0;stroke-opacity:1;stroke-dasharray:none;stroke-dashoffset:9.88750059"
           id="path7099"
           sodipodi:cx="165"
           sodipodi:cy="127"
           sodipodi:rx="55"
           sodipodi:ry="55"
           d="m 220,127 c 0,30.37566 -24.62434,55 -55,55 -30.37566,0 -55,-24.62434 -55,-55 0,-30.375661 24.62434,-55 55,-55 30.37566,0 55,24.624339 55,55 z"
           transform="matrix(1.6401495,0,0,1.6401495,-173.12273,736.57026)" />
        <path
           transform="matrix(1.6401495,0,0,1.6401495,-173.12273,736.57026)"
           d="m 220,127 c 0,30.37566 -24.62434,55 -55,55 -30.37566,0 -55,-24.62434 -55,-55 0,-30.375661 24.62434,-55 55,-55 30.37566,0 55,24.624339 55,55 z"
           sodipodi:ry="55"
           sodipodi:rx="55"
           sodipodi:cy="127"
           sodipodi:cx="165"
           id="path7101"
           style="fill:none;stroke:#29ace2;stroke-width:7.06277084;stroke-linecap:round;stroke-linejoin:bevel;stroke-miterlimit:0;stroke-opacity:1;stroke-dasharray:none;stroke-dashoffset:9.88750059"
           sodipodi:type="arc" />
      </g>
    </g>
    <text
       xml:space="preserve"
       style="font-size:110px;font-style:normal;font-variant:normal;font-weight:normal;font-stretch:normal;text-align:center;line-height:125%;letter-spacing:0px;word-spacing:0px;writing-mode:lr-tb;text-anchor:middle;fill:#ffffff;fill-opacity:1;stroke:none;font-family:Sawasdee;-inkscape-font-specification:Sawasdee"
       x="-1604.2505"
       y="-2399.3259"
       id="text7123"
       sodipodi:linespacing="125%"><tspan
         sodipodi:role="line"
         id="tspan7125"
         x="-1604.2505"
         y="-2399.3259">Cosa significa <tspan
   style="font-size:110px;font-weight:bold;word-spacing:0px;-inkscape-font-specification:Sawasdee Bold"
   id="tspan3156">informatica</tspan>?</tspan><tspan
         sodipodi:role="line"
         x="-1584.5923"
         y="-2261.0369"
         id="tspan3132">Per noi l'informatica è apertura </tspan><tspan
         sodipodi:role="line"
         x="-1584.5923"
         y="-2123.5369"
         id="tspan3136">mentale, classe nella risoluzione di </tspan><tspan
         sodipodi:role="line"
         x="-1604.2505"
         y="-1986.037"
         id="tspan3138">problemi e scambio di opinioni.</tspan><tspan
         sodipodi:role="line"
         x="-1584.5923"
         y="-1848.537"
         id="tspan3134">Se utilizzata bene e in maniera </tspan><tspan
         sodipodi:role="line"
         x="-1604.2505"
         y="-1711.037"
         id="tspan3144">opportuna, è lo strumento</tspan><tspan
         sodipodi:role="line"
         x="-1604.2505"
         y="-1573.537"
         id="tspan3146"> che permette di eliminare qualunque</tspan><tspan
         sodipodi:role="line"
         x="-1584.5923"
         y="-1436.037"
         id="tspan3148"> tipo di barriera. <tspan
   style="font-size:110px;font-weight:bold;word-spacing:0px;-inkscape-font-specification:Sawasdee Bold"
   id="tspan3158">Entpy</tspan> è nata per </tspan><tspan
         sodipodi:role="line"
         x="-1604.2505"
         y="-1297.7479"
         id="tspan3150">sopperire allo sfruttamento di quest’arte.</tspan><tspan
         sodipodi:role="line"
         x="-1584.5923"
         y="-1160.2479"
         id="tspan3152"> Sosteniamo l’open source e siamo </tspan><tspan
         sodipodi:role="line"
         x="-1604.2505"
         y="-1022.748"
         id="tspan3154">cultori del software libero.</tspan></text>
    <g
       transform="translate(-1994.6925,-1048.2781)"
       id="g3958">
      <rect
         y="312.2222"
         x="69.287201"
         height="640"
         width="640"
         id="rect3128"
         style="fill:#ffffff;fill-opacity:1;fill-rule:nonzero;stroke:none" />
      <path
         inkscape:connector-curvature="0"
         id="path3090"
         d="m 79.25241,867.42103 0,-74.836 74.83599,0 74.83596,0 0,74.836 0,74.836 -74.83596,0 -74.83599,0 0,-74.836 z m 128.29024,0 0,-53.4543 -53.45425,0 -53.45427,0 0,53.4543 0,53.4543 53.45427,0 53.45425,0 0,-53.4543 z m -85.52681,0 0,-32.0726 32.07256,0 32.07256,0 0,32.0726 0,32.0726 -32.07256,0 -32.07256,0 0,-32.0726 z m 192.43537,53.4543 0,-21.3817 10.69086,0 10.69085,0 0,-10.6909 0,-10.6908 -10.69085,0 -10.69086,0 0,-10.6909 0,-10.6908 21.38171,0 21.38171,0 0,-21.3818 0,-21.3817 -10.69085,0 -10.69086,0 0,-21.3817 0,-21.3817 -10.69085,0 -10.69086,0 0,21.3817 0,21.3817 -10.69085,0 -10.69086,0 0,-10.6908 0,-10.6909 -21.38172,0 -21.38171,0 0,-42.7634 0,-42.76345 -10.69085,0 -10.69086,0 0,10.69086 0,10.69086 -10.69085,0 -10.69086,0 0,10.69085 0,10.69088 10.69086,0 10.69085,0 0,10.6908 0,10.6909 -21.38171,0 -21.38169,0 0,-10.6909 0,-10.6908 -10.69086,0 -10.69085,0 0,-10.69088 0,-10.69085 -21.3817,0 -21.38171,0 0,-21.38172 0,-21.38171 -10.69086,0 -10.69085,0 0,42.76343 0,42.76343 -10.690865,0 -10.690855,0 0,-42.76343 0,-42.76343 10.690855,0 10.690865,0 0,-10.69085 0,-10.69086 -10.690865,0 -10.690855,0 0,-10.69085 0,-10.69086 10.690855,0 10.690865,0 0,-21.38171 0,-21.38171 -10.690865,0 -10.690855,0 0,-10.69086 0,-10.69086 10.690855,0 10.690865,0 0,10.69086 0,10.69086 10.69085,0 10.69086,0 0,-21.38172 0,-21.38171 10.69084,0 10.69087,0 0,21.38171 0,21.38172 -10.69087,0 -10.69084,0 0,10.69085 0,10.69086 10.69084,0 10.69087,0 0,10.69085 0,10.69086 10.69085,0 10.69085,0 0,-10.69086 0,-10.69085 10.69085,0 10.69086,0 0,-10.69086 0,-10.69085 10.69085,0 10.69084,0 0,-10.69086 0,-10.69086 10.69086,0 10.69085,0 0,10.69086 0,10.69086 10.69086,0 10.69085,0 0,-10.69086 0,-10.69086 10.69086,0 10.69085,0 0,10.69086 0,10.69086 10.69087,0 10.69085,0 0,10.69085 0,10.69086 10.69086,0 10.69085,0 0,10.69085 0,10.69086 10.69086,0 10.69085,0 0,10.69086 0,10.69085 10.69086,0 10.69085,0 0,-21.38171 0,-21.38171 -10.69085,0 -10.69086,0 0,-21.38171 0,-21.38172 10.69086,0 10.69085,0 0,10.69086 0,10.69086 10.69086,0 10.69085,0 0,-10.69086 0,-10.69086 10.69086,0 10.69085,0 0,-10.69085 0,-10.69086 -10.69085,0 -10.69086,0 0,-10.69085 0,-10.69086 -10.69085,0 -10.69086,0 0,-21.38171 0,-21.38171 -10.69085,0 -10.69086,0 0,10.69085 0,10.69086 -10.69085,0 -10.69086,0 0,10.69086 0,10.69085 10.69086,0 10.69085,0 0,10.69086 0,10.69085 -10.69085,0 -10.69086,0 0,-10.69085 0,-10.69086 -10.69085,0 -10.69086,0 0,-10.69085 0,-10.69086 -10.69085,0 -10.69087,0 0,10.69086 0,10.69085 -10.69085,0 -10.69086,0 0,10.69086 0,10.69085 -42.76342,0 -42.7634,0 0,-10.69085 0,-10.69086 -32.07257,0 -32.07255,0 0,10.69086 0,10.69085 -10.690865,0 -10.690855,0 0,-21.38171 0,-21.38171 21.38172,0 21.38171,0 0,-10.69086 0,-10.69085 32.07256,0 32.07256,0 0,10.69085 0,10.69086 10.69085,0 10.69084,0 0,-10.69086 0,-10.69085 10.69086,0 10.69085,0 0,10.69085 0,10.69086 10.69086,0 10.69085,0 0,-42.76342 0,-42.76343 10.69086,0 10.69085,0 0,32.07257 0,32.07257 10.69087,0 10.69085,0 0,-53.45428 0,-53.45428 10.69086,0 10.69085,0 0,-10.69086 0,-10.69085 10.69086,0 10.69085,0 0,10.69085 0,10.69086 10.69086,0 10.69085,0 0,10.69086 0,10.69085 -10.69085,0 -10.69086,0 0,10.69086 0,10.69085 -10.69085,0 -10.69086,0 0,21.38171 0,21.38172 10.69086,0 10.69085,0 0,-10.69086 0,-10.69086 10.69086,0 10.69085,0 0,-10.69085 0,-10.69086 10.69086,0 10.69085,0 0,10.69086 0,10.69085 10.69086,0 10.69085,0 0,10.69086 0,10.69086 10.69086,0 10.69085,0 0,-10.69086 0,-10.69086 10.69086,0 10.69085,0 0,21.38172 0,21.38171 -10.69085,0 -10.69086,0 0,10.69085 0,10.69086 21.38171,0 21.38171,0 0,-10.69086 0,-10.69085 10.69086,0 10.69085,0 0,-10.69086 0,-10.69085 -10.69085,0 -10.69086,0 0,-32.07257 0,-32.07257 -10.69085,0 -10.69086,0 0,10.69086 0,10.69085 -21.38171,0 -21.38171,0 0,-10.69085 0,-10.69086 -10.69085,0 -10.69086,0 0,-10.69085 0,-10.69086 10.69086,0 10.69085,0 0,-10.69086 0,-10.69085 -21.38171,0 -21.38171,0 0,-10.69086 0,-10.69085 10.69086,0 10.69085,0 0,-10.69086 0,-10.69086 53.45428,0 53.45427,0 0,10.69086 0,10.69086 10.69086,0 10.69085,0 0,-10.69086 0,-10.69086 10.69086,0 10.69085,0 0,10.69086 0,10.69086 -10.69085,0 -10.69086,0 0,10.69085 0,10.69086 10.69086,0 10.69085,0 0,10.69085 0,10.69086 -10.69085,0 -10.69086,0 0,21.38171 0,21.38171 10.69086,0 10.69085,0 0,32.07257 0,32.07257 32.07256,0 32.07257,0 0,10.69085 0,10.69086 21.38171,0 21.38171,0 0,-10.69086 0,-10.69085 32.07256,0 32.07257,0 0,21.38171 0,21.38171 -10.69086,0 -10.69085,0 0,-10.69085 0,-10.69086 -21.38171,0 -21.38171,0 0,10.69086 0,10.69085 -21.38171,0 -21.38171,0 0,10.69086 0,10.69085 21.38171,0 21.38171,0 0,10.69086 0,10.69085 10.69085,0 10.69086,0 0,-10.69085 0,-10.69086 10.69085,0 10.69086,0 0,10.69086 0,10.69085 10.69085,0 10.69086,0 0,21.38172 0,21.38171 -10.69086,0 -10.69085,0 0,-10.69086 0,-10.69085 -21.38171,0 -21.38171,0 0,10.69085 0,10.69086 -21.38171,0 -21.38171,0 0,-10.69086 0,-10.69085 10.69085,0 10.69086,0 0,-10.69086 0,-10.69086 -10.69086,0 -10.69085,0 0,-10.69085 0,-10.69086 -10.69086,0 -10.69085,0 0,10.69086 0,10.69085 -10.69086,0 -10.69085,0 0,10.69086 0,10.69086 10.69085,0 10.69086,0 0,32.07256 0,32.07257 -10.69086,0 -10.69085,0 0,-21.38171 0,-21.38171 -10.69086,0 -10.69085,0 0,21.38171 0,21.38171 -21.38171,0 -21.38171,0 0,10.69086 0,10.69085 -10.69085,0 -10.69086,0 0,21.38171 0,21.38172 -21.38171,0 -21.38171,0 0,-10.69086 0,-10.69086 -10.69085,0 -10.69086,0 0,32.07257 0,32.07258 -21.38171,0 -21.38171,0 0,21.3817 0,21.3817 10.69086,0 10.69085,0 0,10.6909 0,10.6908 21.38171,0 21.38171,0 0,-10.6908 0,-10.6909 10.69086,0 10.69085,0 0,-10.6908 0,-10.6909 -10.69085,0 -10.69086,0 0,-21.3817 0,-21.3817 32.07257,0 32.07256,0 0,-21.38173 0,-21.38172 10.69086,0 10.69085,0 0,-10.69085 0,-10.69086 53.45427,0 53.45428,0 0,-21.38171 0,-21.38171 10.69085,0 10.69086,0 0,10.69086 0,10.69085 10.69085,0 10.69086,0 0,-10.69085 0,-10.69086 21.38171,0 21.38171,0 0,32.07257 0,32.07256 -21.38171,0 -21.38171,0 0,-10.69085 0,-10.69086 -21.38171,0 -21.38171,0 0,10.69086 0,10.69085 -21.38171,0 -21.38171,0 0,10.69086 0,10.69086 10.69085,0 10.69086,0 0,10.69085 0,10.69088 10.69085,0 10.69086,0 0,-10.69088 0,-10.69085 10.69085,0 10.69086,0 0,10.69085 0,10.69088 10.69085,0 10.69086,0 0,-10.69088 0,-10.69085 10.69085,0 10.69086,0 0,10.69085 0,10.69088 -10.69086,0 -10.69085,0 0,10.6908 0,10.6909 21.38171,0 21.38171,0 0,10.6909 0,10.6908 -21.38171,0 -21.38171,0 0,-10.6908 0,-10.6909 -10.69086,0 -10.69085,0 0,10.6909 0,10.6908 -10.69086,0 -10.69085,0 0,10.6909 0,10.6908 10.69085,0 10.69086,0 0,10.6909 0,10.6908 10.69085,0 10.69086,0 0,21.3818 0,21.3817 10.69085,0 10.69086,0 0,21.3817 0,21.3817 -10.69086,0 -10.69085,0 0,10.6909 0,10.6908 -10.69086,0 -10.69085,0 0,-10.6908 0,-10.6909 10.69085,0 10.69086,0 0,-21.3817 0,-21.3817 -10.69086,0 -10.69085,0 0,10.6908 0,10.6909 -10.69086,0 -10.69085,0 0,21.3817 0,21.3817 -10.69086,0 -10.69085,0 0,-32.0725 0,-32.0726 -10.69086,0 -10.69085,0 0,21.3817 0,21.3817 -10.69086,0 -10.69085,0 0,-21.3817 0,-21.3817 10.69085,0 10.69086,0 0,-10.6909 0,-10.6908 -21.38171,0 -21.38171,0 0,10.6908 0,10.6909 -10.69085,0 -10.69086,0 0,10.6908 0,10.6909 -10.69085,0 -10.69086,0 0,-10.6909 0,-10.6908 -10.69085,0 -10.69086,0 0,10.6908 0,10.6909 -10.69085,0 -10.69086,0 0,10.6909 0,10.6908 10.69086,0 10.69085,0 0,10.6909 0,10.6908 -10.69085,0 -10.69086,0 0,-10.6908 0,-10.6909 -10.69085,0 -10.69086,0 0,10.6909 0,10.6908 -53.45427,0 -53.45428,0 0,-21.3817 z m 42.76342,-10.6908 0,-10.6909 -10.69085,0 -10.69086,0 0,10.6909 0,10.6908 10.69086,0 10.69085,0 0,-10.6908 z m 64.14513,-21.3818 0,-10.6908 10.69086,0 10.69085,0 0,-10.6909 0,-10.6908 32.07257,0 32.07256,0 0,-10.6909 0,-10.6909 -10.69085,0 -10.69086,0 0,-21.3817 0,-21.3817 -10.69085,0 -10.69086,0 0,21.3817 0,21.3817 -10.69085,0 -10.69086,0 0,10.6909 0,10.6909 -10.69085,0 -10.69086,0 0,10.6908 0,10.6909 -10.69085,0 -10.69086,0 0,10.6908 0,10.6909 10.69086,0 10.69085,0 0,-10.6909 z m -42.76342,-21.3817 0,-10.6908 -10.69085,0 -10.69086,0 0,10.6908 0,10.6909 10.69086,0 10.69085,0 0,-10.6909 z m 256.58052,0 0,-10.6908 -21.38171,0 -21.38171,0 0,10.6908 0,10.6909 21.38171,0 21.38171,0 0,-10.6909 z m -42.76342,-64.1451 0,-32.0726 -32.07257,0 -32.07256,0 0,32.0726 0,32.0725 32.07256,0 32.07257,0 0,-32.0725 z m -42.76342,0 0,-10.6909 10.69085,0 10.69086,0 0,10.6909 0,10.6908 -10.69086,0 -10.69085,0 0,-10.6908 z m -235.19881,-42.7635 0,-10.6908 -21.38171,0 -21.38172,0 0,10.6908 0,10.6909 21.38172,0 21.38171,0 0,-10.6909 z m 235.19881,-32.07253 0,-21.38172 -21.38171,0 -21.38171,0 0,10.69086 0,10.69086 10.69086,0 10.69085,0 0,10.69085 0,10.69088 10.69085,0 10.69086,0 0,-21.38173 z m -342.10737,-10.69086 0,-10.69086 10.69086,0 10.69085,0 0,-10.69085 0,-10.69086 10.69086,0 10.69085,0 0,10.69086 0,10.69085 21.38171,0 21.38172,0 0,-10.69085 0,-10.69086 10.69086,0 10.69085,0 0,10.69086 0,10.69085 10.69086,0 10.69085,0 0,10.69086 0,10.69086 21.38171,0 21.38171,0 0,-10.69086 0,-10.69086 10.69086,0 10.69085,0 0,-10.69085 0,-10.69086 10.69086,0 10.69085,0 0,10.69086 0,10.69085 10.69086,0 10.69085,0 0,-21.38171 0,-21.38171 21.38171,0 21.38171,0 0,-10.69085 0,-10.69086 10.69086,0 10.69085,0 0,-10.69086 0,-10.69085 -21.38171,0 -21.38171,0 0,-21.38171 0,-21.38172 10.69086,0 10.69085,0 0,10.69086 0,10.69086 10.69086,0 10.69085,0 0,-10.69086 0,-10.69086 21.38171,0 21.38171,0 0,-21.38171 0,-21.38171 -10.69086,0 -10.69085,0 0,-10.69085 0,-10.69086 -10.69085,0 -10.69086,0 0,-10.69086 0,-10.69085 -10.69085,0 -10.69086,0 0,10.69085 0,10.69086 -10.69085,0 -10.69086,0 0,10.69086 0,10.69085 -21.38171,0 -21.38171,0 0,-10.69085 0,-10.69086 -10.69085,0 -10.69086,0 0,21.38171 0,21.38171 10.69086,0 10.69085,0 0,10.69086 0,10.69085 -10.69085,0 -10.69086,0 0,10.69086 0,10.69086 -10.69085,0 -10.69086,0 0,10.69085 0,10.69086 10.69086,0 10.69085,0 0,10.69085 0,10.69086 -10.69085,0 -10.69086,0 0,10.69086 0,10.69085 10.69086,0 10.69085,0 0,10.69086 0,10.69085 -21.38171,0 -21.38171,0 0,10.69086 0,10.69085 -10.69085,0 -10.69086,0 0,-10.69085 0,-10.69086 -10.69085,0 -10.69086,0 0,-21.38171 0,-21.38171 -32.07256,0 -32.07258,0 0,-10.69086 0,-10.69085 10.69086,0 10.69085,0 0,-10.69086 0,-10.69085 -10.69085,0 -10.69086,0 0,10.69085 0,10.69086 -10.69085,0 -10.69086,0 0,-10.69086 0,-10.69085 -10.69085,0 -10.69086,0 0,10.69085 0,10.69086 10.69086,0 10.69085,0 0,10.69085 0,10.69086 -32.07255,0 -32.07256,0 0,21.38171 0,21.38171 -10.69085,0 -10.69085,0 0,10.69086 0,10.69085 21.3817,0 21.38171,0 0,10.69086 0,10.69086 10.69085,0 10.69084,0 0,-10.69086 z m 0,-42.76342 0,-10.69086 10.69086,0 10.69085,0 0,10.69086 0,10.69085 -10.69085,0 -10.69086,0 0,-10.69085 z m 42.76342,0 0,-10.69086 10.69086,0 10.69085,0 0,10.69086 0,10.69085 -10.69085,0 -10.69086,0 0,-10.69085 z m 171.05369,-64.14514 0,-10.69085 10.69086,0 10.69085,0 0,10.69085 0,10.69086 -10.69085,0 -10.69086,0 0,-10.69086 z m 42.76342,-64.14513 0,-10.69086 10.69086,0 10.69085,0 0,10.69086 0,10.69085 -10.69085,0 -10.69086,0 0,-10.69085 z m 42.76342,0 0,-10.69086 10.69086,0 10.69085,0 0,10.69086 0,10.69085 -10.69085,0 -10.69086,0 0,-10.69085 z m 171.05368,128.29027 0,-10.69086 -10.69086,0 -10.69085,0 0,10.69086 0,10.69085 10.69085,0 10.69086,0 0,-10.69085 z m -555.92444,-21.38171 0,-10.69086 -10.69086,0 -10.69085,0 0,10.69086 0,10.69085 10.69085,0 10.69086,0 0,-10.69085 z m 64.14512,-128.29027 0,-10.69086 -10.69086,0 -10.69085,0 0,10.69086 0,10.69085 10.69085,0 10.69086,0 0,-10.69085 z m 42.7634,0 0,-10.69086 -10.69085,0 -10.69086,0 0,10.69086 0,10.69085 10.69086,0 10.69085,0 0,-10.69085 z m 85.52685,-21.38172 0,-10.69085 -10.69085,0 -10.69086,0 0,10.69085 0,10.69086 10.69086,0 10.69085,0 0,-10.69086 z m 85.52684,-21.38171 0,-10.69085 -10.69085,0 -10.69086,0 0,-10.69086 0,-10.69086 -10.69085,0 -10.69086,0 0,10.69086 0,10.69086 10.69086,0 10.69085,0 0,10.69085 0,10.69086 10.69086,0 10.69085,0 0,-10.69086 z m 106.90855,-32.07257 0,-21.38171 -10.69085,0 -10.69086,0 0,21.38171 0,21.38172 10.69086,0 10.69085,0 0,-21.38172 z m -171.05368,-53.45427 0,-10.69086 -10.69085,0 -10.69086,0 0,10.69086 0,10.69085 10.69086,0 10.69085,0 0,-10.69085 z m 149.67197,0 0,-10.69086 -10.69085,0 -10.69086,0 0,-10.69086 0,-10.69085 10.69086,0 10.69085,0 0,-10.69086 0,-10.69085 -10.69085,0 -10.69086,0 0,10.69085 0,10.69086 -10.69085,0 -10.69086,0 0,10.69085 0,10.69086 10.69086,0 10.69085,0 0,10.69086 0,10.69085 10.69086,0 10.69085,0 0,-10.69085 z m -213.81711,513.16116 0,-10.6909 -10.69085,0 -10.69086,0 0,-32.0726 0,-32.0726 21.38171,0 21.38172,0 0,10.6909 0,10.6909 -10.69085,0 -10.69087,0 0,21.3817 0,21.3817 10.69087,0 10.69085,0 0,10.6909 0,10.6908 -10.69085,0 -10.69087,0 0,-10.6908 z M 79.25241,397.02337 l 0,-74.836 74.83599,0 74.83596,0 0,74.836 0,74.83599 -74.83596,0 -74.83599,0 0,-74.83599 z m 128.29024,0 0,-53.45428 -53.45425,0 -53.45427,0 0,53.45428 0,53.45427 53.45427,0 53.45425,0 0,-53.45427 z m -85.52681,0 0,-32.07257 32.07256,0 32.07256,0 0,32.07257 0,32.07256 -32.07256,0 -32.07256,0 0,-32.07256 z m 427.63418,0 0,-74.836 74.83598,0 74.83599,0 0,74.836 0,74.83599 -74.83599,0 -74.83598,0 0,-74.83599 z m 128.29026,0 0,-53.45428 -53.45428,0 -53.45427,0 0,53.45428 0,53.45427 53.45427,0 53.45428,0 0,-53.45427 z m -85.52684,0 0,-32.07257 32.07256,0 32.07257,0 0,32.07257 0,32.07256 -32.07257,0 -32.07256,0 0,-32.07256 z m -342.10737,-42.76343 0,-32.07257 32.07258,0 32.07256,0 0,10.69086 0,10.69086 -10.69085,0 -10.69086,0 0,10.69085 0,10.69086 -10.69085,0 -10.69087,0 0,10.69085 0,10.69086 -10.69085,0 -10.69086,0 0,-32.07257 z"
         style="fill:#000000" />
    </g>
  </g>
</svg>
