<?xml version="1.0" encoding="UTF-8" standalone="no"?>
<!-- Created with Inkscape (http://www.inkscape.org/) -->

<svg
   xmlns:dc="http://purl.org/dc/elements/1.1/"
   xmlns:cc="http://creativecommons.org/ns#"
   xmlns:rdf="http://www.w3.org/1999/02/22-rdf-syntax-ns#"
   xmlns:svg="http://www.w3.org/2000/svg"
   xmlns="http://www.w3.org/2000/svg"
   xmlns:sodipodi="http://sodipodi.sourceforge.net/DTD/sodipodi-0.dtd"
   xmlns:inkscape="http://www.inkscape.org/namespaces/inkscape"
   width="1600px"
   height="1200px"
   id="svg2985"
   version="1.1"
   inkscape:version="0.48.3.1 r9886"
   sodipodi:docname="logo.svg">
  <defs
     id="defs2987" />
  <sodipodi:namedview
     id="base"
     pagecolor="#ffffff"
     bordercolor="#666666"
     borderopacity="1.0"
     inkscape:pageopacity="0.0"
     inkscape:pageshadow="2"
     inkscape:zoom="0.58795928"
     inkscape:cx="659.37012"
     inkscape:cy="905.562"
     inkscape:current-layer="layer1"
     inkscape:document-units="px"
     showgrid="true"
     inkscape:window-width="1375"
     inkscape:window-height="876"
     inkscape:window-x="65"
     inkscape:window-y="24"
     inkscape:window-maximized="1"
     showguides="true">
    <inkscape:grid
       type="xygrid"
       id="grid3829" />
  </sodipodi:namedview>
  <metadata
     id="metadata2990">
    <rdf:RDF>
      <cc:Work
         rdf:about="">
        <dc:format>image/svg+xml</dc:format>
        <dc:type
           rdf:resource="http://purl.org/dc/dcmitype/StillImage" />
        <dc:title></dc:title>
      </cc:Work>
    </rdf:RDF>
  </metadata>
  <g
     id="layer1"
     inkscape:label="y_container"
     inkscape:groupmode="layer"
     style="display:inline">
    <path
       transform="matrix(0.90776365,0,0,0.90776365,-266.86522,-66.407871)"
       d="m 1180,256.66666 -0.4623,0.5012 -0.4655,0.49829 -0.4686,0.49536 -0.4717,0.4924 -0.4748,0.48942 -0.4779,0.48644 -0.4809,0.48342 -0.4839,0.48039 -0.487,0.47734 -0.4899,0.47427 -0.4929,0.47119 -0.4959,0.46808 -0.4987,0.46495 -0.5017,0.46181 -0.5046,0.45865 -0.5075,0.45547 -0.5103,0.45227 -0.5131,0.44906 -0.516,0.44582 -0.5187,0.44257 -0.5215,0.43931 -0.5243,0.43602 -0.527,0.43271 -0.5297,0.4294 -0.5324,0.42606 -0.5351,0.42271 -0.5377,0.41933 -0.5403,0.41595 -0.5429,0.41255 -0.5455,0.40913 -0.5481,0.40569 -0.5506,0.40224 -0.5531,0.39877 -0.5556,0.39529 -0.5581,0.39179 -0.5606,0.38828 -0.5629,0.38475 -0.5654,0.3812 -0.5678,0.37764 -0.5701,0.37407 -0.5725,0.37048 -0.5747,0.36687 -0.5771,0.36325 -0.5794,0.35963 -0.5816,0.35597 -0.5838,0.35231 -0.586,0.34864 -0.5882,0.34495 -0.5903,0.34125 -0.5925,0.33753 -0.5946,0.3338 -0.5967,0.33006 -0.5987,0.3263 -0.6008,0.32254 -0.6028,0.31875 -0.6048,0.31496 -0.6068,0.31116 -0.6087,0.30733 -0.6106,0.30351 -0.6125,0.29966 -0.6144,0.29581 -0.6162,0.29194 -0.618,0.28806 -0.6199,0.28418 -0.6216,0.28027 -0.6234,0.27637 -0.6251,0.27244 -0.6268,0.26851 -0.6284,0.26456 -0.6302,0.26061 -0.6317,0.25665 -0.6333,0.25267 -0.635,0.24869 -0.6364,0.24469 -0.638,0.24069 -0.6395,0.23668 -0.641,0.23265 -0.6424,0.22863 -0.6438,0.22458 -0.6453,0.22053 -0.6466,0.21647 -0.6479,0.21241 -0.6493,0.20833 -0.6506,0.20424 -0.6518,0.20016 -0.6531,0.19606 -0.6543,0.19194 -0.6555,0.18784 -0.6567,0.18371 -0.6578,0.17958 -0.659,0.17544 -0.66,0.17131 -0.6611,0.16715 -0.6621,0.16299 -0.6631,0.15883 -0.6641,0.15466 -0.6651,0.15049 -0.666,0.1463 -0.6669,0.14212 -0.6678,0.13792 -0.6686,0.13372 -0.6695,0.12952 -0.6703,0.12531 -0.671,0.1211 -0.6718,0.11688 -0.6725,0.11266 -0.6732,0.10842 -0.6739,0.1042 -0.6745,0.1 -0.6752,0.0957 -0.6757,0.0915 -0.6763,0.0872 -0.6768,0.083 -0.6773,0.0787 -0.6778,0.0745 -0.6783,0.0702 -0.6787,0.0659 -0.6791,0.0617 -0.6794,0.0574 -0.6798,0.0531 -0.6802,0.0489 -0.6804,0.0446 -0.6807,0.0403 -0.6809,0.036 -0.6812,0.0317 -0.6813,0.0275 -0.6815,0.0232 -0.6816,0.0189 -0.6817,0.0146 -0.6818,0.0103 -0.6819,0.006 -0.6819,0.002 -0.6819,-0.002 -0.6818,-0.007 -0.6818,-0.0111 -0.6817,-0.0154 -0.6816,-0.0196 -0.6815,-0.0239 -0.6813,-0.0282 -0.6811,-0.0325 -0.6809,-0.0368 -0.6806,-0.041 -0.6804,-0.0453 -0.6801,-0.0496 -0.6797,-0.0539 -0.6794,-0.0581 -0.6791,-0.0624 -0.6786,-0.0667 -0.6782,-0.0709 -0.6777,-0.0752 -0.6772,-0.0794 -0.6768,-0.0837 -0.6762,-0.0879 -0.6756,-0.0922 -0.675,-0.0964 -0.6744,-0.10068 -0.6738,-0.10491 -0.6731,-0.10914 -0.6724,-0.11337 -0.6716,-0.1176 -0.671,-0.12181 -0.6701,-0.12602 -0.6693,-0.13023 -0.6685,-0.13444 -0.6677,-0.13863 -0.6667,-0.14282 -0.6659,-0.14701 -0.6649,-0.1512 -0.6639,-0.15536 -0.663,-0.15954 -0.6619,-0.1637 -0.6609,-0.16785 -0.6599,-0.172 -0.6587,-0.17615 -0.6576,-0.18028 -0.6565,-0.18441 -0.6553,-0.18853 -0.6541,-0.19264 -0.6529,-0.19675 -0.6516,-0.20085 -0.6504,-0.20493 -0.6491,-0.20903 -0.6477,-0.21309 -0.6464,-0.21716 -0.645,-0.22122 -0.6436,-0.22526 -0.6421,-0.22931 -0.6408,-0.23333 -0.6392,-0.23736 -0.6377,-0.24137 -0.6363,-0.24537 -0.6346,-0.24936 -0.6331,-0.25334 -0.6314,-0.25732 -0.6299,-0.26128 -0.6282,-0.26524 -0.6265,-0.26917 -0.6248,-0.27311 -0.6231,-0.27702 -0.6213,-0.28094 -0.6195,-0.28483 -0.6178,-0.28872 -0.6159,-0.2926 -0.6141,-0.29646 -0.6121,-0.30031 -0.6103,-0.30416 -0.6084,-0.30798 -0.6064,-0.3118 -0.6045,-0.3156 -0.6024,-0.31939 -0.6005,-0.32318 -0.5984,-0.32694 -0.5963,-0.33069 -0.5942,-0.33443 -0.5922,-0.33816 -0.59,-0.34188 -0.5878,-0.34557 -0.5856,-0.34926 -0.5835,-0.35294 -0.5812,-0.35659 -0.579,-0.36024 -0.5766,-0.36386 -0.5744,-0.36749 -0.5721,-0.37108 -0.5697,-0.37468 -0.5674,-0.37824 -0.565,-0.3818 -0.5625,-0.38535 -0.5601,-0.38887 -0.5577,-0.39239 -0.5552,-0.39587 -0.5527,-0.39937 -0.5502,-0.40282 -0.5476,-0.40627 -0.5451,-0.40971 -0.5425,-0.41313 -0.5399,-0.41652 -0.5372,-0.41991 -0.5346,-0.42327 -0.532,-0.42663 -0.5292,-0.42996 -0.5266,-0.43327 -0.5238,-0.43658 -0.521,-0.43986 -0.5183,-0.44312 -0.5155,-0.44638 -0.5126,-0.4496 -0.5099,-0.45281 -0.5069,-0.45601 -0.5041,-0.45918 -0.5012,-0.46235 -0.4983,-0.46548 -0.4954,-0.46861 -0.4924,-0.4717 -0.4894,-0.4748 -0.4864,-0.47785 -0.4835,-0.48091 -0.4804,-0.48393 -0.4773,-0.48694 -0.4743,-0.48993 -0.4711,-0.49291 -0.4681,-0.49585 -0.465,-0.49878 -0.4618,-0.5017 -0.4586,-0.50458 -0.4555,-0.50746 -0.4523,-0.51031 -0.449,-0.51314 -0.4459,-0.51596 -0.4425,-0.51874 -0.4393,-0.52152 -0.4361,-0.52426 -0.4327,-0.527 -0.4294,-0.5297 -0.426,-0.53239 -0.4227,-0.53505 -0.4194,-0.53771 -0.4159,-0.54032 -0.4126,-0.54293 -0.4091,-0.54551 -0.4057,-0.54807 -0.4022,-0.55061 -0.3988,-0.55312 -0.3953,-0.55562 -0.3918,-0.55809 -0.3883,-0.56055 -0.3847,-0.56297 -0.3812,-0.56538 -0.3777,-0.56776 -0.374,-0.57012 -0.3705,-0.57246 -0.3669,-0.57478 -0.3632,-0.57707 -0.3596,-0.57935 -0.356,-0.58159 -0.3523,-0.58381 -0.3487,-0.58602 -0.3449,-0.5882 -0.3413,-0.59035 -0.3375,-0.59249 -0.3338,-0.59459 -0.3301,-0.59668 -0.3263,-0.59875 -0.3225,-0.60078 -0.3188,-0.60279 -0.3149,-0.60479 -0.3112,-0.60675 -0.3073,-0.6087 -0.3035,-0.61061 -0.2997,-0.61252 -0.2958,-0.61438 -0.2919,-0.61622 -0.2881,-0.61805 -0.2842,-0.61985 -0.2802,-0.62162 -0.2764,-0.62337 -0.2724,-0.6251 -0.2685,-0.62679 -0.26461,-0.62847 -0.26061,-0.63011 -0.25665,-0.63175 -0.25267,-0.63334 -0.24869,-0.63492 -0.24469,-0.63647 -0.2407,-0.63799 -0.23667,-0.63949 -0.23266,-0.64097 -0.22862,-0.64241 -0.22458,-0.64384 -0.22053,-0.64524 -0.21647,-0.64661 -0.21241,-0.64796 -0.20833,-0.64928 -0.20425,-0.65058 -0.20015,-0.65184 -0.19606,-0.6531 -0.19195,-0.65431 -0.18783,-0.6555 -0.18371,-0.65667 -0.17958,-0.65781 -0.17545,-0.65893 -0.1713,-0.66002 -0.16715,-0.66108 -0.16299,-0.66212 -0.15883,-0.66312 -0.15466,-0.66412 -0.15049,-0.66507 -0.1463,-0.666 -0.14212,-0.66691 -0.13792,-0.66779 -0.13372,-0.66865 -0.12952,-0.66947 -0.12532,-0.67027 -0.12109,-0.67105 -0.11688,-0.67179 -0.11266,-0.67251 -0.10842,-0.67321 -0.1042,-0.67388 -0.1,-0.67452 -0.0957,-0.67513 -0.0915,-0.67572 -0.0872,-0.67628 -0.083,-0.67682 -0.0787,-0.67732 -0.0745,-0.67781 -0.0702,-0.67826 -0.0659,-0.67869 -0.0617,-0.67909 -0.0574,-0.67946 -0.0531,-0.67981 -0.0489,-0.68013 -0.0446,-0.68043 -0.0403,-0.68069 -0.036,-0.68093 -0.0318,-0.68115 -0.0275,-0.68133 -0.0232,-0.68149 -0.0189,-0.68162 -0.0146,-0.68173 -0.0104,-0.6818 -0.006,-0.68186 -0.002,-0.68188 0.002,-0.68188 0.007,-0.68185 0.0111,-0.6818 0.0154,-0.68171 0.0196,-0.6816 0.0239,-0.68147 0.0282,-0.6813 0.0325,-0.68111 0.0368,-0.68089 0.041,-0.68065 0.0453,-0.68038 0.0496,-0.68007 0.0539,-0.67976 0.0581,-0.6794 0.0624,-0.67902 0.0667,-0.67862 0.0709,-0.67819 0.0752,-0.67772 0.0794,-0.67725 0.0837,-0.67672 0.0879,-0.67619 0.0922,-0.67563 0.0964,-0.67503 0.10068,-0.67441 0.10491,-0.67376 0.10914,-0.6731 0.11337,-0.67239 0.11759,-0.67167 0.12182,-0.67092 0.12602,-0.67013 0.13023,-0.66934 0.13444,-0.6685 0.13863,-0.66764 0.14282,-0.66676 0.14701,-0.66585 0.15119,-0.66491 0.15537,-0.66395 0.15954,-0.66296 0.16369,-0.66194 0.16786,-0.6609 0.172,-0.65984 0.17614,-0.65874 0.18029,-0.65762 0.1844,-0.65647 0.18853,-0.65531 0.19265,-0.6541 0.19675,-0.65289 0.20084,-0.65163 0.20494,-0.65036 0.20902,-0.64906 0.2131,-0.64773 0.21716,-0.64638 0.22121,-0.64501 0.22527,-0.6436 0.2293,-0.64217 0.23334,-0.64072 0.23736,-0.63924 0.24136,-0.63774 0.24537,-0.6362 0.24937,-0.63466 0.25334,-0.63307 0.25732,-0.63147 0.26128,-0.62984 0.26524,-0.62819 0.2692,-0.6265 0.2731,-0.62481 0.277,-0.62307 0.2809,-0.62133 0.2849,-0.61954 0.2887,-0.61774 0.2926,-0.61592 0.2964,-0.61407 0.3004,-0.61219 0.3041,-0.61029 0.308,-0.60837 0.3118,-0.60642 0.3156,-0.60445 0.3194,-0.60246 0.3232,-0.60044 0.3269,-0.59839 0.3307,-0.59633 0.3344,-0.59424 0.3382,-0.59213 0.3419,-0.58999 0.3455,-0.58783 0.3493,-0.58565 0.3529,-0.58344 0.3566,-0.58121 0.3603,-0.57896 0.3638,-0.57669 0.3675,-0.57439 0.3711,-0.57207 0.3747,-0.56972 0.3782,-0.56736 0.3818,-0.56497 0.3854,-0.56256 0.3888,-0.56013 0.3924,-0.55768 0.3959,-0.5552 0.3994,-0.5527 0.4028,-0.55018 0.4063,-0.54764 0.4097,-0.54507 0.4131,-0.54249 0.4165,-0.53989 0.4199,-0.53725 0.4233,-0.53461 0.4266,-0.53193 0.43,-0.52925 0.4333,-0.52653 0.4365,-0.52381 0.4399,-0.52104 0.4431,-0.51828 0.4464,-0.51548 0.4496,-0.51266 0.4528,-0.50983 0.456,-0.50697 L 1020,110 l 0.4623,-0.50121 0.4655,-0.49829 0.4686,-0.49535 0.4717,-0.4924 0.4748,-0.48943 0.4779,-0.48643 0.4809,-0.48342 0.4839,-0.48039 0.487,-0.47735 0.4899,-0.47427 0.4929,-0.47118 0.4959,-0.46808 0.4987,-0.46495 0.5017,-0.46181 0.5046,-0.45865 0.5075,-0.45547 0.5103,-0.45227 0.5131,-0.44906 0.516,-0.44582 0.5187,-0.44258 0.5215,-0.4393 0.5243,-0.43602 0.527,-0.432717 0.5297,-0.429397 0.5324,-0.42606 0.5351,-0.422707 0.5377,-0.419337 0.5403,-0.41595 0.5429,-0.412547 0.5455,-0.409127 0.5481,-0.405692 0.5506,-0.40224 0.5531,-0.398773 0.5556,-0.39529 0.5581,-0.39179 0.5606,-0.388277 0.5629,-0.384746 0.5654,-0.381202 0.5678,-0.377642 0.5701,-0.374068 0.5725,-0.370477 0.5747,-0.366874 0.5771,-0.363255 0.5794,-0.359621 0.5816,-0.355975 0.5838,-0.352314 0.586,-0.348638 0.5882,-0.344949 0.5903,-0.341247 0.5925,-0.337531 0.5946,-0.333801 0.5967,-0.330059 0.5987,-0.326303 0.6008,-0.322535 0.6028,-0.318754 0.6048,-0.31496 0.6068,-0.311154 0.6087,-0.307336 0.6106,-0.303504 0.6125,-0.299663 0.6144,-0.295808 0.6162,-0.291941 0.618,-0.288064 0.6199,-0.284176 0.6216,-0.280275 0.6234,-0.276363 0.6251,-0.272442 0.6268,-0.268508 0.6284,-0.264565 0.6302,-0.260612 0.6317,-0.256646 0.6333,-0.252673 0.635,-0.248688 0.6364,-0.244694 0.638,-0.24069 0.6395,-0.236676 0.641,-0.232654 0.6424,-0.228622 0.6438,-0.224582 0.6453,-0.220531 0.6466,-0.216473 0.6479,-0.212406 0.6493,-0.20833 0.6506,-0.204247 0.6518,-0.200155 0.6531,-0.196056 0.6543,-0.191948 0.6555,-0.187834 0.6567,-0.183711 0.6578,-0.179581 0.659,-0.175445 0.66,-0.171301 0.6611,-0.167151 0.6621,-0.162993 0.6631,-0.158831 0.6641,-0.154661 0.6651,-0.150485 0.666,-0.146303 0.6669,-0.142116 0.6678,-0.137922 0.6686,-0.133724 0.6695,-0.129521 0.6703,-0.125311 0.671,-0.121098 0.6718,-0.116878 0.6725,-0.112656 0.6732,-0.108428 0.6739,-0.104195 0.6745,-0.09996 0.6752,-0.09572 0.6757,-0.09148 0.6763,-0.08723 0.6768,-0.08298 0.6773,-0.07872 0.6778,-0.07447 0.6783,-0.07021 0.6787,-0.06594 0.6791,-0.06168 0.6794,-0.05741 0.6798,-0.05314 0.6802,-0.04887 0.6804,-0.04459 0.6807,-0.04032 0.6809,-0.03604 0.6812,-0.03176 0.6813,-0.02748 0.6815,-0.0232 0.6816,-0.01892 0.6817,-0.01463 0.6818,-0.01035 0.6819,-0.0061 0.6819,-0.0018 0.6819,0.0025 0.6818,0.0068 0.6818,0.01107 0.6817,0.01536 0.6816,0.01964 0.6815,0.02392 0.6813,0.0282 0.6811,0.03248 0.6809,0.03676 0.6806,0.04104 0.6804,0.04532 0.6801,0.04959 0.6797,0.05386 0.6794,0.05813 0.6791,0.0624 0.6786,0.06666 0.6782,0.07093 0.6777,0.07519 0.6772,0.07944 0.6768,0.0837 0.6762,0.08795 0.6756,0.09219 0.675,0.09644 0.6744,0.100677 0.6738,0.104912 0.6731,0.109143 0.6724,0.11337 0.6716,0.117593 0.671,0.121811 0.6701,0.126023 0.6693,0.130232 0.6685,0.134435 0.6677,0.138632 0.6667,0.142824 0.6659,0.147011 0.6649,0.151192 0.6639,0.155367 0.663,0.159535 0.6619,0.163697 0.6609,0.167853 0.6599,0.172003 0.6587,0.176145 0.6576,0.18028 0.6565,0.184409 0.6553,0.18853 0.6541,0.192644 0.6529,0.196749 0.6516,0.200848 0.6504,0.204938 0.6491,0.209021 0.6477,0.213094 0.6464,0.21716 0.645,0.221217 0.6436,0.225265 0.6421,0.229305 0.6408,0.233335 0.6392,0.237356 0.6377,0.241368 0.6363,0.245371 0.6346,0.249362 0.6331,0.253346 0.6314,0.257318 0.6299,0.26128 0.6282,0.265233 0.6265,0.269175 0.6248,0.273106 0.6231,0.277026 0.6213,0.280935 0.6195,0.284834 0.6178,0.288721 0.6159,0.292596 0.6141,0.296461 0.6121,0.300313 0.6103,0.304154 0.6084,0.307982 0.6064,0.311798 0.6045,0.315603 0.6024,0.319394 0.6005,0.323174 0.5984,0.326939 0.5963,0.330693 0.5942,0.334433 0.5922,0.338161 0.59,0.341874 0.5878,0.345574 0.5856,0.349261 0.5835,0.352933 0.5812,0.356593 0.579,0.360237 0.5766,0.363868 0.5744,0.367485 0.5721,0.371085 0.5697,0.374673 0.5674,0.378246 0.565,0.381802 0.5625,0.385345 0.5601,0.388872 0.5577,0.392384 0.5552,0.395879 0.5527,0.399361 0.5502,0.402825 0.5476,0.406274 0.5451,0.409707 0.5425,0.413124 0.5399,0.416524 0.5372,0.419908 0.5346,0.423275 0.532,0.426626 0.5292,0.42996 0.5266,0.433276 0.5238,0.436579 0.521,0.43986 0.5183,0.44312 0.5155,0.44637 0.5126,0.4496 0.5099,0.45282 0.5069,0.45601 0.5041,0.45918 0.5012,0.46234 0.4983,0.46549 0.4954,0.4686 0.4924,0.47171 0.4894,0.47479 0.4864,0.47786 0.4835,0.4809 0.4804,0.48394 0.4773,0.48694 0.4743,0.48993 0.4711,0.4929 0.4681,0.49585 0.465,0.49879 0.4618,0.50169 0.4586,0.50459 0.4555,0.50746 0.4523,0.51031 0.449,0.51314 0.4459,0.51595 0.4425,0.51875 0.4393,0.52151 0.4361,0.52427 0.4327,0.52699 0.4294,0.5297 0.426,0.53239 0.4227,0.53506 0.4194,0.5377 0.4159,0.54033 0.4126,0.54293 0.4091,0.54551 0.4057,0.54807 0.4022,0.5506 0.3988,0.55313 0.3953,0.55562 0.3918,0.55809 0.3883,0.56054 0.3847,0.56297 0.3812,0.56538 0.3777,0.56776 0.374,0.57013 0.3705,0.57246 0.3669,0.57478 0.3632,0.57707 0.3596,0.57934 0.356,0.58159 0.3523,0.58382 0.3487,0.58602 0.3449,0.5882 0.3413,0.59035 0.3375,0.59249 0.3338,0.59459 0.3301,0.59668 0.3263,0.59874 0.3225,0.60078 0.3188,0.6028 0.3149,0.60479 0.3112,0.60675 0.3073,0.6087 0.3035,0.61061 0.2997,0.61251 0.2958,0.61438 0.2919,0.61623 0.2881,0.61805 0.2842,0.61985 0.2802,0.62162 0.2764,0.62337 0.2724,0.62509 0.2685,0.62679 0.2646,0.62847 0.2606,0.63012 0.2567,0.63174 0.2526,0.63335 0.2487,0.63491 0.2447,0.63647 0.2407,0.63799 0.2367,0.6395 0.2326,0.64096 0.2287,0.64242 0.2245,0.64384 0.2206,0.64524 0.2165,0.64661 0.2124,0.64796 0.2083,0.64928 0.2042,0.65057 0.2002,0.65185 0.196,0.65309 0.192,0.65431 0.1878,0.65551 0.1837,0.65667 0.1796,0.65781 0.1755,0.65893 0.1713,0.66001 0.1671,0.66109 0.163,0.66211 0.1588,0.66313 0.1547,0.66411 0.1505,0.66508 0.1463,0.666 0.1421,0.66691 0.1379,0.66779 0.1338,0.66865 0.1295,0.66947 0.1253,0.67027 0.1211,0.67104 0.1169,0.6718 0.1126,0.67251 0.1084,0.67321 0.1042,0.67387 0.1,0.67452 0.096,0.67514 0.091,0.67572 0.087,0.67628 0.083,0.67682 0.079,0.67732 0.074,0.67781 0.07,0.67826 0.066,0.67869 0.062,0.67909 0.057,0.67946 0.053,0.67981 0.049,0.68013 0.045,0.68043 0.04,0.68069 0.036,0.68093 0.032,0.68114 0.027,0.68133 0.023,0.68149 0.019,0.68163 0.015,0.68172 0.01,0.68181 0.01,0.68186 0,0.68188 -0,0.68188 -0.01,0.68185 -0.011,0.68179 -0.015,0.68172 -0.02,0.6816 -0.024,0.68146 -0.028,0.6813 -0.032,0.68111 -0.037,0.6809 -0.041,0.68064 -0.045,0.68038 -0.05,0.68008 -0.054,0.67975 -0.058,0.67941 -0.062,0.67902 -0.067,0.67862 -0.071,0.67818 -0.075,0.67773 -0.079,0.67724 -0.084,0.67673 -0.088,0.67619 -0.092,0.67562 -0.096,0.67503 -0.1007,0.67441 -0.1049,0.67377 -0.1091,0.67309 -0.1134,0.6724 -0.1176,0.67167 -0.1218,0.67091 -0.126,0.67014 -0.1303,0.66933 -0.1344,0.6685 -0.1386,0.66765 -0.1429,0.66676 -0.147,0.66584 -0.1512,0.66492 -0.1553,0.66394 -0.1596,0.66296 -0.1637,0.66195 -0.1678,0.6609 -0.172,0.65983 -0.1762,0.65874 -0.1802,0.65763 -0.1845,0.65647 -0.1885,0.6553 -0.1926,0.65411 -0.1968,0.65288 -0.2008,0.65164 -0.205,0.65036 -0.209,0.64906 -0.2131,0.64773 -0.2171,0.64638 -0.2213,0.645 -0.2252,0.6436 -0.2293,0.64218 -0.2334,0.64071 -0.2373,0.63925 -0.2414,0.63773 -0.2454,0.63621 -0.2493,0.63465 -0.2534,0.63308 -0.2573,0.63147 -0.2613,0.62984 -0.2652,0.62818 -0.2692,0.62651 -0.2731,0.6248 -0.277,0.62308 -0.2809,0.62132 -0.2849,0.61955 -0.2887,0.61774 -0.2926,0.61592 -0.2964,0.61406 -0.3004,0.6122 -0.3041,0.61029 -0.308,0.60837 -0.3118,0.60642 -0.3156,0.60445 -0.3194,0.60246 -0.3232,0.60044 -0.3269,0.59839 -0.3307,0.59633 -0.3344,0.59424 -0.3382,0.59213 -0.3419,0.58999 -0.3455,0.58783 -0.3493,0.58565 -0.3529,0.58344 -0.3566,0.58121 -0.3603,0.57896 -0.3638,0.57669 -0.3675,0.57438 -0.3711,0.57207 -0.3747,0.56973 -0.3782,0.56736 -0.3818,0.56497 -0.3854,0.56256 -0.3888,0.56013 -0.3924,0.55768 -0.3959,0.55519 -0.3994,0.5527 -0.4028,0.55019 -0.4063,0.54763 -0.4097,0.54508 -0.4131,0.54249 -0.4165,0.53988 -0.4199,0.53726 -0.4233,0.5346 -0.4266,0.53194 -0.43,0.52925 -0.4333,0.52653 -0.4365,0.5238 -0.4399,0.52105 -0.4431,0.51827 -0.4464,0.51548 -0.4496,0.51267 -0.4528,0.50983 -0.456,0.50697 z"
       inkscape:randomized="0"
       inkscape:rounded="0"
       inkscape:flatsided="true"
       sodipodi:arg2="0.74508886"
       sodipodi:arg1="0.74194727"
       sodipodi:r2="108.52494"
       sodipodi:r1="108.52547"
       sodipodi:cy="183.33333"
       sodipodi:cx="1100"
       sodipodi:sides="1000"
       id="path3785"
       style="fill:none;stroke:#29ace2;stroke-width:3.30482507;stroke-linecap:round;stroke-linejoin:round;stroke-miterlimit:0;stroke-opacity:1;stroke-dasharray:3.30482499, 9.91447498;stroke-dashoffset:32.05680245"
       sodipodi:type="star" />
  </g>
  <g
     style="display:inline"
     inkscape:groupmode="layer"
     inkscape:label="p_container"
     id="g3788">
    <path
       transform="matrix(0.90776365,0,0,0.90776365,-434.86522,-66.407871)"
       d="m 1180,256.66666 -0.4623,0.5012 -0.4655,0.49829 -0.4686,0.49536 -0.4717,0.4924 -0.4748,0.48942 -0.4779,0.48644 -0.4809,0.48342 -0.4839,0.48039 -0.487,0.47734 -0.4899,0.47427 -0.4929,0.47119 -0.4959,0.46808 -0.4987,0.46495 -0.5017,0.46181 -0.5046,0.45865 -0.5075,0.45547 -0.5103,0.45227 -0.5131,0.44906 -0.516,0.44582 -0.5187,0.44257 -0.5215,0.43931 -0.5243,0.43602 -0.527,0.43271 -0.5297,0.4294 -0.5324,0.42606 -0.5351,0.42271 -0.5377,0.41933 -0.5403,0.41595 -0.5429,0.41255 -0.5455,0.40913 -0.5481,0.40569 -0.5506,0.40224 -0.5531,0.39877 -0.5556,0.39529 -0.5581,0.39179 -0.5606,0.38828 -0.5629,0.38475 -0.5654,0.3812 -0.5678,0.37764 -0.5701,0.37407 -0.5725,0.37048 -0.5747,0.36687 -0.5771,0.36325 -0.5794,0.35963 -0.5816,0.35597 -0.5838,0.35231 -0.586,0.34864 -0.5882,0.34495 -0.5903,0.34125 -0.5925,0.33753 -0.5946,0.3338 -0.5967,0.33006 -0.5987,0.3263 -0.6008,0.32254 -0.6028,0.31875 -0.6048,0.31496 -0.6068,0.31116 -0.6087,0.30733 -0.6106,0.30351 -0.6125,0.29966 -0.6144,0.29581 -0.6162,0.29194 -0.618,0.28806 -0.6199,0.28418 -0.6216,0.28027 -0.6234,0.27637 -0.6251,0.27244 -0.6268,0.26851 -0.6284,0.26456 -0.6302,0.26061 -0.6317,0.25665 -0.6333,0.25267 -0.635,0.24869 -0.6364,0.24469 -0.638,0.24069 -0.6395,0.23668 -0.641,0.23265 -0.6424,0.22863 -0.6438,0.22458 -0.6453,0.22053 -0.6466,0.21647 -0.6479,0.21241 -0.6493,0.20833 -0.6506,0.20424 -0.6518,0.20016 -0.6531,0.19606 -0.6543,0.19194 -0.6555,0.18784 -0.6567,0.18371 -0.6578,0.17958 -0.659,0.17544 -0.66,0.17131 -0.6611,0.16715 -0.6621,0.16299 -0.6631,0.15883 -0.6641,0.15466 -0.6651,0.15049 -0.666,0.1463 -0.6669,0.14212 -0.6678,0.13792 -0.6686,0.13372 -0.6695,0.12952 -0.6703,0.12531 -0.671,0.1211 -0.6718,0.11688 -0.6725,0.11266 -0.6732,0.10842 -0.6739,0.1042 -0.6745,0.1 -0.6752,0.0957 -0.6757,0.0915 -0.6763,0.0872 -0.6768,0.083 -0.6773,0.0787 -0.6778,0.0745 -0.6783,0.0702 -0.6787,0.0659 -0.6791,0.0617 -0.6794,0.0574 -0.6798,0.0531 -0.6802,0.0489 -0.6804,0.0446 -0.6807,0.0403 -0.6809,0.036 -0.6812,0.0317 -0.6813,0.0275 -0.6815,0.0232 -0.6816,0.0189 -0.6817,0.0146 -0.6818,0.0103 -0.6819,0.006 -0.6819,0.002 -0.6819,-0.002 -0.6818,-0.007 -0.6818,-0.0111 -0.6817,-0.0154 -0.6816,-0.0196 -0.6815,-0.0239 -0.6813,-0.0282 -0.6811,-0.0325 -0.6809,-0.0368 -0.6806,-0.041 -0.6804,-0.0453 -0.6801,-0.0496 -0.6797,-0.0539 -0.6794,-0.0581 -0.6791,-0.0624 -0.6786,-0.0667 -0.6782,-0.0709 -0.6777,-0.0752 -0.6772,-0.0794 -0.6768,-0.0837 -0.6762,-0.0879 -0.6756,-0.0922 -0.675,-0.0964 -0.6744,-0.10068 -0.6738,-0.10491 -0.6731,-0.10914 -0.6724,-0.11337 -0.6716,-0.1176 -0.671,-0.12181 -0.6701,-0.12602 -0.6693,-0.13023 -0.6685,-0.13444 -0.6677,-0.13863 -0.6667,-0.14282 -0.6659,-0.14701 -0.6649,-0.1512 -0.6639,-0.15536 -0.663,-0.15954 -0.6619,-0.1637 -0.6609,-0.16785 -0.6599,-0.172 -0.6587,-0.17615 -0.6576,-0.18028 -0.6565,-0.18441 -0.6553,-0.18853 -0.6541,-0.19264 -0.6529,-0.19675 -0.6516,-0.20085 -0.6504,-0.20493 -0.6491,-0.20903 -0.6477,-0.21309 -0.6464,-0.21716 -0.645,-0.22122 -0.6436,-0.22526 -0.6421,-0.22931 -0.6408,-0.23333 -0.6392,-0.23736 -0.6377,-0.24137 -0.6363,-0.24537 -0.6346,-0.24936 -0.6331,-0.25334 -0.6314,-0.25732 -0.6299,-0.26128 -0.6282,-0.26524 -0.6265,-0.26917 -0.6248,-0.27311 -0.6231,-0.27702 -0.6213,-0.28094 -0.6195,-0.28483 -0.6178,-0.28872 -0.6159,-0.2926 -0.6141,-0.29646 -0.6121,-0.30031 -0.6103,-0.30416 -0.6084,-0.30798 -0.6064,-0.3118 -0.6045,-0.3156 -0.6024,-0.31939 -0.6005,-0.32318 -0.5984,-0.32694 -0.5963,-0.33069 -0.5942,-0.33443 -0.5922,-0.33816 -0.59,-0.34188 -0.5878,-0.34557 -0.5856,-0.34926 -0.5835,-0.35294 -0.5812,-0.35659 -0.579,-0.36024 -0.5766,-0.36386 -0.5744,-0.36749 -0.5721,-0.37108 -0.5697,-0.37468 -0.5674,-0.37824 -0.565,-0.3818 -0.5625,-0.38535 -0.5601,-0.38887 -0.5577,-0.39239 -0.5552,-0.39587 -0.5527,-0.39937 -0.5502,-0.40282 -0.5476,-0.40627 -0.5451,-0.40971 -0.5425,-0.41313 -0.5399,-0.41652 -0.5372,-0.41991 -0.5346,-0.42327 -0.532,-0.42663 -0.5292,-0.42996 -0.5266,-0.43327 -0.5238,-0.43658 -0.521,-0.43986 -0.5183,-0.44312 -0.5155,-0.44638 -0.5126,-0.4496 -0.5099,-0.45281 -0.5069,-0.45601 -0.5041,-0.45918 -0.5012,-0.46235 -0.4983,-0.46548 -0.4954,-0.46861 -0.4924,-0.4717 -0.4894,-0.4748 -0.4864,-0.47785 -0.4835,-0.48091 -0.4804,-0.48393 -0.4773,-0.48694 -0.4743,-0.48993 -0.4711,-0.49291 -0.4681,-0.49585 -0.465,-0.49878 -0.4618,-0.5017 -0.4586,-0.50458 -0.4555,-0.50746 -0.4523,-0.51031 -0.449,-0.51314 -0.4459,-0.51596 -0.4425,-0.51874 -0.4393,-0.52152 -0.4361,-0.52426 -0.4327,-0.527 -0.4294,-0.5297 -0.426,-0.53239 -0.4227,-0.53505 -0.4194,-0.53771 -0.4159,-0.54032 -0.4126,-0.54293 -0.4091,-0.54551 -0.4057,-0.54807 -0.4022,-0.55061 -0.3988,-0.55312 -0.3953,-0.55562 -0.3918,-0.55809 -0.3883,-0.56055 -0.3847,-0.56297 -0.3812,-0.56538 -0.3777,-0.56776 -0.374,-0.57012 -0.3705,-0.57246 -0.3669,-0.57478 -0.3632,-0.57707 -0.3596,-0.57935 -0.356,-0.58159 -0.3523,-0.58381 -0.3487,-0.58602 -0.3449,-0.5882 -0.3413,-0.59035 -0.3375,-0.59249 -0.3338,-0.59459 -0.3301,-0.59668 -0.3263,-0.59875 -0.3225,-0.60078 -0.3188,-0.60279 -0.3149,-0.60479 -0.3112,-0.60675 -0.3073,-0.6087 -0.3035,-0.61061 -0.2997,-0.61252 -0.2958,-0.61438 -0.2919,-0.61622 -0.2881,-0.61805 -0.2842,-0.61985 -0.2802,-0.62162 -0.2764,-0.62337 -0.2724,-0.6251 -0.2685,-0.62679 -0.26461,-0.62847 -0.26061,-0.63011 -0.25665,-0.63175 -0.25267,-0.63334 -0.24869,-0.63492 -0.24469,-0.63647 -0.2407,-0.63799 -0.23667,-0.63949 -0.23266,-0.64097 -0.22862,-0.64241 -0.22458,-0.64384 -0.22053,-0.64524 -0.21647,-0.64661 -0.21241,-0.64796 -0.20833,-0.64928 -0.20425,-0.65058 -0.20015,-0.65184 -0.19606,-0.6531 -0.19195,-0.65431 -0.18783,-0.6555 -0.18371,-0.65667 -0.17958,-0.65781 -0.17545,-0.65893 -0.1713,-0.66002 -0.16715,-0.66108 -0.16299,-0.66212 -0.15883,-0.66312 -0.15466,-0.66412 -0.15049,-0.66507 -0.1463,-0.666 -0.14212,-0.66691 -0.13792,-0.66779 -0.13372,-0.66865 -0.12952,-0.66947 -0.12532,-0.67027 -0.12109,-0.67105 -0.11688,-0.67179 -0.11266,-0.67251 -0.10842,-0.67321 -0.1042,-0.67388 -0.1,-0.67452 -0.0957,-0.67513 -0.0915,-0.67572 -0.0872,-0.67628 -0.083,-0.67682 -0.0787,-0.67732 -0.0745,-0.67781 -0.0702,-0.67826 -0.0659,-0.67869 -0.0617,-0.67909 -0.0574,-0.67946 -0.0531,-0.67981 -0.0489,-0.68013 -0.0446,-0.68043 -0.0403,-0.68069 -0.036,-0.68093 -0.0318,-0.68115 -0.0275,-0.68133 -0.0232,-0.68149 -0.0189,-0.68162 -0.0146,-0.68173 -0.0104,-0.6818 -0.006,-0.68186 -0.002,-0.68188 0.002,-0.68188 0.007,-0.68185 0.0111,-0.6818 0.0154,-0.68171 0.0196,-0.6816 0.0239,-0.68147 0.0282,-0.6813 0.0325,-0.68111 0.0368,-0.68089 0.041,-0.68065 0.0453,-0.68038 0.0496,-0.68007 0.0539,-0.67976 0.0581,-0.6794 0.0624,-0.67902 0.0667,-0.67862 0.0709,-0.67819 0.0752,-0.67772 0.0794,-0.67725 0.0837,-0.67672 0.0879,-0.67619 0.0922,-0.67563 0.0964,-0.67503 0.10068,-0.67441 0.10491,-0.67376 0.10914,-0.6731 0.11337,-0.67239 0.11759,-0.67167 0.12182,-0.67092 0.12602,-0.67013 0.13023,-0.66934 0.13444,-0.6685 0.13863,-0.66764 0.14282,-0.66676 0.14701,-0.66585 0.15119,-0.66491 0.15537,-0.66395 0.15954,-0.66296 0.16369,-0.66194 0.16786,-0.6609 0.172,-0.65984 0.17614,-0.65874 0.18029,-0.65762 0.1844,-0.65647 0.18853,-0.65531 0.19265,-0.6541 0.19675,-0.65289 0.20084,-0.65163 0.20494,-0.65036 0.20902,-0.64906 0.2131,-0.64773 0.21716,-0.64638 0.22121,-0.64501 0.22527,-0.6436 0.2293,-0.64217 0.23334,-0.64072 0.23736,-0.63924 0.24136,-0.63774 0.24537,-0.6362 0.24937,-0.63466 0.25334,-0.63307 0.25732,-0.63147 0.26128,-0.62984 0.26524,-0.62819 0.2692,-0.6265 0.2731,-0.62481 0.277,-0.62307 0.2809,-0.62133 0.2849,-0.61954 0.2887,-0.61774 0.2926,-0.61592 0.2964,-0.61407 0.3004,-0.61219 0.3041,-0.61029 0.308,-0.60837 0.3118,-0.60642 0.3156,-0.60445 0.3194,-0.60246 0.3232,-0.60044 0.3269,-0.59839 0.3307,-0.59633 0.3344,-0.59424 0.3382,-0.59213 0.3419,-0.58999 0.3455,-0.58783 0.3493,-0.58565 0.3529,-0.58344 0.3566,-0.58121 0.3603,-0.57896 0.3638,-0.57669 0.3675,-0.57439 0.3711,-0.57207 0.3747,-0.56972 0.3782,-0.56736 0.3818,-0.56497 0.3854,-0.56256 0.3888,-0.56013 0.3924,-0.55768 0.3959,-0.5552 0.3994,-0.5527 0.4028,-0.55018 0.4063,-0.54764 0.4097,-0.54507 0.4131,-0.54249 0.4165,-0.53989 0.4199,-0.53725 0.4233,-0.53461 0.4266,-0.53193 0.43,-0.52925 0.4333,-0.52653 0.4365,-0.52381 0.4399,-0.52104 0.4431,-0.51828 0.4464,-0.51548 0.4496,-0.51266 0.4528,-0.50983 0.456,-0.50697 L 1020,110 l 0.4623,-0.50121 0.4655,-0.49829 0.4686,-0.49535 0.4717,-0.4924 0.4748,-0.48943 0.4779,-0.48643 0.4809,-0.48342 0.4839,-0.48039 0.487,-0.47735 0.4899,-0.47427 0.4929,-0.47118 0.4959,-0.46808 0.4987,-0.46495 0.5017,-0.46181 0.5046,-0.45865 0.5075,-0.45547 0.5103,-0.45227 0.5131,-0.44906 0.516,-0.44582 0.5187,-0.44258 0.5215,-0.4393 0.5243,-0.43602 0.527,-0.432717 0.5297,-0.429397 0.5324,-0.42606 0.5351,-0.422707 0.5377,-0.419337 0.5403,-0.41595 0.5429,-0.412547 0.5455,-0.409127 0.5481,-0.405692 0.5506,-0.40224 0.5531,-0.398773 0.5556,-0.39529 0.5581,-0.39179 0.5606,-0.388277 0.5629,-0.384746 0.5654,-0.381202 0.5678,-0.377642 0.5701,-0.374068 0.5725,-0.370477 0.5747,-0.366874 0.5771,-0.363255 0.5794,-0.359621 0.5816,-0.355975 0.5838,-0.352314 0.586,-0.348638 0.5882,-0.344949 0.5903,-0.341247 0.5925,-0.337531 0.5946,-0.333801 0.5967,-0.330059 0.5987,-0.326303 0.6008,-0.322535 0.6028,-0.318754 0.6048,-0.31496 0.6068,-0.311154 0.6087,-0.307336 0.6106,-0.303504 0.6125,-0.299663 0.6144,-0.295808 0.6162,-0.291941 0.618,-0.288064 0.6199,-0.284176 0.6216,-0.280275 0.6234,-0.276363 0.6251,-0.272442 0.6268,-0.268508 0.6284,-0.264565 0.6302,-0.260612 0.6317,-0.256646 0.6333,-0.252673 0.635,-0.248688 0.6364,-0.244694 0.638,-0.24069 0.6395,-0.236676 0.641,-0.232654 0.6424,-0.228622 0.6438,-0.224582 0.6453,-0.220531 0.6466,-0.216473 0.6479,-0.212406 0.6493,-0.20833 0.6506,-0.204247 0.6518,-0.200155 0.6531,-0.196056 0.6543,-0.191948 0.6555,-0.187834 0.6567,-0.183711 0.6578,-0.179581 0.659,-0.175445 0.66,-0.171301 0.6611,-0.167151 0.6621,-0.162993 0.6631,-0.158831 0.6641,-0.154661 0.6651,-0.150485 0.666,-0.146303 0.6669,-0.142116 0.6678,-0.137922 0.6686,-0.133724 0.6695,-0.129521 0.6703,-0.125311 0.671,-0.121098 0.6718,-0.116878 0.6725,-0.112656 0.6732,-0.108428 0.6739,-0.104195 0.6745,-0.09996 0.6752,-0.09572 0.6757,-0.09148 0.6763,-0.08723 0.6768,-0.08298 0.6773,-0.07872 0.6778,-0.07447 0.6783,-0.07021 0.6787,-0.06594 0.6791,-0.06168 0.6794,-0.05741 0.6798,-0.05314 0.6802,-0.04887 0.6804,-0.04459 0.6807,-0.04032 0.6809,-0.03604 0.6812,-0.03176 0.6813,-0.02748 0.6815,-0.0232 0.6816,-0.01892 0.6817,-0.01463 0.6818,-0.01035 0.6819,-0.0061 0.6819,-0.0018 0.6819,0.0025 0.6818,0.0068 0.6818,0.01107 0.6817,0.01536 0.6816,0.01964 0.6815,0.02392 0.6813,0.0282 0.6811,0.03248 0.6809,0.03676 0.6806,0.04104 0.6804,0.04532 0.6801,0.04959 0.6797,0.05386 0.6794,0.05813 0.6791,0.0624 0.6786,0.06666 0.6782,0.07093 0.6777,0.07519 0.6772,0.07944 0.6768,0.0837 0.6762,0.08795 0.6756,0.09219 0.675,0.09644 0.6744,0.100677 0.6738,0.104912 0.6731,0.109143 0.6724,0.11337 0.6716,0.117593 0.671,0.121811 0.6701,0.126023 0.6693,0.130232 0.6685,0.134435 0.6677,0.138632 0.6667,0.142824 0.6659,0.147011 0.6649,0.151192 0.6639,0.155367 0.663,0.159535 0.6619,0.163697 0.6609,0.167853 0.6599,0.172003 0.6587,0.176145 0.6576,0.18028 0.6565,0.184409 0.6553,0.18853 0.6541,0.192644 0.6529,0.196749 0.6516,0.200848 0.6504,0.204938 0.6491,0.209021 0.6477,0.213094 0.6464,0.21716 0.645,0.221217 0.6436,0.225265 0.6421,0.229305 0.6408,0.233335 0.6392,0.237356 0.6377,0.241368 0.6363,0.245371 0.6346,0.249362 0.6331,0.253346 0.6314,0.257318 0.6299,0.26128 0.6282,0.265233 0.6265,0.269175 0.6248,0.273106 0.6231,0.277026 0.6213,0.280935 0.6195,0.284834 0.6178,0.288721 0.6159,0.292596 0.6141,0.296461 0.6121,0.300313 0.6103,0.304154 0.6084,0.307982 0.6064,0.311798 0.6045,0.315603 0.6024,0.319394 0.6005,0.323174 0.5984,0.326939 0.5963,0.330693 0.5942,0.334433 0.5922,0.338161 0.59,0.341874 0.5878,0.345574 0.5856,0.349261 0.5835,0.352933 0.5812,0.356593 0.579,0.360237 0.5766,0.363868 0.5744,0.367485 0.5721,0.371085 0.5697,0.374673 0.5674,0.378246 0.565,0.381802 0.5625,0.385345 0.5601,0.388872 0.5577,0.392384 0.5552,0.395879 0.5527,0.399361 0.5502,0.402825 0.5476,0.406274 0.5451,0.409707 0.5425,0.413124 0.5399,0.416524 0.5372,0.419908 0.5346,0.423275 0.532,0.426626 0.5292,0.42996 0.5266,0.433276 0.5238,0.436579 0.521,0.43986 0.5183,0.44312 0.5155,0.44637 0.5126,0.4496 0.5099,0.45282 0.5069,0.45601 0.5041,0.45918 0.5012,0.46234 0.4983,0.46549 0.4954,0.4686 0.4924,0.47171 0.4894,0.47479 0.4864,0.47786 0.4835,0.4809 0.4804,0.48394 0.4773,0.48694 0.4743,0.48993 0.4711,0.4929 0.4681,0.49585 0.465,0.49879 0.4618,0.50169 0.4586,0.50459 0.4555,0.50746 0.4523,0.51031 0.449,0.51314 0.4459,0.51595 0.4425,0.51875 0.4393,0.52151 0.4361,0.52427 0.4327,0.52699 0.4294,0.5297 0.426,0.53239 0.4227,0.53506 0.4194,0.5377 0.4159,0.54033 0.4126,0.54293 0.4091,0.54551 0.4057,0.54807 0.4022,0.5506 0.3988,0.55313 0.3953,0.55562 0.3918,0.55809 0.3883,0.56054 0.3847,0.56297 0.3812,0.56538 0.3777,0.56776 0.374,0.57013 0.3705,0.57246 0.3669,0.57478 0.3632,0.57707 0.3596,0.57934 0.356,0.58159 0.3523,0.58382 0.3487,0.58602 0.3449,0.5882 0.3413,0.59035 0.3375,0.59249 0.3338,0.59459 0.3301,0.59668 0.3263,0.59874 0.3225,0.60078 0.3188,0.6028 0.3149,0.60479 0.3112,0.60675 0.3073,0.6087 0.3035,0.61061 0.2997,0.61251 0.2958,0.61438 0.2919,0.61623 0.2881,0.61805 0.2842,0.61985 0.2802,0.62162 0.2764,0.62337 0.2724,0.62509 0.2685,0.62679 0.2646,0.62847 0.2606,0.63012 0.2567,0.63174 0.2526,0.63335 0.2487,0.63491 0.2447,0.63647 0.2407,0.63799 0.2367,0.6395 0.2326,0.64096 0.2287,0.64242 0.2245,0.64384 0.2206,0.64524 0.2165,0.64661 0.2124,0.64796 0.2083,0.64928 0.2042,0.65057 0.2002,0.65185 0.196,0.65309 0.192,0.65431 0.1878,0.65551 0.1837,0.65667 0.1796,0.65781 0.1755,0.65893 0.1713,0.66001 0.1671,0.66109 0.163,0.66211 0.1588,0.66313 0.1547,0.66411 0.1505,0.66508 0.1463,0.666 0.1421,0.66691 0.1379,0.66779 0.1338,0.66865 0.1295,0.66947 0.1253,0.67027 0.1211,0.67104 0.1169,0.6718 0.1126,0.67251 0.1084,0.67321 0.1042,0.67387 0.1,0.67452 0.096,0.67514 0.091,0.67572 0.087,0.67628 0.083,0.67682 0.079,0.67732 0.074,0.67781 0.07,0.67826 0.066,0.67869 0.062,0.67909 0.057,0.67946 0.053,0.67981 0.049,0.68013 0.045,0.68043 0.04,0.68069 0.036,0.68093 0.032,0.68114 0.027,0.68133 0.023,0.68149 0.019,0.68163 0.015,0.68172 0.01,0.68181 0.01,0.68186 0,0.68188 -0,0.68188 -0.01,0.68185 -0.011,0.68179 -0.015,0.68172 -0.02,0.6816 -0.024,0.68146 -0.028,0.6813 -0.032,0.68111 -0.037,0.6809 -0.041,0.68064 -0.045,0.68038 -0.05,0.68008 -0.054,0.67975 -0.058,0.67941 -0.062,0.67902 -0.067,0.67862 -0.071,0.67818 -0.075,0.67773 -0.079,0.67724 -0.084,0.67673 -0.088,0.67619 -0.092,0.67562 -0.096,0.67503 -0.1007,0.67441 -0.1049,0.67377 -0.1091,0.67309 -0.1134,0.6724 -0.1176,0.67167 -0.1218,0.67091 -0.126,0.67014 -0.1303,0.66933 -0.1344,0.6685 -0.1386,0.66765 -0.1429,0.66676 -0.147,0.66584 -0.1512,0.66492 -0.1553,0.66394 -0.1596,0.66296 -0.1637,0.66195 -0.1678,0.6609 -0.172,0.65983 -0.1762,0.65874 -0.1802,0.65763 -0.1845,0.65647 -0.1885,0.6553 -0.1926,0.65411 -0.1968,0.65288 -0.2008,0.65164 -0.205,0.65036 -0.209,0.64906 -0.2131,0.64773 -0.2171,0.64638 -0.2213,0.645 -0.2252,0.6436 -0.2293,0.64218 -0.2334,0.64071 -0.2373,0.63925 -0.2414,0.63773 -0.2454,0.63621 -0.2493,0.63465 -0.2534,0.63308 -0.2573,0.63147 -0.2613,0.62984 -0.2652,0.62818 -0.2692,0.62651 -0.2731,0.6248 -0.277,0.62308 -0.2809,0.62132 -0.2849,0.61955 -0.2887,0.61774 -0.2926,0.61592 -0.2964,0.61406 -0.3004,0.6122 -0.3041,0.61029 -0.308,0.60837 -0.3118,0.60642 -0.3156,0.60445 -0.3194,0.60246 -0.3232,0.60044 -0.3269,0.59839 -0.3307,0.59633 -0.3344,0.59424 -0.3382,0.59213 -0.3419,0.58999 -0.3455,0.58783 -0.3493,0.58565 -0.3529,0.58344 -0.3566,0.58121 -0.3603,0.57896 -0.3638,0.57669 -0.3675,0.57438 -0.3711,0.57207 -0.3747,0.56973 -0.3782,0.56736 -0.3818,0.56497 -0.3854,0.56256 -0.3888,0.56013 -0.3924,0.55768 -0.3959,0.55519 -0.3994,0.5527 -0.4028,0.55019 -0.4063,0.54763 -0.4097,0.54508 -0.4131,0.54249 -0.4165,0.53988 -0.4199,0.53726 -0.4233,0.5346 -0.4266,0.53194 -0.43,0.52925 -0.4333,0.52653 -0.4365,0.5238 -0.4399,0.52105 -0.4431,0.51827 -0.4464,0.51548 -0.4496,0.51267 -0.4528,0.50983 -0.456,0.50697 z"
       inkscape:randomized="0"
       inkscape:rounded="0"
       inkscape:flatsided="true"
       sodipodi:arg2="0.74508886"
       sodipodi:arg1="0.74194727"
       sodipodi:r2="108.52494"
       sodipodi:r1="108.52547"
       sodipodi:cy="183.33333"
       sodipodi:cx="1100"
       sodipodi:sides="1000"
       id="path3790"
       style="fill:none;stroke:#29ace2;stroke-width:3.30482507;stroke-linecap:round;stroke-linejoin:round;stroke-miterlimit:0;stroke-opacity:1;stroke-dasharray:none;stroke-dashoffset:0"
       sodipodi:type="star" />
  </g>
  <g
     id="g3794"
     inkscape:label="t_container"
     inkscape:groupmode="layer"
     style="display:inline">
    <path
       sodipodi:type="star"
       style="fill:none;stroke:#29ace2;stroke-width:6.67506504;stroke-linecap:round;stroke-linejoin:round;stroke-miterlimit:0;stroke-opacity:1;stroke-dasharray:none;stroke-dashoffset:0"
       id="path3796"
       sodipodi:sides="1000"
       sodipodi:cx="1100"
       sodipodi:cy="183.33333"
       sodipodi:r1="108.52547"
       sodipodi:r2="108.52494"
       sodipodi:arg1="0.74194727"
       sodipodi:arg2="0.74508886"
       inkscape:flatsided="true"
       inkscape:rounded="0"
       inkscape:randomized="0"
       d="m 1180,256.66666 -0.4623,0.5012 -0.4655,0.49829 -0.4686,0.49536 -0.4717,0.4924 -0.4748,0.48942 -0.4779,0.48644 -0.4809,0.48342 -0.4839,0.48039 -0.487,0.47734 -0.4899,0.47427 -0.4929,0.47119 -0.4959,0.46808 -0.4987,0.46495 -0.5017,0.46181 -0.5046,0.45865 -0.5075,0.45547 -0.5103,0.45227 -0.5131,0.44906 -0.516,0.44582 -0.5187,0.44257 -0.5215,0.43931 -0.5243,0.43602 -0.527,0.43271 -0.5297,0.4294 -0.5324,0.42606 -0.5351,0.42271 -0.5377,0.41933 -0.5403,0.41595 -0.5429,0.41255 -0.5455,0.40913 -0.5481,0.40569 -0.5506,0.40224 -0.5531,0.39877 -0.5556,0.39529 -0.5581,0.39179 -0.5606,0.38828 -0.5629,0.38475 -0.5654,0.3812 -0.5678,0.37764 -0.5701,0.37407 -0.5725,0.37048 -0.5747,0.36687 -0.5771,0.36325 -0.5794,0.35963 -0.5816,0.35597 -0.5838,0.35231 -0.586,0.34864 -0.5882,0.34495 -0.5903,0.34125 -0.5925,0.33753 -0.5946,0.3338 -0.5967,0.33006 -0.5987,0.3263 -0.6008,0.32254 -0.6028,0.31875 -0.6048,0.31496 -0.6068,0.31116 -0.6087,0.30733 -0.6106,0.30351 -0.6125,0.29966 -0.6144,0.29581 -0.6162,0.29194 -0.618,0.28806 -0.6199,0.28418 -0.6216,0.28027 -0.6234,0.27637 -0.6251,0.27244 -0.6268,0.26851 -0.6284,0.26456 -0.6302,0.26061 -0.6317,0.25665 -0.6333,0.25267 -0.635,0.24869 -0.6364,0.24469 -0.638,0.24069 -0.6395,0.23668 -0.641,0.23265 -0.6424,0.22863 -0.6438,0.22458 -0.6453,0.22053 -0.6466,0.21647 -0.6479,0.21241 -0.6493,0.20833 -0.6506,0.20424 -0.6518,0.20016 -0.6531,0.19606 -0.6543,0.19194 -0.6555,0.18784 -0.6567,0.18371 -0.6578,0.17958 -0.659,0.17544 -0.66,0.17131 -0.6611,0.16715 -0.6621,0.16299 -0.6631,0.15883 -0.6641,0.15466 -0.6651,0.15049 -0.666,0.1463 -0.6669,0.14212 -0.6678,0.13792 -0.6686,0.13372 -0.6695,0.12952 -0.6703,0.12531 -0.671,0.1211 -0.6718,0.11688 -0.6725,0.11266 -0.6732,0.10842 -0.6739,0.1042 -0.6745,0.1 -0.6752,0.0957 -0.6757,0.0915 -0.6763,0.0872 -0.6768,0.083 -0.6773,0.0787 -0.6778,0.0745 -0.6783,0.0702 -0.6787,0.0659 -0.6791,0.0617 -0.6794,0.0574 -0.6798,0.0531 -0.6802,0.0489 -0.6804,0.0446 -0.6807,0.0403 -0.6809,0.036 -0.6812,0.0317 -0.6813,0.0275 -0.6815,0.0232 -0.6816,0.0189 -0.6817,0.0146 -0.6818,0.0103 -0.6819,0.006 -0.6819,0.002 -0.6819,-0.002 -0.6818,-0.007 -0.6818,-0.0111 -0.6817,-0.0154 -0.6816,-0.0196 -0.6815,-0.0239 -0.6813,-0.0282 -0.6811,-0.0325 -0.6809,-0.0368 -0.6806,-0.041 -0.6804,-0.0453 -0.6801,-0.0496 -0.6797,-0.0539 -0.6794,-0.0581 -0.6791,-0.0624 -0.6786,-0.0667 -0.6782,-0.0709 -0.6777,-0.0752 -0.6772,-0.0794 -0.6768,-0.0837 -0.6762,-0.0879 -0.6756,-0.0922 -0.675,-0.0964 -0.6744,-0.10068 -0.6738,-0.10491 -0.6731,-0.10914 -0.6724,-0.11337 -0.6716,-0.1176 -0.671,-0.12181 -0.6701,-0.12602 -0.6693,-0.13023 -0.6685,-0.13444 -0.6677,-0.13863 -0.6667,-0.14282 -0.6659,-0.14701 -0.6649,-0.1512 -0.6639,-0.15536 -0.663,-0.15954 -0.6619,-0.1637 -0.6609,-0.16785 -0.6599,-0.172 -0.6587,-0.17615 -0.6576,-0.18028 -0.6565,-0.18441 -0.6553,-0.18853 -0.6541,-0.19264 -0.6529,-0.19675 -0.6516,-0.20085 -0.6504,-0.20493 -0.6491,-0.20903 -0.6477,-0.21309 -0.6464,-0.21716 -0.645,-0.22122 -0.6436,-0.22526 -0.6421,-0.22931 -0.6408,-0.23333 -0.6392,-0.23736 -0.6377,-0.24137 -0.6363,-0.24537 -0.6346,-0.24936 -0.6331,-0.25334 -0.6314,-0.25732 -0.6299,-0.26128 -0.6282,-0.26524 -0.6265,-0.26917 -0.6248,-0.27311 -0.6231,-0.27702 -0.6213,-0.28094 -0.6195,-0.28483 -0.6178,-0.28872 -0.6159,-0.2926 -0.6141,-0.29646 -0.6121,-0.30031 -0.6103,-0.30416 -0.6084,-0.30798 -0.6064,-0.3118 -0.6045,-0.3156 -0.6024,-0.31939 -0.6005,-0.32318 -0.5984,-0.32694 -0.5963,-0.33069 -0.5942,-0.33443 -0.5922,-0.33816 -0.59,-0.34188 -0.5878,-0.34557 -0.5856,-0.34926 -0.5835,-0.35294 -0.5812,-0.35659 -0.579,-0.36024 -0.5766,-0.36386 -0.5744,-0.36749 -0.5721,-0.37108 -0.5697,-0.37468 -0.5674,-0.37824 -0.565,-0.3818 -0.5625,-0.38535 -0.5601,-0.38887 -0.5577,-0.39239 -0.5552,-0.39587 -0.5527,-0.39937 -0.5502,-0.40282 -0.5476,-0.40627 -0.5451,-0.40971 -0.5425,-0.41313 -0.5399,-0.41652 -0.5372,-0.41991 -0.5346,-0.42327 -0.532,-0.42663 -0.5292,-0.42996 -0.5266,-0.43327 -0.5238,-0.43658 -0.521,-0.43986 -0.5183,-0.44312 -0.5155,-0.44638 -0.5126,-0.4496 -0.5099,-0.45281 -0.5069,-0.45601 -0.5041,-0.45918 -0.5012,-0.46235 -0.4983,-0.46548 -0.4954,-0.46861 -0.4924,-0.4717 -0.4894,-0.4748 -0.4864,-0.47785 -0.4835,-0.48091 -0.4804,-0.48393 -0.4773,-0.48694 -0.4743,-0.48993 -0.4711,-0.49291 -0.4681,-0.49585 -0.465,-0.49878 -0.4618,-0.5017 -0.4586,-0.50458 -0.4555,-0.50746 -0.4523,-0.51031 -0.449,-0.51314 -0.4459,-0.51596 -0.4425,-0.51874 -0.4393,-0.52152 -0.4361,-0.52426 -0.4327,-0.527 -0.4294,-0.5297 -0.426,-0.53239 -0.4227,-0.53505 -0.4194,-0.53771 -0.4159,-0.54032 -0.4126,-0.54293 -0.4091,-0.54551 -0.4057,-0.54807 -0.4022,-0.55061 -0.3988,-0.55312 -0.3953,-0.55562 -0.3918,-0.55809 -0.3883,-0.56055 -0.3847,-0.56297 -0.3812,-0.56538 -0.3777,-0.56776 -0.374,-0.57012 -0.3705,-0.57246 -0.3669,-0.57478 -0.3632,-0.57707 -0.3596,-0.57935 -0.356,-0.58159 -0.3523,-0.58381 -0.3487,-0.58602 -0.3449,-0.5882 -0.3413,-0.59035 -0.3375,-0.59249 -0.3338,-0.59459 -0.3301,-0.59668 -0.3263,-0.59875 -0.3225,-0.60078 -0.3188,-0.60279 -0.3149,-0.60479 -0.3112,-0.60675 -0.3073,-0.6087 -0.3035,-0.61061 -0.2997,-0.61252 -0.2958,-0.61438 -0.2919,-0.61622 -0.2881,-0.61805 -0.2842,-0.61985 -0.2802,-0.62162 -0.2764,-0.62337 -0.2724,-0.6251 -0.2685,-0.62679 -0.26461,-0.62847 -0.26061,-0.63011 -0.25665,-0.63175 -0.25267,-0.63334 -0.24869,-0.63492 -0.24469,-0.63647 -0.2407,-0.63799 -0.23667,-0.63949 -0.23266,-0.64097 -0.22862,-0.64241 -0.22458,-0.64384 -0.22053,-0.64524 -0.21647,-0.64661 -0.21241,-0.64796 -0.20833,-0.64928 -0.20425,-0.65058 -0.20015,-0.65184 -0.19606,-0.6531 -0.19195,-0.65431 -0.18783,-0.6555 -0.18371,-0.65667 -0.17958,-0.65781 -0.17545,-0.65893 -0.1713,-0.66002 -0.16715,-0.66108 -0.16299,-0.66212 -0.15883,-0.66312 -0.15466,-0.66412 -0.15049,-0.66507 -0.1463,-0.666 -0.14212,-0.66691 -0.13792,-0.66779 -0.13372,-0.66865 -0.12952,-0.66947 -0.12532,-0.67027 -0.12109,-0.67105 -0.11688,-0.67179 -0.11266,-0.67251 -0.10842,-0.67321 -0.1042,-0.67388 -0.1,-0.67452 -0.0957,-0.67513 -0.0915,-0.67572 -0.0872,-0.67628 -0.083,-0.67682 -0.0787,-0.67732 -0.0745,-0.67781 -0.0702,-0.67826 -0.0659,-0.67869 -0.0617,-0.67909 -0.0574,-0.67946 -0.0531,-0.67981 -0.0489,-0.68013 -0.0446,-0.68043 -0.0403,-0.68069 -0.036,-0.68093 -0.0318,-0.68115 -0.0275,-0.68133 -0.0232,-0.68149 -0.0189,-0.68162 -0.0146,-0.68173 -0.0104,-0.6818 -0.006,-0.68186 -0.002,-0.68188 0.002,-0.68188 0.007,-0.68185 0.0111,-0.6818 0.0154,-0.68171 0.0196,-0.6816 0.0239,-0.68147 0.0282,-0.6813 0.0325,-0.68111 0.0368,-0.68089 0.041,-0.68065 0.0453,-0.68038 0.0496,-0.68007 0.0539,-0.67976 0.0581,-0.6794 0.0624,-0.67902 0.0667,-0.67862 0.0709,-0.67819 0.0752,-0.67772 0.0794,-0.67725 0.0837,-0.67672 0.0879,-0.67619 0.0922,-0.67563 0.0964,-0.67503 0.10068,-0.67441 0.10491,-0.67376 0.10914,-0.6731 0.11337,-0.67239 0.11759,-0.67167 0.12182,-0.67092 0.12602,-0.67013 0.13023,-0.66934 0.13444,-0.6685 0.13863,-0.66764 0.14282,-0.66676 0.14701,-0.66585 0.15119,-0.66491 0.15537,-0.66395 0.15954,-0.66296 0.16369,-0.66194 0.16786,-0.6609 0.172,-0.65984 0.17614,-0.65874 0.18029,-0.65762 0.1844,-0.65647 0.18853,-0.65531 0.19265,-0.6541 0.19675,-0.65289 0.20084,-0.65163 0.20494,-0.65036 0.20902,-0.64906 0.2131,-0.64773 0.21716,-0.64638 0.22121,-0.64501 0.22527,-0.6436 0.2293,-0.64217 0.23334,-0.64072 0.23736,-0.63924 0.24136,-0.63774 0.24537,-0.6362 0.24937,-0.63466 0.25334,-0.63307 0.25732,-0.63147 0.26128,-0.62984 0.26524,-0.62819 0.2692,-0.6265 0.2731,-0.62481 0.277,-0.62307 0.2809,-0.62133 0.2849,-0.61954 0.2887,-0.61774 0.2926,-0.61592 0.2964,-0.61407 0.3004,-0.61219 0.3041,-0.61029 0.308,-0.60837 0.3118,-0.60642 0.3156,-0.60445 0.3194,-0.60246 0.3232,-0.60044 0.3269,-0.59839 0.3307,-0.59633 0.3344,-0.59424 0.3382,-0.59213 0.3419,-0.58999 0.3455,-0.58783 0.3493,-0.58565 0.3529,-0.58344 0.3566,-0.58121 0.3603,-0.57896 0.3638,-0.57669 0.3675,-0.57439 0.3711,-0.57207 0.3747,-0.56972 0.3782,-0.56736 0.3818,-0.56497 0.3854,-0.56256 0.3888,-0.56013 0.3924,-0.55768 0.3959,-0.5552 0.3994,-0.5527 0.4028,-0.55018 0.4063,-0.54764 0.4097,-0.54507 0.4131,-0.54249 0.4165,-0.53989 0.4199,-0.53725 0.4233,-0.53461 0.4266,-0.53193 0.43,-0.52925 0.4333,-0.52653 0.4365,-0.52381 0.4399,-0.52104 0.4431,-0.51828 0.4464,-0.51548 0.4496,-0.51266 0.4528,-0.50983 0.456,-0.50697 L 1020,110 l 0.4623,-0.50121 0.4655,-0.49829 0.4686,-0.49535 0.4717,-0.4924 0.4748,-0.48943 0.4779,-0.48643 0.4809,-0.48342 0.4839,-0.48039 0.487,-0.47735 0.4899,-0.47427 0.4929,-0.47118 0.4959,-0.46808 0.4987,-0.46495 0.5017,-0.46181 0.5046,-0.45865 0.5075,-0.45547 0.5103,-0.45227 0.5131,-0.44906 0.516,-0.44582 0.5187,-0.44258 0.5215,-0.4393 0.5243,-0.43602 0.527,-0.432717 0.5297,-0.429397 0.5324,-0.42606 0.5351,-0.422707 0.5377,-0.419337 0.5403,-0.41595 0.5429,-0.412547 0.5455,-0.409127 0.5481,-0.405692 0.5506,-0.40224 0.5531,-0.398773 0.5556,-0.39529 0.5581,-0.39179 0.5606,-0.388277 0.5629,-0.384746 0.5654,-0.381202 0.5678,-0.377642 0.5701,-0.374068 0.5725,-0.370477 0.5747,-0.366874 0.5771,-0.363255 0.5794,-0.359621 0.5816,-0.355975 0.5838,-0.352314 0.586,-0.348638 0.5882,-0.344949 0.5903,-0.341247 0.5925,-0.337531 0.5946,-0.333801 0.5967,-0.330059 0.5987,-0.326303 0.6008,-0.322535 0.6028,-0.318754 0.6048,-0.31496 0.6068,-0.311154 0.6087,-0.307336 0.6106,-0.303504 0.6125,-0.299663 0.6144,-0.295808 0.6162,-0.291941 0.618,-0.288064 0.6199,-0.284176 0.6216,-0.280275 0.6234,-0.276363 0.6251,-0.272442 0.6268,-0.268508 0.6284,-0.264565 0.6302,-0.260612 0.6317,-0.256646 0.6333,-0.252673 0.635,-0.248688 0.6364,-0.244694 0.638,-0.24069 0.6395,-0.236676 0.641,-0.232654 0.6424,-0.228622 0.6438,-0.224582 0.6453,-0.220531 0.6466,-0.216473 0.6479,-0.212406 0.6493,-0.20833 0.6506,-0.204247 0.6518,-0.200155 0.6531,-0.196056 0.6543,-0.191948 0.6555,-0.187834 0.6567,-0.183711 0.6578,-0.179581 0.659,-0.175445 0.66,-0.171301 0.6611,-0.167151 0.6621,-0.162993 0.6631,-0.158831 0.6641,-0.154661 0.6651,-0.150485 0.666,-0.146303 0.6669,-0.142116 0.6678,-0.137922 0.6686,-0.133724 0.6695,-0.129521 0.6703,-0.125311 0.671,-0.121098 0.6718,-0.116878 0.6725,-0.112656 0.6732,-0.108428 0.6739,-0.104195 0.6745,-0.09996 0.6752,-0.09572 0.6757,-0.09148 0.6763,-0.08723 0.6768,-0.08298 0.6773,-0.07872 0.6778,-0.07447 0.6783,-0.07021 0.6787,-0.06594 0.6791,-0.06168 0.6794,-0.05741 0.6798,-0.05314 0.6802,-0.04887 0.6804,-0.04459 0.6807,-0.04032 0.6809,-0.03604 0.6812,-0.03176 0.6813,-0.02748 0.6815,-0.0232 0.6816,-0.01892 0.6817,-0.01463 0.6818,-0.01035 0.6819,-0.0061 0.6819,-0.0018 0.6819,0.0025 0.6818,0.0068 0.6818,0.01107 0.6817,0.01536 0.6816,0.01964 0.6815,0.02392 0.6813,0.0282 0.6811,0.03248 0.6809,0.03676 0.6806,0.04104 0.6804,0.04532 0.6801,0.04959 0.6797,0.05386 0.6794,0.05813 0.6791,0.0624 0.6786,0.06666 0.6782,0.07093 0.6777,0.07519 0.6772,0.07944 0.6768,0.0837 0.6762,0.08795 0.6756,0.09219 0.675,0.09644 0.6744,0.100677 0.6738,0.104912 0.6731,0.109143 0.6724,0.11337 0.6716,0.117593 0.671,0.121811 0.6701,0.126023 0.6693,0.130232 0.6685,0.134435 0.6677,0.138632 0.6667,0.142824 0.6659,0.147011 0.6649,0.151192 0.6639,0.155367 0.663,0.159535 0.6619,0.163697 0.6609,0.167853 0.6599,0.172003 0.6587,0.176145 0.6576,0.18028 0.6565,0.184409 0.6553,0.18853 0.6541,0.192644 0.6529,0.196749 0.6516,0.200848 0.6504,0.204938 0.6491,0.209021 0.6477,0.213094 0.6464,0.21716 0.645,0.221217 0.6436,0.225265 0.6421,0.229305 0.6408,0.233335 0.6392,0.237356 0.6377,0.241368 0.6363,0.245371 0.6346,0.249362 0.6331,0.253346 0.6314,0.257318 0.6299,0.26128 0.6282,0.265233 0.6265,0.269175 0.6248,0.273106 0.6231,0.277026 0.6213,0.280935 0.6195,0.284834 0.6178,0.288721 0.6159,0.292596 0.6141,0.296461 0.6121,0.300313 0.6103,0.304154 0.6084,0.307982 0.6064,0.311798 0.6045,0.315603 0.6024,0.319394 0.6005,0.323174 0.5984,0.326939 0.5963,0.330693 0.5942,0.334433 0.5922,0.338161 0.59,0.341874 0.5878,0.345574 0.5856,0.349261 0.5835,0.352933 0.5812,0.356593 0.579,0.360237 0.5766,0.363868 0.5744,0.367485 0.5721,0.371085 0.5697,0.374673 0.5674,0.378246 0.565,0.381802 0.5625,0.385345 0.5601,0.388872 0.5577,0.392384 0.5552,0.395879 0.5527,0.399361 0.5502,0.402825 0.5476,0.406274 0.5451,0.409707 0.5425,0.413124 0.5399,0.416524 0.5372,0.419908 0.5346,0.423275 0.532,0.426626 0.5292,0.42996 0.5266,0.433276 0.5238,0.436579 0.521,0.43986 0.5183,0.44312 0.5155,0.44637 0.5126,0.4496 0.5099,0.45282 0.5069,0.45601 0.5041,0.45918 0.5012,0.46234 0.4983,0.46549 0.4954,0.4686 0.4924,0.47171 0.4894,0.47479 0.4864,0.47786 0.4835,0.4809 0.4804,0.48394 0.4773,0.48694 0.4743,0.48993 0.4711,0.4929 0.4681,0.49585 0.465,0.49879 0.4618,0.50169 0.4586,0.50459 0.4555,0.50746 0.4523,0.51031 0.449,0.51314 0.4459,0.51595 0.4425,0.51875 0.4393,0.52151 0.4361,0.52427 0.4327,0.52699 0.4294,0.5297 0.426,0.53239 0.4227,0.53506 0.4194,0.5377 0.4159,0.54033 0.4126,0.54293 0.4091,0.54551 0.4057,0.54807 0.4022,0.5506 0.3988,0.55313 0.3953,0.55562 0.3918,0.55809 0.3883,0.56054 0.3847,0.56297 0.3812,0.56538 0.3777,0.56776 0.374,0.57013 0.3705,0.57246 0.3669,0.57478 0.3632,0.57707 0.3596,0.57934 0.356,0.58159 0.3523,0.58382 0.3487,0.58602 0.3449,0.5882 0.3413,0.59035 0.3375,0.59249 0.3338,0.59459 0.3301,0.59668 0.3263,0.59874 0.3225,0.60078 0.3188,0.6028 0.3149,0.60479 0.3112,0.60675 0.3073,0.6087 0.3035,0.61061 0.2997,0.61251 0.2958,0.61438 0.2919,0.61623 0.2881,0.61805 0.2842,0.61985 0.2802,0.62162 0.2764,0.62337 0.2724,0.62509 0.2685,0.62679 0.2646,0.62847 0.2606,0.63012 0.2567,0.63174 0.2526,0.63335 0.2487,0.63491 0.2447,0.63647 0.2407,0.63799 0.2367,0.6395 0.2326,0.64096 0.2287,0.64242 0.2245,0.64384 0.2206,0.64524 0.2165,0.64661 0.2124,0.64796 0.2083,0.64928 0.2042,0.65057 0.2002,0.65185 0.196,0.65309 0.192,0.65431 0.1878,0.65551 0.1837,0.65667 0.1796,0.65781 0.1755,0.65893 0.1713,0.66001 0.1671,0.66109 0.163,0.66211 0.1588,0.66313 0.1547,0.66411 0.1505,0.66508 0.1463,0.666 0.1421,0.66691 0.1379,0.66779 0.1338,0.66865 0.1295,0.66947 0.1253,0.67027 0.1211,0.67104 0.1169,0.6718 0.1126,0.67251 0.1084,0.67321 0.1042,0.67387 0.1,0.67452 0.096,0.67514 0.091,0.67572 0.087,0.67628 0.083,0.67682 0.079,0.67732 0.074,0.67781 0.07,0.67826 0.066,0.67869 0.062,0.67909 0.057,0.67946 0.053,0.67981 0.049,0.68013 0.045,0.68043 0.04,0.68069 0.036,0.68093 0.032,0.68114 0.027,0.68133 0.023,0.68149 0.019,0.68163 0.015,0.68172 0.01,0.68181 0.01,0.68186 0,0.68188 -0,0.68188 -0.01,0.68185 -0.011,0.68179 -0.015,0.68172 -0.02,0.6816 -0.024,0.68146 -0.028,0.6813 -0.032,0.68111 -0.037,0.6809 -0.041,0.68064 -0.045,0.68038 -0.05,0.68008 -0.054,0.67975 -0.058,0.67941 -0.062,0.67902 -0.067,0.67862 -0.071,0.67818 -0.075,0.67773 -0.079,0.67724 -0.084,0.67673 -0.088,0.67619 -0.092,0.67562 -0.096,0.67503 -0.1007,0.67441 -0.1049,0.67377 -0.1091,0.67309 -0.1134,0.6724 -0.1176,0.67167 -0.1218,0.67091 -0.126,0.67014 -0.1303,0.66933 -0.1344,0.6685 -0.1386,0.66765 -0.1429,0.66676 -0.147,0.66584 -0.1512,0.66492 -0.1553,0.66394 -0.1596,0.66296 -0.1637,0.66195 -0.1678,0.6609 -0.172,0.65983 -0.1762,0.65874 -0.1802,0.65763 -0.1845,0.65647 -0.1885,0.6553 -0.1926,0.65411 -0.1968,0.65288 -0.2008,0.65164 -0.205,0.65036 -0.209,0.64906 -0.2131,0.64773 -0.2171,0.64638 -0.2213,0.645 -0.2252,0.6436 -0.2293,0.64218 -0.2334,0.64071 -0.2373,0.63925 -0.2414,0.63773 -0.2454,0.63621 -0.2493,0.63465 -0.2534,0.63308 -0.2573,0.63147 -0.2613,0.62984 -0.2652,0.62818 -0.2692,0.62651 -0.2731,0.6248 -0.277,0.62308 -0.2809,0.62132 -0.2849,0.61955 -0.2887,0.61774 -0.2926,0.61592 -0.2964,0.61406 -0.3004,0.6122 -0.3041,0.61029 -0.308,0.60837 -0.3118,0.60642 -0.3156,0.60445 -0.3194,0.60246 -0.3232,0.60044 -0.3269,0.59839 -0.3307,0.59633 -0.3344,0.59424 -0.3382,0.59213 -0.3419,0.58999 -0.3455,0.58783 -0.3493,0.58565 -0.3529,0.58344 -0.3566,0.58121 -0.3603,0.57896 -0.3638,0.57669 -0.3675,0.57438 -0.3711,0.57207 -0.3747,0.56973 -0.3782,0.56736 -0.3818,0.56497 -0.3854,0.56256 -0.3888,0.56013 -0.3924,0.55768 -0.3959,0.55519 -0.3994,0.5527 -0.4028,0.55019 -0.4063,0.54763 -0.4097,0.54508 -0.4131,0.54249 -0.4165,0.53988 -0.4199,0.53726 -0.4233,0.5346 -0.4266,0.53194 -0.43,0.52925 -0.4333,0.52653 -0.4365,0.5238 -0.4399,0.52105 -0.4431,0.51827 -0.4464,0.51548 -0.4496,0.51267 -0.4528,0.50983 -0.456,0.50697 z"
       transform="matrix(0.89886762,0,0,0.89886762,-586.07959,-64.242378)" />
  </g>
  <g
     style="display:inline"
     inkscape:groupmode="layer"
     inkscape:label="n_container"
     id="g3798">
    <path
       transform="matrix(0.89014425,0,0,0.89014425,-730.48388,-62.089801)"
       d="m 1180,256.66666 -0.4623,0.5012 -0.4655,0.49829 -0.4686,0.49536 -0.4717,0.4924 -0.4748,0.48942 -0.4779,0.48644 -0.4809,0.48342 -0.4839,0.48039 -0.487,0.47734 -0.4899,0.47427 -0.4929,0.47119 -0.4959,0.46808 -0.4987,0.46495 -0.5017,0.46181 -0.5046,0.45865 -0.5075,0.45547 -0.5103,0.45227 -0.5131,0.44906 -0.516,0.44582 -0.5187,0.44257 -0.5215,0.43931 -0.5243,0.43602 -0.527,0.43271 -0.5297,0.4294 -0.5324,0.42606 -0.5351,0.42271 -0.5377,0.41933 -0.5403,0.41595 -0.5429,0.41255 -0.5455,0.40913 -0.5481,0.40569 -0.5506,0.40224 -0.5531,0.39877 -0.5556,0.39529 -0.5581,0.39179 -0.5606,0.38828 -0.5629,0.38475 -0.5654,0.3812 -0.5678,0.37764 -0.5701,0.37407 -0.5725,0.37048 -0.5747,0.36687 -0.5771,0.36325 -0.5794,0.35963 -0.5816,0.35597 -0.5838,0.35231 -0.586,0.34864 -0.5882,0.34495 -0.5903,0.34125 -0.5925,0.33753 -0.5946,0.3338 -0.5967,0.33006 -0.5987,0.3263 -0.6008,0.32254 -0.6028,0.31875 -0.6048,0.31496 -0.6068,0.31116 -0.6087,0.30733 -0.6106,0.30351 -0.6125,0.29966 -0.6144,0.29581 -0.6162,0.29194 -0.618,0.28806 -0.6199,0.28418 -0.6216,0.28027 -0.6234,0.27637 -0.6251,0.27244 -0.6268,0.26851 -0.6284,0.26456 -0.6302,0.26061 -0.6317,0.25665 -0.6333,0.25267 -0.635,0.24869 -0.6364,0.24469 -0.638,0.24069 -0.6395,0.23668 -0.641,0.23265 -0.6424,0.22863 -0.6438,0.22458 -0.6453,0.22053 -0.6466,0.21647 -0.6479,0.21241 -0.6493,0.20833 -0.6506,0.20424 -0.6518,0.20016 -0.6531,0.19606 -0.6543,0.19194 -0.6555,0.18784 -0.6567,0.18371 -0.6578,0.17958 -0.659,0.17544 -0.66,0.17131 -0.6611,0.16715 -0.6621,0.16299 -0.6631,0.15883 -0.6641,0.15466 -0.6651,0.15049 -0.666,0.1463 -0.6669,0.14212 -0.6678,0.13792 -0.6686,0.13372 -0.6695,0.12952 -0.6703,0.12531 -0.671,0.1211 -0.6718,0.11688 -0.6725,0.11266 -0.6732,0.10842 -0.6739,0.1042 -0.6745,0.1 -0.6752,0.0957 -0.6757,0.0915 -0.6763,0.0872 -0.6768,0.083 -0.6773,0.0787 -0.6778,0.0745 -0.6783,0.0702 -0.6787,0.0659 -0.6791,0.0617 -0.6794,0.0574 -0.6798,0.0531 -0.6802,0.0489 -0.6804,0.0446 -0.6807,0.0403 -0.6809,0.036 -0.6812,0.0317 -0.6813,0.0275 -0.6815,0.0232 -0.6816,0.0189 -0.6817,0.0146 -0.6818,0.0103 -0.6819,0.006 -0.6819,0.002 -0.6819,-0.002 -0.6818,-0.007 -0.6818,-0.0111 -0.6817,-0.0154 -0.6816,-0.0196 -0.6815,-0.0239 -0.6813,-0.0282 -0.6811,-0.0325 -0.6809,-0.0368 -0.6806,-0.041 -0.6804,-0.0453 -0.6801,-0.0496 -0.6797,-0.0539 -0.6794,-0.0581 -0.6791,-0.0624 -0.6786,-0.0667 -0.6782,-0.0709 -0.6777,-0.0752 -0.6772,-0.0794 -0.6768,-0.0837 -0.6762,-0.0879 -0.6756,-0.0922 -0.675,-0.0964 -0.6744,-0.10068 -0.6738,-0.10491 -0.6731,-0.10914 -0.6724,-0.11337 -0.6716,-0.1176 -0.671,-0.12181 -0.6701,-0.12602 -0.6693,-0.13023 -0.6685,-0.13444 -0.6677,-0.13863 -0.6667,-0.14282 -0.6659,-0.14701 -0.6649,-0.1512 -0.6639,-0.15536 -0.663,-0.15954 -0.6619,-0.1637 -0.6609,-0.16785 -0.6599,-0.172 -0.6587,-0.17615 -0.6576,-0.18028 -0.6565,-0.18441 -0.6553,-0.18853 -0.6541,-0.19264 -0.6529,-0.19675 -0.6516,-0.20085 -0.6504,-0.20493 -0.6491,-0.20903 -0.6477,-0.21309 -0.6464,-0.21716 -0.645,-0.22122 -0.6436,-0.22526 -0.6421,-0.22931 -0.6408,-0.23333 -0.6392,-0.23736 -0.6377,-0.24137 -0.6363,-0.24537 -0.6346,-0.24936 -0.6331,-0.25334 -0.6314,-0.25732 -0.6299,-0.26128 -0.6282,-0.26524 -0.6265,-0.26917 -0.6248,-0.27311 -0.6231,-0.27702 -0.6213,-0.28094 -0.6195,-0.28483 -0.6178,-0.28872 -0.6159,-0.2926 -0.6141,-0.29646 -0.6121,-0.30031 -0.6103,-0.30416 -0.6084,-0.30798 -0.6064,-0.3118 -0.6045,-0.3156 -0.6024,-0.31939 -0.6005,-0.32318 -0.5984,-0.32694 -0.5963,-0.33069 -0.5942,-0.33443 -0.5922,-0.33816 -0.59,-0.34188 -0.5878,-0.34557 -0.5856,-0.34926 -0.5835,-0.35294 -0.5812,-0.35659 -0.579,-0.36024 -0.5766,-0.36386 -0.5744,-0.36749 -0.5721,-0.37108 -0.5697,-0.37468 -0.5674,-0.37824 -0.565,-0.3818 -0.5625,-0.38535 -0.5601,-0.38887 -0.5577,-0.39239 -0.5552,-0.39587 -0.5527,-0.39937 -0.5502,-0.40282 -0.5476,-0.40627 -0.5451,-0.40971 -0.5425,-0.41313 -0.5399,-0.41652 -0.5372,-0.41991 -0.5346,-0.42327 -0.532,-0.42663 -0.5292,-0.42996 -0.5266,-0.43327 -0.5238,-0.43658 -0.521,-0.43986 -0.5183,-0.44312 -0.5155,-0.44638 -0.5126,-0.4496 -0.5099,-0.45281 -0.5069,-0.45601 -0.5041,-0.45918 -0.5012,-0.46235 -0.4983,-0.46548 -0.4954,-0.46861 -0.4924,-0.4717 -0.4894,-0.4748 -0.4864,-0.47785 -0.4835,-0.48091 -0.4804,-0.48393 -0.4773,-0.48694 -0.4743,-0.48993 -0.4711,-0.49291 -0.4681,-0.49585 -0.465,-0.49878 -0.4618,-0.5017 -0.4586,-0.50458 -0.4555,-0.50746 -0.4523,-0.51031 -0.449,-0.51314 -0.4459,-0.51596 -0.4425,-0.51874 -0.4393,-0.52152 -0.4361,-0.52426 -0.4327,-0.527 -0.4294,-0.5297 -0.426,-0.53239 -0.4227,-0.53505 -0.4194,-0.53771 -0.4159,-0.54032 -0.4126,-0.54293 -0.4091,-0.54551 -0.4057,-0.54807 -0.4022,-0.55061 -0.3988,-0.55312 -0.3953,-0.55562 -0.3918,-0.55809 -0.3883,-0.56055 -0.3847,-0.56297 -0.3812,-0.56538 -0.3777,-0.56776 -0.374,-0.57012 -0.3705,-0.57246 -0.3669,-0.57478 -0.3632,-0.57707 -0.3596,-0.57935 -0.356,-0.58159 -0.3523,-0.58381 -0.3487,-0.58602 -0.3449,-0.5882 -0.3413,-0.59035 -0.3375,-0.59249 -0.3338,-0.59459 -0.3301,-0.59668 -0.3263,-0.59875 -0.3225,-0.60078 -0.3188,-0.60279 -0.3149,-0.60479 -0.3112,-0.60675 -0.3073,-0.6087 -0.3035,-0.61061 -0.2997,-0.61252 -0.2958,-0.61438 -0.2919,-0.61622 -0.2881,-0.61805 -0.2842,-0.61985 -0.2802,-0.62162 -0.2764,-0.62337 -0.2724,-0.6251 -0.2685,-0.62679 -0.26461,-0.62847 -0.26061,-0.63011 -0.25665,-0.63175 -0.25267,-0.63334 -0.24869,-0.63492 -0.24469,-0.63647 -0.2407,-0.63799 -0.23667,-0.63949 -0.23266,-0.64097 -0.22862,-0.64241 -0.22458,-0.64384 -0.22053,-0.64524 -0.21647,-0.64661 -0.21241,-0.64796 -0.20833,-0.64928 -0.20425,-0.65058 -0.20015,-0.65184 -0.19606,-0.6531 -0.19195,-0.65431 -0.18783,-0.6555 -0.18371,-0.65667 -0.17958,-0.65781 -0.17545,-0.65893 -0.1713,-0.66002 -0.16715,-0.66108 -0.16299,-0.66212 -0.15883,-0.66312 -0.15466,-0.66412 -0.15049,-0.66507 -0.1463,-0.666 -0.14212,-0.66691 -0.13792,-0.66779 -0.13372,-0.66865 -0.12952,-0.66947 -0.12532,-0.67027 -0.12109,-0.67105 -0.11688,-0.67179 -0.11266,-0.67251 -0.10842,-0.67321 -0.1042,-0.67388 -0.1,-0.67452 -0.0957,-0.67513 -0.0915,-0.67572 -0.0872,-0.67628 -0.083,-0.67682 -0.0787,-0.67732 -0.0745,-0.67781 -0.0702,-0.67826 -0.0659,-0.67869 -0.0617,-0.67909 -0.0574,-0.67946 -0.0531,-0.67981 -0.0489,-0.68013 -0.0446,-0.68043 -0.0403,-0.68069 -0.036,-0.68093 -0.0318,-0.68115 -0.0275,-0.68133 -0.0232,-0.68149 -0.0189,-0.68162 -0.0146,-0.68173 -0.0104,-0.6818 -0.006,-0.68186 -0.002,-0.68188 0.002,-0.68188 0.007,-0.68185 0.0111,-0.6818 0.0154,-0.68171 0.0196,-0.6816 0.0239,-0.68147 0.0282,-0.6813 0.0325,-0.68111 0.0368,-0.68089 0.041,-0.68065 0.0453,-0.68038 0.0496,-0.68007 0.0539,-0.67976 0.0581,-0.6794 0.0624,-0.67902 0.0667,-0.67862 0.0709,-0.67819 0.0752,-0.67772 0.0794,-0.67725 0.0837,-0.67672 0.0879,-0.67619 0.0922,-0.67563 0.0964,-0.67503 0.10068,-0.67441 0.10491,-0.67376 0.10914,-0.6731 0.11337,-0.67239 0.11759,-0.67167 0.12182,-0.67092 0.12602,-0.67013 0.13023,-0.66934 0.13444,-0.6685 0.13863,-0.66764 0.14282,-0.66676 0.14701,-0.66585 0.15119,-0.66491 0.15537,-0.66395 0.15954,-0.66296 0.16369,-0.66194 0.16786,-0.6609 0.172,-0.65984 0.17614,-0.65874 0.18029,-0.65762 0.1844,-0.65647 0.18853,-0.65531 0.19265,-0.6541 0.19675,-0.65289 0.20084,-0.65163 0.20494,-0.65036 0.20902,-0.64906 0.2131,-0.64773 0.21716,-0.64638 0.22121,-0.64501 0.22527,-0.6436 0.2293,-0.64217 0.23334,-0.64072 0.23736,-0.63924 0.24136,-0.63774 0.24537,-0.6362 0.24937,-0.63466 0.25334,-0.63307 0.25732,-0.63147 0.26128,-0.62984 0.26524,-0.62819 0.2692,-0.6265 0.2731,-0.62481 0.277,-0.62307 0.2809,-0.62133 0.2849,-0.61954 0.2887,-0.61774 0.2926,-0.61592 0.2964,-0.61407 0.3004,-0.61219 0.3041,-0.61029 0.308,-0.60837 0.3118,-0.60642 0.3156,-0.60445 0.3194,-0.60246 0.3232,-0.60044 0.3269,-0.59839 0.3307,-0.59633 0.3344,-0.59424 0.3382,-0.59213 0.3419,-0.58999 0.3455,-0.58783 0.3493,-0.58565 0.3529,-0.58344 0.3566,-0.58121 0.3603,-0.57896 0.3638,-0.57669 0.3675,-0.57439 0.3711,-0.57207 0.3747,-0.56972 0.3782,-0.56736 0.3818,-0.56497 0.3854,-0.56256 0.3888,-0.56013 0.3924,-0.55768 0.3959,-0.5552 0.3994,-0.5527 0.4028,-0.55018 0.4063,-0.54764 0.4097,-0.54507 0.4131,-0.54249 0.4165,-0.53989 0.4199,-0.53725 0.4233,-0.53461 0.4266,-0.53193 0.43,-0.52925 0.4333,-0.52653 0.4365,-0.52381 0.4399,-0.52104 0.4431,-0.51828 0.4464,-0.51548 0.4496,-0.51266 0.4528,-0.50983 0.456,-0.50697 L 1020,110 l 0.4623,-0.50121 0.4655,-0.49829 0.4686,-0.49535 0.4717,-0.4924 0.4748,-0.48943 0.4779,-0.48643 0.4809,-0.48342 0.4839,-0.48039 0.487,-0.47735 0.4899,-0.47427 0.4929,-0.47118 0.4959,-0.46808 0.4987,-0.46495 0.5017,-0.46181 0.5046,-0.45865 0.5075,-0.45547 0.5103,-0.45227 0.5131,-0.44906 0.516,-0.44582 0.5187,-0.44258 0.5215,-0.4393 0.5243,-0.43602 0.527,-0.432717 0.5297,-0.429397 0.5324,-0.42606 0.5351,-0.422707 0.5377,-0.419337 0.5403,-0.41595 0.5429,-0.412547 0.5455,-0.409127 0.5481,-0.405692 0.5506,-0.40224 0.5531,-0.398773 0.5556,-0.39529 0.5581,-0.39179 0.5606,-0.388277 0.5629,-0.384746 0.5654,-0.381202 0.5678,-0.377642 0.5701,-0.374068 0.5725,-0.370477 0.5747,-0.366874 0.5771,-0.363255 0.5794,-0.359621 0.5816,-0.355975 0.5838,-0.352314 0.586,-0.348638 0.5882,-0.344949 0.5903,-0.341247 0.5925,-0.337531 0.5946,-0.333801 0.5967,-0.330059 0.5987,-0.326303 0.6008,-0.322535 0.6028,-0.318754 0.6048,-0.31496 0.6068,-0.311154 0.6087,-0.307336 0.6106,-0.303504 0.6125,-0.299663 0.6144,-0.295808 0.6162,-0.291941 0.618,-0.288064 0.6199,-0.284176 0.6216,-0.280275 0.6234,-0.276363 0.6251,-0.272442 0.6268,-0.268508 0.6284,-0.264565 0.6302,-0.260612 0.6317,-0.256646 0.6333,-0.252673 0.635,-0.248688 0.6364,-0.244694 0.638,-0.24069 0.6395,-0.236676 0.641,-0.232654 0.6424,-0.228622 0.6438,-0.224582 0.6453,-0.220531 0.6466,-0.216473 0.6479,-0.212406 0.6493,-0.20833 0.6506,-0.204247 0.6518,-0.200155 0.6531,-0.196056 0.6543,-0.191948 0.6555,-0.187834 0.6567,-0.183711 0.6578,-0.179581 0.659,-0.175445 0.66,-0.171301 0.6611,-0.167151 0.6621,-0.162993 0.6631,-0.158831 0.6641,-0.154661 0.6651,-0.150485 0.666,-0.146303 0.6669,-0.142116 0.6678,-0.137922 0.6686,-0.133724 0.6695,-0.129521 0.6703,-0.125311 0.671,-0.121098 0.6718,-0.116878 0.6725,-0.112656 0.6732,-0.108428 0.6739,-0.104195 0.6745,-0.09996 0.6752,-0.09572 0.6757,-0.09148 0.6763,-0.08723 0.6768,-0.08298 0.6773,-0.07872 0.6778,-0.07447 0.6783,-0.07021 0.6787,-0.06594 0.6791,-0.06168 0.6794,-0.05741 0.6798,-0.05314 0.6802,-0.04887 0.6804,-0.04459 0.6807,-0.04032 0.6809,-0.03604 0.6812,-0.03176 0.6813,-0.02748 0.6815,-0.0232 0.6816,-0.01892 0.6817,-0.01463 0.6818,-0.01035 0.6819,-0.0061 0.6819,-0.0018 0.6819,0.0025 0.6818,0.0068 0.6818,0.01107 0.6817,0.01536 0.6816,0.01964 0.6815,0.02392 0.6813,0.0282 0.6811,0.03248 0.6809,0.03676 0.6806,0.04104 0.6804,0.04532 0.6801,0.04959 0.6797,0.05386 0.6794,0.05813 0.6791,0.0624 0.6786,0.06666 0.6782,0.07093 0.6777,0.07519 0.6772,0.07944 0.6768,0.0837 0.6762,0.08795 0.6756,0.09219 0.675,0.09644 0.6744,0.100677 0.6738,0.104912 0.6731,0.109143 0.6724,0.11337 0.6716,0.117593 0.671,0.121811 0.6701,0.126023 0.6693,0.130232 0.6685,0.134435 0.6677,0.138632 0.6667,0.142824 0.6659,0.147011 0.6649,0.151192 0.6639,0.155367 0.663,0.159535 0.6619,0.163697 0.6609,0.167853 0.6599,0.172003 0.6587,0.176145 0.6576,0.18028 0.6565,0.184409 0.6553,0.18853 0.6541,0.192644 0.6529,0.196749 0.6516,0.200848 0.6504,0.204938 0.6491,0.209021 0.6477,0.213094 0.6464,0.21716 0.645,0.221217 0.6436,0.225265 0.6421,0.229305 0.6408,0.233335 0.6392,0.237356 0.6377,0.241368 0.6363,0.245371 0.6346,0.249362 0.6331,0.253346 0.6314,0.257318 0.6299,0.26128 0.6282,0.265233 0.6265,0.269175 0.6248,0.273106 0.6231,0.277026 0.6213,0.280935 0.6195,0.284834 0.6178,0.288721 0.6159,0.292596 0.6141,0.296461 0.6121,0.300313 0.6103,0.304154 0.6084,0.307982 0.6064,0.311798 0.6045,0.315603 0.6024,0.319394 0.6005,0.323174 0.5984,0.326939 0.5963,0.330693 0.5942,0.334433 0.5922,0.338161 0.59,0.341874 0.5878,0.345574 0.5856,0.349261 0.5835,0.352933 0.5812,0.356593 0.579,0.360237 0.5766,0.363868 0.5744,0.367485 0.5721,0.371085 0.5697,0.374673 0.5674,0.378246 0.565,0.381802 0.5625,0.385345 0.5601,0.388872 0.5577,0.392384 0.5552,0.395879 0.5527,0.399361 0.5502,0.402825 0.5476,0.406274 0.5451,0.409707 0.5425,0.413124 0.5399,0.416524 0.5372,0.419908 0.5346,0.423275 0.532,0.426626 0.5292,0.42996 0.5266,0.433276 0.5238,0.436579 0.521,0.43986 0.5183,0.44312 0.5155,0.44637 0.5126,0.4496 0.5099,0.45282 0.5069,0.45601 0.5041,0.45918 0.5012,0.46234 0.4983,0.46549 0.4954,0.4686 0.4924,0.47171 0.4894,0.47479 0.4864,0.47786 0.4835,0.4809 0.4804,0.48394 0.4773,0.48694 0.4743,0.48993 0.4711,0.4929 0.4681,0.49585 0.465,0.49879 0.4618,0.50169 0.4586,0.50459 0.4555,0.50746 0.4523,0.51031 0.449,0.51314 0.4459,0.51595 0.4425,0.51875 0.4393,0.52151 0.4361,0.52427 0.4327,0.52699 0.4294,0.5297 0.426,0.53239 0.4227,0.53506 0.4194,0.5377 0.4159,0.54033 0.4126,0.54293 0.4091,0.54551 0.4057,0.54807 0.4022,0.5506 0.3988,0.55313 0.3953,0.55562 0.3918,0.55809 0.3883,0.56054 0.3847,0.56297 0.3812,0.56538 0.3777,0.56776 0.374,0.57013 0.3705,0.57246 0.3669,0.57478 0.3632,0.57707 0.3596,0.57934 0.356,0.58159 0.3523,0.58382 0.3487,0.58602 0.3449,0.5882 0.3413,0.59035 0.3375,0.59249 0.3338,0.59459 0.3301,0.59668 0.3263,0.59874 0.3225,0.60078 0.3188,0.6028 0.3149,0.60479 0.3112,0.60675 0.3073,0.6087 0.3035,0.61061 0.2997,0.61251 0.2958,0.61438 0.2919,0.61623 0.2881,0.61805 0.2842,0.61985 0.2802,0.62162 0.2764,0.62337 0.2724,0.62509 0.2685,0.62679 0.2646,0.62847 0.2606,0.63012 0.2567,0.63174 0.2526,0.63335 0.2487,0.63491 0.2447,0.63647 0.2407,0.63799 0.2367,0.6395 0.2326,0.64096 0.2287,0.64242 0.2245,0.64384 0.2206,0.64524 0.2165,0.64661 0.2124,0.64796 0.2083,0.64928 0.2042,0.65057 0.2002,0.65185 0.196,0.65309 0.192,0.65431 0.1878,0.65551 0.1837,0.65667 0.1796,0.65781 0.1755,0.65893 0.1713,0.66001 0.1671,0.66109 0.163,0.66211 0.1588,0.66313 0.1547,0.66411 0.1505,0.66508 0.1463,0.666 0.1421,0.66691 0.1379,0.66779 0.1338,0.66865 0.1295,0.66947 0.1253,0.67027 0.1211,0.67104 0.1169,0.6718 0.1126,0.67251 0.1084,0.67321 0.1042,0.67387 0.1,0.67452 0.096,0.67514 0.091,0.67572 0.087,0.67628 0.083,0.67682 0.079,0.67732 0.074,0.67781 0.07,0.67826 0.066,0.67869 0.062,0.67909 0.057,0.67946 0.053,0.67981 0.049,0.68013 0.045,0.68043 0.04,0.68069 0.036,0.68093 0.032,0.68114 0.027,0.68133 0.023,0.68149 0.019,0.68163 0.015,0.68172 0.01,0.68181 0.01,0.68186 0,0.68188 -0,0.68188 -0.01,0.68185 -0.011,0.68179 -0.015,0.68172 -0.02,0.6816 -0.024,0.68146 -0.028,0.6813 -0.032,0.68111 -0.037,0.6809 -0.041,0.68064 -0.045,0.68038 -0.05,0.68008 -0.054,0.67975 -0.058,0.67941 -0.062,0.67902 -0.067,0.67862 -0.071,0.67818 -0.075,0.67773 -0.079,0.67724 -0.084,0.67673 -0.088,0.67619 -0.092,0.67562 -0.096,0.67503 -0.1007,0.67441 -0.1049,0.67377 -0.1091,0.67309 -0.1134,0.6724 -0.1176,0.67167 -0.1218,0.67091 -0.126,0.67014 -0.1303,0.66933 -0.1344,0.6685 -0.1386,0.66765 -0.1429,0.66676 -0.147,0.66584 -0.1512,0.66492 -0.1553,0.66394 -0.1596,0.66296 -0.1637,0.66195 -0.1678,0.6609 -0.172,0.65983 -0.1762,0.65874 -0.1802,0.65763 -0.1845,0.65647 -0.1885,0.6553 -0.1926,0.65411 -0.1968,0.65288 -0.2008,0.65164 -0.205,0.65036 -0.209,0.64906 -0.2131,0.64773 -0.2171,0.64638 -0.2213,0.645 -0.2252,0.6436 -0.2293,0.64218 -0.2334,0.64071 -0.2373,0.63925 -0.2414,0.63773 -0.2454,0.63621 -0.2493,0.63465 -0.2534,0.63308 -0.2573,0.63147 -0.2613,0.62984 -0.2652,0.62818 -0.2692,0.62651 -0.2731,0.6248 -0.277,0.62308 -0.2809,0.62132 -0.2849,0.61955 -0.2887,0.61774 -0.2926,0.61592 -0.2964,0.61406 -0.3004,0.6122 -0.3041,0.61029 -0.308,0.60837 -0.3118,0.60642 -0.3156,0.60445 -0.3194,0.60246 -0.3232,0.60044 -0.3269,0.59839 -0.3307,0.59633 -0.3344,0.59424 -0.3382,0.59213 -0.3419,0.58999 -0.3455,0.58783 -0.3493,0.58565 -0.3529,0.58344 -0.3566,0.58121 -0.3603,0.57896 -0.3638,0.57669 -0.3675,0.57438 -0.3711,0.57207 -0.3747,0.56973 -0.3782,0.56736 -0.3818,0.56497 -0.3854,0.56256 -0.3888,0.56013 -0.3924,0.55768 -0.3959,0.55519 -0.3994,0.5527 -0.4028,0.55019 -0.4063,0.54763 -0.4097,0.54508 -0.4131,0.54249 -0.4165,0.53988 -0.4199,0.53726 -0.4233,0.5346 -0.4266,0.53194 -0.43,0.52925 -0.4333,0.52653 -0.4365,0.5238 -0.4399,0.52105 -0.4431,0.51827 -0.4464,0.51548 -0.4496,0.51267 -0.4528,0.50983 -0.456,0.50697 z"
       inkscape:randomized="0"
       inkscape:rounded="0"
       inkscape:flatsided="true"
       sodipodi:arg2="0.74508886"
       sodipodi:arg1="0.74194727"
       sodipodi:r2="108.52494"
       sodipodi:r1="108.52547"
       sodipodi:cy="183.33333"
       sodipodi:cx="1100"
       sodipodi:sides="1000"
       id="path3800"
       style="fill:none;stroke:#29ace2;stroke-width:10.11072063;stroke-linecap:round;stroke-linejoin:round;stroke-miterlimit:0;stroke-opacity:1;stroke-dasharray:none;stroke-dashoffset:0"
       sodipodi:type="star" />
  </g>
  <g
     id="g3802"
     inkscape:label="e_container"
     inkscape:groupmode="layer"
     style="display:inline">
    <path
       sodipodi:type="star"
       style="fill:none;stroke:#29ace2;stroke-width:13.61179161;stroke-linecap:round;stroke-linejoin:round;stroke-miterlimit:0;stroke-opacity:1;stroke-dasharray:none;stroke-dashoffset:0"
       id="path3804"
       sodipodi:sides="1000"
       sodipodi:cx="1100"
       sodipodi:cy="183.33333"
       sodipodi:r1="108.52547"
       sodipodi:r2="108.52494"
       sodipodi:arg1="0.74194727"
       sodipodi:arg2="0.74508886"
       inkscape:flatsided="true"
       inkscape:rounded="0"
       inkscape:randomized="0"
       d="m 1180,256.66666 -0.4623,0.5012 -0.4655,0.49829 -0.4686,0.49536 -0.4717,0.4924 -0.4748,0.48942 -0.4779,0.48644 -0.4809,0.48342 -0.4839,0.48039 -0.487,0.47734 -0.4899,0.47427 -0.4929,0.47119 -0.4959,0.46808 -0.4987,0.46495 -0.5017,0.46181 -0.5046,0.45865 -0.5075,0.45547 -0.5103,0.45227 -0.5131,0.44906 -0.516,0.44582 -0.5187,0.44257 -0.5215,0.43931 -0.5243,0.43602 -0.527,0.43271 -0.5297,0.4294 -0.5324,0.42606 -0.5351,0.42271 -0.5377,0.41933 -0.5403,0.41595 -0.5429,0.41255 -0.5455,0.40913 -0.5481,0.40569 -0.5506,0.40224 -0.5531,0.39877 -0.5556,0.39529 -0.5581,0.39179 -0.5606,0.38828 -0.5629,0.38475 -0.5654,0.3812 -0.5678,0.37764 -0.5701,0.37407 -0.5725,0.37048 -0.5747,0.36687 -0.5771,0.36325 -0.5794,0.35963 -0.5816,0.35597 -0.5838,0.35231 -0.586,0.34864 -0.5882,0.34495 -0.5903,0.34125 -0.5925,0.33753 -0.5946,0.3338 -0.5967,0.33006 -0.5987,0.3263 -0.6008,0.32254 -0.6028,0.31875 -0.6048,0.31496 -0.6068,0.31116 -0.6087,0.30733 -0.6106,0.30351 -0.6125,0.29966 -0.6144,0.29581 -0.6162,0.29194 -0.618,0.28806 -0.6199,0.28418 -0.6216,0.28027 -0.6234,0.27637 -0.6251,0.27244 -0.6268,0.26851 -0.6284,0.26456 -0.6302,0.26061 -0.6317,0.25665 -0.6333,0.25267 -0.635,0.24869 -0.6364,0.24469 -0.638,0.24069 -0.6395,0.23668 -0.641,0.23265 -0.6424,0.22863 -0.6438,0.22458 -0.6453,0.22053 -0.6466,0.21647 -0.6479,0.21241 -0.6493,0.20833 -0.6506,0.20424 -0.6518,0.20016 -0.6531,0.19606 -0.6543,0.19194 -0.6555,0.18784 -0.6567,0.18371 -0.6578,0.17958 -0.659,0.17544 -0.66,0.17131 -0.6611,0.16715 -0.6621,0.16299 -0.6631,0.15883 -0.6641,0.15466 -0.6651,0.15049 -0.666,0.1463 -0.6669,0.14212 -0.6678,0.13792 -0.6686,0.13372 -0.6695,0.12952 -0.6703,0.12531 -0.671,0.1211 -0.6718,0.11688 -0.6725,0.11266 -0.6732,0.10842 -0.6739,0.1042 -0.6745,0.1 -0.6752,0.0957 -0.6757,0.0915 -0.6763,0.0872 -0.6768,0.083 -0.6773,0.0787 -0.6778,0.0745 -0.6783,0.0702 -0.6787,0.0659 -0.6791,0.0617 -0.6794,0.0574 -0.6798,0.0531 -0.6802,0.0489 -0.6804,0.0446 -0.6807,0.0403 -0.6809,0.036 -0.6812,0.0317 -0.6813,0.0275 -0.6815,0.0232 -0.6816,0.0189 -0.6817,0.0146 -0.6818,0.0103 -0.6819,0.006 -0.6819,0.002 -0.6819,-0.002 -0.6818,-0.007 -0.6818,-0.0111 -0.6817,-0.0154 -0.6816,-0.0196 -0.6815,-0.0239 -0.6813,-0.0282 -0.6811,-0.0325 -0.6809,-0.0368 -0.6806,-0.041 -0.6804,-0.0453 -0.6801,-0.0496 -0.6797,-0.0539 -0.6794,-0.0581 -0.6791,-0.0624 -0.6786,-0.0667 -0.6782,-0.0709 -0.6777,-0.0752 -0.6772,-0.0794 -0.6768,-0.0837 -0.6762,-0.0879 -0.6756,-0.0922 -0.675,-0.0964 -0.6744,-0.10068 -0.6738,-0.10491 -0.6731,-0.10914 -0.6724,-0.11337 -0.6716,-0.1176 -0.671,-0.12181 -0.6701,-0.12602 -0.6693,-0.13023 -0.6685,-0.13444 -0.6677,-0.13863 -0.6667,-0.14282 -0.6659,-0.14701 -0.6649,-0.1512 -0.6639,-0.15536 -0.663,-0.15954 -0.6619,-0.1637 -0.6609,-0.16785 -0.6599,-0.172 -0.6587,-0.17615 -0.6576,-0.18028 -0.6565,-0.18441 -0.6553,-0.18853 -0.6541,-0.19264 -0.6529,-0.19675 -0.6516,-0.20085 -0.6504,-0.20493 -0.6491,-0.20903 -0.6477,-0.21309 -0.6464,-0.21716 -0.645,-0.22122 -0.6436,-0.22526 -0.6421,-0.22931 -0.6408,-0.23333 -0.6392,-0.23736 -0.6377,-0.24137 -0.6363,-0.24537 -0.6346,-0.24936 -0.6331,-0.25334 -0.6314,-0.25732 -0.6299,-0.26128 -0.6282,-0.26524 -0.6265,-0.26917 -0.6248,-0.27311 -0.6231,-0.27702 -0.6213,-0.28094 -0.6195,-0.28483 -0.6178,-0.28872 -0.6159,-0.2926 -0.6141,-0.29646 -0.6121,-0.30031 -0.6103,-0.30416 -0.6084,-0.30798 -0.6064,-0.3118 -0.6045,-0.3156 -0.6024,-0.31939 -0.6005,-0.32318 -0.5984,-0.32694 -0.5963,-0.33069 -0.5942,-0.33443 -0.5922,-0.33816 -0.59,-0.34188 -0.5878,-0.34557 -0.5856,-0.34926 -0.5835,-0.35294 -0.5812,-0.35659 -0.579,-0.36024 -0.5766,-0.36386 -0.5744,-0.36749 -0.5721,-0.37108 -0.5697,-0.37468 -0.5674,-0.37824 -0.565,-0.3818 -0.5625,-0.38535 -0.5601,-0.38887 -0.5577,-0.39239 -0.5552,-0.39587 -0.5527,-0.39937 -0.5502,-0.40282 -0.5476,-0.40627 -0.5451,-0.40971 -0.5425,-0.41313 -0.5399,-0.41652 -0.5372,-0.41991 -0.5346,-0.42327 -0.532,-0.42663 -0.5292,-0.42996 -0.5266,-0.43327 -0.5238,-0.43658 -0.521,-0.43986 -0.5183,-0.44312 -0.5155,-0.44638 -0.5126,-0.4496 -0.5099,-0.45281 -0.5069,-0.45601 -0.5041,-0.45918 -0.5012,-0.46235 -0.4983,-0.46548 -0.4954,-0.46861 -0.4924,-0.4717 -0.4894,-0.4748 -0.4864,-0.47785 -0.4835,-0.48091 -0.4804,-0.48393 -0.4773,-0.48694 -0.4743,-0.48993 -0.4711,-0.49291 -0.4681,-0.49585 -0.465,-0.49878 -0.4618,-0.5017 -0.4586,-0.50458 -0.4555,-0.50746 -0.4523,-0.51031 -0.449,-0.51314 -0.4459,-0.51596 -0.4425,-0.51874 -0.4393,-0.52152 -0.4361,-0.52426 -0.4327,-0.527 -0.4294,-0.5297 -0.426,-0.53239 -0.4227,-0.53505 -0.4194,-0.53771 -0.4159,-0.54032 -0.4126,-0.54293 -0.4091,-0.54551 -0.4057,-0.54807 -0.4022,-0.55061 -0.3988,-0.55312 -0.3953,-0.55562 -0.3918,-0.55809 -0.3883,-0.56055 -0.3847,-0.56297 -0.3812,-0.56538 -0.3777,-0.56776 -0.374,-0.57012 -0.3705,-0.57246 -0.3669,-0.57478 -0.3632,-0.57707 -0.3596,-0.57935 -0.356,-0.58159 -0.3523,-0.58381 -0.3487,-0.58602 -0.3449,-0.5882 -0.3413,-0.59035 -0.3375,-0.59249 -0.3338,-0.59459 -0.3301,-0.59668 -0.3263,-0.59875 -0.3225,-0.60078 -0.3188,-0.60279 -0.3149,-0.60479 -0.3112,-0.60675 -0.3073,-0.6087 -0.3035,-0.61061 -0.2997,-0.61252 -0.2958,-0.61438 -0.2919,-0.61622 -0.2881,-0.61805 -0.2842,-0.61985 -0.2802,-0.62162 -0.2764,-0.62337 -0.2724,-0.6251 -0.2685,-0.62679 -0.26461,-0.62847 -0.26061,-0.63011 -0.25665,-0.63175 -0.25267,-0.63334 -0.24869,-0.63492 -0.24469,-0.63647 -0.2407,-0.63799 -0.23667,-0.63949 -0.23266,-0.64097 -0.22862,-0.64241 -0.22458,-0.64384 -0.22053,-0.64524 -0.21647,-0.64661 -0.21241,-0.64796 -0.20833,-0.64928 -0.20425,-0.65058 -0.20015,-0.65184 -0.19606,-0.6531 -0.19195,-0.65431 -0.18783,-0.6555 -0.18371,-0.65667 -0.17958,-0.65781 -0.17545,-0.65893 -0.1713,-0.66002 -0.16715,-0.66108 -0.16299,-0.66212 -0.15883,-0.66312 -0.15466,-0.66412 -0.15049,-0.66507 -0.1463,-0.666 -0.14212,-0.66691 -0.13792,-0.66779 -0.13372,-0.66865 -0.12952,-0.66947 -0.12532,-0.67027 -0.12109,-0.67105 -0.11688,-0.67179 -0.11266,-0.67251 -0.10842,-0.67321 -0.1042,-0.67388 -0.1,-0.67452 -0.0957,-0.67513 -0.0915,-0.67572 -0.0872,-0.67628 -0.083,-0.67682 -0.0787,-0.67732 -0.0745,-0.67781 -0.0702,-0.67826 -0.0659,-0.67869 -0.0617,-0.67909 -0.0574,-0.67946 -0.0531,-0.67981 -0.0489,-0.68013 -0.0446,-0.68043 -0.0403,-0.68069 -0.036,-0.68093 -0.0318,-0.68115 -0.0275,-0.68133 -0.0232,-0.68149 -0.0189,-0.68162 -0.0146,-0.68173 -0.0104,-0.6818 -0.006,-0.68186 -0.002,-0.68188 0.002,-0.68188 0.007,-0.68185 0.0111,-0.6818 0.0154,-0.68171 0.0196,-0.6816 0.0239,-0.68147 0.0282,-0.6813 0.0325,-0.68111 0.0368,-0.68089 0.041,-0.68065 0.0453,-0.68038 0.0496,-0.68007 0.0539,-0.67976 0.0581,-0.6794 0.0624,-0.67902 0.0667,-0.67862 0.0709,-0.67819 0.0752,-0.67772 0.0794,-0.67725 0.0837,-0.67672 0.0879,-0.67619 0.0922,-0.67563 0.0964,-0.67503 0.10068,-0.67441 0.10491,-0.67376 0.10914,-0.6731 0.11337,-0.67239 0.11759,-0.67167 0.12182,-0.67092 0.12602,-0.67013 0.13023,-0.66934 0.13444,-0.6685 0.13863,-0.66764 0.14282,-0.66676 0.14701,-0.66585 0.15119,-0.66491 0.15537,-0.66395 0.15954,-0.66296 0.16369,-0.66194 0.16786,-0.6609 0.172,-0.65984 0.17614,-0.65874 0.18029,-0.65762 0.1844,-0.65647 0.18853,-0.65531 0.19265,-0.6541 0.19675,-0.65289 0.20084,-0.65163 0.20494,-0.65036 0.20902,-0.64906 0.2131,-0.64773 0.21716,-0.64638 0.22121,-0.64501 0.22527,-0.6436 0.2293,-0.64217 0.23334,-0.64072 0.23736,-0.63924 0.24136,-0.63774 0.24537,-0.6362 0.24937,-0.63466 0.25334,-0.63307 0.25732,-0.63147 0.26128,-0.62984 0.26524,-0.62819 0.2692,-0.6265 0.2731,-0.62481 0.277,-0.62307 0.2809,-0.62133 0.2849,-0.61954 0.2887,-0.61774 0.2926,-0.61592 0.2964,-0.61407 0.3004,-0.61219 0.3041,-0.61029 0.308,-0.60837 0.3118,-0.60642 0.3156,-0.60445 0.3194,-0.60246 0.3232,-0.60044 0.3269,-0.59839 0.3307,-0.59633 0.3344,-0.59424 0.3382,-0.59213 0.3419,-0.58999 0.3455,-0.58783 0.3493,-0.58565 0.3529,-0.58344 0.3566,-0.58121 0.3603,-0.57896 0.3638,-0.57669 0.3675,-0.57439 0.3711,-0.57207 0.3747,-0.56972 0.3782,-0.56736 0.3818,-0.56497 0.3854,-0.56256 0.3888,-0.56013 0.3924,-0.55768 0.3959,-0.5552 0.3994,-0.5527 0.4028,-0.55018 0.4063,-0.54764 0.4097,-0.54507 0.4131,-0.54249 0.4165,-0.53989 0.4199,-0.53725 0.4233,-0.53461 0.4266,-0.53193 0.43,-0.52925 0.4333,-0.52653 0.4365,-0.52381 0.4399,-0.52104 0.4431,-0.51828 0.4464,-0.51548 0.4496,-0.51266 0.4528,-0.50983 0.456,-0.50697 L 1020,110 l 0.4623,-0.50121 0.4655,-0.49829 0.4686,-0.49535 0.4717,-0.4924 0.4748,-0.48943 0.4779,-0.48643 0.4809,-0.48342 0.4839,-0.48039 0.487,-0.47735 0.4899,-0.47427 0.4929,-0.47118 0.4959,-0.46808 0.4987,-0.46495 0.5017,-0.46181 0.5046,-0.45865 0.5075,-0.45547 0.5103,-0.45227 0.5131,-0.44906 0.516,-0.44582 0.5187,-0.44258 0.5215,-0.4393 0.5243,-0.43602 0.527,-0.432717 0.5297,-0.429397 0.5324,-0.42606 0.5351,-0.422707 0.5377,-0.419337 0.5403,-0.41595 0.5429,-0.412547 0.5455,-0.409127 0.5481,-0.405692 0.5506,-0.40224 0.5531,-0.398773 0.5556,-0.39529 0.5581,-0.39179 0.5606,-0.388277 0.5629,-0.384746 0.5654,-0.381202 0.5678,-0.377642 0.5701,-0.374068 0.5725,-0.370477 0.5747,-0.366874 0.5771,-0.363255 0.5794,-0.359621 0.5816,-0.355975 0.5838,-0.352314 0.586,-0.348638 0.5882,-0.344949 0.5903,-0.341247 0.5925,-0.337531 0.5946,-0.333801 0.5967,-0.330059 0.5987,-0.326303 0.6008,-0.322535 0.6028,-0.318754 0.6048,-0.31496 0.6068,-0.311154 0.6087,-0.307336 0.6106,-0.303504 0.6125,-0.299663 0.6144,-0.295808 0.6162,-0.291941 0.618,-0.288064 0.6199,-0.284176 0.6216,-0.280275 0.6234,-0.276363 0.6251,-0.272442 0.6268,-0.268508 0.6284,-0.264565 0.6302,-0.260612 0.6317,-0.256646 0.6333,-0.252673 0.635,-0.248688 0.6364,-0.244694 0.638,-0.24069 0.6395,-0.236676 0.641,-0.232654 0.6424,-0.228622 0.6438,-0.224582 0.6453,-0.220531 0.6466,-0.216473 0.6479,-0.212406 0.6493,-0.20833 0.6506,-0.204247 0.6518,-0.200155 0.6531,-0.196056 0.6543,-0.191948 0.6555,-0.187834 0.6567,-0.183711 0.6578,-0.179581 0.659,-0.175445 0.66,-0.171301 0.6611,-0.167151 0.6621,-0.162993 0.6631,-0.158831 0.6641,-0.154661 0.6651,-0.150485 0.666,-0.146303 0.6669,-0.142116 0.6678,-0.137922 0.6686,-0.133724 0.6695,-0.129521 0.6703,-0.125311 0.671,-0.121098 0.6718,-0.116878 0.6725,-0.112656 0.6732,-0.108428 0.6739,-0.104195 0.6745,-0.09996 0.6752,-0.09572 0.6757,-0.09148 0.6763,-0.08723 0.6768,-0.08298 0.6773,-0.07872 0.6778,-0.07447 0.6783,-0.07021 0.6787,-0.06594 0.6791,-0.06168 0.6794,-0.05741 0.6798,-0.05314 0.6802,-0.04887 0.6804,-0.04459 0.6807,-0.04032 0.6809,-0.03604 0.6812,-0.03176 0.6813,-0.02748 0.6815,-0.0232 0.6816,-0.01892 0.6817,-0.01463 0.6818,-0.01035 0.6819,-0.0061 0.6819,-0.0018 0.6819,0.0025 0.6818,0.0068 0.6818,0.01107 0.6817,0.01536 0.6816,0.01964 0.6815,0.02392 0.6813,0.0282 0.6811,0.03248 0.6809,0.03676 0.6806,0.04104 0.6804,0.04532 0.6801,0.04959 0.6797,0.05386 0.6794,0.05813 0.6791,0.0624 0.6786,0.06666 0.6782,0.07093 0.6777,0.07519 0.6772,0.07944 0.6768,0.0837 0.6762,0.08795 0.6756,0.09219 0.675,0.09644 0.6744,0.100677 0.6738,0.104912 0.6731,0.109143 0.6724,0.11337 0.6716,0.117593 0.671,0.121811 0.6701,0.126023 0.6693,0.130232 0.6685,0.134435 0.6677,0.138632 0.6667,0.142824 0.6659,0.147011 0.6649,0.151192 0.6639,0.155367 0.663,0.159535 0.6619,0.163697 0.6609,0.167853 0.6599,0.172003 0.6587,0.176145 0.6576,0.18028 0.6565,0.184409 0.6553,0.18853 0.6541,0.192644 0.6529,0.196749 0.6516,0.200848 0.6504,0.204938 0.6491,0.209021 0.6477,0.213094 0.6464,0.21716 0.645,0.221217 0.6436,0.225265 0.6421,0.229305 0.6408,0.233335 0.6392,0.237356 0.6377,0.241368 0.6363,0.245371 0.6346,0.249362 0.6331,0.253346 0.6314,0.257318 0.6299,0.26128 0.6282,0.265233 0.6265,0.269175 0.6248,0.273106 0.6231,0.277026 0.6213,0.280935 0.6195,0.284834 0.6178,0.288721 0.6159,0.292596 0.6141,0.296461 0.6121,0.300313 0.6103,0.304154 0.6084,0.307982 0.6064,0.311798 0.6045,0.315603 0.6024,0.319394 0.6005,0.323174 0.5984,0.326939 0.5963,0.330693 0.5942,0.334433 0.5922,0.338161 0.59,0.341874 0.5878,0.345574 0.5856,0.349261 0.5835,0.352933 0.5812,0.356593 0.579,0.360237 0.5766,0.363868 0.5744,0.367485 0.5721,0.371085 0.5697,0.374673 0.5674,0.378246 0.565,0.381802 0.5625,0.385345 0.5601,0.388872 0.5577,0.392384 0.5552,0.395879 0.5527,0.399361 0.5502,0.402825 0.5476,0.406274 0.5451,0.409707 0.5425,0.413124 0.5399,0.416524 0.5372,0.419908 0.5346,0.423275 0.532,0.426626 0.5292,0.42996 0.5266,0.433276 0.5238,0.436579 0.521,0.43986 0.5183,0.44312 0.5155,0.44637 0.5126,0.4496 0.5099,0.45282 0.5069,0.45601 0.5041,0.45918 0.5012,0.46234 0.4983,0.46549 0.4954,0.4686 0.4924,0.47171 0.4894,0.47479 0.4864,0.47786 0.4835,0.4809 0.4804,0.48394 0.4773,0.48694 0.4743,0.48993 0.4711,0.4929 0.4681,0.49585 0.465,0.49879 0.4618,0.50169 0.4586,0.50459 0.4555,0.50746 0.4523,0.51031 0.449,0.51314 0.4459,0.51595 0.4425,0.51875 0.4393,0.52151 0.4361,0.52427 0.4327,0.52699 0.4294,0.5297 0.426,0.53239 0.4227,0.53506 0.4194,0.5377 0.4159,0.54033 0.4126,0.54293 0.4091,0.54551 0.4057,0.54807 0.4022,0.5506 0.3988,0.55313 0.3953,0.55562 0.3918,0.55809 0.3883,0.56054 0.3847,0.56297 0.3812,0.56538 0.3777,0.56776 0.374,0.57013 0.3705,0.57246 0.3669,0.57478 0.3632,0.57707 0.3596,0.57934 0.356,0.58159 0.3523,0.58382 0.3487,0.58602 0.3449,0.5882 0.3413,0.59035 0.3375,0.59249 0.3338,0.59459 0.3301,0.59668 0.3263,0.59874 0.3225,0.60078 0.3188,0.6028 0.3149,0.60479 0.3112,0.60675 0.3073,0.6087 0.3035,0.61061 0.2997,0.61251 0.2958,0.61438 0.2919,0.61623 0.2881,0.61805 0.2842,0.61985 0.2802,0.62162 0.2764,0.62337 0.2724,0.62509 0.2685,0.62679 0.2646,0.62847 0.2606,0.63012 0.2567,0.63174 0.2526,0.63335 0.2487,0.63491 0.2447,0.63647 0.2407,0.63799 0.2367,0.6395 0.2326,0.64096 0.2287,0.64242 0.2245,0.64384 0.2206,0.64524 0.2165,0.64661 0.2124,0.64796 0.2083,0.64928 0.2042,0.65057 0.2002,0.65185 0.196,0.65309 0.192,0.65431 0.1878,0.65551 0.1837,0.65667 0.1796,0.65781 0.1755,0.65893 0.1713,0.66001 0.1671,0.66109 0.163,0.66211 0.1588,0.66313 0.1547,0.66411 0.1505,0.66508 0.1463,0.666 0.1421,0.66691 0.1379,0.66779 0.1338,0.66865 0.1295,0.66947 0.1253,0.67027 0.1211,0.67104 0.1169,0.6718 0.1126,0.67251 0.1084,0.67321 0.1042,0.67387 0.1,0.67452 0.096,0.67514 0.091,0.67572 0.087,0.67628 0.083,0.67682 0.079,0.67732 0.074,0.67781 0.07,0.67826 0.066,0.67869 0.062,0.67909 0.057,0.67946 0.053,0.67981 0.049,0.68013 0.045,0.68043 0.04,0.68069 0.036,0.68093 0.032,0.68114 0.027,0.68133 0.023,0.68149 0.019,0.68163 0.015,0.68172 0.01,0.68181 0.01,0.68186 0,0.68188 -0,0.68188 -0.01,0.68185 -0.011,0.68179 -0.015,0.68172 -0.02,0.6816 -0.024,0.68146 -0.028,0.6813 -0.032,0.68111 -0.037,0.6809 -0.041,0.68064 -0.045,0.68038 -0.05,0.68008 -0.054,0.67975 -0.058,0.67941 -0.062,0.67902 -0.067,0.67862 -0.071,0.67818 -0.075,0.67773 -0.079,0.67724 -0.084,0.67673 -0.088,0.67619 -0.092,0.67562 -0.096,0.67503 -0.1007,0.67441 -0.1049,0.67377 -0.1091,0.67309 -0.1134,0.6724 -0.1176,0.67167 -0.1218,0.67091 -0.126,0.67014 -0.1303,0.66933 -0.1344,0.6685 -0.1386,0.66765 -0.1429,0.66676 -0.147,0.66584 -0.1512,0.66492 -0.1553,0.66394 -0.1596,0.66296 -0.1637,0.66195 -0.1678,0.6609 -0.172,0.65983 -0.1762,0.65874 -0.1802,0.65763 -0.1845,0.65647 -0.1885,0.6553 -0.1926,0.65411 -0.1968,0.65288 -0.2008,0.65164 -0.205,0.65036 -0.209,0.64906 -0.2131,0.64773 -0.2171,0.64638 -0.2213,0.645 -0.2252,0.6436 -0.2293,0.64218 -0.2334,0.64071 -0.2373,0.63925 -0.2414,0.63773 -0.2454,0.63621 -0.2493,0.63465 -0.2534,0.63308 -0.2573,0.63147 -0.2613,0.62984 -0.2652,0.62818 -0.2692,0.62651 -0.2731,0.6248 -0.277,0.62308 -0.2809,0.62132 -0.2849,0.61955 -0.2887,0.61774 -0.2926,0.61592 -0.2964,0.61406 -0.3004,0.6122 -0.3041,0.61029 -0.308,0.60837 -0.3118,0.60642 -0.3156,0.60445 -0.3194,0.60246 -0.3232,0.60044 -0.3269,0.59839 -0.3307,0.59633 -0.3344,0.59424 -0.3382,0.59213 -0.3419,0.58999 -0.3455,0.58783 -0.3493,0.58565 -0.3529,0.58344 -0.3566,0.58121 -0.3603,0.57896 -0.3638,0.57669 -0.3675,0.57438 -0.3711,0.57207 -0.3747,0.56973 -0.3782,0.56736 -0.3818,0.56497 -0.3854,0.56256 -0.3888,0.56013 -0.3924,0.55768 -0.3959,0.55519 -0.3994,0.5527 -0.4028,0.55019 -0.4063,0.54763 -0.4097,0.54508 -0.4131,0.54249 -0.4165,0.53988 -0.4199,0.53726 -0.4233,0.5346 -0.4266,0.53194 -0.43,0.52925 -0.4333,0.52653 -0.4365,0.5238 -0.4399,0.52105 -0.4431,0.51827 -0.4464,0.51548 -0.4496,0.51267 -0.4528,0.50983 -0.456,0.50697 z"
       transform="matrix(0.88158858,0,0,0.88158858,-868.07264,-59.94977)" />
  </g>
</svg>
