<?xml version="1.0" encoding="iso-8859-1"?>
<!-- Generator: Adobe Illustrator 17.1.0, SVG Export Plug-In . SVG Version: 6.00 Build 0)  -->
<!DOCTYPE svg PUBLIC "-//W3C//DTD SVG 1.1//EN" "http://www.w3.org/Graphics/SVG/1.1/DTD/svg11.dtd">
<svg version="1.1" id="Layer_1" xmlns="http://www.w3.org/2000/svg" xmlns:xlink="http://www.w3.org/1999/xlink" x="0px" y="0px"
	 viewBox="0 0 64 64" style="enable-background:new 0 0 64 64;" xml:space="preserve">
<g>
	<polygon points="44.238,60 32.665,34.721 22.337,60 	"/>
	<circle cx="32.634" cy="29.833" r="3.541"/>
	<path d="M26.176,22.726c-0.406-0.376-1.037-0.354-1.413,0.054c-0.06,0.065-5.945,6.586-0.067,14.462
		c0.196,0.264,0.497,0.402,0.802,0.402c0.208,0,0.417-0.064,0.597-0.198c0.442-0.331,0.534-0.957,0.203-1.399
		c-4.864-6.518-0.266-11.69-0.065-11.91C26.606,23.73,26.581,23.1,26.176,22.726z"/>
	<path d="M19.27,17.604c-0.406-0.375-1.036-0.35-1.411,0.055c-0.105,0.114-2.597,2.84-3.858,7.254
		c-1.166,4.081-1.455,10.422,3.791,17.45c0.196,0.264,0.497,0.402,0.802,0.402c0.208,0,0.417-0.064,0.597-0.198
		c0.442-0.331,0.534-0.957,0.203-1.399c-9.048-12.125-0.437-21.747-0.066-22.151C19.701,18.609,19.675,17.978,19.27,17.604z"/>
	<path d="M11.648,47.668c0.208,0,0.417-0.064,0.597-0.198c0.442-0.331,0.534-0.957,0.203-1.399
		c-13.054-17.493-0.603-31.375-0.066-31.957c0.374-0.406,0.349-1.038-0.057-1.413c-0.407-0.374-1.036-0.351-1.412,0.055
		c-0.143,0.154-14.135,15.66-0.067,34.511C11.042,47.529,11.343,47.668,11.648,47.668z"/>
	<path d="M38.942,37.445c0.18,0.134,0.389,0.198,0.597,0.198c0.305,0,0.606-0.139,0.802-0.402
		c5.877-7.876-0.007-14.396-0.067-14.462c-0.375-0.404-1.007-0.431-1.413-0.054c-0.405,0.375-0.43,1.008-0.055,1.413
		c0.2,0.215,4.826,5.349-0.067,11.907C38.408,36.488,38.5,37.114,38.942,37.445z"/>
	<path d="M47.178,17.658c-0.376-0.406-1.009-0.43-1.413-0.054c-0.405,0.375-0.43,1.008-0.055,1.413
		c0.091,0.099,9.01,9.985-0.067,22.149c-0.331,0.442-0.239,1.068,0.203,1.399c0.18,0.134,0.389,0.198,0.597,0.198
		c0.305,0,0.606-0.139,0.802-0.402C57.308,28.88,47.281,17.77,47.178,17.658z"/>
	<path d="M52.711,12.7c-0.405,0.375-0.43,1.007-0.057,1.413c0.537,0.582,12.988,14.464-0.066,31.957
		c-0.331,0.442-0.239,1.068,0.203,1.399c0.18,0.134,0.389,0.198,0.597,0.198c0.305,0,0.606-0.139,0.802-0.402
		c14.068-18.851,0.076-34.356-0.067-34.511C53.748,12.351,53.117,12.326,52.711,12.7z"/>
</g>
</svg>
