<?xml version="1.0" encoding="utf-8"?>
<!-- Generator: Adobe Illustrator 17.0.0, SVG Export Plug-In . SVG Version: 6.00 Build 0)  -->
<!DOCTYPE svg PUBLIC "-//W3C//DTD SVG 1.1//EN" "http://www.w3.org/Graphics/SVG/1.1/DTD/svg11.dtd">
<svg version="1.1" id="Layer_1" xmlns="http://www.w3.org/2000/svg" xmlns:xlink="http://www.w3.org/1999/xlink" x="0px" y="0px"
	 width="792px" height="612px" viewBox="0 0 792 612" enable-background="new 0 0 792 612" xml:space="preserve">
<g>
	<path d="M309.514,152.577h-19.125v19.125v95.625v3.49l1.234,3.261l28.984,76.653l4.667,12.221h13.225h114.157h13.751l4.38-12.89
		l28.984-86.282l0.995-2.888v-3.127v-86.063v-19.125h-19.125H309.514z M481.639,257.764l-28.984,86.062H424l19.939-81.071
		l0.172-91.054h37.529V257.764z M347.764,261.503l20.282,82.324h-29.548l-28.984-76.5v-95.625h38.25V261.503z M377.886,343.827
		l-20.559-82.907v-89.218h77.221v89.17l-20.298,82.955H377.886z"/>
	<path d="M452.952,56.952h-21.018c2.152-4.886,3.385-10.261,3.385-15.941c0-21.917-17.824-39.742-39.742-39.742
		c-21.917,0-39.742,17.824-39.742,39.742c0,5.671,1.234,11.045,3.385,15.941h-21.018l-47.812,66.938h-19.125v19.125h248.625v-19.125
		h-19.125L452.952,56.952z M374.96,41.011c0-11.37,9.247-20.617,20.617-20.617c11.37,0,20.617,9.247,20.617,20.617
		c0,6.455-3.041,12.154-7.698,15.941h-25.847C378.001,53.165,374.96,47.466,374.96,41.011z"/>
	<path d="M437.375,382.077h-83.595c-8.606,0-15.577,6.971-15.577,15.577v26.22c0,8.606,6.971,15.577,15.577,15.577h13.11v172.125
		h57.375V439.452h13.11c8.606,0,15.577-6.971,15.577-15.577v-26.22C452.952,389.048,445.981,382.077,437.375,382.077z"/>
</g>
</svg>
