<?xml version="1.0" encoding="iso-8859-1"?>
<!-- Generator: Adobe Illustrator 17.1.0, SVG Export Plug-In . SVG Version: 6.00 Build 0)  -->
<!DOCTYPE svg PUBLIC "-//W3C//DTD SVG 1.1//EN" "http://www.w3.org/Graphics/SVG/1.1/DTD/svg11.dtd">
<svg version="1.1" id="Capa_1" xmlns="http://www.w3.org/2000/svg" xmlns:xlink="http://www.w3.org/1999/xlink" x="0px" y="0px"
	 viewBox="0 0 150 150" style="enable-background:new 0 0 150 150;" xml:space="preserve">
<g>
	<path d="M111.563,53.449c-5.831-5.961-15.124-11.894-25.517-16.286c-10.454-4.418-21.242-6.952-29.601-6.952
		c-7.668,0-12.782,2.109-14.4,5.938c-2.293,5.424,2.784,13.26,13.124,20.731c-17.25-8.377-28.695-19.033-26.197-24.943
		c1.076-2.547,4.868-3.95,10.677-3.95c3.827,0,8.503,0.617,13.521,1.784c0.267,0.061,0.528-0.1,0.597-0.36
		c0.069-0.262-0.083-0.53-0.343-0.606c-8.276-2.427-15.876-3.709-21.978-3.709c-7.243,0-11.831,1.798-13.269,5.199
		c-3.145,7.439,10.097,20.25,31.492,30.476c5.764,6.331,15.415,12.644,26.501,17.328c10.453,4.418,21.242,6.953,29.601,6.953
		c7.668,0,12.782-2.109,14.4-5.939c2.494-5.899-3.693-14.575-15.662-22.495c8.99,4.026,16.901,8.848,22.477,13.718
		c5.852,5.111,8.469,9.792,7.18,12.84c-1.076,2.547-4.868,3.95-10.677,3.95c-3.827,0-8.503-0.617-13.521-1.784
		c-0.265-0.062-0.527,0.1-0.597,0.36c-0.069,0.262,0.083,0.53,0.343,0.606c8.276,2.427,15.876,3.71,21.978,3.71
		c7.242,0,11.83-1.798,13.269-5.2C148.194,77.168,133.84,63.689,111.563,53.449z M105.581,67.235
		c0.392-0.929,0.533-1.952,0.423-3.058c2.494,3.357,3.335,6.398,2.365,8.691c-1.251,2.961-5.393,4.593-11.661,4.593
		c-7.146,0-16.396-2.177-25.376-5.973c-4.828-2.041-9.356-4.443-13.312-7.051c12.675,5.099,25.058,7.997,34.29,7.997
		C99.554,72.436,104.143,70.638,105.581,67.235z M57.559,47.878c-0.595,1.406-0.616,3.011-0.068,4.791
		c-3.49-3.988-4.78-7.581-3.641-10.276c1.251-2.961,5.393-4.592,11.661-4.592c7.147,0,16.396,2.177,25.376,5.972
		c3.982,1.684,7.799,3.634,11.246,5.74c-11.617-4.371-22.826-6.836-31.304-6.836C63.586,42.677,58.997,44.476,57.559,47.878z"/>
	<path d="M28.54,113.943c4.694,0.213,10.822-1.072,16.922-3.549c6.909-2.804,12.413-6.535,15.366-10.088
		c0.012,0.048,0.029,0.095,0.056,0.139c0.136,0.233,0.433,0.317,0.672,0.187c9.421-5.148,14.562-10.811,13.094-14.425
		c-0.816-2.014-3.493-3.078-7.738-3.078c-4.763,0-10.954,1.32-17.44,3.717l-0.224-0.001c-4.588,0-10.238,1.269-15.912,3.571
		c-5.501,2.232-10.342,5.169-13.63,8.269c-0.525,0.495-1.002,0.986-1.429,1.472c-0.007-0.07-0.028-0.14-0.066-0.204
		c-0.138-0.234-0.436-0.319-0.672-0.187c-9.421,5.149-14.56,10.812-13.093,14.425c0.816,2.015,3.492,3.079,7.737,3.079
		C16.65,117.27,22.456,116.089,28.54,113.943z M26.369,105.802c0.228,0.561,0.6,1.049,1.113,1.46
		c-2.239-0.304-3.741-1.11-4.23-2.315c-0.653-1.61,0.476-3.951,3.098-6.423c2.777-2.618,6.884-5.105,11.564-7.005
		c1.333-0.541,2.681-1.019,4.014-1.426C31.381,95.32,24.754,101.822,26.369,105.802z M47.889,103.495
		c4.052-3.438,5.77-6.599,4.836-8.898c-0.131-0.324-0.312-0.625-0.543-0.9c1.769,0.378,2.939,1.123,3.363,2.168
		c1.412,3.479-5.302,9.629-14.66,13.428c-1.812,0.734-3.636,1.35-5.417,1.83C40.389,108.838,44.714,106.188,47.889,103.495z
		 M62.913,93.552c-0.913-2.249-3.874-3.488-8.337-3.488c-1.273,0-2.646,0.101-4.088,0.298c4.858-1.641,9.487-2.554,13.09-2.554
		c3.232,0,5.315,0.743,5.863,2.094c0.895,2.203-2.238,5.958-8.003,9.624C63.029,97.348,63.61,95.27,62.913,93.552z M15.885,107.257
		c0.912,2.25,3.873,3.489,8.336,3.489c0.81,0,1.666-0.042,2.557-0.124c-4.184,1.271-8.117,1.969-11.262,1.969
		c-3.232,0-5.314-0.743-5.862-2.094c-0.896-2.209,2.256-5.979,8.048-9.654C15.802,103.241,15.157,105.466,15.885,107.257z"/>
	<path d="M116.074,113.579l-7.307,1.504l-5.8-4.784c-0.92-0.758-1.775-0.413-1.911,0.771l-0.855,7.47l-6.304,3.988
		c-1.007,0.637-0.929,1.517,0.176,1.966l6.997,2.841l1.71,7.579c0.263,1.163,1.156,1.42,1.996,0.574l5.152-5.187l7.309,0.158
		c1.191,0.026,1.622-0.757,0.961-1.749l-4.352-6.531l3.407-7.09C117.77,114.015,117.242,113.339,116.074,113.579z"/>
	<path d="M76.606,112.253l-3.342,0.688l-2.652-2.188c-0.421-0.347-0.812-0.189-0.874,0.353l-0.391,3.416l-2.883,1.824
		c-0.46,0.291-0.424,0.694,0.081,0.899l3.2,1.299l0.782,3.466c0.12,0.532,0.529,0.649,0.913,0.263l2.356-2.372l3.343,0.072
		c0.545,0.012,0.742-0.346,0.439-0.8l-1.99-2.987l1.558-3.242C77.381,112.453,77.14,112.143,76.606,112.253z"/>
	<path d="M107.433,24.74l3.831-0.013l2.649,2.766c0.432,0.451,0.881,0.32,1.004-0.292l0.808-4.032l3.889-1.364
		c0.589-0.207,0.645-0.653,0.123-0.996l-3.264-2.149l-0.376-3.921c-0.06-0.622-0.505-0.811-0.994-0.422l-3.084,2.45l-3.812-0.858
		c-0.609-0.137-0.906,0.218-0.664,0.793l1.54,3.645l-2.174,3.441C106.572,24.316,106.809,24.742,107.433,24.74z"/>
	<path d="M14.433,76.09l3.831-0.013l2.649,2.766c0.432,0.451,0.881,0.32,1.004-0.292l0.808-4.032l3.889-1.365
		c0.589-0.207,0.645-0.653,0.123-0.996l-3.264-2.15l-0.376-3.921c-0.06-0.622-0.505-0.811-0.994-0.422l-3.084,2.45l-3.812-0.858
		c-0.609-0.137-0.906,0.218-0.664,0.793l1.54,3.645l-2.174,3.441C13.572,75.666,13.809,76.092,14.433,76.09z"/>
</g>
</svg>
