<?xml version="1.0" encoding="utf-8"?>
<!-- Generator: Adobe Illustrator 17.0.0, SVG Export Plug-In . SVG Version: 6.00 Build 0)  -->
<!DOCTYPE svg PUBLIC "-//W3C//DTD SVG 1.1//EN" "http://www.w3.org/Graphics/SVG/1.1/DTD/svg11.dtd">
<svg version="1.1" id="Layer_1" xmlns="http://www.w3.org/2000/svg" xmlns:xlink="http://www.w3.org/1999/xlink" x="0px" y="0px"
	 width="792px" height="612px" viewBox="0 0 792 612" enable-background="new 0 0 792 612" xml:space="preserve">
<g>
	<path d="M298.501,583.303c-1.109-3.28-2.658-6.483-4.6-9.562c-7.669-12.135-21.19-21.908-36.844-21.908
		c-15.855,0-29.701,9.113-37.351,21.908c-1.033,1.731-1.97,3.519-2.773,5.374c-0.746-1.836-1.635-3.596-2.611-5.298v-0.067v-8.272
		v-7.669v-31.872h-6.273h-4.762h-3.012h-5.087h-0.641c0.21,0.191,0.43,0.383,0.641,0.583v18.8v5.556v4.906
		c-5.852-2.859-12.412-4.466-19.364-4.466c-14.076,0-30.007,5.527-37.236,18.456c-2.142,3.815-3.347,8.386-3.691,13.54h-0.067
		h-3.997h-0.545h-2.037v19.125h3.194h3.978h165.125h4.992h4.982h8.979v-19.125L298.501,583.303z"/>
	<polygon points="195.188,516.375 197.11,516.375 201.862,516.375 207.131,516.375 211.998,516.375 214.312,516.375 249.55,516.375 
		243.794,493.674 242.837,489.887 241.613,485.077 204.989,340.664 164.482,508.247 163.153,513.745 162.522,516.375 
		187.232,516.375 	"/>
	<path d="M596.812,191.25h-19.125h-19.125v9.562v9.562V229.5v9.562v19.125v9.562v19.125v9.562v19.125v9.562v19.125v9.562v19.125
		v9.562v19.125v9.562v19.125v9.562V459v9.562v19.125v95.625H549v-95.625h-47.812v-19.125H549V459h-47.812v-19.125H549v-9.562
		h-47.812v-19.125H549v-9.562h-47.812V382.5H549v-9.562h-47.812v-19.125H549v-9.562h-47.812v-19.125H549v-9.562h-47.812v-19.125H549
		v-9.562h-47.812V267.75H549v-9.562h-47.812v-19.125H549V229.5h-47.812v-19.125H549v-9.562h-47.812v-19.125H549h9.562h4.781h14.344
		h19.125v-47.812h-19.125V114.75h-19.125V95.625H549V38.25h-19.125v57.375h-9.562v19.125h-19.125v19.125h-19.125v449.438h-28.688
		V449.438l-28.439-86.062h-48.061v28.688h9.562v-19.125h31.614l25.761,77.275v133.1h-28.688v19.125H549h9.562h114.75v-19.125V191.25
		H596.812z M501.188,153h76.5v19.125h-76.5V153z M606.375,516.375V497.25H625.5v19.125H606.375z M577.688,497.25h19.125v19.125
		h-19.125V497.25z M577.688,468.562h19.125v19.125h-19.125V468.562z M577.688,439.875h19.125V459h-19.125V439.875z M577.688,411.188
		h19.125v19.125h-19.125V411.188z M577.688,382.5h19.125v19.125h-19.125V382.5z M577.688,353.812h19.125v19.125h-19.125V353.812z
		 M577.688,325.125h19.125v19.125h-19.125V325.125z M577.688,296.438h19.125v19.125h-19.125V296.438z M577.688,267.75h19.125v19.125
		h-19.125V267.75z M577.688,239.062h19.125v19.125h-19.125V239.062z M625.5,258.188h-19.125v-19.125H625.5V258.188z M625.5,286.875
		h-19.125V267.75H625.5V286.875z M625.5,315.562h-19.125v-19.125H625.5V315.562z M625.5,344.25h-19.125v-19.125H625.5V344.25z
		 M625.5,372.938h-19.125v-19.125H625.5V372.938z M625.5,401.625h-19.125V382.5H625.5V401.625z M625.5,430.312h-19.125v-19.125
		H625.5V430.312z M625.5,459h-19.125v-19.125H625.5V459z M625.5,487.688h-19.125v-19.125H625.5V487.688z M635.062,497.25h19.125
		v19.125h-19.125V497.25z M635.062,487.688v-19.125h19.125v19.125H635.062z M635.062,459v-19.125h19.125V459H635.062z
		 M635.062,430.312v-19.125h19.125v19.125H635.062z M635.062,401.625V382.5h19.125v19.125H635.062z M635.062,372.938v-19.125h19.125
		v19.125H635.062z M635.062,344.25v-19.125h19.125v19.125H635.062z M635.062,315.562v-19.125h19.125v19.125H635.062z
		 M635.062,286.875V267.75h19.125v19.125H635.062z M635.062,258.188v-19.125h19.125v19.125H635.062z M635.062,229.5v-19.125h19.125
		V229.5H635.062z M625.5,229.5h-19.125v-19.125H625.5V229.5z M596.812,210.375V229.5h-19.125v-19.125H596.812z"/>
	<polygon points="376.875,401.625 357.75,439.875 405.562,439.875 386.438,401.625 	"/>
</g>
</svg>
