<?xml version="1.0" encoding="iso-8859-1"?>
<!-- Generator: Adobe Illustrator 17.1.0, SVG Export Plug-In . SVG Version: 6.00 Build 0)  -->
<!DOCTYPE svg PUBLIC "-//W3C//DTD SVG 1.1//EN" "http://www.w3.org/Graphics/SVG/1.1/DTD/svg11.dtd">
<svg version="1.1" id="Layer_1" xmlns="http://www.w3.org/2000/svg" xmlns:xlink="http://www.w3.org/1999/xlink" x="0px" y="0px"
	 viewBox="0 0 64 64" style="enable-background:new 0 0 64 64;" xml:space="preserve">
<g>
	<path d="M46.36,19.436c0.005,0.361-0.003,0.715-0.028,1.061c-0.026,0.356-0.068,0.704-0.127,1.044
		c-0.3,1.727-1.019,3.244-2.16,4.526c-3.212,3.609-8.876,4.373-13.066,4.373c-2.38,0-4.516-0.242-5.589-0.497
		c-2.274-0.54-6.186-3.017-7.817-6.901c-0.205-0.489-0.349-0.981-0.466-1.475c-0.08-0.339-0.14-0.679-0.179-1.019
		c-0.04-0.352-0.059-0.704-0.055-1.057c-10.262,3.308-15.236,9.18-15.519,9.523c-0.321,0.388-0.303,0.954,0.042,1.321
		c0.268,0.285,6.312,6.653,15.694,10.924l-2.977,1.898c-0.343,0.218-0.519,0.623-0.446,1.022l1.231,6.729
		c0.083,0.449,0.458,0.786,0.914,0.817c0.023,0.002,0.047,0.003,0.071,0.003c0.427,0,0.812-0.273,0.948-0.684l1.476-4.428
		l4.672-3.156c6.625,1.946,13.145,2.034,19.443,0.282l4.255,2.874l1.476,4.428c0.145,0.433,0.562,0.719,1.019,0.681
		c0.456-0.031,0.831-0.368,0.914-0.817l1.231-6.729c0.073-0.399-0.104-0.805-0.446-1.022l-2.552-1.627
		c9.048-4.282,14.245-10.972,14.475-11.271c0.294-0.383,0.272-0.921-0.052-1.279C62.43,28.637,56.963,22.726,46.36,19.436z
		 M52.737,28.024c1.485-0.37,2.892,0.147,3.143,1.155s-0.749,2.125-2.234,2.495c-1.485,0.37-2.892-0.147-3.143-1.155
		C50.252,29.511,51.252,28.394,52.737,28.024z M42.445,31.191c1.485-0.37,2.892,0.147,3.144,1.155
		c0.251,1.008-0.749,2.125-2.234,2.495c-1.485,0.37-2.892-0.147-3.144-1.155S40.96,31.561,42.445,31.191z M31.184,32.726
		c1.525,0.131,2.689,1.075,2.601,2.11c-0.089,1.035-1.397,1.768-2.921,1.637s-2.689-1.075-2.601-2.11
		C28.351,33.328,29.659,32.595,31.184,32.726z M7.148,28.651c0.449-0.937,1.931-1.16,3.312-0.498
		c1.38,0.661,2.135,1.957,1.686,2.893c-0.449,0.937-1.931,1.16-3.312,0.498C7.454,30.883,6.699,29.588,7.148,28.651z M19.789,31.248
		c1.438,0.523,2.317,1.737,1.962,2.714s-1.808,1.344-3.247,0.821c-1.438-0.523-2.317-1.737-1.962-2.714S18.351,30.726,19.789,31.248
		z"/>
	<path d="M31.617,9h-0.068c-0.757,0-7.679,0.075-11.511,6.431c-0.735,1.22-1.106,2.386-1.209,3.484
		c-0.034,0.36-0.038,0.713-0.016,1.057c0.022,0.349,0.07,0.688,0.142,1.02c0.835,3.858,4.832,6.52,6.873,7.005
		c0.83,0.197,2.79,0.487,5.14,0.487c5.261,0,12.458-1.274,13.3-7.524c0.045-0.335,0.087-0.673,0.094-1.038
		c0.007-0.337-0.025-0.702-0.052-1.064c-0.012-0.16-0.005-0.307-0.025-0.472C44.285,18.385,42.602,9,31.617,9z M27.075,26
		c-0.003,0-0.007,0-0.01,0c-0.018,0-0.036,0.046-0.054,0.044c-0.161-0.018-3.953-0.436-5.595-3.152
		c-0.429-0.709-0.658-1.503-0.709-2.369c-0.02-0.335-0.021-0.678,0.016-1.036c0.036-0.35,0.108-0.714,0.198-1.085
		c0.111-0.457,0.252-0.926,0.445-1.415c0.087-0.215,2.155-5.142,8.04-5.556c0.196-0.011,0.376,0.089,0.47,0.256
		c0.095,0.168,0.084,0.377-0.026,0.536c-0.024,0.033-1.401,2.051-2.191,5.198c-0.083,0.33-0.157,0.672-0.225,1.026
		c-0.064,0.335-0.119,0.679-0.165,1.034c-0.229,1.758-0.227,3.743,0.254,5.87c0.04,0.072,0.063,0.109,0.063,0.197
		C27.584,25.827,27.34,26,27.075,26z"/>
</g>
</svg>
