<?xml version="1.0" encoding="iso-8859-1"?>
<!-- Generator: Adobe Illustrator 17.1.0, SVG Export Plug-In . SVG Version: 6.00 Build 0)  -->
<!DOCTYPE svg PUBLIC "-//W3C//DTD SVG 1.1//EN" "http://www.w3.org/Graphics/SVG/1.1/DTD/svg11.dtd">
<svg version="1.1" id="Layer_1" xmlns="http://www.w3.org/2000/svg" xmlns:xlink="http://www.w3.org/1999/xlink" x="0px" y="0px"
	 viewBox="0 0 64 64" style="enable-background:new 0 0 64 64;" xml:space="preserve">
<g>
	<path d="M20.22,37.477c1.452,2.892,4.206,5.04,7.588,5.621l0.435,0.075l-0.278,6.083c-0.152-0.039-0.322-0.063-0.481-0.095
		c-0.169-0.035-0.333-0.074-0.511-0.101c-0.517-0.078-1.061-0.132-1.654-0.132c-0.804,0-1.546,0.108-2.228,0.294
		c0.337,0.118,0.663,0.244,0.975,0.38c0.263,0.115,0.518,0.236,0.763,0.361c0.169-0.011,0.33-0.035,0.506-0.035
		c0.572,0,1.099,0.049,1.592,0.129c0.177,0.029,0.344,0.064,0.511,0.101c0.163,0.036,0.326,0.073,0.479,0.116
		c1.445,0.408,2.485,1.109,3.187,1.75c0.195,0.178,0.367,0.352,0.511,0.512c0.296,0.33,0.482,0.599,0.581,0.753
		c0.045,0.07,0.076,0.123,0.084,0.137l0.019,0.035c0.12-0.08,0.238-0.159,0.369-0.236c0.044-0.026,0.08-0.055,0.125-0.08
		c0.2-0.114,0.428-0.215,0.651-0.319c0.726-1.383,3.1-4.994,8.43-6.124l0.013-0.272l0.035-0.749
		c-5.621,1.117-8.342,4.88-9.279,6.534c-0.149-0.186-0.346-0.402-0.566-0.625c-0.166-0.169-0.354-0.341-0.563-0.518
		c-0.16-0.135-0.319-0.271-0.505-0.405l-0.523-7.441l0.467-0.061c4.518-0.585,8.067-4.026,8.931-8.356
		c-4.882-2.124-8.37-6.844-8.739-12.407c-0.507-0.076-1.022-0.127-1.549-0.127c-0.637,0-1.257,0.066-1.863,0.175
		c0.643,3.153,0.994,5.922,0.994,7.681C28.726,36.208,25.156,37.308,20.22,37.477z"/>
	<path d="M48.405,45.633l0.055,0.769l0.019,0.271c7.534,1.491,10.281,8.03,11.102,10.747c0.186,0.177,0.363,0.356,0.531,0.538
		c0.317,0.344,0.604,0.694,0.85,1.041h0.017l-0.115-0.593C60.841,58.287,58.66,47.509,48.405,45.633z"/>
	<path d="M32.128,22.079c0.008,0.175,0.012,0.351,0.027,0.524c0.428,4.973,3.543,9.179,7.885,11.172
		c0.158,0.073,0.314,0.149,0.476,0.216c0.156,0.065,0.319,0.116,0.478,0.175c0.469,0.173,0.95,0.321,1.441,0.443l0.308-6.657
		l-6.583-9.986l6.979,3.832L43.979,12h2.63l0.46,13.958l7.61-2.261l-7.187,9.127l0.145,2.035c6.566-0.953,11.63-6.603,11.63-13.429
		c0-7.492-6.095-13.586-13.586-13.586c-7.491,0-13.586,6.095-13.586,13.586c0,0.043,0.006,0.085,0.006,0.127
		C32.103,21.733,32.12,21.905,32.128,22.079z"/>
	<path d="M6.54,35.553c1.7,0.874,4.173,0.953,6.777,0.954l0.191-2.682l-7.187-9.127l7.61,2.261L14.391,13h2.63l0.84,9.797
		l6.979-3.832l-6.583,9.986l0.072,1.546l0.257,5.803l0.021,0.7c0.04,0,0.08,0,0.12,0c0.174,0,0.349-0.249,0.519-0.251
		c0.182-0.002,0.359-0.131,0.536-0.135c4.846-0.108,7.944-1.016,7.944-6.423c0-1.886-0.339-4.565-0.934-7.495
		c-0.033-0.163-0.066-0.342-0.101-0.507c-0.034-0.161-0.07-0.332-0.106-0.494c-1.978-9.068-6.267-20.271-10.733-20.271
		c-6.1,0-11.874,20.89-11.874,28.708C3.979,32.933,4.792,34.654,6.54,35.553z"/>
	<path d="M43.403,35.316l-0.023,0.501l-0.449,9.696l-0.035,0.762l-0.012,0.257l-0.322,6.957c1.569,1.105,2.548,2.519,2.999,3.28
		c0.48-0.327,1.337-0.81,2.549-1.229l-0.644-9.037l-0.019-0.264l-0.054-0.759l-0.678-9.516l-0.036-0.498l-0.036-0.498l-0.175-2.458
		l5.479-6.958l-5.834,1.733L45.641,13h-0.745l-0.893,10.413l-4.789-2.628l4.542,6.889l-0.331,7.14L43.403,35.316z"/>
	<path d="M16.996,24.413L16.104,14h-0.745l-0.471,14.286l-5.834-1.733l5.479,6.958l-0.014,0.193l-0.2,2.801l-0.036,0.5l-0.036,0.5
		l-0.811,11.382c1.29-0.339,2.719-0.535,4.305-0.535c0.142,0,0.273,0.013,0.413,0.016l-0.503-10.862l-0.023-0.5l-0.023-0.5
		l-0.363-7.832l4.542-6.889L16.996,24.413z"/>
	<path d="M58.649,58c-1.367-1.259-3.223-2.318-5.174-2.318c-1.738,0-3.168,0.245-4.313,0.57c-0.181,0.051-0.358,0.104-0.525,0.159
		c-0.157,0.052-0.312,0.104-0.456,0.158c-0.381,0.142-0.715,0.289-1.006,0.431c-0.955,0.466-1.432,0.88-1.442,0.89L45.61,58
		l-0.374,0.334L45.076,58l-0.128-0.268c-0.006-0.012-0.149-0.303-0.429-0.732c-0.392-0.602-1.062-1.478-2.014-2.266
		c-0.148-0.122-0.3-0.243-0.462-0.359c-0.163-0.118-0.33-0.234-0.507-0.343c-1.041-0.64-2.328-1.104-3.869-1.104
		c-2.167,0-3.76,0.658-4.87,1.403c-0.003,0.002-0.007,0.004-0.01,0.006c-0.177,0.119-0.339,0.24-0.491,0.361
		c-0.185,0.147-0.349,0.293-0.5,0.435c-0.165,0.156-0.315,0.308-0.441,0.449c-0.427,0.478-0.628,0.833-0.634,0.844l-0.508,0.927
		l-0.395-0.982c-0.051-0.126-0.629-1.506-2.041-3.01c-0.143-0.152-0.301-0.306-0.462-0.46c-0.156-0.149-0.325-0.296-0.498-0.445
		c-0.956-0.819-2.177-1.6-3.714-2.178c-0.217-0.081-0.435-0.162-0.664-0.234c-0.275-0.087-0.568-0.16-0.862-0.232
		c-0.734-0.181-1.517-0.321-2.372-0.393c-0.168-0.014-0.349-0.015-0.522-0.024c-0.159-0.009-0.318-0.018-0.481-0.022
		c-0.156-0.004-0.299-0.021-0.459-0.021c-1.639,0-3.08,0.233-4.382,0.605c-0.162,0.046-0.325,0.09-0.482,0.141
		c-0.182,0.059-0.368,0.112-0.543,0.177C5.907,52.659,3.774,59.003,3.254,61h23.171h0.523h5.252h0.537h28.053
		c-0.169-0.565-0.59-1.279-1.189-2C59.322,58.663,59.002,58.325,58.649,58z"/>
</g>
</svg>
