<?xml version="1.0" encoding="iso-8859-1"?>
<!-- Generator: Adobe Illustrator 16.0.0, SVG Export Plug-In . SVG Version: 6.00 Build 0)  -->
<!DOCTYPE svg PUBLIC "-//W3C//DTD SVG 1.1//EN" "http://www.w3.org/Graphics/SVG/1.1/DTD/svg11.dtd">
<svg version="1.1" id="Layer_1" xmlns="http://www.w3.org/2000/svg" xmlns:xlink="http://www.w3.org/1999/xlink" x="0px" y="0px"
	 width="44.055px" height="45.921px" viewBox="0 0 44.055 45.921" style="enable-background:new 0 0 44.055 45.921;"
	 xml:space="preserve">
<path d="M41.078,12.922l0.185,0.447l2.792-1.157l-0.097-0.233l0.004-0.001l-4.8-11.582L39.16,0.398L38.995,0l-2.792,1.157
	l0.266,0.641L8.888,16.152l-0.679-1.64l-1.384,0.573l0.729,1.761l-5.319,2.769l-0.298-0.744L0,19.648l2.692,6.711l1.936-0.777
	l-0.258-0.645l16.413-5.373v4.766l-8.619,21.589h2.048l7.709-19.375l5.815,19.298l2.04-0.007L23.21,24.297v-5.527L41.078,12.922z
	 M37.278,3.752l2.981,7.193L3.762,22.823L3.19,21.442L37.278,3.752z"/>
<g>
</g>
<g>
</g>
<g>
</g>
<g>
</g>
<g>
</g>
<g>
</g>
<g>
</g>
<g>
</g>
<g>
</g>
<g>
</g>
<g>
</g>
<g>
</g>
<g>
</g>
<g>
</g>
<g>
</g>
</svg>
