<?xml version="1.0" encoding="UTF-8" standalone="no"?>
<!-- Created with Inkscape (http://www.inkscape.org/) -->

<svg
   xmlns:dc="http://purl.org/dc/elements/1.1/"
   xmlns:cc="http://creativecommons.org/ns#"
   xmlns:rdf="http://www.w3.org/1999/02/22-rdf-syntax-ns#"
   xmlns:svg="http://www.w3.org/2000/svg"
   xmlns="http://www.w3.org/2000/svg"
   xmlns:sodipodi="http://sodipodi.sourceforge.net/DTD/sodipodi-0.dtd"
   xmlns:inkscape="http://www.inkscape.org/namespaces/inkscape"
   version="1.1"
   width="198"
   height="198"
   id="svg2"
   inkscape:version="0.48.3.1 r9886"
   sodipodi:docname="4ATSM.svg">
  <sodipodi:namedview
     pagecolor="#ffffff"
     bordercolor="#666666"
     borderopacity="1"
     objecttolerance="10"
     gridtolerance="10"
     guidetolerance="10"
     inkscape:pageopacity="0"
     inkscape:pageshadow="2"
     inkscape:window-width="640"
     inkscape:window-height="480"
     id="namedview3325"
     showgrid="false"
     inkscape:zoom="1.1919192"
     inkscape:cx="99"
     inkscape:cy="99"
     inkscape:window-x="65"
     inkscape:window-y="24"
     inkscape:window-maximized="0"
     inkscape:current-layer="svg2" />
  <metadata
     id="metadata8">
    <rdf:RDF>
      <cc:Work
         rdf:about="">
        <dc:format>image/svg+xml</dc:format>
        <dc:type
           rdf:resource="http://purl.org/dc/dcmitype/StillImage" />
        <dc:title />
      </cc:Work>
    </rdf:RDF>
  </metadata>
  <defs
     id="defs6" />
  <g
     id="g3345">
    <rect
       style="fill:#ffffff;fill-opacity:1;fill-rule:nonzero;stroke:none"
       id="rect2991"
       y="0"
       x="0"
       height="198"
       width="198" />
    <path
       style="fill:#000000"
       id="path2989"
       d="m 3.59375e-6,177 0,-21 21.00000040625,0 21,0 0,21 0,21 -21,0 -21.00000040625,0 0,-21 z M 36.000004,177 l 0,-15 -15,0 -15.0000004,0 0,15 0,15 15.0000004,0 15,0 0,-15 z m -24,0 0,-9 9,0 9,0 0,9 0,9 -9,0 -9,0 0,-9 z m 42,18 0,-3 3,0 3,0 0,-6 0,-6 -6,0 -6,0 0,-6 0,-6 3,0 3,0 0,-3 0,-3 -3,0 -3,0 0,-6 0,-6 -24,0 -24.00000040625,0 0,-15 0,-15 6.00000000625,0 6.0000004,0 0,-3 0,-3 -3.0000004,0 -3,0 0,-3 0,-3 -3,0 -3.00000000625,0 0,-6 0,-6.000003 12.00000040625,0 12,0 0,-3 0,-3 -6,0 -6,0 0,-3 0,-3 6,0 6,0 0,-3 0,-3 -12,0 -12.00000040625,0 0,-6 0,-6 6.00000000625,0 6.0000004,0 0,3 0,3 3,0 3,0 0,-3 0,-3 3,0 3,0 0,-3 0,-2.999997 -3,0 -3,0 0,-6 0,-6 6,0 6,0 0,3 0,3 -3,0 -3,0 0,3 0,3 9,0 9,0 0,-3 0,-3 -3,0 -3,0 0,-3 0,-3 6,0 6,0 0,9 0,8.999997 3,0 3,0 0,-3 0,-2.999997 3,0 3,0 0,-3 0,-3 -3,0 -3,0 0,-6 0,-6 -3,0 -3,0 0,-3 0,-3 3,0 3,0 0,-6 0,-6 -3,0 -3,0 0,-6 0,-6 3,0 3,0 0,-2.9999996 0,-3 3,0 3,0 0,-3 0,-3.00000000112305 6,0 6,0 0,3.00000000112305 0,3 -3,0 -3,0 0,3 0,2.9999996 6,0 6,0 0,3.000001 0,2.999999 3,0 3,0 0,3 0,3 3.000002,0 3,0 0,9 0,9 -3,0 -3.000002,0 0,6 0,6 3.000002,0 3,0 0,-3 0,-3 3,0 3,0 0,-6 0,-6 3.000001,0 3.000003,0 0,6 0,6 9,0 9,0 0,-9 0,-9 3,0 3,0 0,12 0,12 3,0 3,0 0,-9 0,-9 3,0 3,0 0,-9 0,-9 -3,0 -3,0 0,3 0,3 -6,0 -6,0 0,-3 0,-3 -3,0 -3,0 0,6 0,6 -9,0 -9.000004,0 0,-3 0,-3 3.000001,0 3.000003,0 0,-3 0,-3 3,0 3,0 0,-6 0,-5.9999996 -3,0 -3,0 0,3 0,2.9999996 -3.000003,0 -3.000001,0 0,3.000001 0,2.999999 -3,0 -3,0 0,-2.999999 0,-3.000001 3,0 3,0 0,-2.9999996 0,-3 -3,0 -3,0 0,-3 0,-3.00000000112305 3,0 3,0 0,3.00000000112305 0,3 3.000001,0 3.000003,0 0,-3 0,-3.00000000112305 12,0 12,0 0,3.00000000112305 0,3 3,0 3,0 0,-3 0,-3.00000000112305 3,0 3,0 0,6.00000000112305 0,5.9999996 3,0 3,0 0,6 0,6 3,0 3,0 0,3 0,3 -3,0 -3,0 0,3 0,3 3,0 3,0 0,9 0,9 3,0 3,0 0,3 0,3 3,0 3,0 0,-3 0,-3 6,0 6,0 0,-3 0,-3 6,0 6,0 0,6 0,6 6,0 6,0 0,5.999997 0,6 -9,0 -9,0 0,-3 0,-3 -3,0 -3,0 0,6 0,6 -3,0 -3,0 0,3 0,3 -3,0 -3,0 0,3 0,3 -3,0 -3,0 0,-3 0,-3 3,0 3,0 0,-3 0,-3 -3,0 -3,0 0,-3 0,-3 -3,0 -3,0 0,9 0,9 -3,0 -3,0 0,-3 0,-3 -3,0 -3,0 0,-3 0,-3 3,0 3,0 0,-3 0,-3 3,0 3,0 0,-9 0,-8.999997 -3,0 -3,0 0,6 0,5.999997 -3,0 -3,0 0,3 0,3 -3,0 -3,0 0,6 0,6 -3,0 -3,0 0,-3 0,-3 -6,0 -6,0 0,6 0,6 6,0 6,0 0,3 0,3 -3,0 -3,0 0,3 0,3.000003 3,0 3,0 0,3 0,3 3,0 3,0 0,-6 0,-6.000003 18,0 18,0 0,-3 0,-3 3,0 3,0 0,-3 0,-3 3,0 3,0 0,-3 0,-3 6,0 6,0 0,3 0,3 -3,0 -3,0 0,6 0,6 3,0 3,0 0,3 0,3.000003 -6,0 -6,0 0,3 0,3 3,0 3,0 0,3 0,3 3,0 3,0 0,-3 0,-3 3,0 3,0 0,6 0,6 -9,0 -9,0 0,9 0,9 3,0 3,0 0,-6 0,-6 3,0 3,0 0,3 0,3 3,0 3,0 0,6 0,6 -3,0 -3,0 0,-3 0,-3 -3,0 -3,0 0,3 0,3 -3,0 -3,0 0,-3 0,-3 -3,0 -3,0 0,12 0,12 3,0 3,0 0,-6 0,-6 6,0 6,0 0,3 0,3 -3,0 -3,0 0,3 0,3 3,0 3,0 0,3 0,3 3,0 3,0 0,3 0,3 -3,0 -3,0 0,3 0,3 3,0 3,0 0,6 0,6 -6,0 -6,0 0,3 0,3 -9,0 -9,0 0,-3 0,-3 3,0 3,0 0,-3 0,-3 -3,0 -3,0 0,-3 0,-3 -3,0 -3,0 0,-3 0,-3 -12,0 -12,0 0,-6 0,-6 -6,0 -6,0 0,-3 0,-3 3,0 3,0 0,-6 0,-6 3,0 3,0 0,6 0,6 3,0 3,0 0,-6 0,-6 9,0 9,0 0,-3 0,-3 -3,0 -3,0 0,-6 0,-6 -9,0 -9,0 0,6 0,6 -3,0 -3,0 0,-3 0,-3 -3,0 -3,0 0,9 0,9 -3,0 -3,0 0,-3 0,-3 -3,0 -3,0 0,3 0,3 -3,0 -3,0 0,-3 0,-3 -6,0 -6.000004,0 0,3 0,3 -3,0 -3,0 0,-3 0,-3 3,0 3,0 0,-3 0,-3 -3,0 -3,0 0,-3 0,-3 3,0 3,0 0,3 0,3 3.000001,0 3.000003,0 0,-6 0,-6 9,0 9,0 0,-6 0,-6 3,0 3,0 0,-3 0,-3 -6,0 -6,0 0,6 0,6 -6,0 -6,0 0,-9 0,-9 3,0 3,0 0,-3.000003 0,-3 -3,0 -3,0 0,-3 0,-3 3,0 3,0 0,-6 0,-6 -6,0 -6.000004,0 0,-3 0,-3 -3,0 -3,0 0,-3 0,-3 6,0 6.000004,0 0,-3 0,-2.999997 -9.000004,0 -9.000002,0 0,5.999997 0,6 -3,0 -3,0 0,6 0,6 -9,0 -9,0 0,-3 0,-3 -6,0 -6,0 0,3 0,3 3,0 3,0 0,6 0,6 -3,0 -3,0 0,6.000003 0,6 3,0 3,0 0,-3 0,-3 3,0 3,0 0,-3.000003 0,-3 3,0 3,0 0,-3 0,-3 6,0 6,0 0,6 0,6.000003 3,0 3,0 0,6 0,6 -6,0 -6,0 0,-6 0,-6 -6,0 -6,0 0,3 0,3 3,0 3,0 0,9 0,9 -3,0 -3,0 0,3 0,3 3,0 3,0 0,3 0,3 -3,0 -3,0 0,3 0,3 3,0 3,0 0,3 0,3 -3,0 -3,0 0,3 0,3 6,0 6,0 0,-3 0,-3 3,0 3,0 0,-3 0,-3 -3,0 -3,0 0,-3 0,-3 6,0 6,0 0,9 0,9 9.000002,0 9.000004,0 0,3 0,3 3,0 3,0 0,3 0,3 3,0 3,0 0,6 0,6 3,0 3,0 0,-6 0,-6 6,0 6,0 0,6 0,6 -6,0 -6,0 0,3 0,3 3,0 3,0 0,3 0,3 3,0 3,0 0,-3 0,-3 3,0 3,0 0,-3 0,-3 6,0 6,0 0,3 0,3 6,0 6,0 0,6 0,6 -3,0 -3,0 0,-3 0,-3 -3,0 -3,0 0,3 0,3 -6,0 -6,0 0,-3 0,-3 -3,0 -3,0 0,3 0,3 -3,0 -3,0 0,-3 0,-3 -3,0 -3,0 0,3 0,3 -3,0 -3,0 0,-3 0,-3 -6,0 -6,0 0,3 0,3 -6.000004,0 -6,0 0,-3 0,-3 6,0 6.000004,0 0,-6 0,-6 3,0 3,0 0,-3 0,-3 -3,0 -3,0 0,-6 0,-6 -9.000004,0 -9.000002,0 0,-3 0,-3 -6,0 -6,0 0,3 0,3 -3,0 -3,0 0,12 0,12 3,0 3,0 0,-6 0,-6 12,0 12.000002,0 0,3 0,3 -6,0 -6.000002,0 0,9 0,9 -3,0 -3,0 0,-6 0,-6 -3,0 -3,0 0,6 0,6 -3,0 -3,0 0,-3 0,-3 -3,0 -3,0 0,3 0,3 -3,0 -3,0 0,-3 z m 96.000006,-6 0,-3 -3,0 -3,0 0,3 0,3 3,0 3,0 0,-3 z m 30,-12 0,-3 6,0 6,0 0,-3 0,-3 -9,0 -9,0 0,3 0,3 -3,0 -3,0 0,3 0,3 6,0 6,0 0,-3 z m -12,-18 0,-9 -9,0 -9,0 0,9 0,9 9,0 9,0 0,-9 z m -12,0 0,-3 3,0 3,0 0,3 0,3 -3,0 -3,0 0,-3 z m -96.000006,0 0,-3 -3,0 -3,0 0,3 0,3 3,0 3,0 0,-3 z m 0,-12 0,-3 -3,0 -3,0 0,3 0,3 3,0 3,0 0,-3 z m -42,-9 0,-6 -6,0 -6.0000004,0 0,6 0,6 6.0000004,0 6,0 0,-6 z m 30,3 0,-3 6,0 6,0 0,-3 0,-3 -3,0 -3,0 0,-3 0,-3 3,0 3,0 0,-3 0,-3 -6,0 -6,0 0,-6 0,-6 -3,0 -3,0 0,-3 0,-3 -6,0 -6,0 0,3 0,3 -3,0 -3,0 0,-3 0,-3 -9,0 -9.0000004,0 0,3 0,3 6.0000004,0 6,0 0,3 0,3 9,0 9,0 0,3 0,3 6,0 6,0 0,3 0,3 -6,0 -6,0 0,3 0,3 6,0 6,0 0,3 0,3 -12,0 -12,0 0,3 0,3 12,0 12,0 0,-3 z m -12,-30 0,-3 3,0 3,0 0,3 0,3 -3,0 -3,0 0,-3 z m 78.000006,30 0,-3 -3,0 -3,0 0,3 0,3 3,0 3,0 0,-3 z m 60,-6 0,-3 -3,0 -3,0 0,3 0,3 3,0 3,0 0,-3 z m -144.000006,-6 0,-3 -3,0 -3,0 0,3 0,3 3,0 3,0 0,-3 z m 108.000006,-6 0,-3 -3,0 -3,0 0,-3 0,-3 3,0 3,0 0,-3 0,-3 3,0 3,0 0,-3 0,-3 -3,0 -3,0 0,3 0,3 -3,0 -3,0 0,3 0,3 -3,0 -3,0 0,6 0,6 6,0 6,0 0,-3 z m 24,0 0,-3 3,0 3,0 0,3 0,3 3,0 3,0 0,-3 0,-3 -3,0 -3,0 0,-9 0,-9 -3,0 -3,0 0,3 0,3 -3,0 -3,0 0,-3 0,-3 -3,0 -3,0 0,9 0,9 3,0 3,0 0,3 0,3 3,0 3,0 0,-3 z m -6,-6 0,-3 3,0 3,0 0,3 0,3 -3,0 -3,0 0,-3 z m -96.000006,-6 0,-3 -3,0 -3,0 0,3 0,3 3,0 3,0 0,-3 z m 54.000006,-6 0,-3 -3,0 -3,0 0,3 0,3 3,0 3,0 0,-3 z m 66,-6.000003 0,-3 -3,0 -3,0 0,3 0,3.000003 3,0 3,0 0,-3.000003 z m -138.000006,-6 0,-3 3,0 3,0 0,-3 0,-3 -3,0 -3,0 0,-3 0,-3 3,0 3,0 0,-6 0,-6 -6,0 -6,0 0,3 0,3 -3,0 -3,0 0,3 0,3 3,0 3,0 0,3 0,3 3,0 3,0 0,3 0,3 -6,0 -6,0 0,-3 0,-3 -3,0 -3,0 0,3 0,3 3,0 3,0 0,3 0,3 6,0 6,0 0,-3 z m -6,-18 0,-3 3,0 3,0 0,3 0,3 -3,0 -3,0 0,-3 z m 36,0 0,-3 3,0 3,0 0,-6 0,-5.999997 3,0 3,0 0,-3 0,-3 -3,0 -3,0 0,3 0,3 -6,0 -6,0 0,2.999997 0,3 -3,0 -3,0 0,6 0,6 6,0 6,0 0,-3 z m -6,-6 0,-3 3,0 3,0 0,3 0,3 -3,0 -3,0 0,-3 z m 54.000006,-3 0,-5.999997 3,0 3,0 0,2.999997 0,3 3,0 3,0 0,-3 0,-2.999997 -3,0 -3,0 0,-3 0,-3 -3,0 -3,0 0,3 0,3 -3,0 -3,0 0,-3 0,-3 -3,0 -3,0 0,6 0,5.999997 -3,0 -3,0 0,3 0,3 9,0 9,0 0,-6 z m 42,3 0,-3 -3,0 -3,0 0,3 0,3 3,0 3,0 0,-3 z m 12,-6 0,-2.999997 -3,0 -3,0 0,2.999997 0,3 3,0 3,0 0,-3 z M 72.000004,51 l 0,-3 3,0 3,0 0,-3 0,-3 3,0 3,0 0,-3 0,-3 -3,0 -3,0 0,-3 0,-3 -6,0 -6,0 0,-3 0,-3 3,0 3,0 0,-3 0,-3 -3,0 -3,0 0,-2.999999 0,-3.000001 -3,0 -3,0 0,3.000001 0,2.999999 -3,0 -3,0 0,3 0,3 3,0 3,0 0,3 0,3 3,0 3,0 0,6 0,6 -3,0 -3,0 0,-3 0,-3 -3,0 -3,0 0,3 0,3 3,0 3,0 0,3 0,3 3,0 3,0 0,3 0,3 3,0 3,0 0,-3 z m -6,-6 0,-3 3,0 3,0 0,-3 0,-3 3,0 3,0 0,3 0,3 -3,0 -3,0 0,3 0,3 -3,0 -3,0 0,-3 z m 78.000006,0 0,-9 -3,0 -3,0 0,9 0,9 3,0 3,0 0,-9 z m -18,-33 0,-5.9999996 -6,0 -6,0 0,3 0,2.9999996 3,0 3,0 0,3.000001 0,2.999999 3,0 3,0 0,-6 z m -12,147 0,-3 3,0 3,0 0,3 0,3 -3,0 -3,0 0,-3 z m 30,-24 0,-3 3,0 3,0 0,3 0,3 -3,0 -3,0 0,-3 z m -66.000006,-12 0,-3 6,0 6.000002,0 0,-6 0,-6 3,0 3,0 0,6 0,6 -3,0 -3,0 0,3 0,3 -6.000002,0 -6,0 0,-3 z m 6,-36.000003 0,-9 3.000002,0 3,0 0,6 0,6 3,0 3,0 0,3 0,3 -6,0 -6.000002,0 0,-9 z m -84.00000040625,0 0,-3 3.00000000625,0 3,0 0,3 0,3 -3,0 -3.00000000625,0 0,-3 z m 0,-29.999997 0,-3 3.00000000625,0 3,0 0,3 0,3 -3,0 -3.00000000625,0 0,-3 z m 0,-36 0,-20.99999960112302 21.00000040625,0 21,0 L 42.000004,21 l 0,21 -21,0 -21.00000040625,0 0,-21 z M 36.000004,21 l 0,-14.9999996 -15,0 -15.0000004,0 0,14.9999996 0,15 15.0000004,0 15,0 0,-15 z m -24,0 0,-9 9,0 9,0 0,9 0,9 -9,0 -9,0 0,-9 z m 96.000006,18 0,-3 3,0 3,0 0,3 0,3 -3,0 -3,0 0,-3 z m 48,-18 0,-20.99999960112303 21,0 21,0 L 198.00001,21 l 0,21 -21,0 -21,0 0,-21 z m 36,0 0,-14.9999996 -15,0 -15,0 0,14.9999996 0,15 15,0 15,0 0,-15 z m -24,0 0,-9 9,0 9,0 0,9 0,9 -9,0 -9,0 0,-9 z M 78.000004,3.0000004 l 0,-3.00000000112303 3,0 3,0 0,3.00000000112303 0,3 -3,0 -3,0 0,-3 z m 66.000006,0 0,-3.00000000112303 3,0 3,0 0,3.00000000112303 0,3 -3,0 -3,0 0,-3 z" />
  </g>
</svg>
