<?xml version="1.0" encoding="UTF-8" standalone="no"?>
<!-- Created with Inkscape (http://www.inkscape.org/) -->

<svg
   xmlns:dc="http://purl.org/dc/elements/1.1/"
   xmlns:cc="http://creativecommons.org/ns#"
   xmlns:rdf="http://www.w3.org/1999/02/22-rdf-syntax-ns#"
   xmlns:svg="http://www.w3.org/2000/svg"
   xmlns="http://www.w3.org/2000/svg"
   xmlns:sodipodi="http://sodipodi.sourceforge.net/DTD/sodipodi-0.dtd"
   xmlns:inkscape="http://www.inkscape.org/namespaces/inkscape"
   version="1.1"
   width="198"
   height="198"
   id="svg2"
   inkscape:version="0.48.3.1 r9886"
   sodipodi:docname="H5KH4.svg">
  <sodipodi:namedview
     pagecolor="#ffffff"
     bordercolor="#666666"
     borderopacity="1"
     objecttolerance="10"
     gridtolerance="10"
     guidetolerance="10"
     inkscape:pageopacity="0"
     inkscape:pageshadow="2"
     inkscape:window-width="640"
     inkscape:window-height="480"
     id="namedview3239"
     showgrid="false"
     inkscape:zoom="1.1919192"
     inkscape:cx="99"
     inkscape:cy="99"
     inkscape:window-x="65"
     inkscape:window-y="24"
     inkscape:window-maximized="0"
     inkscape:current-layer="svg2" />
  <metadata
     id="metadata8">
    <rdf:RDF>
      <cc:Work
         rdf:about="">
        <dc:format>image/svg+xml</dc:format>
        <dc:type
           rdf:resource="http://purl.org/dc/dcmitype/StillImage" />
        <dc:title />
      </cc:Work>
    </rdf:RDF>
  </metadata>
  <defs
     id="defs6" />
  <g
     id="g3241">
    <rect
       style="fill:#ffffff;fill-opacity:1;fill-rule:nonzero;stroke:none"
       id="rect2989"
       y="1.1286621e-06"
       x="2.5146485e-06"
       height="198"
       width="198" />
    <path
       style="fill:#000000"
       id="path2987"
       d="m 0,177 0,-21 21,0 21,0 0,21 0,21 -21,0 -21,0 0,-21 z m 36,0 0,-15 -15,0 -15,0 0,15 0,15 15,0 15,0 0,-15 z m -24,0 0,-9 9,0 9,0 0,9 0,9 -9,0 -9,0 0,-9 z m 42,18 0,-3 3,0 3,0 0,-6 0,-6 -3,0 -3,0 0,3 0,3 -3,0 -3,0 0,-3 0,-3 3,0 3,0 0,-6 0,-6 -3,0 -3,0 0,-9 0,-9 -24,0 -24,0 0,-3 0,-3 9,0 9,0 0,-9 0,-9 -3,0 -3,0 0,-3 0,-3 -3,0 -3,0 0,3 0,3 -3,0 -3,0 0,-6 0,-6 9,0 9,0 0,-12 0,-12 9,0 9,0 0,-3 0,-3 -3,0 -3,0 0,-3 0,-3 -3,0 -3,0 0,-3 0,-3 -3,0 -3,0 0,3 0,3 -3,0 -3,0 0,3 0,3 -3,0 -3,0 0,-3 0,-3 -3,0 -3,0 0,-3 0,-3 3,0 3,0 0,-6 0,-6 3,0 3,0 0,-6 0,-6 3,0 3,0 0,3 0,3 6,0 6,0 0,-3 0,-3 12,0 12,0 0,6 0,6 3,0 3,0 0,-3 0,-3 3,0 3,0 0,-3 0,-3 -3,0 -3,0 0,-6 0,-6 -3,0 -3,0 0,3 0,3 -3,0 -3,0 0,-18 0,-18 6,0 6,0 0,-3 0,-3 6,0 6,0 0,3 0,3 3,0 3,0 0,-3 0,-3 3,0 3,0 0,3 0,3 3,0 2.999996,0 0,-3 0,-3 3,0 3,0 0,3 0,3 3,0 L 102,6 l 0,-3 0,-3 12,0 12,0 0,3 0,3 3,0 3,0 0,-3 0,-3 3,0 3,0 0,9 0,9 6,0 6,0 0,12 0,12 -3,0 -3,0 0,-6 0,-6 -3,0 -3,0 0,9 0,9 9,0 9,0 0,3 0,3 3,0 3,0 0,-3 0,-3 15,0 15,0 0,3 0,3 3,0 3,0 0,9 0,9 -6,0 -6,0 0,-3 0,-3 -3,0 -3,0 0,3 0,3 -3,0 -3,0 0,-3 0,-3 -3,0 -3,0 0,3 0,3 -3,0 -3,0 0,6 0,6 6,0 6,0 0,-3 0,-3 3,0 3,0 0,3 0,3 3,0 3,0 0,3 0,3 -3,0 -3,0 0,3 0,3 3,0 3,0 0,3 0,3 6,0 6,0 0,6 0,6 -9,0 -9,0 0,3 0,3 -6,0 -6,0 0,6 0,6 3,0 3,0 0,-3 0,-3 6,0 6,0 0,-3 0,-3 3,0 3,0 0,3 0,3 3,0 3,0 0,9 0,9 -3,0 -3,0 0,-6 0,-6 -6,0 -6,0 0,6 0,6 -3,0 -3,0 0,6 0,6 6,0 6,0 0,3 0,3 3,0 3,0 0,-6 0,-6 3,0 3,0 0,12 0,12 -3,0 -3,0 0,3 0,3 3,0 3,0 0,3 0,3 -6,0 -6,0 0,-3 0,-3 -3,0 -3,0 0,-3 0,-3 3,0 3,0 0,-6 0,-6 -3,0 -3,0 0,3 0,3 -3,0 -3,0 0,9 0,9 3,0 3,0 0,3 0,3 3,0 3,0 0,3 0,3 -9,0 -9,0 0,-3 0,-3 3,0 3,0 0,-3 0,-3 -3,0 -3,0 0,-3 0,-3 -3,0 -3,0 0,-3 0,-3 -6,0 -6,0 0,12 0,12 -3,0 -3,0 0,-3 0,-3 -6,0 -6,0 0,3 0,3 -9,0 -9,0 0,-3 0,-3 9,0 9,0 0,-3 0,-3 3,0 3,0 0,-3 0,-3 -9,0 -9,0 0,3 0,3 -6,0 -6,0 0,6 0,6 -15.000004,0 L 78,198 l 0,-3 0,-3 -9,0 -9,0 0,3 0,3 -3,0 -3,0 0,-3 z m 30,-6 0,-3 3,0 2.999996,0 0,3 0,3 6,0 6.000004,0 0,-6 0,-6 -9.000004,0 L 84,180 l 0,3 0,3 -3,0 -3,0 0,3 0,3 3,0 3,0 0,-3 z m -12,-6 0,-3 3,0 3,0 0,-6 0,-6 3,0 3,0 0,3 0,3 3,0 2.999996,0 0,-3 0,-3 6,0 6.000004,0 0,3 0,3 3,0 3,0 0,-3 0,-3 3,0 3,0 0,6 0,6 3,0 3,0 0,-6 0,-6 -3,0 -3,0 0,-3 0,-3 -12,0 -12.000004,0 0,3 0,3 L 87,168 l -3,0 0,-3 0,-3 -3,0 -3,0 0,-3 0,-3 -3,0 -3,0 0,3 0,3 -6,0 -6,0 0,-9 0,-9 -3,0 -3,0 0,12 0,12 3,0 3,0 0,3 0,3 6,0 6,0 0,3 0,3 -3,0 -3,0 0,3 0,3 3,0 3,0 0,-3 z m 60,-18 0,-3 -3,0 -3,0 0,3 0,3 3,0 3,0 0,-3 z m 36,-6 0,-9 -9,0 -9,0 0,9 0,9 9,0 9,0 0,-9 z m -12,0 0,-3 3,0 3,0 0,3 0,3 -3,0 -3,0 0,-3 z m -12,-6 0,-9 -6,0 -6,0 0,-3 0,-3 6,0 6,0 0,-9 0,-9 12,0 12,0 0,-6 0,-6 6,0 6,0 0,-3 0,-3 -3,0 -3,0 0,-3 0,-3 -3,0 -3,0 0,-3 0,-3 -3,0 -3,0 0,-3 0,-3 -6,0 -6,0 0,-3 0,-3 3,0 3,0 0,-3 0,-3 3,0 3,0 0,-3 0,-3 -3,0 -3,0 0,-3 0,-3 -6,0 -6,0 0,3 0,3 6,0 6,0 0,3 0,3 -3,0 -3,0 0,3 0,3 -3,0 -3,0 0,-3 0,-3 -3,0 -3,0 0,-9 0,-9 -3,0 -3,0 0,-15 0,-15 -3,0 -3,0 0,3 0,3 -3,0 -3,0 0,-6 0,-6 -6,0 -6,0 0,3 0,3 3,0 3,0 0,3 0,3 3,0 3,0 0,3 0,3 -3,0 -3,0 0,3 0,3 3,0 3,0 0,3 0,3 -6,0 -6,0 0,-6 0,-6 -3,0 -3,0 0,-3 0,-3 -3.000004,0 -3,0 0,-3 0,-3 3,0 3.000004,0 0,-6 0,-6 6,0 6,0 0,-3 0,-3 -6,0 -6,0 0,3 0,3 -3.000004,0 -3,0 0,-3 0,-3 -3,0 -3,0 0,3 0,3 3,0 3,0 0,3 0,3 -3,0 -3,0 0,6 0,6 L 87,30 l -3,0 0,-3 0,-3 -6,0 -6,0 0,-9 0,-9 -3,0 -3,0 0,3 0,3 -3,0 -3,0 0,3 0,3 -3,0 -3,0 0,6 0,6 3,0 3,0 0,-6 0,-6 3,0 3,0 0,3 0,3 3,0 3,0 0,3 0,3 -3,0 -3,0 0,6 0,6 3,0 3,0 0,3 0,3 3,0 3,0 0,3 0,3 -6,0 -6,0 0,3 0,3 6,0 6,0 0,-3 0,-3 3,0 3,0 0,6 0,6 -9,0 -9,0 0,3 0,3 -6,0 -6,0 0,3 0,3 -3,0 -3,0 0,-6 0,-6 3,0 3,0 0,-3 0,-3 -6,0 -6,0 0,-3 0,-3 -6,0 -6,0 0,3 0,3 -9,0 -9,0 0,6 0,6 3,0 3,0 0,-3 0,-3 3,0 3,0 0,3 0,3 3,0 3,0 0,3 0,3 3,0 3,0 0,3 0,3 3,0 3,0 0,-3 0,-3 3,0 3,0 0,3 0,3 3,0 3,0 0,3 0,3 -9,0 -9,0 0,3 0,3 -3,0 -3,0 0,3 0,3 3,0 3,0 0,3 0,3 -3,0 -3,0 0,3 0,3 -6,0 -6,0 0,3 0,3 3,0 3,0 0,3 0,3 3,0 3,0 0,3 0,3 -3,0 -3,0 0,3 0,3 3,0 3,0 0,-3 0,-3 6,0 6,0 0,3 0,3 -3,0 -3,0 0,3 0,3 6,0 6,0 0,-3 0,-3 15,0 15,0 0,3 0,3 -3,0 -3,0 0,3 0,3 3,0 3,0 0,-3 0,-3 3,0 3,0 0,3 0,3 3,0 2.999996,0 0,3 0,3 6,0 6.000004,0 0,-3 0,-3 12,0 12,0 0,3 0,3 6,0 6,0 0,3 0,3 3,0 3,0 0,-9 z m -54.000004,-6 0,-3 L 87,144 l -3,0 0,-3 0,-3 5.999996,0 6,0 0,3 0,3 3,0 3.000004,0 0,3 0,3 -6.000004,0 -6,0 0,-3 z M 126,147 l 0,-3 3,0 3,0 0,3 0,3 -3,0 -3,0 0,-3 z m -24,-24 0,-15 -3.000004,0 -3,0 0,6 0,6 -6,0 L 84,120 l 0,3 0,3 5.999996,0 6,0 0,3 0,3 -6,0 L 84,132 l 0,-3 0,-3 -3,0 -3,0 0,3 0,3 -9,0 -9,0 0,-6 0,-6 -3,0 -3,0 0,6 0,6 -3,0 -3,0 0,-3 0,-3 -6,0 -6,0 0,-3 0,-3 9,0 9,0 0,-3 0,-3 3,0 3,0 0,-3 0,-3 -3,0 -3,0 0,-3 0,-3 -3,0 -3,0 0,-3 0,-3 3,0 3,0 0,3 0,3 6,0 6,0 0,-3 0,-3 -3,0 -3,0 0,-3 0,-3 3,0 3,0 0,-3 0,-3 -3,0 -3,0 0,-3 0,-3 3,0 3,0 0,-3 0,-3 12,0 11.999996,0 0,-9 0,-9 L 87,54 l -3,0 0,-3 0,-3 -3,0 -3,0 0,-3 0,-3 -3,0 -3,0 0,-3 0,-3 3,0 3,0 0,-3 0,-3 3,0 3,0 0,3 0,3 3,0 2.999996,0 0,3 0,3 3,0 3,0 0,-3 0,-3 3,0 3.000004,0 0,3 0,3 -3.000004,0 -3,0 0,6 0,6 6.000004,0 6,0 0,9 0,9 -3,0 -3,0 0,3 0,3 -3.000004,0 -3,0 0,-3 0,-3 -3,0 -3,0 0,6 0,6 L 84,84 l -6,0 0,-3 0,-3 -3,0 -3,0 0,9 0,9 6,0 6,0 0,9 0,9 3,0 2.999996,0 0,-3 0,-3 3,0 3,0 0,-6 0,-6 -3,0 -3,0 0,-3 0,-3 6,0 6.000004,0 0,-3 0,-3 6,0 6,0 0,-12 0,-12 3,0 3,0 0,-6 0,-6 3,0 3,0 0,3 0,3 3,0 3,0 0,3 0,3 -3,0 -3,0 0,3 0,3 3,0 3,0 0,9 0,9 -3,0 -3,0 0,3 0,3 -3,0 -3,0 0,3 0,3 -3,0 -3,0 0,3 0,3 6,0 6,0 0,3 0,3 3,0 3,0 0,3 0,3 3,0 3,0 0,-9 0,-9 -3,0 -3,0 0,-3 0,-3 3,0 3,0 0,-6 0,-6 3,0 3,0 0,3 0,3 3,0 3,0 0,9 0,9 -3,0 -3,0 0,3 0,3 3,0 3,0 0,3 0,3 -3,0 -3,0 0,3 0,3 -6,0 -6,0 0,-3 0,-3 -3,0 -3,0 0,-3 0,-3 -6,0 -6,0 0,3 0,3 3,0 3,0 0,3 0,3 3,0 3,0 0,3 0,3 3,0 3,0 0,3 0,3 -3,0 -3,0 0,3 0,3 -3,0 -3,0 0,-3 0,-3 -3,0 -3,0 0,3 0,3 -6,0 -6,0 0,-15 z m 12,6 0,-3 3,0 3,0 0,3 0,3 3,0 3,0 0,-3 0,-3 -3,0 -3,0 0,-3 0,-3 -3,0 -3,0 0,-3 0,-3 -3,0 -3,0 0,9 0,9 3,0 3,0 0,-3 z m -36,-6 0,-3 -3,0 -3,0 0,-6 0,-6 3,0 3,0 0,-3 0,-3 -3,0 -3,0 0,3 0,3 -3,0 -3,0 0,6 0,6 3,0 3,0 0,3 0,3 3,0 3,0 0,-3 z m 30,-21 0,-6 3,0 3,0 0,-3 0,-3 3,0 3,0 0,-3 0,-3 -3,0 -3,0 0,3 0,3 -3,0 -3,0 0,3 0,3 -3,0 -3,0 0,6 0,6 3,0 3,0 0,-6 z m 36,-9 0,-3 -3,0 -3,0 0,3 0,3 3,0 3,0 0,-3 z m -42,-24 0,-3 -3.000004,0 -3,0 0,3 0,3 3,0 3.000004,0 0,-3 z m -12.000004,-24 0,-3 L 87,42 l -3,0 0,-3 0,-3 -3,0 -3,0 0,3 0,3 3,0 3,0 0,3 0,3 3,0 2.999996,0 0,-3 z M 36,111 l 0,-3 3,0 3,0 0,3 0,3 -3,0 -3,0 0,-3 z m 120,-9 0,-12 3,0 3,0 0,3 0,3 3,0 3,0 0,3 0,3 -3,0 -3,0 0,6 0,6 -3,0 -3,0 0,-12 z m -120,-3 0,-3 3,0 3,0 0,3 0,3 -3,0 -3,0 0,-3 z m 0,-24 0,-3 3,0 3,0 0,3 0,3 -3,0 -3,0 0,-3 z m -6,-12 0,-3 6,0 6,0 0,3 0,3 -6,0 -6,0 0,-3 z m 90,-24 0,-3 3,0 3,0 0,3 0,3 -3,0 -3,0 0,-3 z m 42,102 0,-3 -6,0 -6,0 0,3 0,3 6,0 6,0 0,-3 z m 12,0 0,-3 -3,0 -3,0 0,3 0,3 3,0 3,0 0,-3 z m -12,-12 0,-3 -6,0 -6,0 0,3 0,3 6,0 6,0 0,-3 z m 18,-42 0,-3 -3,0 -3,0 0,3 0,3 3,0 3,0 0,-3 z m 12,-27 0,-6 -6,0 -6,0 0,3 0,3 3,0 3,0 0,3 0,3 3,0 3,0 0,-6 z m -18,-3 0,-3 -3,0 -3,0 0,3 0,3 3,0 3,0 0,-3 z m -90,-42 0,-3 -3,0 -3,0 0,3 0,3 3,0 3,0 0,-3 z m 108,180 0,-3 3,0 3,0 0,3 0,3 -3,0 -3,0 0,-3 z M 0,135 l 0,-3 6,0 6,0 0,3 0,3 -6,0 -6,0 0,-3 z m 6,-30 0,-3 -3,0 -3,0 0,-6 0,-6 3,0 3,0 0,6 0,6 3,0 3,0 0,3 0,3 -3,0 -3,0 0,-3 z m 186,-18 0,-9 3,0 3,0 0,9 0,9 -3,0 -3,0 0,-9 z M 0,21 0,0 21,0 42,0 42,21 42,42 21,42 0,42 0,21 z M 36,21 36,6 21,6 6,6 l 0,15 0,15 15,0 15,0 0,-15 z m -24,0 0,-9 9,0 9,0 0,9 0,9 -9,0 -9,0 0,-9 z m 144,0 0,-21 21,0 21,0 0,21 0,21 -21,0 -21,0 0,-21 z m 36,0 0,-15 -15,0 -15,0 0,15 0,15 15,0 15,0 0,-15 z m -24,0 0,-9 9,0 9,0 0,9 0,9 -9,0 -9,0 0,-9 z m -24,-15 0,-6 3,0 3,0 0,6 0,6 -3,0 -3,0 0,-6 z" />
  </g>
</svg>
