<?xml version="1.0" encoding="UTF-8" standalone="no"?>
<!-- Created with Inkscape (http://www.inkscape.org/) -->

<svg
   xmlns:dc="http://purl.org/dc/elements/1.1/"
   xmlns:cc="http://creativecommons.org/ns#"
   xmlns:rdf="http://www.w3.org/1999/02/22-rdf-syntax-ns#"
   xmlns:svg="http://www.w3.org/2000/svg"
   xmlns="http://www.w3.org/2000/svg"
   xmlns:sodipodi="http://sodipodi.sourceforge.net/DTD/sodipodi-0.dtd"
   xmlns:inkscape="http://www.inkscape.org/namespaces/inkscape"
   version="1.1"
   width="198"
   height="198"
   id="svg2"
   inkscape:version="0.48.3.1 r9886"
   sodipodi:docname="P15ER.svg">
  <sodipodi:namedview
     pagecolor="#ffffff"
     bordercolor="#666666"
     borderopacity="1"
     objecttolerance="10"
     gridtolerance="10"
     guidetolerance="10"
     inkscape:pageopacity="0"
     inkscape:pageshadow="2"
     inkscape:window-width="640"
     inkscape:window-height="480"
     id="namedview3345"
     showgrid="false"
     inkscape:zoom="1.1919192"
     inkscape:cx="99"
     inkscape:cy="99"
     inkscape:window-x="65"
     inkscape:window-y="24"
     inkscape:window-maximized="0"
     inkscape:current-layer="svg2" />
  <metadata
     id="metadata8">
    <rdf:RDF>
      <cc:Work
         rdf:about="">
        <dc:format>image/svg+xml</dc:format>
        <dc:type
           rdf:resource="http://purl.org/dc/dcmitype/StillImage" />
        <dc:title />
      </cc:Work>
    </rdf:RDF>
  </metadata>
  <defs
     id="defs6" />
  <g
     id="g3347">
    <rect
       style="fill:#ffffff;fill-opacity:1;fill-rule:nonzero;stroke:none"
       id="rect2989"
       y="0"
       x="0"
       height="198"
       width="198" />
    <path
       style="fill:#000000"
       id="path2987"
       d="m 1.0072021e-6,176.99999 0,-20.99999 L 21.000001,156 l 21,0 0,20.99999 0,21 -21,0 -20.9999999927979,0 0,-21 z m 35.9999999927979,0 0,-14.99999 -15,0 -15,0 0,14.99999 0,15 15,0 15,0 0,-15 z m -24,0 0,-9 9,0 9,0 0,9 0,9 -9,0 -9,0 0,-9 z m 42,18 0,-3 3,0 3,0 0,-6 0,-6 -3,0 -3,0 0,-3 0,-3 3,0 3,0 0,-3 0,-3 -6,0 -6,0 0,-3 0,-2.99999 6,0 6,0 0,-3 0,-3 -6,0 -6,0 0,-3 0,-3 -24,0 -23.9999999927979,0 0,-18 0,-18 L 3.000001,114 l 3,0 0,3 0,3 3,0 3,0 0,3 0,3 3,0 3,0 0,-3 0,-3 3,0 3,0 0,-3 0,-3 -3,0 -3,0 0,-3 0,-3 3,0 3,0 0,3 0,3 6,0 6,0 0,-3 0,-3 -3,0 -3,0 0,-3 0,-3 -6,0 -6,0 0,-3.000003 0,-3 -3,0 -3,0 0,3 0,3.000003 -3,0 -3,0 0,-3.000003 0,-3 -3,0 -2.9999999927979,0 0,-14.99999 0,-15.000004 5.9999999927979,0 6,0 0,-3 0,-3 3,0 3,0 0,-3 0,-3 3,0 3,0 0,3 0,3 3,0 3,0 0,3 0,3 -3,0 -3,0 0,3 0,3 3,0 3,0 0,3.000004 0,3 3,0 3,0 0,-3 0,-3.000004 3,0 3,0 0,3.000004 0,3 -3,0 -3,0 0,3 0,3 3,0 3,0 0,3 0,3 3,0 3,0 0,-6 0,-6 3,0 3,0 0,6 0,6 -3,0 -3,0 0,3 0,2.99999 -3,0 -3,0 0,3 0,3.000003 3,0 3,0 0,3 0,3 -3,0 -3,0 0,3 0,3 9,0 9,0 0,-3 0,-3 -3,0 -3,0 0,-3 0,-3 3,0 3,0 0,-3.000003 0,-3 3,0 3,0 0,-2.99999 0,-3 -3,0 -3,0 0,-6 0,-6 3,0 3,0 0,-3 0,-3.000004 -9,0 -9,0 0,-3 0,-3 -6,0 -6,0 0,-3 0,-3 3,0 3,0 0,-3 0,-3 -6,0 -6,0 0,-3 0,-3 6,0 6,0 0,3 0,3 3,0 3,0 0,3 0,3 3,0 3,0 0,3 0,3 6,0 6,0 0,3 0,3 6,0 6,0 0,-3 0,-3 -3,0 -3,0 0,-6 0,-6 -3,0 -3,0 0,3 0,3 -3,0 -3,0 0,-6 0,-6 -6,0 -6,0 0,-6 0,-6 3,0 3,0 0,3 0,3 3,0 3,0 0,-6 0,-6 3,0 3,0 0,-3 0,-3 6,0 6,0 0,-3 0,-3 -15,0 -15,0 0,-3 0,-3 3,0 3,0 0,-2.9999995 0,-3 -3,0 -3,0 0,-3 0,-3.0000000439453 3,0 3,0 0,3.0000000439453 0,3 3,0 3,0 0,-3 0,-3.0000000439453 6,0 6,0 0,3.0000000439453 0,3 -3,0 -3,0 0,3 0,2.9999995 6,0 6,0 0,-5.9999995 0,-6.0000000439453 3,0 2.999997,0 0,3.0000000439453 0,3 3,0 3,0 0,-3 0,-3.0000000439453 3,0 3,0 0,3.0000000439453 0,3 3,0 3.000002,0 0,-3 0,-3.0000000439453 12,0 12,0 0,3.0000000439453 0,3 3,0 3,0 0,-3 0,-3.0000000439453 3,0 3,0 0,6.0000000439453 0,5.9999995 3,0 3,0 0,6 0,6 3,0 3,0 0,3 0,3 -3,0 -3,0 0,-3 0,-3 -3,0 -3,0 0,-6 0,-6 -3,0 -3,0 0,6 0,6 -3,0 -3,0 0,3 0,3 -3,0 -3,0 0,3 0,3 3,0 3,0 0,9 0,9 9,0 9,0 0,-9 0,-9 3,0 3,0 0,9 0,9 3,0 3,0 0,-3 0,-3 3,0 3,0 0,3 0,3 3,0 3,0 0,-3 0,-3 3,0 3,0 0,3 0,3 3,0 3,0 0,-3 0,-3 3,0 3,0 0,6 0,6 3,0 3,0 0,3 0,3 3,0 3,0 0,3 0,3 -12,0 -12,0 0,3.000004 0,3 -3,0 -3,0 0,3 0,3 -3,0 -3,0 0,3 0,3 6,0 6,0 0,-3 0,-3 3,0 3,0 0,-3 0,-3 3,0 3,0 0,3 0,3 3,0 3,0 0,-3 0,-3 3,0 3,0 0,3 0,3 -3,0 -3,0 0,3 0,3 -3,0 -3,0 0,3 0,2.99999 6,0 6,0 0,9.000003 0,9 -6,0 -6,0 0,3 0,3 -3,0 -3,0 0,6 0,6 -6,0 -6,0 0,6 0,6 3,0 3,0 0,-3 0,-3 6,0 6,0 0,-6 0,-6 3,0 3,0 0,6 0,6 3,0 3,0 0,3 0,3 -3,0 -3,0 0,-3 0,-3 -3,0 -3,0 0,3 0,3 -6,0 -6,0 0,9 0,9 3,0 3,0 0,-6 0,-6 3,0 3,0 0,3 0,3 3,0 3,0 0,-3 0,-3 3,0 3,0 0,3 0,3 -3,0 -3,0 0,6 0,5.99999 -6,0 -6,0 0,3 0,3 6,0 6,0 0,3 0,3 3,0 3,0 0,3 0,3 -6,0 -6,0 0,3 0,3 3,0 3,0 0,3 0,3 -6,0 -6,0 0,-3 0,-3 -3,0 -3,0 0,-3 0,-3 -3,0 -3,0 0,-3 0,-3 -3,0 -3,0 0,-3 0,-3 -9,0 -9,0 0,3 0,3 3,0 3,0 0,3 0,3 -3,0 -3,0 0,3 0,3 9,0 9,0 0,3 0,3 -18,0 -18,0 0,-3 0,-3 3,0 3,0 0,-3 0,-3 3,0 3,0 0,-3 0,-3 -9,0 -9,0 0,3 0,3 -3,0 -3,0 0,3 0,3 -6,0 -6,0 0,-6 0,-6 -6.000002,0 -6,0 0,-6 0,-6 -3,0 -3,0 0,9 0,9 3,0 3,0 0,3 0,3 3,0 3,0 0,3 0,3 -3,0 -3,0 0,-3 0,-3 -3,0 -3,0 0,-3 0,-3 -5.999997,0 -6,0 0,6 0,6 -9,0 -9,0 0,-3 z m 18,-12 0,-3 -3,0 -3,0 0,3 0,3 3,0 3,0 0,-3 z m 107.999999,0 0,-3 -3,0 -3,0 0,3 0,3 3,0 3,0 0,-3 z m -60,-6 0,-3 3,0 3,0 0,-3 0,-3 3,0 3,0 0,3 0,3 6,0 6,0 0,-3 0,-3 -3,0 -3,0 0,-5.99999 0,-6 3,0 3,0 0,-6 0,-6 9,0 9,0 0,-6 0,-6 -3,0 -3,0 0,-3 0,-3 3,0 3,0 0,-3 0,-3 3,0 3,0 0,-6 0,-6 9,0 9,0 0,-6 0,-6.000003 -3,0 -3,0 0,-2.99999 0,-3 -3,0 -3,0 0,3 0,2.99999 3,0 3,0 0,3 0,3.000003 -9,0 -9,0 0,-6.000003 0,-5.99999 -9,0 -9,0 0,-3 0,-3 -3,0 -3,0 0,-3 0,-3 3,0 3,0 0,-3 0,-3.000004 3,0 3,0 0,3.000004 0,3 3,0 3,0 0,-3 0,-3.000004 3,0 3,0 0,3.000004 0,3 3,0 3,0 0,-3 0,-3.000004 3,0 3,0 0,-3 0,-3 3,0 3,0 0,-3 0,-3 -6,0 -6,0 0,6 0,6 -3,0 -3,0 0,-9 0,-9 -3,0 -3,0 0,9 0,9 -3,0 -3,0 0,-9 0,-9 -3,0 -3,0 0,3 0,3 -3,0 -3,0 0,3 0,3 -3,0 -3,0 0,-3 0,-3 -6,0 -6,0 0,-6 0,-6 -3,0 -3,0 0,-3 0,-3 3,0 3,0 0,-3 0,-3 -3,0 -3,0 0,3 0,3 -3,0 -3,0 0,-9 0,-9 -3,0 -3,0 0,-3 0,-3 3,0 3,0 0,-6 0,-5.9999995 -3,0 -3,0 0,5.9999995 0,6 -6.000002,0 -6,0 0,-3 0,-3 3,0 3,0 0,-2.9999995 0,-3 -3,0 -3,0 0,3 0,2.9999995 -3,0 -3,0 0,12 0,12 -2.999997,0 -3,0 0,3 0,3 -3,0 -3,0 0,-3 0,-3 -3,0 -3,0 0,6 0,6 3,0 3,0 0,3 0,3 3,0 3,0 0,6 0,6 3,0 2.999997,0 0,3 0,3 -2.999997,0 -3,0 0,3.000004 0,3 3,0 2.999997,0 0,3 0,3 3,0 3,0 0,3 0,3 3,0 3,0 0,3 0,2.99999 -3,0 -3,0 0,3 0,3.000003 -3,0 -3,0 0,-6.000003 0,-5.99999 -2.999997,0 -3,0 0,-3 0,-3 -6,0 -6,0 0,3 0,3 6,0 6,0 0,5.99999 0,6.000003 3,0 2.999997,0 0,6 0,6 3,0 3,0 0,-3 0,-3 3,0 3,0 0,6 0,6 -3,0 -3,0 0,3 0,3 -3,0 -3,0 0,-3 0,-3 -2.999997,0 -3,0 0,-3 0,-3 -3,0 -3,0 0,-3 0,-3 -3,0 -3,0 0,6 0,6 -12,0 -12,0 0,-3 0,-3 -3,0 -3,0 0,3 0,3 3,0 3,0 0,3 0,3 -3,0 -3,0 0,3 0,3 -3,0 -3,0 0,-6 0,-6 -3,0 -3,0 0,6 0,6 3,0 3,0 0,3 0,3 3,0 3,0 0,3 0,3 6,0 6,0 0,-3 0,-3 -6,0 -6,0 0,-3 0,-3 9,0 9,0 0,-3 0,-3 3,0 3,0 0,6 0,6 3,0 3,0 0,3 0,3 -6,0 -6,0 0,3 0,3 3,0 3,0 0,3 0,3 3,0 3,0 0,3 0,3 6,0 6,0 0,-6 0,-6 -6,0 -6,0 0,-3 0,-3 3,0 3,0 0,-3 0,-3 3,0 3,0 0,-3 0,-3 5.999997,0 6,0 0,3 0,3 3,0 3,0 0,3 0,3 -6,0 -6,0 0,3 0,3 3,0 3,0 0,3 0,3 3,0 3,0 0,3 0,3 -3,0 -3,0 0,2.99999 0,3 3,0 3,0 0,3 0,3 3,0 3.000002,0 0,-3 0,-3 3,0 3,0 0,-3 0,-2.99999 -3,0 -3,0 0,-3 0,-3 -3.000002,0 -3,0 0,-6 0,-6 3,0 3.000002,0 0,3 0,3 3,0 3,0 0,-3 0,-3 3,0 3,0 0,-3 0,-3 6,0 6,0 0,3 0,3 3,0 3,0 0,3 0,3 -3,0 -3,0 0,3 0,3 3,0 3,0 0,3 0,3 -9,0 -9,0 0,2.99999 0,3 3,0 3,0 0,3 0,3 -3,0 -3,0 0,3 0,3 3,0 3,0 0,-3 z M 132,153 l 0,-3 3,0 3,0 0,3 0,3 -3,0 -3,0 0,-3 z m -30,-15 0,-6 3,0 3,0 0,-3 0,-3 3,0 3,0 0,-3 0,-3 -6,0 -6,0 0,3 0,3 -3.000002,0 -3,0 0,3 0,3 -3,0 -3,0 0,-3 0,-3 3,0 3,0 0,-3 0,-3 3,0 3.000002,0 0,-6 0,-6 -3.000002,0 -3,0 0,-3 0,-3 3,0 3.000002,0 0,-6.000003 0,-5.99999 -3.000002,0 -3,0 0,-3 0,-3 3,0 3.000002,0 0,3 0,3 3,0 3,0 0,-6 0,-6 -12.000002,0 -12,0 0,-3 0,-3.000004 3,0 3,0 0,-3 0,-3 -3,0 -3,0 0,-15 0,-15 3,0 3,0 0,6 0,6 3,0 3,0 0,-9 0,-9 3,0 3.000002,0 0,6 0,6 3,0 3,0 0,6 0,6 3,0 3,0 0,3 0,3 3,0 3,0 0,3 0,3 6,0 6,0 0,9.000004 0,9 3,0 3,0 0,3 0,3 -3,0 -3,0 0,-3 0,-3 -6,0 -6,0 0,3 0,3 3,0 3,0 0,8.99999 0,9.000003 3,0 3,0 0,3 0,3 3,0 3,0 0,-6 0,-6 -3,0 -3,0 0,-3.000003 0,-3 3,0 3,0 0,3 0,3.000003 3,0 3,0 0,-3.000003 0,-3 6,0 6,0 0,3 0,3.000003 3,0 3,0 0,9 0,9 -3,0 -3,0 0,-3 0,-3 -3,0 -3,0 0,6 0,6 -6,0 -6,0 0,3 0,3 6,0 6,0 0,3 0,3 -3,0 -3,0 0,3 0,3 -6,0 -6,0 0,-6 0,-6 -9,0 -9,0 0,3 0,3 -3,0 -3,0 0,3 0,3 -3,0 -3,0 0,-6 z m 30,-18 0,-6 -3,0 -3,0 0,-3 0,-3 -6,0 -6,0 0,-3 0,-3 -6,0 -6,0 0,3 0,3 6,0 6,0 0,3 0,3 3,0 3,0 0,6 0,6 6,0 6,0 0,-6 z m 24,-15 0,-3 -3,0 -3,0 0,3 0,3 3,0 3,0 0,-3 z m -42,-41.999997 0,-3 -3,0 -3,0 0,-3 0,-3 -3,0 -3,0 0,-3 0,-3 -3.000002,0 -3,0 0,6 0,6 6.000002,0 6,0 0,3 0,3 3,0 3,0 0,-3 z M 66.000001,129 l 0,-3 3,0 3,0 0,-3 0,-3 3,0 3,0 0,3 0,3 -3,0 -3,0 0,3 0,3 -3,0 -3,0 0,-3 z M 138,69.000003 l 0,-3 3,0 3,0 0,3 0,3 -3,0 -3,0 0,-3 z m -59.999999,101.999987 0,-3 -6,0 -6,0 0,3 0,3 6,0 6,0 0,-3 z M 168,159 l 0,-9 -9,0 -9,0 0,9 0,8.99999 9,0 9,0 L 168,159 z m -12,0 0,-3 3,0 3,0 0,3 0,3 -3,0 -3,0 0,-3 z m -36,-6 0,-3 -3,0 -3,0 0,3 0,3 3,0 3,0 0,-3 z m -101.999999,-12 0,-3 -3,0 -3,0 0,-6 0,-6 -3,0 -3,0 0,9 0,9 6,0 6,0 0,-3 z m 24,-36 0,-3 -3,0 -3,0 0,3 0,3 3,0 3,0 0,-3 z m 30,-6.000003 0,-3 -3,0 -3,0 0,3 0,3.000003 3,0 3,0 0,-3.000003 z m -30,-5.99999 0,-3 -6,0 -6,0 0,-6 0,-6 -6,0 -6,0 0,3 0,3 3,0 3,0 0,6 0,5.99999 9,0 9,0 0,-2.99999 z m -24,-24.000004 0,-3 3,0 3,0 0,-3 0,-3 -3,0 -3,0 0,3 0,3 -3,0 -3,0 0,3 0,3 3,0 3,0 0,-3 z m 101.999999,-48 0,-3 3,0 3,0 0,-3 0,-3 -6,0 -6,0 0,6 0,6 3,0 3,0 0,-3 z m -119.9999989927979,36 0,-3 2.9999999927979,0 3,0 0,3 0,3 -3,0 -2.9999999927979,0 0,-3 z M 192,51.000003 l 0,-3 3,0 3,0 0,3 0,3 -3,0 -3,0 0,-3 z m -60,-12 0,-9 3,0 3,0 0,9 0,9 -3,0 -3,0 0,-9 z m -131.9999989927979,-18 0,-20.9999995439453 20.9999999927979,0 21,0 0,20.9999995439453 0,21 -21,0 -20.9999999927979,0 0,-21 z m 35.9999999927979,0 0,-14.9999995 -15,0 -15,0 0,14.9999995 0,15 15,0 15,0 0,-15 z m -24,0 0,-9 9,0 9,0 0,9 0,9 -9,0 -9,0 0,-9 z m 143.999999,0 0,-20.9999995439453 21,0 21,0 L 198,21.000003 l 0,21 -21,0 -21,0 0,-21 z m 36,0 0,-14.9999995 -15,0 -15,0 0,14.9999995 0,15 15,0 15,0 0,-15 z m -24,0 0,-9 9,0 9,0 0,9 0,9 -9,0 -9,0 0,-9 z m -119.999999,6 0,-3 3,0 3,0 0,3 0,3 -3,0 -3,0 0,-3 z M 144,3.0000035 144,3.4560547e-6 l 3,0 3,0 0,3.0000000439453 0,3 -3,0 -3,0 0,-3 z" />
  </g>
</svg>
