<?xml version="1.0" encoding="UTF-8" standalone="no"?>
<!-- Created with Inkscape (http://www.inkscape.org/) -->

<svg
   xmlns:dc="http://purl.org/dc/elements/1.1/"
   xmlns:cc="http://creativecommons.org/ns#"
   xmlns:rdf="http://www.w3.org/1999/02/22-rdf-syntax-ns#"
   xmlns:svg="http://www.w3.org/2000/svg"
   xmlns="http://www.w3.org/2000/svg"
   xmlns:sodipodi="http://sodipodi.sourceforge.net/DTD/sodipodi-0.dtd"
   xmlns:inkscape="http://www.inkscape.org/namespaces/inkscape"
   version="1.1"
   width="524.40942"
   height="744.09448"
   id="svg5571"
   inkscape:version="0.48.1 r9760"
   sodipodi:docname="flyer_b_front.svg">
  <sodipodi:namedview
     pagecolor="#ffffff"
     bordercolor="#666666"
     borderopacity="1"
     objecttolerance="10"
     gridtolerance="10"
     guidetolerance="10"
     inkscape:pageopacity="0"
     inkscape:pageshadow="2"
     inkscape:window-width="764"
     inkscape:window-height="446"
     id="namedview273"
     showgrid="false"
     inkscape:zoom="0.33958033"
     inkscape:cx="266.50792"
     inkscape:cy="551.80239"
     inkscape:window-x="670"
     inkscape:window-y="391"
     inkscape:window-maximized="0"
     inkscape:current-layer="svg5571"
     units="mm"
     fit-margin-top="0"
     fit-margin-left="0"
     fit-margin-right="0"
     fit-margin-bottom="0" />
  <defs
     id="defs5573">
    <filter
       x="-1.0902449"
       y="-1.1361499"
       width="3.18049"
       height="3.2722998"
       color-interpolation-filters="sRGB"
       id="filter4561-3">
      <feGaussianBlur
         id="feGaussianBlur4563-7"
         stdDeviation="15.900216" />
    </filter>
    <filter
       x="-1.0902449"
       y="-1.1361499"
       width="3.18049"
       height="3.2722998"
       color-interpolation-filters="sRGB"
       id="filter4561-3-0">
      <feGaussianBlur
         id="feGaussianBlur4563-7-7"
         stdDeviation="15.900216" />
    </filter>
    <filter
       x="-1.0902449"
       y="-1.1361499"
       width="3.18049"
       height="3.2722998"
       color-interpolation-filters="sRGB"
       id="filter6471">
      <feGaussianBlur
         id="feGaussianBlur6473"
         stdDeviation="15.900216" />
    </filter>
    <filter
       x="-1.0902449"
       y="-1.1361499"
       width="3.18049"
       height="3.2722998"
       color-interpolation-filters="sRGB"
       id="filter6475">
      <feGaussianBlur
         id="feGaussianBlur6477"
         stdDeviation="15.900216" />
    </filter>
    <filter
       x="-1.0902449"
       y="-1.1361499"
       width="3.18049"
       height="3.2722998"
       color-interpolation-filters="sRGB"
       id="filter6479">
      <feGaussianBlur
         id="feGaussianBlur6481"
         stdDeviation="15.900216" />
    </filter>
    <filter
       x="-1.0902449"
       y="-1.1361499"
       width="3.18049"
       height="3.2722998"
       color-interpolation-filters="sRGB"
       id="filter6483">
      <feGaussianBlur
         id="feGaussianBlur6485"
         stdDeviation="15.900216" />
    </filter>
    <filter
       x="-1.0902449"
       y="-1.1361499"
       width="3.18049"
       height="3.2722998"
       color-interpolation-filters="sRGB"
       id="filter6487">
      <feGaussianBlur
         id="feGaussianBlur6489"
         stdDeviation="15.900216" />
    </filter>
    <filter
       x="-1.0902449"
       y="-1.1361499"
       width="3.18049"
       height="3.2722998"
       color-interpolation-filters="sRGB"
       id="filter6491">
      <feGaussianBlur
         id="feGaussianBlur6493"
         stdDeviation="15.900216" />
    </filter>
    <filter
       x="-1.0902449"
       y="-1.1361499"
       width="3.18049"
       height="3.2722998"
       color-interpolation-filters="sRGB"
       id="filter6495">
      <feGaussianBlur
         id="feGaussianBlur6497"
         stdDeviation="15.900216" />
    </filter>
    <filter
       x="-1.0902449"
       y="-1.1361499"
       width="3.18049"
       height="3.2722998"
       color-interpolation-filters="sRGB"
       id="filter6499">
      <feGaussianBlur
         id="feGaussianBlur6501"
         stdDeviation="15.900216" />
    </filter>
    <filter
       x="-1.0902449"
       y="-1.1361499"
       width="3.18049"
       height="3.2722998"
       color-interpolation-filters="sRGB"
       id="filter6503">
      <feGaussianBlur
         id="feGaussianBlur6505"
         stdDeviation="15.900216" />
    </filter>
    <filter
       x="-1.0902449"
       y="-1.1361499"
       width="3.18049"
       height="3.2722998"
       color-interpolation-filters="sRGB"
       id="filter6507">
      <feGaussianBlur
         id="feGaussianBlur6509"
         stdDeviation="15.900216" />
    </filter>
    <filter
       x="-1.0902449"
       y="-1.1361499"
       width="3.18049"
       height="3.2722998"
       color-interpolation-filters="sRGB"
       id="filter6511">
      <feGaussianBlur
         id="feGaussianBlur6513"
         stdDeviation="15.900216" />
    </filter>
    <filter
       x="-1.0902449"
       y="-1.1361499"
       width="3.18049"
       height="3.2722998"
       color-interpolation-filters="sRGB"
       id="filter6515">
      <feGaussianBlur
         id="feGaussianBlur6517"
         stdDeviation="15.900216" />
    </filter>
    <filter
       x="-1.0902449"
       y="-1.1361499"
       width="3.18049"
       height="3.2722998"
       color-interpolation-filters="sRGB"
       id="filter6519">
      <feGaussianBlur
         id="feGaussianBlur6521"
         stdDeviation="15.900216" />
    </filter>
    <filter
       x="-1.0902449"
       y="-1.1361499"
       width="3.18049"
       height="3.2722998"
       color-interpolation-filters="sRGB"
       id="filter6523">
      <feGaussianBlur
         id="feGaussianBlur6525"
         stdDeviation="15.900216" />
    </filter>
    <filter
       x="-1.0902449"
       y="-1.1361499"
       width="3.18049"
       height="3.2722998"
       color-interpolation-filters="sRGB"
       id="filter6527">
      <feGaussianBlur
         id="feGaussianBlur6529"
         stdDeviation="15.900216" />
    </filter>
  </defs>
  <metadata
     id="metadata5576">
    <rdf:RDF>
      <cc:Work
         rdf:about="">
        <dc:format>image/svg+xml</dc:format>
        <dc:type
           rdf:resource="http://purl.org/dc/dcmitype/StillImage" />
        <dc:title />
      </cc:Work>
    </rdf:RDF>
  </metadata>
  <g
     id="g3521">
    <text
       x="-2625.7046"
       y="234.28581"
       id="text6278"
       xml:space="preserve"
       style="font-size:21.87708473px;font-style:normal;font-variant:normal;font-weight:bold;font-stretch:normal;text-align:center;line-height:125%;letter-spacing:0px;word-spacing:0px;writing-mode:lr-tb;text-anchor:middle;fill:#ffffff;fill-opacity:1;stroke:none;font-family:Sawasdee;-inkscape-font-specification:Sawasdee Bold"
       sodipodi:linespacing="125%" />
    <text
       sodipodi:linespacing="125%"
       style="font-size:21.87708473px;font-style:normal;font-variant:normal;font-weight:bold;font-stretch:normal;text-align:start;line-height:125%;letter-spacing:0px;word-spacing:0px;writing-mode:lr-tb;text-anchor:start;fill:#ffffff;fill-opacity:1;stroke:none;font-family:Sawasdee;-inkscape-font-specification:Sawasdee Bold"
       xml:space="preserve"
       id="text3724"
       y="408.65717"
       x="-2115.8948" />
    <text
       sodipodi:linespacing="125%"
       id="text3736"
       y="414.23749"
       x="-2036.4518"
       style="font-size:13.8317709px;font-style:normal;font-weight:normal;line-height:125%;letter-spacing:0px;word-spacing:0px;fill:#000000;fill-opacity:1;stroke:none;font-family:Sans"
       xml:space="preserve"><tspan
         id="tspan3738"
         sodipodi:role="line"
         x="-2036.4518"
         y="414.23749" /></text>
    <text
       sodipodi:linespacing="125%"
       id="text4638"
       y="388.25775"
       x="-1998.1713"
       style="font-size:13.8317709px;font-style:normal;font-weight:normal;line-height:125%;letter-spacing:0px;word-spacing:0px;fill:#000000;fill-opacity:1;stroke:none;font-family:Sans"
       xml:space="preserve"><tspan
         y="388.25775"
         x="-1998.1713"
         id="tspan4640"
         sodipodi:role="line" /></text>
    <text
       x="71.990723"
       y="368.10358"
       id="text5511"
       xml:space="preserve"
       style="font-size:21.87708473px;font-style:normal;font-variant:normal;font-weight:bold;font-stretch:normal;text-align:center;line-height:125%;letter-spacing:0px;word-spacing:0px;writing-mode:lr-tb;text-anchor:middle;fill:#ffffff;fill-opacity:1;stroke:none;font-family:Sawasdee;-inkscape-font-specification:Sawasdee Bold"
       sodipodi:linespacing="125%"><tspan
         x="71.990723"
         y="368.10358"
         id="tspan5513"
         style="font-weight:normal;text-align:center;text-anchor:middle;-inkscape-font-specification:Sawasdee" /><tspan
         x="71.990723"
         y="395.45013"
         id="tspan5515"
         style="font-size:22.13083267px;font-weight:normal;text-align:start;text-anchor:start;-inkscape-font-specification:Sawasdee" /><tspan
         x="71.990723"
         y="423.01837"
         id="tspan5517"
         style="font-size:22.13083267px;font-weight:normal;text-align:start;text-anchor:start;-inkscape-font-specification:Sawasdee">su un sito web fatto da noi, comunicaci</tspan><tspan
         x="71.990723"
         y="455.36957"
         id="tspan5519"
         style="font-size:22.13083267px;font-weight:normal;text-align:start;text-anchor:start;-inkscape-font-specification:Sawasdee">vie email il <tspan
   id="tspan5521"
   style="font-size:27.66354179px;font-weight:bold;text-align:start;text-anchor:start;-inkscape-font-specification:Sawasdee Bold">codice</tspan> presente sul retro.</tspan></text>
    <path
       d="M 1.0856445e-4,0 524.40944,0 l 0,744.0945 -524.40933143555,0 z"
       id="path5523"
       style="fill:#238cb8;fill-opacity:1;fill-rule:nonzero;stroke:none"
       inkscape:connector-curvature="0" />
    <path
       d="m 1.0856445e-4,0 0,655.462 C 17.003649,643.9479 43.696199,644.2601 62.989579,663.694 c 8.93173,8.9967 35.32164,5.0345 49.106391,5.0345 78.07744,0 128.89841,7.57 146.69948,75.366 l 182.1813,0 c -0.36433,-3.3545 -0.55507,-6.7585 -0.55507,-10.2027 0,-47.8068 35.9568,-87.7716 83.98776,-97.5924 l 0,-636.2994 z"
       id="path5525"
       style="fill:#175b6f;fill-opacity:1;fill-rule:nonzero;stroke:none"
       inkscape:connector-curvature="0" />
    <path
       sodipodi:nodetypes="csszssssc"
       d="m 95.764789,166.1123 c 0,0 -45.97404,110.2369 -32.53108,174.7652 8.34609,40.063 -8.50585,64.8462 -6.55418,107.9663 1.97573,43.6567 10.64451,189.3176 28.12648,188.977 17.481971,-0.3407 47.736361,-93.8675 89.439151,-92.339 36.12623,1.3243 76.29134,-38.2945 94.86091,-57.2466 35.33312,-36.0614 129.09953,-13.6315 142.59795,-62.0698 8.39146,-30.1125 35.84047,-48.2964 44.04562,-76.577 18.23912,-62.8658 6.53081,-145.4675 8.39893,-196.1949"
       id="path5527"
       style="fill:none;stroke:#0d333f;stroke-width:2.94063449;stroke-linecap:butt;stroke-linejoin:miter;stroke-miterlimit:4;stroke-opacity:1;stroke-dasharray:5.88126903, 5.88126903;stroke-dashoffset:0"
       inkscape:connector-curvature="0" />
    <g
       transform="matrix(1.3831771,0,0,1.3831771,2768.9857,1031.7609)"
       id="g5529"
       style="fill:#98d7ea;fill-opacity:1">
      <path
         d="m -1916.3996,-641.4472 c -3.5244,-3.603 -9.1414,-7.1891 -15.4232,-9.8437 -6.3186,-2.6704 -12.8392,-4.202 -17.8916,-4.202 -4.6347,0 -7.7257,1.2747 -8.7037,3.5891 -1.386,3.2784 1.6827,8.0147 7.9325,12.5304 -10.4264,-5.0633 -17.344,-11.5041 -15.8342,-15.0762 0.6504,-1.5395 2.9424,-2.3875 6.4535,-2.3875 2.3131,0 5.1394,0.3729 8.1724,1.0783 0.1614,0.037 0.3192,-0.061 0.3609,-0.2176 0.042,-0.1584 -0.05,-0.3204 -0.2073,-0.3663 -5.0023,-1.467 -9.5959,-2.2418 -13.2841,-2.2418 -4.3779,0 -7.151,1.0867 -8.0201,3.1424 -1.901,4.4963 6.1028,12.2396 19.0345,18.4205 3.4839,3.8266 9.3173,7.6423 16.0179,10.4735 6.3181,2.6703 12.8392,4.2025 17.8916,4.2025 4.6348,0 7.7258,-1.2747 8.7038,-3.5896 1.5074,-3.5656 -2.2322,-8.8096 -9.4665,-13.5966 5.4337,2.4334 10.2154,5.348 13.5856,8.2915 3.5371,3.0892 5.1189,5.9185 4.3398,7.7608 -0.6503,1.5395 -2.9423,2.3875 -6.4534,2.3875 -2.3132,0 -5.1395,-0.3729 -8.1725,-1.0783 -0.1602,-0.037 -0.3185,0.061 -0.3608,0.2176 -0.042,0.1584 0.05,0.3204 0.2073,0.3663 5.0022,1.4669 9.5959,2.2424 13.2841,2.2424 4.3772,0 7.1503,-1.0867 8.0201,-3.143 1.9541,-4.6239 -6.7218,-12.7709 -20.1866,-18.9602 z m -3.6157,8.3326 c 0.2369,-0.5615 0.3222,-1.1799 0.2557,-1.8484 1.5074,2.0291 2.0157,3.8672 1.4294,5.2531 -0.7561,1.7897 -3.2596,2.7761 -7.0482,2.7761 -4.3192,0 -9.9101,-1.3158 -15.3379,-3.6102 -2.9182,-1.2336 -5.655,-2.6855 -8.0461,-4.2618 7.6611,3.082 15.1457,4.8336 20.7258,4.8336 4.3784,0 7.1521,-1.0856 8.0213,-3.1424 z m -29.0257,-11.6999 c -0.3597,0.8498 -0.3724,1.8199 -0.041,2.8958 -2.1095,-2.4104 -2.8892,-4.5821 -2.2008,-6.2111 0.7562,-1.7897 3.2597,-2.7755 7.0483,-2.7755 4.3198,0 9.9101,1.3158 15.3379,3.6096 2.4068,1.0179 4.7139,2.1965 6.7973,3.4694 -7.0216,-2.6419 -13.7966,-4.1318 -18.9209,-4.1318 -4.3779,0 -7.1516,1.0874 -8.0207,3.1436 z"
         id="path5531"
         style="fill:#98d7ea;fill-opacity:1"
         inkscape:connector-curvature="0" />
      <path
         d="m -1966.5809,-604.8831 c 2.8372,0.1288 6.5411,-0.6479 10.2281,-2.1451 4.176,-1.6948 7.5028,-3.9499 9.2876,-6.0974 0.01,0.029 0.018,0.057 0.034,0.084 0.082,0.1408 0.2617,0.1916 0.4061,0.113 5.6943,-3.1116 8.8017,-6.5344 7.9144,-8.7188 -0.4932,-1.2174 -2.1113,-1.8605 -4.677,-1.8605 -2.8789,0 -6.6209,0.7979 -10.5412,2.2467 l -0.1354,-6e-4 c -2.7731,0 -6.1881,0.767 -9.6177,2.1584 -3.3249,1.3491 -6.2509,3.1243 -8.2383,4.998 -0.3173,0.2992 -0.6056,0.5959 -0.8637,0.8897 0,-0.042 -0.017,-0.085 -0.04,-0.1233 -0.083,-0.1414 -0.2635,-0.1928 -0.4062,-0.113 -5.6943,3.1122 -8.8004,6.535 -7.9137,8.7188 0.4932,1.2179 2.1106,1.861 4.6764,1.861 2.7,0 6.2093,-0.7138 9.8866,-2.0109 z m -1.3122,-4.9206 c 0.1378,0.3391 0.3627,0.634 0.6727,0.8824 -1.3533,-0.1837 -2.2611,-0.6709 -2.5567,-1.3992 -0.3947,-0.9731 0.2877,-2.3881 1.8725,-3.8822 1.6785,-1.5824 4.1609,-3.0856 6.9896,-4.234 0.8057,-0.327 1.6205,-0.6159 2.4262,-0.8619 -6.3749,3.1593 -10.3804,7.0893 -9.4043,9.4949 z m 13.0073,-1.3944 c 2.4491,-2.078 3.4875,-3.9886 2.923,-5.3782 -0.079,-0.1958 -0.1886,-0.3778 -0.3282,-0.544 1.0692,0.2285 1.7764,0.6788 2.0326,1.3104 0.8535,2.1028 -3.2046,5.82 -8.8608,8.1162 -1.0953,0.4437 -2.1977,0.816 -3.2742,1.1061 2.9744,-1.3811 5.5885,-2.9828 7.5076,-4.6105 z m 9.0809,-6.0098 c -0.5519,-1.3594 -2.3416,-2.1083 -5.0391,-2.1083 -0.7695,0 -1.5994,0.061 -2.4709,0.1801 2.9363,-0.9918 5.7342,-1.5437 7.9119,-1.5437 1.9535,0 3.2125,0.4491 3.5437,1.2657 0.541,1.3316 -1.3527,3.6012 -4.8372,5.817 0.9617,-1.3164 1.3128,-2.5724 0.8916,-3.6108 z m -28.425,8.2836 c 0.5512,1.36 2.3409,2.1089 5.0385,2.1089 0.4896,0 1.007,-0.025 1.5455,-0.075 -2.5289,0.7682 -4.9061,1.1901 -6.807,1.1901 -1.9535,0 -3.2119,-0.4491 -3.5432,-1.2656 -0.5415,-1.3352 1.3636,-3.6139 4.8644,-5.8352 -1.1484,1.4494 -1.5382,2.7943 -1.0982,3.8768 z"
         id="path5533"
         style="fill:#98d7ea;fill-opacity:1"
         inkscape:connector-curvature="0" />
      <path
         d="m -1913.6731,-605.1031 -4.4165,0.9091 -3.5057,-2.8916 c -0.556,-0.4582 -1.0728,-0.2496 -1.155,0.466 l -0.5168,4.5151 -3.8103,2.4104 c -0.6087,0.385 -0.5615,0.9169 0.1064,1.1883 l 4.2291,1.7172 1.0336,4.5809 c 0.159,0.703 0.6987,0.8583 1.2064,0.347 l 3.114,-3.1352 4.4178,0.095 c 0.7199,0.016 0.9804,-0.4575 0.5808,-1.0571 l -2.6304,-3.9475 2.0593,-4.2854 c 0.3125,-0.6492 -0.01,-1.0578 -0.7127,-0.9127 z"
         id="path5535"
         style="fill:#98d7ea;fill-opacity:1"
         inkscape:connector-curvature="0" />
      <path
         d="m -1925.8612,-616.5112 -2.02,0.4159 -1.603,-1.3225 c -0.2544,-0.2097 -0.4908,-0.1142 -0.5282,0.2134 l -0.2364,2.0647 -1.7425,1.1025 c -0.2781,0.1758 -0.2563,0.4194 0.049,0.5433 l 1.9342,0.7852 0.4727,2.0949 c 0.072,0.3216 0.3197,0.3923 0.5518,0.159 l 1.424,-1.4337 2.0206,0.043 c 0.3294,0.01 0.4485,-0.2091 0.2654,-0.4835 l -1.2028,-1.8055 0.9417,-1.9595 c 0.142,-0.2968 0,-0.4842 -0.3264,-0.4177 z"
         id="path5537"
         style="fill:#98d7ea;fill-opacity:1"
         inkscape:connector-curvature="0" />
      <path
         d="m -1975.1075,-627.7624 2.3155,-0.01 1.6012,1.6719 c 0.2611,0.2726 0.5325,0.1934 0.6068,-0.1765 l 0.4884,-2.4371 2.3506,-0.825 c 0.356,-0.1251 0.3898,-0.3947 0.074,-0.602 l -1.9728,-1.2995 -0.2273,-2.37 c -0.036,-0.3759 -0.3052,-0.4902 -0.6008,-0.2551 l -1.864,1.4809 -2.3041,-0.5186 c -0.3681,-0.083 -0.5476,0.1317 -0.4013,0.4793 l 0.9308,2.2031 -1.314,2.0799 c -0.2037,0.3203 -0.061,0.5778 0.3167,0.5766 z"
         id="path5539"
         style="fill:#98d7ea;fill-opacity:1"
         inkscape:connector-curvature="0" />
    </g>
    <g
       transform="matrix(1.1999856,0,0,1.1999856,417.72776,107.9425)"
       id="g5541"
       style="fill:#98d7ea;fill-opacity:1">
      <path
         d="m 46.36,19.436 c 0.005,0.361 -0.003,0.715 -0.028,1.061 -0.026,0.356 -0.068,0.704 -0.127,1.044 -0.3,1.727 -1.019,3.244 -2.16,4.526 -3.212,3.609 -8.876,4.373 -13.066,4.373 -2.38,0 -4.516,-0.242 -5.589,-0.497 -2.274,-0.54 -6.186,-3.017 -7.817,-6.901 -0.205,-0.489 -0.349,-0.981 -0.466,-1.475 -0.08,-0.339 -0.14,-0.679 -0.179,-1.019 -0.04,-0.352 -0.059,-0.704 -0.055,-1.057 -10.262,3.308 -15.236,9.18 -15.519,9.523 -0.321,0.388 -0.303,0.954 0.042,1.321 0.268,0.285 6.312,6.653 15.694,10.924 l -2.977,1.898 c -0.343,0.218 -0.519,0.623 -0.446,1.022 l 1.231,6.729 c 0.083,0.449 0.458,0.786 0.914,0.817 0.023,0.002 0.047,0.003 0.071,0.003 0.427,0 0.812,-0.273 0.948,-0.684 l 1.476,-4.428 4.672,-3.156 c 6.625,1.946 13.145,2.034 19.443,0.282 l 4.255,2.874 1.476,4.428 c 0.145,0.433 0.562,0.719 1.019,0.681 0.456,-0.031 0.831,-0.368 0.914,-0.817 l 1.231,-6.729 C 51.39,43.78 51.213,43.374 50.871,43.157 L 48.319,41.53 C 57.367,37.248 62.564,30.558 62.794,30.259 63.088,29.876 63.066,29.338 62.742,28.98 62.43,28.637 56.963,22.726 46.36,19.436 z m 6.377,8.588 c 1.485,-0.37 2.892,0.147 3.143,1.155 0.251,1.008 -0.749,2.125 -2.234,2.495 -1.485,0.37 -2.892,-0.147 -3.143,-1.155 -0.251,-1.008 0.749,-2.125 2.234,-2.495 z m -10.292,3.167 c 1.485,-0.37 2.892,0.147 3.144,1.155 0.251,1.008 -0.749,2.125 -2.234,2.495 -1.485,0.37 -2.892,-0.147 -3.144,-1.155 -0.252,-1.008 0.749,-2.125 2.234,-2.495 z m -11.261,1.535 c 1.525,0.131 2.689,1.075 2.601,2.11 -0.089,1.035 -1.397,1.768 -2.921,1.637 -1.524,-0.131 -2.689,-1.075 -2.601,-2.11 0.088,-1.035 1.396,-1.768 2.921,-1.637 z M 7.148,28.651 c 0.449,-0.937 1.931,-1.16 3.312,-0.498 1.38,0.661 2.135,1.957 1.686,2.893 -0.449,0.937 -1.931,1.16 -3.312,0.498 -1.38,-0.661 -2.135,-1.956 -1.686,-2.893 z m 12.641,2.597 c 1.438,0.523 2.317,1.737 1.962,2.714 -0.355,0.977 -1.808,1.344 -3.247,0.821 -1.438,-0.523 -2.317,-1.737 -1.962,-2.714 0.355,-0.977 1.809,-1.343 3.247,-0.821 z"
         id="path5543"
         style="fill:#98d7ea;fill-opacity:1"
         inkscape:connector-curvature="0" />
      <path
         d="m 31.617,9 h -0.068 c -0.757,0 -7.679,0.075 -11.511,6.431 -0.735,1.22 -1.106,2.386 -1.209,3.484 -0.034,0.36 -0.038,0.713 -0.016,1.057 0.022,0.349 0.07,0.688 0.142,1.02 0.835,3.858 4.832,6.52 6.873,7.005 0.83,0.197 2.79,0.487 5.14,0.487 5.261,0 12.458,-1.274 13.3,-7.524 0.045,-0.335 0.087,-0.673 0.094,-1.038 C 44.369,19.585 44.337,19.22 44.31,18.858 44.298,18.698 44.305,18.551 44.285,18.386 44.285,18.385 42.602,9 31.617,9 z m -4.542,17 c -0.003,0 -0.007,0 -0.01,0 -0.018,0 -0.036,0.046 -0.054,0.044 -0.161,-0.018 -3.953,-0.436 -5.595,-3.152 -0.429,-0.709 -0.658,-1.503 -0.709,-2.369 -0.02,-0.335 -0.021,-0.678 0.016,-1.036 0.036,-0.35 0.108,-0.714 0.198,-1.085 0.111,-0.457 0.252,-0.926 0.445,-1.415 0.087,-0.215 2.155,-5.142 8.04,-5.556 0.196,-0.011 0.376,0.089 0.47,0.256 0.095,0.168 0.084,0.377 -0.026,0.536 -0.024,0.033 -1.401,2.051 -2.191,5.198 -0.083,0.33 -0.157,0.672 -0.225,1.026 -0.064,0.335 -0.119,0.679 -0.165,1.034 -0.229,1.758 -0.227,3.743 0.254,5.87 0.04,0.072 0.063,0.109 0.063,0.197 C 27.584,25.827 27.34,26 27.075,26 z"
         id="path5545"
         style="fill:#98d7ea;fill-opacity:1"
         inkscape:connector-curvature="0" />
    </g>
    <g
       transform="matrix(0.33654103,0,0,0.33654103,123.3816,46.3905)"
       id="g5755">
      <g
         transform="translate(2.250338e-4,-847.36239)"
         id="g5757"
         style="display:inline">
        <path
           d="m 653.92291,947.90851 c -0.4578,14.46175 -4.1709,28.09581 -10.4207,40.21074 14.08047,27.28595 41.15379,47.18505 73.96875,50.68745 51.88706,5.538 98.43077,-32.0192 103.96875,-83.9062 5.53798,-51.88706 -32.01919,-98.43077 -83.90625,-103.96875 -3.24294,-0.34612 -6.4637,-0.54615 -9.65625,-0.5625 l 0,0 0,0 c -36.1085,-0.18489 -68.4296,20.28966 -84.375,51.21875 5.7958,11.22679 9.40336,23.76404 10.267,37.05249"
           id="path5759"
           style="fill:none;stroke:#29ace2;stroke-width:3.03299999;stroke-linecap:round;stroke-linejoin:miter;stroke-miterlimit:0;stroke-opacity:1;stroke-dasharray:3.03299999, 6.06599998;stroke-dashoffset:3.63959999"
           inkscape:connector-curvature="0" />
      </g>
      <g
         transform="translate(2.250338e-4,-847.36239)"
         id="g5761"
         style="display:inline">
        <path
           d="m 559.50179,850.4005 c -34.63469,0 -64.92553,18.61519 -81.375,46.40625 8.48509,14.02752 13.375,30.4688 13.375,48.0625 0,17.59369 -4.88991,34.03498 -13.375,48.0625 16.44947,27.79105 46.74031,46.40615 81.375,46.40615 52.18176,0 94.46875,-42.28689 94.46875,-94.46865 0,-52.18176 -42.28699,-94.46875 -94.46875,-94.46875 z"
           id="path5763"
           style="fill:none;stroke:#29ace2;stroke-width:3.03313303;stroke-linecap:round;stroke-linejoin:bevel;stroke-miterlimit:0;stroke-opacity:1;stroke-dasharray:none;stroke-dashoffset:2.47187521"
           inkscape:connector-curvature="0" />
      </g>
      <g
         transform="translate(2.250338e-4,-847.36239)"
         id="g5765"
         style="display:inline">
        <path
           d="m 398.50179,851.86925 c -32.57256,0 -61.22892,16.74462 -77.84375,42.09375 9.74657,14.55623 15.4375,32.07378 15.4375,50.90625 0,18.83248 -5.69093,36.35002 -15.4375,50.90625 16.61483,25.3491 45.27119,42.0937 77.84375,42.0937 51.37023,0 93,-41.62972 93,-92.99995 0,-51.37023 -41.62977,-93 -93,-93 z"
           id="path5767"
           style="fill:none;stroke:#29ace2;stroke-width:5.97200012;stroke-linecap:round;stroke-linejoin:bevel;stroke-miterlimit:0;stroke-opacity:1;stroke-dasharray:none;stroke-dashoffset:4.94375041"
           inkscape:connector-curvature="0" />
        <g
           transform="translate(116.36912,970.45981)"
           id="g5769"
           style="font-size:130px;font-style:normal;font-variant:normal;font-weight:500;font-stretch:normal;text-align:start;line-height:125%;letter-spacing:0px;word-spacing:0px;writing-mode:lr-tb;text-anchor:start;fill:#83c61a;fill-opacity:1;stroke:none;display:inline;font-family:Artifika;-inkscape-font-specification:Artifika Medium">
          <path
             d="m -14.233398,-71.459232 c 21.5819635,9.1e-5 32.372968,2.094815 32.373046,6.28418 -7.8e-5,1.100344 -0.931066,3.15275 -2.792968,6.157226 -1.819735,3.004633 -2.835359,4.633863 -3.046875,4.887696 -7.3e-5,-0.04225 -0.571361,-0.444262 -1.713867,-1.206055 -1.1003304,-0.761643 -2.793037,-1.607997 -5.0781255,-2.539063 -5.96685642,-2.369712 -12.7165241,-3.596924 -20.2490235,-3.68164 l -14.091797,-0.126953 0,30.024414 33.5791017,0 0,3.110351 c -6.47e-5,2.242884 -0.4867179,3.787479 -1.4599609,4.633789 -0.9310519,0.804079 -2.43332907,1.206097 -4.5068359,1.206055 l -27.6123049,0 0,33.198242 11.489258,0 c 12.3990335,9e-6 23.6978503,-1.6503799 33.896484,-4.9511717 -0.04239,1.39e-5 -7.6e-5,0.2116022 0.126953,0.6347656 0.169194,0.4231899 0.338465,0.9733196 0.507813,1.6503906 0.465417,1.8619889 0.698164,3.6393305 0.698242,5.3320315 -7.8e-5,1.692713 -0.50789,3.046878 -1.523437,4.0625 -1.015701,1.015626 -2.644931,1.756185 -4.887696,2.221679 C 8.5546189,19.989335 2.3127632,20.2644 -7.2509766,20.264401 -12.879279,20.2644 -19.628947,20.158606 -27.5,19.947018 c -4.443387,-0.08464 -7.934595,-0.232748 -10.473633,-0.444336 -2.539082,-0.211588 -4.147153,-0.7194 -4.824219,-1.523437 -0.634782,-0.846352 -0.952164,-2.179359 -0.952148,-3.999024 l 0,-76.552734 -12.124023,0 0,-5.078125 c 4.739574,-1.565667 14.091778,-2.708244 28.05664,-3.427735 4.443323,-0.253815 8.971313,-0.380768 13.583985,-0.380859"
             id="path5771"
             inkscape:connector-curvature="0" />
        </g>
        <g
           transform="translate(258.25926,970.45981)"
           id="g5773"
           style="font-size:130px;font-style:normal;font-variant:normal;font-weight:500;font-stretch:normal;text-align:start;line-height:125%;letter-spacing:0px;word-spacing:0px;writing-mode:lr-tb;text-anchor:start;fill:#83c61a;fill-opacity:1;stroke:none;display:inline;font-family:Artifika;-inkscape-font-specification:Artifika Medium">
          <path
             d="m -43.051758,-35.658451 -0.253906,-27.866211 -12.250977,0 0,-5.014648 c 3.893221,-1.946525 9.965806,-2.919831 18.217774,-2.919922 2.623672,9.1e-5 4.443332,0.656015 5.458984,1.967773 l 49.829102,68.110352 c -0.423255,-34.785101 -1.77742,-57.319258 -4.0625,-67.602539 0.04224,8.8e-5 0.169197,-0.02107 0.380859,-0.06348 0.211514,-0.08455 0.613532,-0.2115 1.206055,-0.380859 0.634689,-0.169182 1.502201,-0.38077 2.602539,-0.634766 l 4.506836,-1.079101 c 0.423094,-0.211498 1.079018,-0.317292 1.967773,-0.317383 0.888587,9.1e-5 1.544511,0.232838 1.967774,0.698242 0.465407,0.423267 0.825108,1.121508 1.079101,2.094727 0.296136,1.396571 0.444248,4.210696 0.444336,8.442383 -8.8e-5,4.231846 -0.06356,8.484771 -0.19043,12.758789 -0.08472,4.274151 -0.211676,8.780982 -0.380859,13.520507 -0.169358,4.739632 -0.380946,9.606164 -0.634766,14.59961 -0.211675,4.993523 -0.444422,9.8812136 -0.698242,14.6630857 -0.46558,9.0560047 -0.994551,17.4772203 -1.586914,25.2636723 l -5.839844,0 c -1.311926,-2e-6 -2.264073,-0.190431 -2.856445,-0.571289 -0.592523,-0.338542 -1.163811,-0.867513 -1.713867,-1.586915 l -47.670898,-65.825195 c 1.354138,16.842498 2.031221,29.68591 2.03125,38.5302736 -2.9e-5,11.3411628 -0.232776,18.9160254 -0.698243,22.7246094 -0.465522,3.766278 -0.86754,6.199544 -1.206054,7.299805 l -7.807617,-1.459961 c -3.385433,-0.677083 -5.078139,-2.581378 -5.078125,-5.712891 -1.4e-5,-0.973301 0.169256,-2.242831 0.507812,-3.808594 0.338527,-1.6080617 0.677068,-3.6393097 1.015625,-6.0937497 0.380844,-2.4967269 0.698226,-5.52244 0.952148,-9.0771484 0.507796,-7.1093439 0.761702,-17.3290599 0.761719,-30.6591799"
             id="path5775"
             inkscape:connector-curvature="0" />
        </g>
        <g
           transform="translate(415.24266,970.45981)"
           id="g5777"
           style="font-size:130px;font-style:normal;font-variant:normal;font-weight:500;font-stretch:normal;text-align:start;line-height:125%;letter-spacing:0px;word-spacing:0px;writing-mode:lr-tb;text-anchor:start;fill:#83c61a;fill-opacity:1;stroke:none;display:inline;font-family:Artifika;-inkscape-font-specification:Artifika Medium">
          <path
             d="m -16.328125,20.581784 c -5.120481,-2e-6 -7.6807,-2.115885 -7.680664,-6.347657 l 0,-75.537109 c -8.802111,8.1e-5 -18.302427,0.846434 -28.500977,2.539062 -2.11589,0.380938 -3.745121,0.656002 -4.887695,0.825196 0.04232,0.04239 -3e-6,-0.211511 -0.126953,-0.761719 -0.126956,-0.550051 -0.275067,-1.227134 -0.444336,-2.03125 -0.423179,-1.98885 -0.634767,-3.660398 -0.634766,-5.014648 -10e-7,-1.354081 0.613605,-2.348546 1.840821,-2.983399 1.269526,-0.676994 2.983392,-1.12133 5.141601,-1.333008 1.692699,-0.211498 3.618152,-0.317293 5.776367,-0.317382 0.550116,8.9e-5 1.142563,0.02125 1.777344,0.06348 2.877586,0.04241 5.966775,0.06357 9.267578,0.06348 8.590461,8.9e-5 17.836871,8.9e-5 27.7392581,0 9.9022809,8.9e-5 20.2489499,-0.698152 31.0400389,-2.094727 -8.4e-5,0.04241 0.06339,0.275157 0.19043,0.698242 0.126869,0.38095 0.253822,0.909921 0.380859,1.586914 0.380775,1.946702 0.571204,3.491297 0.571289,4.633789 -8.5e-5,1.142662 -0.380944,2.010174 -1.142578,2.602539 -0.719484,0.59253 -1.69279,1.015707 -2.919922,1.269532 -1.777423,0.423257 -5.437901,0.634846 -10.981445,0.634765 -5.5013667,8.1e-5 -11.8701754,-0.126872 -19.1064453,-0.380859 l 0,60.74707027 C -9.0283713,5.8763935 -8.7533065,10.489019 -8.203125,13.281979 l 1.0791016,5.141601 c -2.7083835,1.438802 -5.7764146,2.158202 -9.2041016,2.158204"
             id="path5779"
             inkscape:connector-curvature="0" />
        </g>
        <g
           transform="translate(577.67088,970.45981)"
           id="g5781"
           style="font-size:130px;font-style:normal;font-variant:normal;font-weight:500;font-stretch:normal;text-align:start;line-height:125%;letter-spacing:0px;word-spacing:0px;writing-mode:lr-tb;text-anchor:start;fill:#83c61a;fill-opacity:1;stroke:none;display:inline;font-family:Artifika;-inkscape-font-specification:Artifika Medium">
          <path
             d="m -17.470703,-63.080326 c -4.485715,8.3e-5 -8.20967,0.211671 -11.171875,0.634766 l 0,37.324219 c 2.665981,0.931033 6.347618,1.396527 11.044922,1.396484 4.739536,4.3e-5 8.4846494,-0.528928 11.2353513,-1.586914 2.7505947,-1.100215 4.9299545,-2.539015 6.53808595,-4.316406 2.75058815,-3.089141 4.12591225,-7.490178 4.12597655,-13.203125 -6.43e-5,-6.432223 -1.2484354,-11.150643 -3.74511718,-14.155274 -3.34315612,-4.062419 -9.35226472,-6.093667 -18.02734362,-6.09375 m 5.522461,47.543946 -5.268555,0 c -2.962279,3.4e-5 -6.770869,-0.211554 -11.425781,-0.634766 l 0,15.61523427 c -3.1e-5,6.13608153 0.592416,11.61621973 1.777344,16.44042973 0.253872,1.057945 0.444302,1.904298 0.571289,2.539062 -2.708365,1.438802 -5.903348,2.158202 -9.584961,2.158204 -5.120462,-2e-6 -7.680681,-2.115885 -7.680664,-6.347657 l 0,-76.044922 -12.250977,0.761719 0,-5.585937 c 8.717435,-3.216057 22.068659,-4.824128 40.053711,-4.824219 10.8332783,9.1e-5 19.106382,1.904386 24.819336,5.712891 6.940028,4.570393 10.410077,12.208731 10.410156,22.915039 -7.9e-5,8.54823 -2.793045,15.255581 -8.378906,20.12207 -5.5436853,4.781938 -13.2243417,7.172886 -23.041992,7.172852"
             id="path5783"
             inkscape:connector-curvature="0" />
        </g>
        <g
           transform="translate(749.09862,970.45981)"
           id="g5785"
           style="font-size:130px;font-style:normal;font-variant:normal;font-weight:500;font-stretch:normal;text-align:start;line-height:125%;letter-spacing:0px;word-spacing:0px;writing-mode:lr-tb;text-anchor:start;fill:#83c61a;fill-opacity:1;stroke:none;display:inline;font-family:Artifika;-inkscape-font-specification:Artifika Medium">
          <path
             d="m 14.331055,-71.459232 c 3.216068,9.1e-5 4.824139,2.433357 4.824218,7.299805 -7.9e-5,7.659581 -5.014722,19.487368 -15.0439449,35.483398 l -9.3945312,14.345703 c -5.47e-5,14.64194642 0.1692159,23.1689561 0.5078125,25.581055 0.4654391,3.216151 0.9520922,5.607099 1.4599609,7.172851 -2.7083873,1.438802 -5.7975769,2.158202 -9.2675783,2.158204 -5.078167,-2e-6 -7.617227,-2.115885 -7.617187,-6.347657 l 0,-26.533203 -28.881836,-47.797851 -11.171875,4.887695 -2.094727,-4.506836 c 4.993487,-4.612546 10.156242,-8.103754 15.488281,-10.473633 1.9466,-0.846263 3.533512,-1.26944 4.760743,-1.269531 2.327453,9.1e-5 4.337542,1.311939 6.030273,3.935547 l 26.9140626,44.30664 0.2539062,0 c 1.5233849,-2.66597 3.0468209,-5.331983 4.5703125,-7.998046 1.5233803,-2.665963 2.8987045,-5.331976 4.12597658,-7.998047 2.75058852,-6.051368 4.12591262,-11.066011 4.12597652,-15.043946 -6.39e-5,-4.020104 -0.8464172,-8.103759 -2.5390625,-12.250976 l 9.9658201,-4.25293 c 0.930918,-0.465404 1.925383,-0.698151 2.983399,-0.698242"
             id="path5787"
             inkscape:connector-curvature="0" />
        </g>
      </g>
      <g
         transform="translate(2.250338e-4,-847.36239)"
         id="g5789"
         style="display:inline">
        <path
           d="m 244.50179,853.2755 c -30.6307,0 -57.74675,15.03084 -74.375,38.125 11.03668,14.96576 17.59375,33.4468 17.59375,53.46875 0,20.02195 -6.55707,38.50299 -17.59375,53.46875 16.62825,23.0941 43.7443,38.1249 74.375,38.1249 50.58357,0 91.59375,-41.01008 91.59375,-91.59365 0,-50.58357 -41.01018,-91.59375 -91.59375,-91.59375 z"
           id="path5791"
           style="fill:none;stroke:#29ace2;stroke-width:8.82070732;stroke-linecap:round;stroke-linejoin:bevel;stroke-miterlimit:0;stroke-opacity:1;stroke-dasharray:none;stroke-dashoffset:7.41562561"
           inkscape:connector-curvature="0" />
      </g>
      <g
         transform="translate(2.250338e-4,-847.36239)"
         id="g5793"
         style="display:inline">
        <path
           d="m 220,127 a 55,55 0 1 1 -110,0 55,55 0 1 1 110,0 z"
           transform="matrix(1.6401495,0,0,1.6401495,-173.12273,736.57026)"
           id="path5795"
           style="fill:none;stroke:#29ace2;stroke-width:7.06277084;stroke-linecap:round;stroke-linejoin:bevel;stroke-miterlimit:0;stroke-opacity:1;stroke-dasharray:none;stroke-dashoffset:9.88750059"
           inkscape:connector-curvature="0" />
        <path
           d="m 220,127 a 55,55 0 1 1 -110,0 55,55 0 1 1 110,0 z"
           transform="matrix(1.6401495,0,0,1.6401495,-173.12273,736.57026)"
           id="path5797"
           style="fill:none;stroke:#29ace2;stroke-width:7.06277084;stroke-linecap:round;stroke-linejoin:bevel;stroke-miterlimit:0;stroke-opacity:1;stroke-dasharray:none;stroke-dashoffset:9.88750059"
           inkscape:connector-curvature="0" />
      </g>
    </g>
    <g
       transform="matrix(1.2292463,-0.71381426,0.71381426,1.2292463,3238.4121,416.1208)"
       id="g5799"
       style="fill:#238cb8;fill-opacity:1">
      <path
         d="m -1745.4595,-829.173 c -0.1133,-0.33508 -0.2715,-0.66229 -0.4699,-0.97683 -0.7834,-1.23967 -2.1647,-2.23805 -3.7639,-2.23805 -1.6197,0 -3.0341,0.93095 -3.8156,2.23805 -0.1055,0.17684 -0.2013,0.35949 -0.2833,0.54899 -0.076,-0.18756 -0.167,-0.36735 -0.2667,-0.54122 v -0.007 -0.84504 -0.78344 -3.25595 h -0.6409 -0.4864 -0.3077 -0.5197 -0.065 c 0.021,0.0195 0.044,0.0391 0.065,0.0596 v 1.92055 0.56758 0.50119 c -0.5978,-0.29207 -1.268,-0.45624 -1.9782,-0.45624 -1.4379,0 -3.0654,0.56462 -3.8039,1.88541 -0.2188,0.38973 -0.3419,0.85669 -0.377,1.38321 h -0.01 -0.4083 -0.056 -0.2081 v 1.95375 h 0.3263 0.4064 16.8687 0.5099 0.509 0.9172 v -1.95375 l -2.1453,-9.2e-4 z"
         id="path5801"
         style="fill:#238cb8;fill-opacity:1"
         inkscape:connector-curvature="0" />
      <polygon
         points="201.862,516.375 207.131,516.375 211.998,516.375 214.312,516.375 249.55,516.375 243.794,493.674 242.837,489.887 241.613,485.077 204.989,340.664 164.482,508.247 163.153,513.745 162.522,516.375 187.232,516.375 195.188,516.375 197.11,516.375 "
         transform="matrix(0.1021569,0,0,0.1021569,-1775.9534,-888.76143)"
         id="polygon5803"
         style="fill:#238cb8;fill-opacity:1" />
    </g>
    <path
       d="m 477.18626,26.5665 3.20274,-0.014 2.21474,2.3126 c 0.36115,0.377 0.73655,0.2675 0.83932,-0.2442 l 0.67554,-3.3709 3.2513,-1.1411 c 0.49241,-0.1731 0.53916,-0.546 0.10235,-0.8327 l -2.72873,-1.7975 -0.3144,-3.2781 c -0.0498,-0.5199 -0.42214,-0.678 -0.83101,-0.3528 l -2.57824,2.0483 -3.18698,-0.7173 c -0.50915,-0.1148 -0.75743,0.1822 -0.55507,0.663 l 1.28746,3.0472 -1.81749,2.8769 c -0.28176,0.443 -0.0844,0.7992 0.43805,0.7975 z"
       id="path5805"
       style="fill:#238cb8;fill-opacity:1"
       inkscape:connector-curvature="0" />
    <path
       d="m 429.26152,28.5226 3.20275,-0.014 2.21474,2.3125 c 0.36115,0.3771 0.73654,0.2675 0.83931,-0.2441 l 0.67555,-3.3709 3.25129,-1.1412 c 0.49241,-0.173 0.53916,-0.5459 0.10236,-0.8326 l -2.72874,-1.7975 -0.31439,-3.2781 c -0.0498,-0.5199 -0.42215,-0.678 -0.83101,-0.3529 l -2.57825,2.0484 -3.18697,-0.7173 c -0.50915,-0.1148 -0.75743,0.1821 -0.55507,0.6629 l 1.28746,3.0473 -1.8175,2.8769 c -0.28175,0.443 -0.0844,0.7992 0.43806,0.7975 z"
       id="path5807"
       style="fill:#238cb8;fill-opacity:1"
       inkscape:connector-curvature="0" />
    <path
       d="m 463.0044,64.6707 3.20275,-0.014 2.21474,2.3125 c 0.36115,0.3771 0.73654,0.2675 0.83931,-0.2441 l 0.67555,-3.371 3.25129,-1.1411 c 0.49241,-0.173 0.53917,-0.5459 0.10236,-0.8326 l -2.72873,-1.7975 -0.3144,-3.2781 c -0.0498,-0.5199 -0.42215,-0.678 -0.83101,-0.3529 l -2.57824,2.0484 -3.18698,-0.7173 c -0.50915,-0.1148 -0.75743,0.1821 -0.55507,0.6629 l 1.28746,3.0473 -1.8175,2.8769 c -0.28175,0.443 -0.0844,0.7992 0.43806,0.7975 z"
       id="path5809"
       style="fill:#238cb8;fill-opacity:1"
       inkscape:connector-curvature="0" />
    <g
       transform="matrix(0.40603605,-0.38416856,0.38416856,0.40603605,436.43229,651.5658)"
       id="g5811"
       style="fill:#238cb8;fill-opacity:1">
      <path
         d="m 20.22,37.477 c 1.452,2.892 4.206,5.04 7.588,5.621 l 0.435,0.075 -0.278,6.083 c -0.152,-0.039 -0.322,-0.063 -0.481,-0.095 -0.169,-0.035 -0.333,-0.074 -0.511,-0.101 -0.517,-0.078 -1.061,-0.132 -1.654,-0.132 -0.804,0 -1.546,0.108 -2.228,0.294 0.337,0.118 0.663,0.244 0.975,0.38 0.263,0.115 0.518,0.236 0.763,0.361 0.169,-0.011 0.33,-0.035 0.506,-0.035 0.572,0 1.099,0.049 1.592,0.129 0.177,0.029 0.344,0.064 0.511,0.101 0.163,0.036 0.326,0.073 0.479,0.116 1.445,0.408 2.485,1.109 3.187,1.75 0.195,0.178 0.367,0.352 0.511,0.512 0.296,0.33 0.482,0.599 0.581,0.753 0.045,0.07 0.076,0.123 0.084,0.137 l 0.019,0.035 c 0.12,-0.08 0.238,-0.159 0.369,-0.236 0.044,-0.026 0.08,-0.055 0.125,-0.08 0.2,-0.114 0.428,-0.215 0.651,-0.319 0.726,-1.383 3.1,-4.994 8.43,-6.124 l 0.013,-0.272 0.035,-0.749 c -5.621,1.117 -8.342,4.88 -9.279,6.534 -0.149,-0.186 -0.346,-0.402 -0.566,-0.625 -0.166,-0.169 -0.354,-0.341 -0.563,-0.518 -0.16,-0.135 -0.319,-0.271 -0.505,-0.405 l -0.523,-7.441 0.467,-0.061 c 4.518,-0.585 8.067,-4.026 8.931,-8.356 -4.882,-2.124 -8.37,-6.844 -8.739,-12.407 -0.507,-0.076 -1.022,-0.127 -1.549,-0.127 -0.637,0 -1.257,0.066 -1.863,0.175 0.643,3.153 0.994,5.922 0.994,7.681 -0.001,6.077 -3.571,7.177 -8.507,7.346 z"
         id="path5813"
         style="fill:#238cb8;fill-opacity:1"
         inkscape:connector-curvature="0" />
      <path
         d="m 48.405,45.633 0.055,0.769 0.019,0.271 c 7.534,1.491 10.281,8.03 11.102,10.747 0.186,0.177 0.363,0.356 0.531,0.538 0.317,0.344 0.604,0.694 0.85,1.041 h 0.017 L 60.864,58.406 C 60.841,58.287 58.66,47.509 48.405,45.633 z"
         id="path5815"
         style="fill:#238cb8;fill-opacity:1"
         inkscape:connector-curvature="0" />
      <path
         d="m 32.128,22.079 c 0.008,0.175 0.012,0.351 0.027,0.524 0.428,4.973 3.543,9.179 7.885,11.172 0.158,0.073 0.314,0.149 0.476,0.216 0.156,0.065 0.319,0.116 0.478,0.175 0.469,0.173 0.95,0.321 1.441,0.443 l 0.308,-6.657 -6.583,-9.986 6.979,3.832 0.84,-9.798 h 2.63 l 0.46,13.958 7.61,-2.261 -7.187,9.127 0.145,2.035 c 6.566,-0.953 11.63,-6.603 11.63,-13.429 0,-7.492 -6.095,-13.586 -13.586,-13.586 -7.491,0 -13.586,6.095 -13.586,13.586 0,0.043 0.006,0.085 0.006,0.127 0.002,0.176 0.019,0.348 0.027,0.522 z"
         id="path5817"
         style="fill:#238cb8;fill-opacity:1"
         inkscape:connector-curvature="0" />
      <path
         d="m 6.54,35.553 c 1.7,0.874 4.173,0.953 6.777,0.954 l 0.191,-2.682 -7.187,-9.127 7.61,2.261 L 14.391,13 h 2.63 l 0.84,9.797 6.979,-3.832 -6.583,9.986 0.072,1.546 0.257,5.803 0.021,0.7 c 0.04,0 0.08,0 0.12,0 0.174,0 0.349,-0.249 0.519,-0.251 0.182,-0.002 0.359,-0.131 0.536,-0.135 4.846,-0.108 7.944,-1.016 7.944,-6.423 0,-1.886 -0.339,-4.565 -0.934,-7.495 -0.033,-0.163 -0.066,-0.342 -0.101,-0.507 -0.034,-0.161 -0.07,-0.332 -0.106,-0.494 C 24.607,12.627 20.318,1.424 15.852,1.424 c -6.1,0 -11.874,20.89 -11.874,28.708 10e-4,2.801 0.814,4.522 2.562,5.421 z"
         id="path5819"
         style="fill:#238cb8;fill-opacity:1"
         inkscape:connector-curvature="0" />
      <path
         d="m 43.403,35.316 -0.023,0.501 -0.449,9.696 -0.035,0.762 -0.012,0.257 -0.322,6.957 c 1.569,1.105 2.548,2.519 2.999,3.28 0.48,-0.327 1.337,-0.81 2.549,-1.229 L 47.466,46.503 47.447,46.239 47.393,45.48 46.715,35.964 46.679,35.466 46.643,34.968 46.468,32.51 51.947,25.552 46.113,27.285 45.641,13 h -0.745 l -0.893,10.413 -4.789,-2.628 4.542,6.889 -0.331,7.14 -0.022,0.502 z"
         id="path5821"
         style="fill:#238cb8;fill-opacity:1"
         inkscape:connector-curvature="0" />
      <path
         d="M 16.996,24.413 16.104,14 h -0.745 l -0.471,14.286 -5.834,-1.733 5.479,6.958 -0.014,0.193 -0.2,2.801 -0.036,0.5 -0.036,0.5 -0.811,11.382 c 1.29,-0.339 2.719,-0.535 4.305,-0.535 0.142,0 0.273,0.013 0.413,0.016 l -0.503,-10.862 -0.023,-0.5 -0.023,-0.5 -0.363,-7.832 4.542,-6.889 -4.788,2.628 z"
         id="path5823"
         style="fill:#238cb8;fill-opacity:1"
         inkscape:connector-curvature="0" />
      <path
         d="m 58.649,58 c -1.367,-1.259 -3.223,-2.318 -5.174,-2.318 -1.738,0 -3.168,0.245 -4.313,0.57 -0.181,0.051 -0.358,0.104 -0.525,0.159 -0.157,0.052 -0.312,0.104 -0.456,0.158 -0.381,0.142 -0.715,0.289 -1.006,0.431 -0.955,0.466 -1.432,0.88 -1.442,0.89 L 45.61,58 45.236,58.334 45.076,58 44.948,57.732 C 44.942,57.72 44.799,57.429 44.519,57 c -0.392,-0.602 -1.062,-1.478 -2.014,-2.266 -0.148,-0.122 -0.3,-0.243 -0.462,-0.359 -0.163,-0.118 -0.33,-0.234 -0.507,-0.343 -1.041,-0.64 -2.328,-1.104 -3.869,-1.104 -2.167,0 -3.76,0.658 -4.87,1.403 -0.003,0.002 -0.007,0.004 -0.01,0.006 -0.177,0.119 -0.339,0.24 -0.491,0.361 -0.185,0.147 -0.349,0.293 -0.5,0.435 -0.165,0.156 -0.315,0.308 -0.441,0.449 -0.427,0.478 -0.628,0.833 -0.634,0.844 l -0.508,0.927 -0.395,-0.982 c -0.051,-0.126 -0.629,-1.506 -2.041,-3.01 -0.143,-0.152 -0.301,-0.306 -0.462,-0.46 -0.156,-0.149 -0.325,-0.296 -0.498,-0.445 -0.956,-0.819 -2.177,-1.6 -3.714,-2.178 -0.217,-0.081 -0.435,-0.162 -0.664,-0.234 -0.275,-0.087 -0.568,-0.16 -0.862,-0.232 -0.734,-0.181 -1.517,-0.321 -2.372,-0.393 -0.168,-0.014 -0.349,-0.015 -0.522,-0.024 -0.159,-0.009 -0.318,-0.018 -0.481,-0.022 -0.156,-0.004 -0.299,-0.021 -0.459,-0.021 -1.639,0 -3.08,0.233 -4.382,0.605 -0.162,0.046 -0.325,0.09 -0.482,0.141 -0.182,0.059 -0.368,0.112 -0.543,0.177 C 5.907,52.659 3.774,59.003 3.254,61 H 26.425 26.948 32.2 32.737 60.79 C 60.621,60.435 60.2,59.721 59.601,59 59.322,58.663 59.002,58.325 58.649,58 z"
         id="path5825"
         style="fill:#238cb8;fill-opacity:1"
         inkscape:connector-curvature="0" />
    </g>
    <g
       transform="matrix(0.80580322,0.33053706,-0.33053706,0.80580322,201.14754,625.4321)"
       id="g5827"
       style="fill:#238cb8;fill-opacity:1">
      <path
         d="m 20.22,37.477 c 1.452,2.892 4.206,5.04 7.588,5.621 l 0.435,0.075 -0.278,6.083 c -0.152,-0.039 -0.322,-0.063 -0.481,-0.095 -0.169,-0.035 -0.333,-0.074 -0.511,-0.101 -0.517,-0.078 -1.061,-0.132 -1.654,-0.132 -0.804,0 -1.546,0.108 -2.228,0.294 0.337,0.118 0.663,0.244 0.975,0.38 0.263,0.115 0.518,0.236 0.763,0.361 0.169,-0.011 0.33,-0.035 0.506,-0.035 0.572,0 1.099,0.049 1.592,0.129 0.177,0.029 0.344,0.064 0.511,0.101 0.163,0.036 0.326,0.073 0.479,0.116 1.445,0.408 2.485,1.109 3.187,1.75 0.195,0.178 0.367,0.352 0.511,0.512 0.296,0.33 0.482,0.599 0.581,0.753 0.045,0.07 0.076,0.123 0.084,0.137 l 0.019,0.035 c 0.12,-0.08 0.238,-0.159 0.369,-0.236 0.044,-0.026 0.08,-0.055 0.125,-0.08 0.2,-0.114 0.428,-0.215 0.651,-0.319 0.726,-1.383 3.1,-4.994 8.43,-6.124 l 0.013,-0.272 0.035,-0.749 c -5.621,1.117 -8.342,4.88 -9.279,6.534 -0.149,-0.186 -0.346,-0.402 -0.566,-0.625 -0.166,-0.169 -0.354,-0.341 -0.563,-0.518 -0.16,-0.135 -0.319,-0.271 -0.505,-0.405 l -0.523,-7.441 0.467,-0.061 c 4.518,-0.585 8.067,-4.026 8.931,-8.356 -4.882,-2.124 -8.37,-6.844 -8.739,-12.407 -0.507,-0.076 -1.022,-0.127 -1.549,-0.127 -0.637,0 -1.257,0.066 -1.863,0.175 0.643,3.153 0.994,5.922 0.994,7.681 -0.001,6.077 -3.571,7.177 -8.507,7.346 z"
         id="path5829"
         style="fill:#238cb8;fill-opacity:1"
         inkscape:connector-curvature="0" />
      <path
         d="m 48.405,45.633 0.055,0.769 0.019,0.271 c 7.534,1.491 10.281,8.03 11.102,10.747 0.186,0.177 0.363,0.356 0.531,0.538 0.317,0.344 0.604,0.694 0.85,1.041 h 0.017 L 60.864,58.406 C 60.841,58.287 58.66,47.509 48.405,45.633 z"
         id="path5831"
         style="fill:#238cb8;fill-opacity:1"
         inkscape:connector-curvature="0" />
      <path
         d="m 32.128,22.079 c 0.008,0.175 0.012,0.351 0.027,0.524 0.428,4.973 3.543,9.179 7.885,11.172 0.158,0.073 0.314,0.149 0.476,0.216 0.156,0.065 0.319,0.116 0.478,0.175 0.469,0.173 0.95,0.321 1.441,0.443 l 0.308,-6.657 -6.583,-9.986 6.979,3.832 0.84,-9.798 h 2.63 l 0.46,13.958 7.61,-2.261 -7.187,9.127 0.145,2.035 c 6.566,-0.953 11.63,-6.603 11.63,-13.429 0,-7.492 -6.095,-13.586 -13.586,-13.586 -7.491,0 -13.586,6.095 -13.586,13.586 0,0.043 0.006,0.085 0.006,0.127 0.002,0.176 0.019,0.348 0.027,0.522 z"
         id="path5833"
         style="fill:#238cb8;fill-opacity:1"
         inkscape:connector-curvature="0" />
      <path
         d="m 6.54,35.553 c 1.7,0.874 4.173,0.953 6.777,0.954 l 0.191,-2.682 -7.187,-9.127 7.61,2.261 L 14.391,13 h 2.63 l 0.84,9.797 6.979,-3.832 -6.583,9.986 0.072,1.546 0.257,5.803 0.021,0.7 c 0.04,0 0.08,0 0.12,0 0.174,0 0.349,-0.249 0.519,-0.251 0.182,-0.002 0.359,-0.131 0.536,-0.135 4.846,-0.108 7.944,-1.016 7.944,-6.423 0,-1.886 -0.339,-4.565 -0.934,-7.495 -0.033,-0.163 -0.066,-0.342 -0.101,-0.507 -0.034,-0.161 -0.07,-0.332 -0.106,-0.494 C 24.607,12.627 20.318,1.424 15.852,1.424 c -6.1,0 -11.874,20.89 -11.874,28.708 10e-4,2.801 0.814,4.522 2.562,5.421 z"
         id="path5835"
         style="fill:#238cb8;fill-opacity:1"
         inkscape:connector-curvature="0" />
      <path
         d="m 43.403,35.316 -0.023,0.501 -0.449,9.696 -0.035,0.762 -0.012,0.257 -0.322,6.957 c 1.569,1.105 2.548,2.519 2.999,3.28 0.48,-0.327 1.337,-0.81 2.549,-1.229 L 47.466,46.503 47.447,46.239 47.393,45.48 46.715,35.964 46.679,35.466 46.643,34.968 46.468,32.51 51.947,25.552 46.113,27.285 45.641,13 h -0.745 l -0.893,10.413 -4.789,-2.628 4.542,6.889 -0.331,7.14 -0.022,0.502 z"
         id="path5837"
         style="fill:#238cb8;fill-opacity:1"
         inkscape:connector-curvature="0" />
      <path
         d="M 16.996,24.413 16.104,14 h -0.745 l -0.471,14.286 -5.834,-1.733 5.479,6.958 -0.014,0.193 -0.2,2.801 -0.036,0.5 -0.036,0.5 -0.811,11.382 c 1.29,-0.339 2.719,-0.535 4.305,-0.535 0.142,0 0.273,0.013 0.413,0.016 l -0.503,-10.862 -0.023,-0.5 -0.023,-0.5 -0.363,-7.832 4.542,-6.889 -4.788,2.628 z"
         id="path5839"
         style="fill:#238cb8;fill-opacity:1"
         inkscape:connector-curvature="0" />
      <path
         d="m 58.649,58 c -1.367,-1.259 -3.223,-2.318 -5.174,-2.318 -1.738,0 -3.168,0.245 -4.313,0.57 -0.181,0.051 -0.358,0.104 -0.525,0.159 -0.157,0.052 -0.312,0.104 -0.456,0.158 -0.381,0.142 -0.715,0.289 -1.006,0.431 -0.955,0.466 -1.432,0.88 -1.442,0.89 L 45.61,58 45.236,58.334 45.076,58 44.948,57.732 C 44.942,57.72 44.799,57.429 44.519,57 c -0.392,-0.602 -1.062,-1.478 -2.014,-2.266 -0.148,-0.122 -0.3,-0.243 -0.462,-0.359 -0.163,-0.118 -0.33,-0.234 -0.507,-0.343 -1.041,-0.64 -2.328,-1.104 -3.869,-1.104 -2.167,0 -3.76,0.658 -4.87,1.403 -0.003,0.002 -0.007,0.004 -0.01,0.006 -0.177,0.119 -0.339,0.24 -0.491,0.361 -0.185,0.147 -0.349,0.293 -0.5,0.435 -0.165,0.156 -0.315,0.308 -0.441,0.449 -0.427,0.478 -0.628,0.833 -0.634,0.844 l -0.508,0.927 -0.395,-0.982 c -0.051,-0.126 -0.629,-1.506 -2.041,-3.01 -0.143,-0.152 -0.301,-0.306 -0.462,-0.46 -0.156,-0.149 -0.325,-0.296 -0.498,-0.445 -0.956,-0.819 -2.177,-1.6 -3.714,-2.178 -0.217,-0.081 -0.435,-0.162 -0.664,-0.234 -0.275,-0.087 -0.568,-0.16 -0.862,-0.232 -0.734,-0.181 -1.517,-0.321 -2.372,-0.393 -0.168,-0.014 -0.349,-0.015 -0.522,-0.024 -0.159,-0.009 -0.318,-0.018 -0.481,-0.022 -0.156,-0.004 -0.299,-0.021 -0.459,-0.021 -1.639,0 -3.08,0.233 -4.382,0.605 -0.162,0.046 -0.325,0.09 -0.482,0.141 -0.182,0.059 -0.368,0.112 -0.543,0.177 C 5.907,52.659 3.774,59.003 3.254,61 H 26.425 26.948 32.2 32.737 60.79 C 60.621,60.435 60.2,59.721 59.601,59 59.322,58.663 59.002,58.325 58.649,58 z"
         id="path5841"
         style="fill:#238cb8;fill-opacity:1"
         inkscape:connector-curvature="0" />
    </g>
    <g
       transform="matrix(0.87053284,0.02731589,-0.02731589,0.87053284,140.5269,621.6974)"
       id="g5843"
       style="fill:#238cb8;fill-opacity:1">
      <path
         d="m 20.22,37.477 c 1.452,2.892 4.206,5.04 7.588,5.621 l 0.435,0.075 -0.278,6.083 c -0.152,-0.039 -0.322,-0.063 -0.481,-0.095 -0.169,-0.035 -0.333,-0.074 -0.511,-0.101 -0.517,-0.078 -1.061,-0.132 -1.654,-0.132 -0.804,0 -1.546,0.108 -2.228,0.294 0.337,0.118 0.663,0.244 0.975,0.38 0.263,0.115 0.518,0.236 0.763,0.361 0.169,-0.011 0.33,-0.035 0.506,-0.035 0.572,0 1.099,0.049 1.592,0.129 0.177,0.029 0.344,0.064 0.511,0.101 0.163,0.036 0.326,0.073 0.479,0.116 1.445,0.408 2.485,1.109 3.187,1.75 0.195,0.178 0.367,0.352 0.511,0.512 0.296,0.33 0.482,0.599 0.581,0.753 0.045,0.07 0.076,0.123 0.084,0.137 l 0.019,0.035 c 0.12,-0.08 0.238,-0.159 0.369,-0.236 0.044,-0.026 0.08,-0.055 0.125,-0.08 0.2,-0.114 0.428,-0.215 0.651,-0.319 0.726,-1.383 3.1,-4.994 8.43,-6.124 l 0.013,-0.272 0.035,-0.749 c -5.621,1.117 -8.342,4.88 -9.279,6.534 -0.149,-0.186 -0.346,-0.402 -0.566,-0.625 -0.166,-0.169 -0.354,-0.341 -0.563,-0.518 -0.16,-0.135 -0.319,-0.271 -0.505,-0.405 l -0.523,-7.441 0.467,-0.061 c 4.518,-0.585 8.067,-4.026 8.931,-8.356 -4.882,-2.124 -8.37,-6.844 -8.739,-12.407 -0.507,-0.076 -1.022,-0.127 -1.549,-0.127 -0.637,0 -1.257,0.066 -1.863,0.175 0.643,3.153 0.994,5.922 0.994,7.681 -0.001,6.077 -3.571,7.177 -8.507,7.346 z"
         id="path5845"
         style="fill:#238cb8;fill-opacity:1"
         inkscape:connector-curvature="0" />
      <path
         d="m 48.405,45.633 0.055,0.769 0.019,0.271 c 7.534,1.491 10.281,8.03 11.102,10.747 0.186,0.177 0.363,0.356 0.531,0.538 0.317,0.344 0.604,0.694 0.85,1.041 h 0.017 L 60.864,58.406 C 60.841,58.287 58.66,47.509 48.405,45.633 z"
         id="path5847"
         style="fill:#238cb8;fill-opacity:1"
         inkscape:connector-curvature="0" />
      <path
         d="m 32.128,22.079 c 0.008,0.175 0.012,0.351 0.027,0.524 0.428,4.973 3.543,9.179 7.885,11.172 0.158,0.073 0.314,0.149 0.476,0.216 0.156,0.065 0.319,0.116 0.478,0.175 0.469,0.173 0.95,0.321 1.441,0.443 l 0.308,-6.657 -6.583,-9.986 6.979,3.832 0.84,-9.798 h 2.63 l 0.46,13.958 7.61,-2.261 -7.187,9.127 0.145,2.035 c 6.566,-0.953 11.63,-6.603 11.63,-13.429 0,-7.492 -6.095,-13.586 -13.586,-13.586 -7.491,0 -13.586,6.095 -13.586,13.586 0,0.043 0.006,0.085 0.006,0.127 0.002,0.176 0.019,0.348 0.027,0.522 z"
         id="path5849"
         style="fill:#238cb8;fill-opacity:1"
         inkscape:connector-curvature="0" />
      <path
         d="m 6.54,35.553 c 1.7,0.874 4.173,0.953 6.777,0.954 l 0.191,-2.682 -7.187,-9.127 7.61,2.261 L 14.391,13 h 2.63 l 0.84,9.797 6.979,-3.832 -6.583,9.986 0.072,1.546 0.257,5.803 0.021,0.7 c 0.04,0 0.08,0 0.12,0 0.174,0 0.349,-0.249 0.519,-0.251 0.182,-0.002 0.359,-0.131 0.536,-0.135 4.846,-0.108 7.944,-1.016 7.944,-6.423 0,-1.886 -0.339,-4.565 -0.934,-7.495 -0.033,-0.163 -0.066,-0.342 -0.101,-0.507 -0.034,-0.161 -0.07,-0.332 -0.106,-0.494 C 24.607,12.627 20.318,1.424 15.852,1.424 c -6.1,0 -11.874,20.89 -11.874,28.708 10e-4,2.801 0.814,4.522 2.562,5.421 z"
         id="path5851"
         style="fill:#238cb8;fill-opacity:1"
         inkscape:connector-curvature="0" />
      <path
         d="m 43.403,35.316 -0.023,0.501 -0.449,9.696 -0.035,0.762 -0.012,0.257 -0.322,6.957 c 1.569,1.105 2.548,2.519 2.999,3.28 0.48,-0.327 1.337,-0.81 2.549,-1.229 L 47.466,46.503 47.447,46.239 47.393,45.48 46.715,35.964 46.679,35.466 46.643,34.968 46.468,32.51 51.947,25.552 46.113,27.285 45.641,13 h -0.745 l -0.893,10.413 -4.789,-2.628 4.542,6.889 -0.331,7.14 -0.022,0.502 z"
         id="path5853"
         style="fill:#238cb8;fill-opacity:1"
         inkscape:connector-curvature="0" />
      <path
         d="M 16.996,24.413 16.104,14 h -0.745 l -0.471,14.286 -5.834,-1.733 5.479,6.958 -0.014,0.193 -0.2,2.801 -0.036,0.5 -0.036,0.5 -0.811,11.382 c 1.29,-0.339 2.719,-0.535 4.305,-0.535 0.142,0 0.273,0.013 0.413,0.016 l -0.503,-10.862 -0.023,-0.5 -0.023,-0.5 -0.363,-7.832 4.542,-6.889 -4.788,2.628 z"
         id="path5855"
         style="fill:#238cb8;fill-opacity:1"
         inkscape:connector-curvature="0" />
      <path
         d="m 58.649,58 c -1.367,-1.259 -3.223,-2.318 -5.174,-2.318 -1.738,0 -3.168,0.245 -4.313,0.57 -0.181,0.051 -0.358,0.104 -0.525,0.159 -0.157,0.052 -0.312,0.104 -0.456,0.158 -0.381,0.142 -0.715,0.289 -1.006,0.431 -0.955,0.466 -1.432,0.88 -1.442,0.89 L 45.61,58 45.236,58.334 45.076,58 44.948,57.732 C 44.942,57.72 44.799,57.429 44.519,57 c -0.392,-0.602 -1.062,-1.478 -2.014,-2.266 -0.148,-0.122 -0.3,-0.243 -0.462,-0.359 -0.163,-0.118 -0.33,-0.234 -0.507,-0.343 -1.041,-0.64 -2.328,-1.104 -3.869,-1.104 -2.167,0 -3.76,0.658 -4.87,1.403 -0.003,0.002 -0.007,0.004 -0.01,0.006 -0.177,0.119 -0.339,0.24 -0.491,0.361 -0.185,0.147 -0.349,0.293 -0.5,0.435 -0.165,0.156 -0.315,0.308 -0.441,0.449 -0.427,0.478 -0.628,0.833 -0.634,0.844 l -0.508,0.927 -0.395,-0.982 c -0.051,-0.126 -0.629,-1.506 -2.041,-3.01 -0.143,-0.152 -0.301,-0.306 -0.462,-0.46 -0.156,-0.149 -0.325,-0.296 -0.498,-0.445 -0.956,-0.819 -2.177,-1.6 -3.714,-2.178 -0.217,-0.081 -0.435,-0.162 -0.664,-0.234 -0.275,-0.087 -0.568,-0.16 -0.862,-0.232 -0.734,-0.181 -1.517,-0.321 -2.372,-0.393 -0.168,-0.014 -0.349,-0.015 -0.522,-0.024 -0.159,-0.009 -0.318,-0.018 -0.481,-0.022 -0.156,-0.004 -0.299,-0.021 -0.459,-0.021 -1.639,0 -3.08,0.233 -4.382,0.605 -0.162,0.046 -0.325,0.09 -0.482,0.141 -0.182,0.059 -0.368,0.112 -0.543,0.177 C 5.907,52.659 3.774,59.003 3.254,61 H 26.425 26.948 32.2 32.737 60.79 C 60.621,60.435 60.2,59.721 59.601,59 59.322,58.663 59.002,58.325 58.649,58 z"
         id="path5857"
         style="fill:#238cb8;fill-opacity:1"
         inkscape:connector-curvature="0" />
    </g>
    <g
       transform="matrix(0.87094714,-0.00496461,0.00496461,0.87094714,-1.9194614,605.7741)"
       id="g5859"
       style="fill:#238cb8;fill-opacity:1">
      <path
         d="m 20.22,37.477 c 1.452,2.892 4.206,5.04 7.588,5.621 l 0.435,0.075 -0.278,6.083 c -0.152,-0.039 -0.322,-0.063 -0.481,-0.095 -0.169,-0.035 -0.333,-0.074 -0.511,-0.101 -0.517,-0.078 -1.061,-0.132 -1.654,-0.132 -0.804,0 -1.546,0.108 -2.228,0.294 0.337,0.118 0.663,0.244 0.975,0.38 0.263,0.115 0.518,0.236 0.763,0.361 0.169,-0.011 0.33,-0.035 0.506,-0.035 0.572,0 1.099,0.049 1.592,0.129 0.177,0.029 0.344,0.064 0.511,0.101 0.163,0.036 0.326,0.073 0.479,0.116 1.445,0.408 2.485,1.109 3.187,1.75 0.195,0.178 0.367,0.352 0.511,0.512 0.296,0.33 0.482,0.599 0.581,0.753 0.045,0.07 0.076,0.123 0.084,0.137 l 0.019,0.035 c 0.12,-0.08 0.238,-0.159 0.369,-0.236 0.044,-0.026 0.08,-0.055 0.125,-0.08 0.2,-0.114 0.428,-0.215 0.651,-0.319 0.726,-1.383 3.1,-4.994 8.43,-6.124 l 0.013,-0.272 0.035,-0.749 c -5.621,1.117 -8.342,4.88 -9.279,6.534 -0.149,-0.186 -0.346,-0.402 -0.566,-0.625 -0.166,-0.169 -0.354,-0.341 -0.563,-0.518 -0.16,-0.135 -0.319,-0.271 -0.505,-0.405 l -0.523,-7.441 0.467,-0.061 c 4.518,-0.585 8.067,-4.026 8.931,-8.356 -4.882,-2.124 -8.37,-6.844 -8.739,-12.407 -0.507,-0.076 -1.022,-0.127 -1.549,-0.127 -0.637,0 -1.257,0.066 -1.863,0.175 0.643,3.153 0.994,5.922 0.994,7.681 -0.001,6.077 -3.571,7.177 -8.507,7.346 z"
         id="path5861"
         style="fill:#238cb8;fill-opacity:1"
         inkscape:connector-curvature="0" />
      <path
         d="m 48.405,45.633 0.055,0.769 0.019,0.271 c 7.534,1.491 10.281,8.03 11.102,10.747 0.186,0.177 0.363,0.356 0.531,0.538 0.317,0.344 0.604,0.694 0.85,1.041 h 0.017 L 60.864,58.406 C 60.841,58.287 58.66,47.509 48.405,45.633 z"
         id="path5863"
         style="fill:#238cb8;fill-opacity:1"
         inkscape:connector-curvature="0" />
      <path
         d="m 32.128,22.079 c 0.008,0.175 0.012,0.351 0.027,0.524 0.428,4.973 3.543,9.179 7.885,11.172 0.158,0.073 0.314,0.149 0.476,0.216 0.156,0.065 0.319,0.116 0.478,0.175 0.469,0.173 0.95,0.321 1.441,0.443 l 0.308,-6.657 -6.583,-9.986 6.979,3.832 0.84,-9.798 h 2.63 l 0.46,13.958 7.61,-2.261 -7.187,9.127 0.145,2.035 c 6.566,-0.953 11.63,-6.603 11.63,-13.429 0,-7.492 -6.095,-13.586 -13.586,-13.586 -7.491,0 -13.586,6.095 -13.586,13.586 0,0.043 0.006,0.085 0.006,0.127 0.002,0.176 0.019,0.348 0.027,0.522 z"
         id="path5865"
         style="fill:#238cb8;fill-opacity:1"
         inkscape:connector-curvature="0" />
      <path
         d="m 6.54,35.553 c 1.7,0.874 4.173,0.953 6.777,0.954 l 0.191,-2.682 -7.187,-9.127 7.61,2.261 L 14.391,13 h 2.63 l 0.84,9.797 6.979,-3.832 -6.583,9.986 0.072,1.546 0.257,5.803 0.021,0.7 c 0.04,0 0.08,0 0.12,0 0.174,0 0.349,-0.249 0.519,-0.251 0.182,-0.002 0.359,-0.131 0.536,-0.135 4.846,-0.108 7.944,-1.016 7.944,-6.423 0,-1.886 -0.339,-4.565 -0.934,-7.495 -0.033,-0.163 -0.066,-0.342 -0.101,-0.507 -0.034,-0.161 -0.07,-0.332 -0.106,-0.494 C 24.607,12.627 20.318,1.424 15.852,1.424 c -6.1,0 -11.874,20.89 -11.874,28.708 10e-4,2.801 0.814,4.522 2.562,5.421 z"
         id="path5867"
         style="fill:#238cb8;fill-opacity:1"
         inkscape:connector-curvature="0" />
      <path
         d="m 43.403,35.316 -0.023,0.501 -0.449,9.696 -0.035,0.762 -0.012,0.257 -0.322,6.957 c 1.569,1.105 2.548,2.519 2.999,3.28 0.48,-0.327 1.337,-0.81 2.549,-1.229 L 47.466,46.503 47.447,46.239 47.393,45.48 46.715,35.964 46.679,35.466 46.643,34.968 46.468,32.51 51.947,25.552 46.113,27.285 45.641,13 h -0.745 l -0.893,10.413 -4.789,-2.628 4.542,6.889 -0.331,7.14 -0.022,0.502 z"
         id="path5869"
         style="fill:#238cb8;fill-opacity:1"
         inkscape:connector-curvature="0" />
      <path
         d="M 16.996,24.413 16.104,14 h -0.745 l -0.471,14.286 -5.834,-1.733 5.479,6.958 -0.014,0.193 -0.2,2.801 -0.036,0.5 -0.036,0.5 -0.811,11.382 c 1.29,-0.339 2.719,-0.535 4.305,-0.535 0.142,0 0.273,0.013 0.413,0.016 l -0.503,-10.862 -0.023,-0.5 -0.023,-0.5 -0.363,-7.832 4.542,-6.889 -4.788,2.628 z"
         id="path5871"
         style="fill:#238cb8;fill-opacity:1"
         inkscape:connector-curvature="0" />
      <path
         d="m 58.649,58 c -1.367,-1.259 -3.223,-2.318 -5.174,-2.318 -1.738,0 -3.168,0.245 -4.313,0.57 -0.181,0.051 -0.358,0.104 -0.525,0.159 -0.157,0.052 -0.312,0.104 -0.456,0.158 -0.381,0.142 -0.715,0.289 -1.006,0.431 -0.955,0.466 -1.432,0.88 -1.442,0.89 L 45.61,58 45.236,58.334 45.076,58 44.948,57.732 C 44.942,57.72 44.799,57.429 44.519,57 c -0.392,-0.602 -1.062,-1.478 -2.014,-2.266 -0.148,-0.122 -0.3,-0.243 -0.462,-0.359 -0.163,-0.118 -0.33,-0.234 -0.507,-0.343 -1.041,-0.64 -2.328,-1.104 -3.869,-1.104 -2.167,0 -3.76,0.658 -4.87,1.403 -0.003,0.002 -0.007,0.004 -0.01,0.006 -0.177,0.119 -0.339,0.24 -0.491,0.361 -0.185,0.147 -0.349,0.293 -0.5,0.435 -0.165,0.156 -0.315,0.308 -0.441,0.449 -0.427,0.478 -0.628,0.833 -0.634,0.844 l -0.508,0.927 -0.395,-0.982 c -0.051,-0.126 -0.629,-1.506 -2.041,-3.01 -0.143,-0.152 -0.301,-0.306 -0.462,-0.46 -0.156,-0.149 -0.325,-0.296 -0.498,-0.445 -0.956,-0.819 -2.177,-1.6 -3.714,-2.178 -0.217,-0.081 -0.435,-0.162 -0.664,-0.234 -0.275,-0.087 -0.568,-0.16 -0.862,-0.232 -0.734,-0.181 -1.517,-0.321 -2.372,-0.393 -0.168,-0.014 -0.349,-0.015 -0.522,-0.024 -0.159,-0.009 -0.318,-0.018 -0.481,-0.022 -0.156,-0.004 -0.299,-0.021 -0.459,-0.021 -1.639,0 -3.08,0.233 -4.382,0.605 -0.162,0.046 -0.325,0.09 -0.482,0.141 -0.182,0.059 -0.368,0.112 -0.543,0.177 C 5.907,52.659 3.774,59.003 3.254,61 H 26.425 26.948 32.2 32.737 60.79 C 60.621,60.435 60.2,59.721 59.601,59 59.322,58.663 59.002,58.325 58.649,58 z"
         id="path5873"
         style="fill:#238cb8;fill-opacity:1"
         inkscape:connector-curvature="0" />
    </g>
    <path
       d="m 436.31918,583.4068 c 10.03205,8.956 24.68778,11.8994 37.88647,6.2951 18.22778,-7.7399 26.72976,-28.7852 18.98881,-47.0152 -6.25224,-14.7239 -21.19498,-23.0891 -36.31435,-21.6828 3.81867,3.4068 6.9921,7.6624 9.12662,12.6895 7.74081,18.2299 -0.76075,39.2752 -18.98881,47.0152 -3.50138,1.4868 -7.10773,2.362 -10.69874,2.6982 z"
       id="path5875"
       style="fill:#238cb8;fill-opacity:1"
       inkscape:connector-curvature="0" />
    <g
       transform="matrix(1.3457645,-0.45770633,0.45770633,1.3457645,3245.8267,955.3471)"
       id="g5877"
       style="fill:#238cb8;fill-opacity:1">
      <path
         d="m -1745.4595,-829.173 c -0.1133,-0.33508 -0.2715,-0.66229 -0.4699,-0.97683 -0.7834,-1.23967 -2.1647,-2.23805 -3.7639,-2.23805 -1.6197,0 -3.0341,0.93095 -3.8156,2.23805 -0.1055,0.17684 -0.2013,0.35949 -0.2833,0.54899 -0.076,-0.18756 -0.167,-0.36735 -0.2667,-0.54122 v -0.007 -0.84504 -0.78344 -3.25595 h -0.6409 -0.4864 -0.3077 -0.5197 -0.065 c 0.021,0.0195 0.044,0.0391 0.065,0.0596 v 1.92055 0.56758 0.50119 c -0.5978,-0.29207 -1.268,-0.45624 -1.9782,-0.45624 -1.4379,0 -3.0654,0.56462 -3.8039,1.88541 -0.2188,0.38973 -0.3419,0.85669 -0.377,1.38321 h -0.01 -0.4083 -0.056 -0.2081 v 1.95375 h 0.3263 0.4064 16.8687 0.5099 0.509 0.9172 v -1.95375 l -2.1453,-9.2e-4 z"
         id="path5879"
         style="fill:#238cb8;fill-opacity:1"
         inkscape:connector-curvature="0" />
      <polygon
         points="242.837,489.887 241.613,485.077 204.989,340.664 164.482,508.247 163.153,513.745 162.522,516.375 187.232,516.375 195.188,516.375 197.11,516.375 201.862,516.375 207.131,516.375 211.998,516.375 214.312,516.375 249.55,516.375 243.794,493.674 "
         transform="matrix(0.1021569,0,0,0.1021569,-1775.9534,-888.76143)"
         id="polygon5881"
         style="fill:#238cb8;fill-opacity:1" />
    </g>
    <g
       transform="matrix(0.37827291,-0.0018901,0.0018901,0.37827291,254.7599,713.9848)"
       id="g5883"
       style="fill:#238cb8;fill-opacity:1">
      <path
         d="m 20.22,37.477 c 1.452,2.892 4.206,5.04 7.588,5.621 l 0.435,0.075 -0.278,6.083 c -0.152,-0.039 -0.322,-0.063 -0.481,-0.095 -0.169,-0.035 -0.333,-0.074 -0.511,-0.101 -0.517,-0.078 -1.061,-0.132 -1.654,-0.132 -0.804,0 -1.546,0.108 -2.228,0.294 0.337,0.118 0.663,0.244 0.975,0.38 0.263,0.115 0.518,0.236 0.763,0.361 0.169,-0.011 0.33,-0.035 0.506,-0.035 0.572,0 1.099,0.049 1.592,0.129 0.177,0.029 0.344,0.064 0.511,0.101 0.163,0.036 0.326,0.073 0.479,0.116 1.445,0.408 2.485,1.109 3.187,1.75 0.195,0.178 0.367,0.352 0.511,0.512 0.296,0.33 0.482,0.599 0.581,0.753 0.045,0.07 0.076,0.123 0.084,0.137 l 0.019,0.035 c 0.12,-0.08 0.238,-0.159 0.369,-0.236 0.044,-0.026 0.08,-0.055 0.125,-0.08 0.2,-0.114 0.428,-0.215 0.651,-0.319 0.726,-1.383 3.1,-4.994 8.43,-6.124 l 0.013,-0.272 0.035,-0.749 c -5.621,1.117 -8.342,4.88 -9.279,6.534 -0.149,-0.186 -0.346,-0.402 -0.566,-0.625 -0.166,-0.169 -0.354,-0.341 -0.563,-0.518 -0.16,-0.135 -0.319,-0.271 -0.505,-0.405 l -0.523,-7.441 0.467,-0.061 c 4.518,-0.585 8.067,-4.026 8.931,-8.356 -4.882,-2.124 -8.37,-6.844 -8.739,-12.407 -0.507,-0.076 -1.022,-0.127 -1.549,-0.127 -0.637,0 -1.257,0.066 -1.863,0.175 0.643,3.153 0.994,5.922 0.994,7.681 -0.001,6.077 -3.571,7.177 -8.507,7.346 z"
         id="path5885"
         style="fill:#238cb8;fill-opacity:1"
         inkscape:connector-curvature="0" />
      <path
         d="m 48.405,45.633 0.055,0.769 0.019,0.271 c 7.534,1.491 10.281,8.03 11.102,10.747 0.186,0.177 0.363,0.356 0.531,0.538 0.317,0.344 0.604,0.694 0.85,1.041 h 0.017 L 60.864,58.406 C 60.841,58.287 58.66,47.509 48.405,45.633 z"
         id="path5887"
         style="fill:#238cb8;fill-opacity:1"
         inkscape:connector-curvature="0" />
      <path
         d="m 32.128,22.079 c 0.008,0.175 0.012,0.351 0.027,0.524 0.428,4.973 3.543,9.179 7.885,11.172 0.158,0.073 0.314,0.149 0.476,0.216 0.156,0.065 0.319,0.116 0.478,0.175 0.469,0.173 0.95,0.321 1.441,0.443 l 0.308,-6.657 -6.583,-9.986 6.979,3.832 0.84,-9.798 h 2.63 l 0.46,13.958 7.61,-2.261 -7.187,9.127 0.145,2.035 c 6.566,-0.953 11.63,-6.603 11.63,-13.429 0,-7.492 -6.095,-13.586 -13.586,-13.586 -7.491,0 -13.586,6.095 -13.586,13.586 0,0.043 0.006,0.085 0.006,0.127 0.002,0.176 0.019,0.348 0.027,0.522 z"
         id="path5889"
         style="fill:#238cb8;fill-opacity:1"
         inkscape:connector-curvature="0" />
      <path
         d="m 6.54,35.553 c 1.7,0.874 4.173,0.953 6.777,0.954 l 0.191,-2.682 -7.187,-9.127 7.61,2.261 L 14.391,13 h 2.63 l 0.84,9.797 6.979,-3.832 -6.583,9.986 0.072,1.546 0.257,5.803 0.021,0.7 c 0.04,0 0.08,0 0.12,0 0.174,0 0.349,-0.249 0.519,-0.251 0.182,-0.002 0.359,-0.131 0.536,-0.135 4.846,-0.108 7.944,-1.016 7.944,-6.423 0,-1.886 -0.339,-4.565 -0.934,-7.495 -0.033,-0.163 -0.066,-0.342 -0.101,-0.507 -0.034,-0.161 -0.07,-0.332 -0.106,-0.494 C 24.607,12.627 20.318,1.424 15.852,1.424 c -6.1,0 -11.874,20.89 -11.874,28.708 10e-4,2.801 0.814,4.522 2.562,5.421 z"
         id="path5891"
         style="fill:#238cb8;fill-opacity:1"
         inkscape:connector-curvature="0" />
      <path
         d="m 43.403,35.316 -0.023,0.501 -0.449,9.696 -0.035,0.762 -0.012,0.257 -0.322,6.957 c 1.569,1.105 2.548,2.519 2.999,3.28 0.48,-0.327 1.337,-0.81 2.549,-1.229 L 47.466,46.503 47.447,46.239 47.393,45.48 46.715,35.964 46.679,35.466 46.643,34.968 46.468,32.51 51.947,25.552 46.113,27.285 45.641,13 h -0.745 l -0.893,10.413 -4.789,-2.628 4.542,6.889 -0.331,7.14 -0.022,0.502 z"
         id="path5893"
         style="fill:#238cb8;fill-opacity:1"
         inkscape:connector-curvature="0" />
      <path
         d="M 16.996,24.413 16.104,14 h -0.745 l -0.471,14.286 -5.834,-1.733 5.479,6.958 -0.014,0.193 -0.2,2.801 -0.036,0.5 -0.036,0.5 -0.811,11.382 c 1.29,-0.339 2.719,-0.535 4.305,-0.535 0.142,0 0.273,0.013 0.413,0.016 l -0.503,-10.862 -0.023,-0.5 -0.023,-0.5 -0.363,-7.832 4.542,-6.889 -4.788,2.628 z"
         id="path5895"
         style="fill:#238cb8;fill-opacity:1"
         inkscape:connector-curvature="0" />
      <path
         d="m 58.649,58 c -1.367,-1.259 -3.223,-2.318 -5.174,-2.318 -1.738,0 -3.168,0.245 -4.313,0.57 -0.181,0.051 -0.358,0.104 -0.525,0.159 -0.157,0.052 -0.312,0.104 -0.456,0.158 -0.381,0.142 -0.715,0.289 -1.006,0.431 -0.955,0.466 -1.432,0.88 -1.442,0.89 L 45.61,58 45.236,58.334 45.076,58 44.948,57.732 C 44.942,57.72 44.799,57.429 44.519,57 c -0.392,-0.602 -1.062,-1.478 -2.014,-2.266 -0.148,-0.122 -0.3,-0.243 -0.462,-0.359 -0.163,-0.118 -0.33,-0.234 -0.507,-0.343 -1.041,-0.64 -2.328,-1.104 -3.869,-1.104 -2.167,0 -3.76,0.658 -4.87,1.403 -0.003,0.002 -0.007,0.004 -0.01,0.006 -0.177,0.119 -0.339,0.24 -0.491,0.361 -0.185,0.147 -0.349,0.293 -0.5,0.435 -0.165,0.156 -0.315,0.308 -0.441,0.449 -0.427,0.478 -0.628,0.833 -0.634,0.844 l -0.508,0.927 -0.395,-0.982 c -0.051,-0.126 -0.629,-1.506 -2.041,-3.01 -0.143,-0.152 -0.301,-0.306 -0.462,-0.46 -0.156,-0.149 -0.325,-0.296 -0.498,-0.445 -0.956,-0.819 -2.177,-1.6 -3.714,-2.178 -0.217,-0.081 -0.435,-0.162 -0.664,-0.234 -0.275,-0.087 -0.568,-0.16 -0.862,-0.232 -0.734,-0.181 -1.517,-0.321 -2.372,-0.393 -0.168,-0.014 -0.349,-0.015 -0.522,-0.024 -0.159,-0.009 -0.318,-0.018 -0.481,-0.022 -0.156,-0.004 -0.299,-0.021 -0.459,-0.021 -1.639,0 -3.08,0.233 -4.382,0.605 -0.162,0.046 -0.325,0.09 -0.482,0.141 -0.182,0.059 -0.368,0.112 -0.543,0.177 C 5.907,52.659 3.774,59.003 3.254,61 H 26.425 26.948 32.2 32.737 60.79 C 60.621,60.435 60.2,59.721 59.601,59 59.322,58.663 59.002,58.325 58.649,58 z"
         id="path5897"
         style="fill:#238cb8;fill-opacity:1"
         inkscape:connector-curvature="0" />
    </g>
    <path
       d="m 397.23251,563.3927 2.43038,-0.014 1.68056,1.7547 c 0.27401,0.2862 0.55894,0.203 0.63695,-0.1852 l 0.51261,-2.5579 2.46717,-0.866 c 0.3736,-0.1314 0.40914,-0.4143 0.0775,-0.6319 l -2.07062,-1.3639 -0.2386,-2.4875 c -0.0373,-0.3946 -0.32034,-0.5146 -0.63059,-0.2678 l -1.95636,1.5544 -2.41849,-0.5444 c -0.38632,-0.087 -0.57471,0.1383 -0.42118,0.5031 l 0.97694,2.3124 -1.37916,2.183 c -0.2137,0.3363 -0.0636,0.6065 0.33251,0.6052 z"
       id="path5899"
       style="fill:#238cb8;fill-opacity:1"
       inkscape:connector-curvature="0" />
    <path
       d="m 386.46945,523.3976 2.36012,-0.014 1.63201,1.7041 c 0.26612,0.2778 0.54276,0.1971 0.61856,-0.1799 l 0.4978,-2.4841 2.3958,-0.8409 c 0.36295,-0.1272 0.39739,-0.4023 0.0761,-0.6135 l -2.01087,-1.3246 -0.23168,-2.4157 c -0.0373,-0.3831 -0.31107,-0.4996 -0.61233,-0.26 l -1.89993,1.5094 -2.3485,-0.5285 c -0.37526,-0.084 -0.55811,0.1342 -0.409,0.4886 l 0.94872,2.2454 -1.33933,2.12 c -0.20762,0.3264 -0.0623,0.589 0.32283,0.5877 z"
       id="path5901"
       style="fill:#238cb8;fill-opacity:1"
       inkscape:connector-curvature="0" />
    <path
       d="m 421.87408,602.154 1.3771,0 0.95231,0.9943 c 0.15519,0.1621 0.31661,0.1148 0.36087,-0.1052 l 0.29047,-1.4493 1.39784,-0.4907 c 0.21176,-0.075 0.23182,-0.2347 0.0443,-0.358 l -1.17321,-0.7728 -0.13555,-1.4094 c -0.0207,-0.2237 -0.18147,-0.2916 -0.35728,-0.1518 l -1.10861,0.8807 -1.37032,-0.3084 c -0.21881,-0.05 -0.3256,0.079 -0.23859,0.285 l 0.55354,1.3103 -0.78149,1.2369 c -0.12034,0.1906 -0.036,0.3437 0.18839,0.343 z"
       id="path5903"
       style="fill:#238cb8;fill-opacity:1"
       inkscape:connector-curvature="0" />
    <path
       d="m 421.35401,486.4243 1.9388,-0.014 1.34071,1.3999 c 0.21868,0.2282 0.44594,0.162 0.50818,-0.1477 l 0.40887,-2.0406 1.96826,-0.6909 c 0.29807,-0.1051 0.32629,-0.3305 0.0622,-0.5041 l -1.65193,-1.088 -0.19032,-1.9844 c -0.0304,-0.3148 -0.25547,-0.4105 -0.50306,-0.2137 l -1.56078,1.24 -1.92925,-0.4342 c -0.30818,-0.069 -0.45853,0.1107 -0.33598,0.4013 l 0.77942,1.8447 -1.10032,1.7416 c -0.17054,0.2682 -0.0512,0.4837 0.26516,0.4827 z"
       id="path5905"
       style="fill:#238cb8;fill-opacity:1"
       inkscape:connector-curvature="0" />
    <path
       d="m 482.42972,485.9305 3.20274,-0.014 2.21475,2.3125 c 0.36114,0.3771 0.73654,0.2675 0.83931,-0.2441 l 0.67554,-3.3709 3.2513,-1.1412 c 0.49241,-0.173 0.53916,-0.5459 0.10235,-0.8326 l -2.72873,-1.7975 -0.3144,-3.2781 c -0.0498,-0.5199 -0.42214,-0.678 -0.83101,-0.3529 l -2.57824,2.0484 -3.18698,-0.7173 c -0.50915,-0.1148 -0.75743,0.1821 -0.55507,0.6629 l 1.28746,3.0473 -1.81749,2.8769 c -0.28175,0.443 -0.0844,0.7992 0.43805,0.7975 z"
       id="path5907"
       style="fill:#238cb8;fill-opacity:1"
       inkscape:connector-curvature="0" />
    <path
       d="m 427.70542,545.0753 3.20275,-0.014 2.21474,2.3125 c 0.36115,0.3771 0.73654,0.2675 0.83931,-0.2441 l 0.67555,-3.371 3.25129,-1.1411 c 0.49241,-0.173 0.53916,-0.5459 0.10236,-0.8326 l -2.72873,-1.7975 -0.3144,-3.2781 c -0.0498,-0.52 -0.42215,-0.678 -0.83101,-0.3529 l -2.57825,2.0484 -3.18697,-0.7173 c -0.50915,-0.1148 -0.75743,0.1821 -0.55507,0.6629 l 1.28746,3.0473 -1.8175,2.8769 c -0.28175,0.443 -0.0844,0.7992 0.43806,0.7975 z"
       id="path5909"
       style="fill:#238cb8;fill-opacity:1"
       inkscape:connector-curvature="0" />
    <g
       transform="matrix(1.3831771,0,0,1.3831771,2764.4904,1099.5972)"
       id="g5911">
      <rect
         width="134.09224"
         height="20.008755"
         rx="10.790869"
         x="-1876.1313"
         y="-299.73279"
         id="rect5913"
         style="fill:#061a21;fill-opacity:0.58064515;stroke:none" />
      <text
         x="-1866.175"
         y="-285.36514"
         id="text5915"
         xml:space="preserve"
         style="font-size:15.81654739px;font-style:normal;font-variant:normal;font-weight:normal;font-stretch:normal;text-align:start;line-height:125%;letter-spacing:0px;word-spacing:0px;writing-mode:lr-tb;text-anchor:start;fill:#ffffff;fill-opacity:1;stroke:none;font-family:Sawasdee;-inkscape-font-specification:Sawasdee"
         sodipodi:linespacing="125%"><tspan
           x="-1866.175"
           y="-285.36514"
           id="tspan5917"
           style="font-size:16px;font-weight:normal;fill:#ffffff;-inkscape-font-specification:Sawasdee">www.entpy.com</tspan></text>
    </g>
    <g
       transform="matrix(1.3831771,0,0,1.3831771,1.0856445e-4,-717.98608)"
       id="g5919">
      <path
         d="m 285.31428,1033.1569 -4.8667,14.7555 9.9996,-0.091 z"
         id="path5921"
         style="fill:#1d7393;fill-opacity:1;fill-rule:evenodd;stroke:none"
         inkscape:connector-curvature="0" />
      <path
         d="m 275.48058,1041.3757 -2.6941,8.1685 5.5357,-0.05 z"
         id="path5923"
         style="fill:#1d7393;fill-opacity:1;fill-rule:evenodd;stroke:none"
         inkscape:connector-curvature="0" />
      <g
         transform="matrix(0.72109951,0,0,0.72109951,1498.4945,1648.8688)"
         id="g5925"
         style="fill:#238cb8;fill-opacity:1">
        <path
           d="m -1648.9604,-890.8686 h -2.9605 -2.9604 v 1.48016 1.48017 2.96062 1.48016 2.96047 1.48017 2.96048 1.48015 2.96048 1.48017 2.96047 1.48016 2.96047 1.48017 2.96048 1.48015 2.96048 1.48016 2.9611 1.48016 2.96047 14.80239 h -1.4803 v -14.80239 h -7.4011 v -2.96047 h 7.4011 v -1.48016 h -7.4011 v -2.96047 h 7.4011 v -1.48017 h -7.4011 v -2.96048 h 7.4011 v -1.48015 h -7.4011 v -2.96064 h 7.4011 v -1.48016 h -7.4011 v -2.96047 h 7.4011 v -1.48017 h -7.4011 v -2.96048 h 7.4011 v -1.48015 h -7.4011 v -2.96048 h 7.4011 v -1.48015 h -7.4011 v -2.9608 h 7.4011 v -1.48015 h -7.4011 v -2.96049 h 7.4011 v -1.48031 h -7.4011 v -2.96047 h 7.4011 v -1.48017 h -7.4011 v -2.96048 h 7.4011 1.4803 0.74 2.2204 2.9605 v -7.4011 h -2.9605 v -2.96064 h -2.9604 v -2.96048 h -1.4803 v -8.88142 h -2.9604 v 8.88142 h -1.4801 v 2.96048 h -2.9606 v 2.96047 h -2.9604 v 69.57128 h -4.4408 v -20.72334 l -4.4023,-13.32205 h -7.4396 v 4.44078 h 1.4801 v -2.96048 h 4.8938 l 3.9877,11.96188 v 20.60336 h -4.4408 v 2.96048 h 20.7234 1.4803 17.7628 v -2.96048 -60.68999 h -11.8419 z m -14.8023,-5.92095 h 11.8419 v 2.96048 h -11.8419 v -2.96048 z m 16.2826,56.24905 v -2.96048 h 2.9604 v 2.96048 h -2.9604 z m -4.4407,-2.96048 h 2.9606 v 2.96048 h -2.9606 v -2.96048 z m 0,-4.44079 h 2.9606 v 2.96047 h -2.9606 v -2.96047 z m 0,-4.44063 h 2.9606 v 2.96047 h -2.9606 v -2.96047 z m 0,-4.44065 h 2.9606 v 2.96048 h -2.9606 v -2.96048 z m 0,-4.44079 h 2.9606 v 2.96047 h -2.9606 v -2.96047 z m 0,-4.44079 h 2.9606 v 2.96048 h -2.9606 v -2.96048 z m 0,-4.44064 h 2.9606 v 2.96047 h -2.9606 v -2.96047 z m 0,-4.44063 h 2.9606 v 2.96048 h -2.9606 v -2.96048 z m 0,-4.4408 h 2.9606 v 2.96048 h -2.9606 v -2.96048 z m 0,-4.44079 h 2.9606 v 2.96047 h -2.9606 v -2.96047 z m 7.4011,2.96064 h -2.9604 v -2.96049 h 2.9604 v 2.96049 z m 0,4.44063 h -2.9604 v -2.96048 h 2.9604 v 2.96048 z m 0,4.44064 h -2.9604 v -2.96049 h 2.9604 v 2.96049 z m 0,4.44078 h -2.9604 v -2.96047 h 2.9604 v 2.96047 z m 0,4.4408 h -2.9604 v -2.96047 h 2.9604 v 2.96047 z m 0,4.44063 h -2.9604 v -2.96047 h 2.9604 v 2.96047 z m 0,4.44064 h -2.9604 v -2.96047 h 2.9604 v 2.96047 z m 0,4.4408 h -2.9604 v -2.96047 h 2.9604 v 2.96047 z m 0,4.44078 h -2.9604 v -2.96047 h 2.9604 v 2.96047 z m 1.4803,1.48017 h 2.9604 v 2.96048 h -2.9604 v -2.96048 z m 0,-1.48017 v -2.96047 h 2.9604 v 2.96047 h -2.9604 z m 0,-4.44078 v -2.96047 h 2.9604 v 2.96047 h -2.9604 z m 0,-4.4408 v -2.96047 h 2.9604 v 2.96047 h -2.9604 z m 0,-4.44064 v -2.96047 h 2.9604 v 2.96047 h -2.9604 z m 0,-4.44063 v -2.96047 h 2.9604 v 2.96047 h -2.9604 z m 0,-4.4408 v -2.96047 h 2.9604 v 2.96047 h -2.9604 z m 0,-4.44078 v -2.96049 h 2.9604 v 2.96049 h -2.9604 z m 0,-4.44064 v -2.96048 h 2.9604 v 2.96048 h -2.9604 z m 0,-4.44063 v -2.96049 h 2.9604 v 2.96049 h -2.9604 z m 0,-4.4408 v -2.96047 h 2.9604 v 2.96047 h -2.9604 z m -1.4803,0 h -2.9604 v -2.96047 h 2.9604 v 2.96047 z m -4.4407,-2.96047 v 2.96047 h -2.9605 v -2.96047 h 2.9605 z"
           id="path5927"
           style="fill:#238cb8;fill-opacity:1"
           inkscape:connector-curvature="0" />
        <polygon
           points="357.75,439.875 405.562,439.875 386.438,401.625 376.875,401.625 "
           transform="matrix(0.14349697,0,0,0.14349697,-1737.0382,-917.39995)"
           id="polygon5929"
           style="fill:#238cb8;fill-opacity:1" />
      </g>
      <g
         transform="matrix(0.63288311,0,0,0.63288311,1409.5301,1576.3422)"
         id="g5931"
         style="fill:#238cb8;fill-opacity:1">
        <path
           d="m -1813.7837,-869.93103 h 1.9537 1.9538 v 0.97682 0.97683 1.95385 0.97683 1.95375 0.97682 1.95375 0.97683 1.95375 0.97682 1.95375 0.97683 1.95375 0.97682 1.95375 0.97683 1.95375 0.97682 1.95416 0.97682 1.95376 9.76875 h 0.9768 v -9.76875 h 4.8843 v -1.95376 h -4.8843 v -0.97682 h 4.8843 v -1.95375 h -4.8843 v -0.97682 h 4.8843 v -1.95376 h -4.8843 v -0.97682 h 4.8843 v -1.95385 h -4.8843 v -0.97683 h 4.8843 v -1.95375 h -4.8843 v -0.97682 h 4.8843 v -1.95375 h -4.8843 v -0.97683 h 4.8843 v -1.95375 h -4.8843 v -0.97682 h 4.8843 v -1.95396 h -4.8843 v -0.97682 h 4.8843 v -1.95375 h -4.8843 v -0.97693 h 4.8843 v -1.95375 h -4.8843 v -0.97682 h 4.8843 v -1.95375 h -4.8843 -0.9768 -0.4885 -1.4653 -1.9537 v -4.88433 h 1.9537 v -1.95385 h 1.9538 v -1.95375 h 0.9768 v -5.86126 h 1.9537 v 5.86126 h 0.9769 v 1.95375 h 1.9537 v 1.95375 h 1.9538 v 45.91319 h 2.9306 v -13.67625 l 2.9053,-8.79183 h 4.9097 v 2.93068 h -0.9768 v -1.95375 h -3.2296 l -2.6316,7.89417 v 13.59708 h 2.9306 v 1.95375 h -13.6763 -0.9768 -11.7225 v -1.95375 -40.05204 h 7.815 z m 9.7686,-3.9075 h -7.815 v 1.95375 h 7.815 v -1.95375 z m -10.7456,37.12126 v -1.95375 h -1.9537 v 1.95375 h 1.9537 z m 2.9306,-1.95375 h -1.9537 v 1.95375 h 1.9537 v -1.95375 z m 0,-2.93068 h -1.9537 v 1.95376 h 1.9537 v -1.95376 z m 0,-2.93057 h -1.9537 v 1.95375 h 1.9537 v -1.95375 z m 0,-2.93058 h -1.9537 v 1.95376 h 1.9537 v -1.95376 z m 0,-2.93067 h -1.9537 v 1.95375 h 1.9537 v -1.95375 z m 0,-2.93068 h -1.9537 v 1.95375 h 1.9537 v -1.95375 z m 0,-2.93057 h -1.9537 v 1.95375 h 1.9537 v -1.95375 z m 0,-2.93058 h -1.9537 v 1.95375 h 1.9537 v -1.95375 z m 0,-2.93068 h -1.9537 v 1.95375 h 1.9537 v -1.95375 z m 0,-2.93067 h -1.9537 v 1.95375 h 1.9537 v -1.95375 z m -4.8843,1.95385 h 1.9537 v -1.95375 h -1.9537 v 1.95375 z m 0,2.93057 h 1.9537 v -1.95375 h -1.9537 v 1.95375 z m 0,2.93058 h 1.9537 v -1.95375 h -1.9537 v 1.95375 z m 0,2.93068 h 1.9537 v -1.95375 h -1.9537 v 1.95375 z m 0,2.93067 h 1.9537 v -1.95375 h -1.9537 v 1.95375 z m 0,2.93058 h 1.9537 v -1.95375 h -1.9537 v 1.95375 z m 0,2.93057 h 1.9537 v -1.95375 h -1.9537 v 1.95375 z m 0,2.93068 h 1.9537 v -1.95375 h -1.9537 v 1.95375 z m 0,2.93068 h 1.9537 v -1.95375 h -1.9537 v 1.95375 z m -0.9768,0.97682 h -1.9538 v 1.95375 h 1.9538 v -1.95375 z m 0,-0.97682 v -1.95375 h -1.9538 v 1.95375 h 1.9538 z m 0,-2.93068 v -1.95375 h -1.9538 v 1.95375 h 1.9538 z m 0,-2.93068 v -1.95375 h -1.9538 v 1.95375 h 1.9538 z m 0,-2.93057 v -1.95375 h -1.9538 v 1.95375 h 1.9538 z m 0,-2.93058 v -1.95375 h -1.9538 v 1.95375 h 1.9538 z m 0,-2.93067 v -1.95375 h -1.9538 v 1.95375 h 1.9538 z m 0,-2.93068 v -1.95375 h -1.9538 v 1.95375 h 1.9538 z m 0,-2.93058 v -1.95375 h -1.9538 v 1.95375 h 1.9538 z m 0,-2.93057 v -1.95375 h -1.9538 v 1.95375 h 1.9538 z m 0,-2.93068 v -1.95375 h -1.9538 v 1.95375 h 1.9538 z m 0.9768,0 h 1.9537 v -1.95375 h -1.9537 v 1.95375 z m 2.9307,-1.95375 v 1.95375 h 1.9537 v -1.95375 h -1.9537 z"
           id="path5933"
           style="fill:#238cb8;fill-opacity:1"
           inkscape:connector-curvature="0" />
        <polygon
           points="405.562,439.875 386.438,401.625 376.875,401.625 357.75,439.875 "
           transform="matrix(0.1021569,0,0,0.1021569,-1830.7912,-890.41768)"
           id="polygon5935"
           style="fill:#238cb8;fill-opacity:1" />
      </g>
      <g
         transform="matrix(0.72541976,0,0,0.72541976,1550.8655,1648.0446)"
         id="g5937"
         style="fill:#ffffff;fill-opacity:1;fill-rule:nonzero">
        <path
           d="m 312.54121,450.27011 c 0,9.27495 -7.83542,16.79379 -17.5009,16.79379 -9.66547,0 -17.50089,-7.51884 -17.50089,-16.79379 0,-9.27495 7.83542,-16.79379 17.50089,-16.79379 9.66548,0 17.5009,7.51884 17.5009,16.79379 z"
           transform="matrix(-0.01614124,0,0,-0.0143447,-1741.3248,-839.65972)"
           id="path5939"
           style="fill:#ffffff;stroke:none;filter:url(#filter4561-3-0)"
           inkscape:connector-curvature="0" />
        <path
           d="m 312.54121,450.27011 c 0,9.27495 -7.83542,16.79379 -17.5009,16.79379 -9.66547,0 -17.50089,-7.51884 -17.50089,-16.79379 0,-9.27495 7.83542,-16.79379 17.50089,-16.79379 9.66548,0 17.5009,7.51884 17.5009,16.79379 z"
           transform="matrix(-0.01614124,0,0,-0.0143447,-1735.7603,-836.91405)"
           id="path5941"
           style="fill:#ffffff;stroke:none;filter:url(#filter4561-3-0)"
           inkscape:connector-curvature="0" />
        <path
           d="m 312.54121,450.27011 c 0,9.27495 -7.83542,16.79379 -17.5009,16.79379 -9.66547,0 -17.50089,-7.51884 -17.50089,-16.79379 0,-9.27495 7.83542,-16.79379 17.50089,-16.79379 9.66548,0 17.5009,7.51884 17.5009,16.79379 z"
           transform="matrix(-0.01614124,0,0,-0.0143447,-1741.1028,-836.73532)"
           id="path5943"
           style="fill:#ffffff;stroke:none;filter:url(#filter4561-3-0)"
           inkscape:connector-curvature="0" />
        <path
           d="m 312.54121,450.27011 c 0,9.27495 -7.83542,16.79379 -17.5009,16.79379 -9.66547,0 -17.50089,-7.51884 -17.50089,-16.79379 0,-9.27495 7.83542,-16.79379 17.50089,-16.79379 9.66548,0 17.5009,7.51884 17.5009,16.79379 z"
           transform="matrix(-0.01614124,0,0,-0.0143447,-1738.9048,-838.92727)"
           id="path5945"
           style="fill:#ffffff;stroke:none;filter:url(#filter4561-3-0)"
           inkscape:connector-curvature="0" />
        <path
           d="m 312.54121,450.27011 c 0,9.27495 -7.83542,16.79379 -17.5009,16.79379 -9.66547,0 -17.50089,-7.51884 -17.50089,-16.79379 0,-9.27495 7.83542,-16.79379 17.50089,-16.79379 9.66548,0 17.5009,7.51884 17.5009,16.79379 z"
           transform="matrix(-0.01614124,0,0,-0.0143447,-1743.7969,-837.66145)"
           id="path5947"
           style="fill:#ffffff;stroke:none;filter:url(#filter4561-3-0)"
           inkscape:connector-curvature="0" />
        <path
           d="m 312.54121,450.27011 c 0,9.27495 -7.83542,16.79379 -17.5009,16.79379 -9.66547,0 -17.50089,-7.51884 -17.50089,-16.79379 0,-9.27495 7.83542,-16.79379 17.50089,-16.79379 9.66548,0 17.5009,7.51884 17.5009,16.79379 z"
           transform="matrix(-0.01614124,0,0,-0.0143447,-1737.5824,-833.7637)"
           id="path5949"
           style="fill:#ffffff;stroke:none;filter:url(#filter4561-3-0)"
           inkscape:connector-curvature="0" />
        <path
           d="m 312.54121,450.27011 c 0,9.27495 -7.83542,16.79379 -17.5009,16.79379 -9.66547,0 -17.50089,-7.51884 -17.50089,-16.79379 0,-9.27495 7.83542,-16.79379 17.50089,-16.79379 9.66548,0 17.5009,7.51884 17.5009,16.79379 z"
           transform="matrix(-0.01614124,0,0,-0.0143447,-1738.8645,-835.87614)"
           id="path5951"
           style="fill:#ffffff;stroke:none;filter:url(#filter4561-3-0)"
           inkscape:connector-curvature="0" />
        <path
           d="m 312.54121,450.27011 c 0,9.27495 -7.83542,16.79379 -17.5009,16.79379 -9.66547,0 -17.50089,-7.51884 -17.50089,-16.79379 0,-9.27495 7.83542,-16.79379 17.50089,-16.79379 9.66548,0 17.5009,7.51884 17.5009,16.79379 z"
           transform="matrix(-0.01614124,0,0,-0.0143447,-1743.5469,-834.16145)"
           id="path5953"
           style="fill:#ffffff;stroke:none;filter:url(#filter4561-3-0)"
           inkscape:connector-curvature="0" />
      </g>
      <g
         transform="matrix(0.29960153,0,0,0.29960153,798.12519,1295.3687)"
         id="g5955"
         style="fill:#ffffff;fill-opacity:1;fill-rule:nonzero">
        <path
           d="m 312.54121,450.27011 a 17.500895,16.793789 0 1 1 -35.00179,0 17.500895,16.793789 0 1 1 35.00179,0 z"
           transform="matrix(-0.01614124,0,0,-0.0143447,-1741.3248,-839.65972)"
           id="path5957"
           style="fill:#ffffff;fill-opacity:1;fill-rule:nonzero;stroke:none;filter:url(#filter4561-3-0)"
           inkscape:connector-curvature="0" />
        <path
           d="m 312.54121,450.27011 a 17.500895,16.793789 0 1 1 -35.00179,0 17.500895,16.793789 0 1 1 35.00179,0 z"
           transform="matrix(-0.01614124,0,0,-0.0143447,-1735.7603,-836.91405)"
           id="path5959"
           style="fill:#ffffff;fill-opacity:1;fill-rule:nonzero;stroke:none;filter:url(#filter4561-3-0)"
           inkscape:connector-curvature="0" />
        <path
           d="m 312.54121,450.27011 a 17.500895,16.793789 0 1 1 -35.00179,0 17.500895,16.793789 0 1 1 35.00179,0 z"
           transform="matrix(-0.01614124,0,0,-0.0143447,-1741.1028,-836.73532)"
           id="path5961"
           style="fill:#ffffff;fill-opacity:1;fill-rule:nonzero;stroke:none;filter:url(#filter4561-3-0)"
           inkscape:connector-curvature="0" />
        <path
           d="m 312.54121,450.27011 a 17.500895,16.793789 0 1 1 -35.00179,0 17.500895,16.793789 0 1 1 35.00179,0 z"
           transform="matrix(-0.01614124,0,0,-0.0143447,-1738.9048,-838.92727)"
           id="path5963"
           style="fill:#ffffff;fill-opacity:1;fill-rule:nonzero;stroke:none;filter:url(#filter4561-3-0)"
           inkscape:connector-curvature="0" />
        <path
           d="m 312.54121,450.27011 a 17.500895,16.793789 0 1 1 -35.00179,0 17.500895,16.793789 0 1 1 35.00179,0 z"
           transform="matrix(-0.01614124,0,0,-0.0143447,-1743.7969,-837.66145)"
           id="path5965"
           style="fill:#ffffff;fill-opacity:1;fill-rule:nonzero;stroke:none;filter:url(#filter4561-3-0)"
           inkscape:connector-curvature="0" />
        <path
           d="m 312.54121,450.27011 a 17.500895,16.793789 0 1 1 -35.00179,0 17.500895,16.793789 0 1 1 35.00179,0 z"
           transform="matrix(-0.01614124,0,0,-0.0143447,-1737.5824,-833.7637)"
           id="path5967"
           style="fill:#ffffff;fill-opacity:1;fill-rule:nonzero;stroke:none;filter:url(#filter4561-3-0)"
           inkscape:connector-curvature="0" />
        <path
           d="m 312.54121,450.27011 a 17.500895,16.793789 0 1 1 -35.00179,0 17.500895,16.793789 0 1 1 35.00179,0 z"
           transform="matrix(-0.01614124,0,0,-0.0143447,-1738.8645,-835.87614)"
           id="path5969"
           style="fill:#ffffff;fill-opacity:1;fill-rule:nonzero;stroke:none;filter:url(#filter4561-3-0)"
           inkscape:connector-curvature="0" />
        <path
           d="m 312.54121,450.27011 a 17.500895,16.793789 0 1 1 -35.00179,0 17.500895,16.793789 0 1 1 35.00179,0 z"
           transform="matrix(-0.01614124,0,0,-0.0143447,-1743.5469,-834.16145)"
           id="path5971"
           style="fill:#ffffff;fill-opacity:1;fill-rule:nonzero;stroke:none;filter:url(#filter4561-3-0)"
           inkscape:connector-curvature="0" />
      </g>
    </g>
    <g
       transform="translate(-1.1435547e-5,247.5236)"
       id="g5351">
      <g
         style="fill:#98d7ea;fill-opacity:1"
         id="g5547"
         transform="matrix(1.2226174,-0.01503343,0.01503343,1.2226174,76.412496,377.39441)">
        <g
           style="fill:#98d7ea;fill-opacity:1"
           id="g5549" />
        <g
           style="fill:#98d7ea;fill-opacity:1"
           id="g5551" />
        <g
           style="fill:#98d7ea;fill-opacity:1"
           id="g5553" />
        <g
           style="fill:#98d7ea;fill-opacity:1"
           id="g5555" />
        <g
           style="fill:#98d7ea;fill-opacity:1"
           id="g5557" />
        <g
           style="fill:#98d7ea;fill-opacity:1"
           id="g5559" />
        <g
           style="fill:#98d7ea;fill-opacity:1"
           id="g5561" />
        <g
           style="fill:#98d7ea;fill-opacity:1"
           id="g5563" />
        <g
           style="fill:#98d7ea;fill-opacity:1"
           id="g5565" />
        <g
           style="fill:#98d7ea;fill-opacity:1"
           id="g5567" />
        <g
           style="fill:#98d7ea;fill-opacity:1"
           id="g5569" />
        <g
           style="fill:#98d7ea;fill-opacity:1"
           id="g5571" />
        <g
           style="fill:#98d7ea;fill-opacity:1"
           id="g5573" />
        <g
           style="fill:#98d7ea;fill-opacity:1"
           id="g5575" />
        <g
           style="fill:#98d7ea;fill-opacity:1"
           id="g5577" />
        <g
           style="fill:#98d7ea;fill-opacity:1"
           id="g5579" />
        <g
           style="fill:#98d7ea;fill-opacity:1"
           id="g5581" />
        <g
           style="fill:#98d7ea;fill-opacity:1"
           id="g5583" />
        <g
           style="fill:#98d7ea;fill-opacity:1"
           id="g5585" />
        <g
           style="fill:#98d7ea;fill-opacity:1"
           id="g5587" />
        <g
           style="fill:#98d7ea;fill-opacity:1"
           id="g5589" />
        <g
           style="fill:#98d7ea;fill-opacity:1"
           id="g5591" />
        <g
           style="fill:#98d7ea;fill-opacity:1"
           id="g5593" />
        <g
           style="fill:#98d7ea;fill-opacity:1"
           id="g5595" />
        <g
           style="fill:#98d7ea;fill-opacity:1"
           id="g5597">
          <g
             style="fill:#98d7ea;fill-opacity:1"
             id="g5599">
            <path
               inkscape:connector-curvature="0"
               style="fill:#98d7ea;fill-opacity:1"
               id="path5601"
               d="m 13.352,14.548 c 0,-0.396 0,-0.795 0,-1.193 V 10.9 10.646 H 2.189 0.31 0.216 v 26 2.134 0.575 H 13.355 V 37.65 c 0.011,-0.063 0.013,-0.12 0,-0.174 v -0.83 H 13.352 V 14.548 z M 4.512,29.039 C 4.366,29.429 4.051,29.79 3.591,29.728 3.056,29.657 2.586,29.319 2.586,28.723 c 0,-0.596 0.47,-0.933 1.005,-1.004 0.484,-0.064 0.806,0.338 0.941,0.748 0.046,0.078 0.074,0.163 0.063,0.256 0.017,0.133 -0.023,0.233 -0.083,0.316 z m 2.229,6.046 C 5.774,35.033 4.82,34.276 4.878,33.226 4.93,32.257 5.69,31.31 6.741,31.366 c 1.052,0.058 1.8,0.81 1.856,1.86 C 8.545,34.19 7.79,35.142 6.741,35.085 z M 5.789,28.632 c 0,-0.596 0.47,-0.934 1.005,-1.005 0.483,-0.064 0.806,0.337 0.941,0.748 0.046,0.078 0.076,0.163 0.063,0.257 0.017,0.132 -0.022,0.231 -0.084,0.314 -0.145,0.389 -0.46,0.752 -0.921,0.689 C 6.259,29.563 5.789,29.228 5.789,28.632 z m 5.209,0.314 c -0.145,0.389 -0.46,0.752 -0.921,0.689 -0.537,-0.072 -1.005,-0.408 -1.005,-1.004 0,-0.596 0.468,-0.934 1.005,-1.005 0.484,-0.064 0.806,0.337 0.942,0.748 0.045,0.078 0.073,0.163 0.062,0.257 0.018,0.133 -0.022,0.232 -0.083,0.315 z m -0.553,-4.828 c -2.408,0 -4.815,0 -7.224,0 -1.004,0 -1.004,-1.557 0,-1.557 2.408,0 4.815,0 7.224,0 1.004,0.001 1.004,1.557 0,1.557 z m 0.079,-2.811 c -2.407,0 -4.815,0 -7.224,0 -1.003,0 -1.003,-1.556 0,-1.556 2.408,0 4.816,0 7.224,0 1.005,0 1.005,1.556 0,1.556 z m 0,-2.999 c -2.407,0 -4.815,0 -7.224,0 -1.003,0 -1.003,-1.555 0,-1.555 2.408,0 4.816,0 7.224,0 1.005,0 1.005,1.555 0,1.555 z m 0,-2.859 c -2.407,0 -4.815,0 -7.224,0 -1.003,0 -1.003,-1.556 0,-1.556 2.408,0 4.816,0 7.224,0 1.005,10e-4 1.005,1.556 0,1.556 z" />
            <path
               inkscape:connector-curvature="0"
               style="fill:#98d7ea;fill-opacity:1"
               id="path5603"
               d="M 49.783,35.604 V 13.416 H 15.151 v 22.188 h 14.136 v 1.429 h -7.39 v 1.178 H 42.586 V 37.033 H 35.357 V 35.604 H 49.783 z M 17.685,32.336 V 15.949 H 47.249 V 32.336 H 17.685 z" />
          </g>
        </g>
        <g
           style="fill:#98d7ea;fill-opacity:1"
           id="g5605" />
        <g
           style="fill:#98d7ea;fill-opacity:1"
           id="g5607" />
        <g
           style="fill:#98d7ea;fill-opacity:1"
           id="g5609" />
        <g
           style="fill:#98d7ea;fill-opacity:1"
           id="g5611" />
        <g
           style="fill:#98d7ea;fill-opacity:1"
           id="g5613" />
        <g
           style="fill:#98d7ea;fill-opacity:1"
           id="g5615" />
        <g
           style="fill:#98d7ea;fill-opacity:1"
           id="g5617" />
        <g
           style="fill:#98d7ea;fill-opacity:1"
           id="g5619" />
        <g
           style="fill:#98d7ea;fill-opacity:1"
           id="g5621" />
        <g
           style="fill:#98d7ea;fill-opacity:1"
           id="g5623" />
        <g
           style="fill:#98d7ea;fill-opacity:1"
           id="g5625" />
        <g
           style="fill:#98d7ea;fill-opacity:1"
           id="g5627" />
        <g
           style="fill:#98d7ea;fill-opacity:1"
           id="g5629" />
        <g
           style="fill:#98d7ea;fill-opacity:1"
           id="g5631" />
        <g
           style="fill:#98d7ea;fill-opacity:1"
           id="g5633" />
        <g
           style="fill:#98d7ea;fill-opacity:1"
           id="g5635" />
        <g
           style="fill:#98d7ea;fill-opacity:1"
           id="g5637" />
        <g
           style="fill:#98d7ea;fill-opacity:1"
           id="g5639" />
        <g
           style="fill:#98d7ea;fill-opacity:1"
           id="g5641" />
        <g
           style="fill:#98d7ea;fill-opacity:1"
           id="g5643" />
        <g
           style="fill:#98d7ea;fill-opacity:1"
           id="g5645" />
        <g
           style="fill:#98d7ea;fill-opacity:1"
           id="g5647" />
        <g
           style="fill:#98d7ea;fill-opacity:1"
           id="g5649" />
        <g
           style="fill:#98d7ea;fill-opacity:1"
           id="g5651" />
        <g
           style="fill:#98d7ea;fill-opacity:1"
           id="g5653" />
        <g
           style="fill:#98d7ea;fill-opacity:1"
           id="g5655" />
        <g
           style="fill:#98d7ea;fill-opacity:1"
           id="g5657" />
        <g
           style="fill:#98d7ea;fill-opacity:1"
           id="g5659" />
        <g
           style="fill:#98d7ea;fill-opacity:1"
           id="g5661" />
        <g
           style="fill:#98d7ea;fill-opacity:1"
           id="g5663" />
        <g
           style="fill:#98d7ea;fill-opacity:1"
           id="g5665" />
        <g
           style="fill:#98d7ea;fill-opacity:1"
           id="g5667" />
        <g
           style="fill:#98d7ea;fill-opacity:1"
           id="g5669" />
        <g
           style="fill:#98d7ea;fill-opacity:1"
           id="g5671" />
        <g
           style="fill:#98d7ea;fill-opacity:1"
           id="g5673" />
        <g
           style="fill:#98d7ea;fill-opacity:1"
           id="g5675" />
        <g
           style="fill:#98d7ea;fill-opacity:1"
           id="g5677" />
        <g
           style="fill:#98d7ea;fill-opacity:1"
           id="g5679" />
        <g
           style="fill:#98d7ea;fill-opacity:1"
           id="g5681" />
        <g
           style="fill:#98d7ea;fill-opacity:1"
           id="g5683" />
        <g
           style="fill:#98d7ea;fill-opacity:1"
           id="g5685" />
        <g
           style="fill:#98d7ea;fill-opacity:1"
           id="g5687" />
        <g
           style="fill:#98d7ea;fill-opacity:1"
           id="g5689" />
        <g
           style="fill:#98d7ea;fill-opacity:1"
           id="g5691" />
        <g
           style="fill:#98d7ea;fill-opacity:1"
           id="g5693" />
        <g
           style="fill:#98d7ea;fill-opacity:1"
           id="g5695" />
        <g
           style="fill:#98d7ea;fill-opacity:1"
           id="g5697" />
        <g
           style="fill:#98d7ea;fill-opacity:1"
           id="g5699" />
        <g
           style="fill:#98d7ea;fill-opacity:1"
           id="g5701" />
        <g
           style="fill:#98d7ea;fill-opacity:1"
           id="g5703" />
        <g
           style="fill:#98d7ea;fill-opacity:1"
           id="g5705" />
        <g
           style="fill:#98d7ea;fill-opacity:1"
           id="g5707" />
        <g
           style="fill:#98d7ea;fill-opacity:1"
           id="g5709" />
        <g
           style="fill:#98d7ea;fill-opacity:1"
           id="g5711" />
        <g
           style="fill:#98d7ea;fill-opacity:1"
           id="g5713" />
        <g
           style="fill:#98d7ea;fill-opacity:1"
           id="g5715" />
        <g
           style="fill:#98d7ea;fill-opacity:1"
           id="g5717" />
        <g
           style="fill:#98d7ea;fill-opacity:1"
           id="g5719" />
        <g
           style="fill:#98d7ea;fill-opacity:1"
           id="g5721" />
        <g
           style="fill:#98d7ea;fill-opacity:1"
           id="g5723" />
        <g
           style="fill:#98d7ea;fill-opacity:1"
           id="g5725" />
        <g
           style="fill:#98d7ea;fill-opacity:1"
           id="g5727" />
        <g
           style="fill:#98d7ea;fill-opacity:1"
           id="g5729" />
        <g
           style="fill:#98d7ea;fill-opacity:1"
           id="g5731" />
        <g
           style="fill:#98d7ea;fill-opacity:1"
           id="g5733" />
        <g
           style="fill:#98d7ea;fill-opacity:1"
           id="g5735" />
        <g
           style="fill:#98d7ea;fill-opacity:1"
           id="g5737" />
        <g
           style="fill:#98d7ea;fill-opacity:1"
           id="g5739" />
        <g
           style="fill:#98d7ea;fill-opacity:1"
           id="g5741" />
        <g
           style="fill:#98d7ea;fill-opacity:1"
           id="g5743" />
        <g
           style="fill:#98d7ea;fill-opacity:1"
           id="g5745" />
        <g
           style="fill:#98d7ea;fill-opacity:1"
           id="g5747" />
        <g
           style="fill:#98d7ea;fill-opacity:1"
           id="g5749" />
        <g
           style="fill:#98d7ea;fill-opacity:1"
           id="g5751" />
        <g
           style="fill:#98d7ea;fill-opacity:1"
           id="g5753" />
      </g>
      <text
         sodipodi:linespacing="125%"
         style="font-size:5.68466425px;font-style:normal;font-weight:normal;line-height:125%;letter-spacing:0px;word-spacing:0px;fill:#98d7ea;fill-opacity:1;stroke:none;font-family:Sans"
         xml:space="preserve"
         id="text5973"
         transform="matrix(0.99957978,-0.02898727,0.02898727,0.99957978,0,0)"
         y="405.51208"
         x="88.416763"><tspan
           id="tspan5975"
           y="405.51208"
           x="88.416763">$_</tspan></text>
    </g>
    <rect
       width="524.40924"
       height="7.7504263"
       x="0"
       y="736.34399"
       id="rect5977"
       style="fill:#238cb8;fill-opacity:1;fill-rule:nonzero;stroke:none" />
    <rect
       style="fill:#061a21;fill-opacity:0.99607843;stroke:none"
       id="rect6157"
       y="264.81049"
       x="78.163284"
       rx="6.012929"
       height="195.63506"
       width="368.08298" />
    <text
       sodipodi:linespacing="125%"
       id="text3240"
       y="326.75098"
       x="111.89822"
       style="font-size:32px;font-style:normal;font-variant:normal;font-weight:bold;font-stretch:normal;line-height:125%;letter-spacing:0px;word-spacing:0px;fill:#000000;fill-opacity:1;stroke:none;font-family:Overlock;-inkscape-font-specification:Overlock Bold"
       xml:space="preserve"><tspan
         style="font-size:34px;font-style:normal;font-variant:normal;font-weight:bold;font-stretch:normal;fill:#29ace2;fill-opacity:1;font-family:Overlock;-inkscape-font-specification:Overlock Bold"
         y="326.75098"
         x="111.89822"
         id="tspan3242"
         sodipodi:role="line">Vuoi far parlare di te?</tspan></text>
    <text
       sodipodi:linespacing="125%"
       id="text3244"
       y="397.50784"
       x="203.02116"
       style="font-size:23.99999809px;font-style:normal;font-variant:normal;font-weight:normal;font-stretch:normal;line-height:125%;letter-spacing:0px;word-spacing:0px;fill:#ffffff;fill-opacity:1;stroke:none;font-family:Overlock;-inkscape-font-specification:Overlock"
       xml:space="preserve"><tspan
         y="397.50784"
         x="203.02116"
         id="tspan3246"
         sodipodi:role="line">Volta pagina</tspan></text>
    <text
       sodipodi:linespacing="125%"
       id="text3248"
       y="419.4754"
       x="213.64478"
       style="font-size:16px;font-style:normal;font-variant:normal;font-weight:normal;font-stretch:normal;line-height:125%;letter-spacing:0px;word-spacing:0px;fill:#ffffff;fill-opacity:1;stroke:none;font-family:Overlock;-inkscape-font-specification:Overlock"
       xml:space="preserve"><tspan
         y="419.4754"
         x="213.64478"
         id="tspan3250"
         sodipodi:role="line">(in tutti i sensi)</tspan></text>
  </g>
</svg>
